G04 #@! TF.GenerationSoftware,KiCad,Pcbnew,(5.1.9)-1*
G04 #@! TF.CreationDate,2021-02-18T20:03:26+01:00*
G04 #@! TF.ProjectId,SNModule,534e4d6f-6475-46c6-952e-6b696361645f,rev?*
G04 #@! TF.SameCoordinates,Original*
G04 #@! TF.FileFunction,Soldermask,Bot*
G04 #@! TF.FilePolarity,Negative*
%FSLAX46Y46*%
G04 Gerber Fmt 4.6, Leading zero omitted, Abs format (unit mm)*
G04 Created by KiCad (PCBNEW (5.1.9)-1) date 2021-02-18 20:03:26*
%MOMM*%
%LPD*%
G01*
G04 APERTURE LIST*
%ADD10C,8.700000*%
%ADD11C,1.000000*%
%ADD12C,4.900000*%
%ADD13C,1.500000*%
%ADD14C,1.600000*%
%ADD15C,2.100000*%
%ADD16O,2.500000X1.700000*%
%ADD17C,1.620000*%
%ADD18C,1.700000*%
%ADD19C,5.052000*%
%ADD20C,1.900000*%
%ADD21O,1.800000X1.800000*%
%ADD22O,1.700000X1.700000*%
%ADD23O,2.600000X1.600000*%
G04 APERTURE END LIST*
D10*
G04 #@! TO.C,H6*
X97800000Y-157700000D03*
D11*
X101025000Y-157700000D03*
X100080419Y-159980419D03*
X97800000Y-160925000D03*
X95519581Y-159980419D03*
X94575000Y-157700000D03*
X95519581Y-155419581D03*
X97800000Y-154475000D03*
X100080419Y-155419581D03*
G04 #@! TD*
D10*
G04 #@! TO.C,H5*
X33800000Y-157600000D03*
D11*
X37025000Y-157600000D03*
X36080419Y-159880419D03*
X33800000Y-160825000D03*
X31519581Y-159880419D03*
X30575000Y-157600000D03*
X31519581Y-155319581D03*
X33800000Y-154375000D03*
X36080419Y-155319581D03*
G04 #@! TD*
D12*
G04 #@! TO.C,J2*
X53405000Y-136420000D03*
X78395000Y-136420000D03*
D13*
X61790000Y-137840000D03*
X64530000Y-137840000D03*
X67270000Y-137840000D03*
X70010000Y-137840000D03*
X60420000Y-135000000D03*
X63160000Y-135000000D03*
X65900000Y-135000000D03*
X68640000Y-135000000D03*
X71380000Y-135000000D03*
G04 #@! TD*
D14*
G04 #@! TO.C,J6*
X40980000Y-183540000D03*
X35900000Y-183540000D03*
X40980000Y-181000000D03*
X35900000Y-181000000D03*
G04 #@! TD*
D12*
G04 #@! TO.C,J3*
X53405000Y-162580000D03*
X78395000Y-162580000D03*
D13*
X61790000Y-161160000D03*
X64530000Y-161160000D03*
X67270000Y-161160000D03*
X70010000Y-161160000D03*
X60420000Y-164000000D03*
X63160000Y-164000000D03*
X65900000Y-164000000D03*
X68640000Y-164000000D03*
X71380000Y-164000000D03*
G04 #@! TD*
D14*
G04 #@! TO.C,J17*
X91400000Y-171700000D03*
X96480000Y-171700000D03*
X91400000Y-174240000D03*
X96480000Y-174240000D03*
G04 #@! TD*
G04 #@! TO.C,J10*
X91400000Y-164600000D03*
X96480000Y-164600000D03*
X91400000Y-167140000D03*
X96480000Y-167140000D03*
G04 #@! TD*
G04 #@! TO.C,J9*
X91400000Y-178600000D03*
X96480000Y-178600000D03*
X91400000Y-181140000D03*
X96480000Y-181140000D03*
G04 #@! TD*
G04 #@! TO.C,J8*
X71700000Y-174400000D03*
X71700000Y-179480000D03*
X69160000Y-174400000D03*
X69160000Y-179480000D03*
G04 #@! TD*
G04 #@! TO.C,J7*
X63200000Y-174500000D03*
X63200000Y-179580000D03*
X60660000Y-174500000D03*
X60660000Y-179580000D03*
G04 #@! TD*
G04 #@! TO.C,J5*
X40980000Y-176540000D03*
X35900000Y-176540000D03*
X40980000Y-174000000D03*
X35900000Y-174000000D03*
G04 #@! TD*
G04 #@! TO.C,J4*
X40980000Y-169540000D03*
X35900000Y-169540000D03*
X40980000Y-167000000D03*
X35900000Y-167000000D03*
G04 #@! TD*
G04 #@! TO.C,BZ1*
G36*
G01*
X69210000Y-122082000D02*
X67210000Y-122082000D01*
G75*
G02*
X67160000Y-122032000I0J50000D01*
G01*
X67160000Y-120032000D01*
G75*
G02*
X67210000Y-119982000I50000J0D01*
G01*
X69210000Y-119982000D01*
G75*
G02*
X69260000Y-120032000I0J-50000D01*
G01*
X69260000Y-122032000D01*
G75*
G02*
X69210000Y-122082000I-50000J0D01*
G01*
G37*
D15*
X68200000Y-116032000D03*
G04 #@! TD*
D12*
G04 #@! TO.C,J15*
X39929500Y-87436000D03*
X39929500Y-112426000D03*
D13*
X38509500Y-95821000D03*
X38509500Y-98561000D03*
X38509500Y-101301000D03*
X38509500Y-104041000D03*
X41349500Y-94451000D03*
X41349500Y-97191000D03*
X41349500Y-99931000D03*
X41349500Y-102671000D03*
X41349500Y-105411000D03*
G04 #@! TD*
D15*
G04 #@! TO.C,SW3*
X93356000Y-93092000D03*
X97856000Y-93092000D03*
X93356000Y-99592000D03*
X97856000Y-99592000D03*
G04 #@! TD*
D14*
G04 #@! TO.C,J16*
X42302000Y-65660000D03*
X37222000Y-65660000D03*
X42302000Y-63120000D03*
X37222000Y-63120000D03*
G04 #@! TD*
G04 #@! TO.C,U8*
G36*
G01*
X44060000Y-71210000D02*
X44060000Y-72810000D01*
G75*
G02*
X44010000Y-72860000I-50000J0D01*
G01*
X41610000Y-72860000D01*
G75*
G02*
X41560000Y-72810000I0J50000D01*
G01*
X41560000Y-71210000D01*
G75*
G02*
X41610000Y-71160000I50000J0D01*
G01*
X44010000Y-71160000D01*
G75*
G02*
X44060000Y-71210000I0J-50000D01*
G01*
G37*
D16*
X35190000Y-69470000D03*
X42810000Y-69470000D03*
X35190000Y-72010000D03*
G04 #@! TD*
D17*
G04 #@! TO.C,Q1*
X66203400Y-110110000D03*
X63663400Y-110110000D03*
G36*
G01*
X67983400Y-109300000D02*
X69503400Y-109300000D01*
G75*
G02*
X69553400Y-109350000I0J-50000D01*
G01*
X69553400Y-110870000D01*
G75*
G02*
X69503400Y-110920000I-50000J0D01*
G01*
X67983400Y-110920000D01*
G75*
G02*
X67933400Y-110870000I0J50000D01*
G01*
X67933400Y-109350000D01*
G75*
G02*
X67983400Y-109300000I50000J0D01*
G01*
G37*
G04 #@! TD*
D18*
G04 #@! TO.C,U1*
X66686000Y-71756000D03*
X66686000Y-74296000D03*
X66686000Y-76836000D03*
X66686000Y-79376000D03*
X66686000Y-81916000D03*
X66686000Y-84456000D03*
X66686000Y-86996000D03*
X66686000Y-89536000D03*
X66686000Y-92076000D03*
X66686000Y-94616000D03*
X66686000Y-97156000D03*
X66686000Y-99696000D03*
X66686000Y-102236000D03*
X79386000Y-74296000D03*
X81926000Y-71756000D03*
X81926000Y-74296000D03*
X81926000Y-76836000D03*
X81926000Y-79376000D03*
X81926000Y-81916000D03*
X81926000Y-84456000D03*
X81926000Y-86996000D03*
X81926000Y-89536000D03*
X81926000Y-92076000D03*
X81926000Y-94616000D03*
X81926000Y-97156000D03*
X81926000Y-99696000D03*
X81926000Y-102236000D03*
X66686000Y-104776000D03*
X69226000Y-104776000D03*
X71766000Y-104776000D03*
X81926000Y-104776000D03*
X79386000Y-104776000D03*
X76846000Y-104776000D03*
X74306000Y-104776000D03*
G04 #@! TD*
D19*
G04 #@! TO.C,U7*
X99440000Y-71876000D03*
X90240000Y-71876000D03*
D20*
X97340000Y-64876000D03*
X92340000Y-64876000D03*
X94840000Y-79376000D03*
X97340000Y-79376000D03*
X92340000Y-79376000D03*
G04 #@! TD*
G04 #@! TO.C,J11*
G36*
G01*
X90396000Y-61226000D02*
X88696000Y-61226000D01*
G75*
G02*
X88646000Y-61176000I0J50000D01*
G01*
X88646000Y-59476000D01*
G75*
G02*
X88696000Y-59426000I50000J0D01*
G01*
X90396000Y-59426000D01*
G75*
G02*
X90446000Y-59476000I0J-50000D01*
G01*
X90446000Y-61176000D01*
G75*
G02*
X90396000Y-61226000I-50000J0D01*
G01*
G37*
D21*
X92086000Y-60326000D03*
X94626000Y-60326000D03*
X97166000Y-60326000D03*
G04 #@! TD*
D12*
G04 #@! TO.C,J1*
X44393000Y-34776000D03*
X69383000Y-34776000D03*
D13*
X52778000Y-33356000D03*
X55518000Y-33356000D03*
X58258000Y-33356000D03*
X60998000Y-33356000D03*
X51408000Y-36196000D03*
X54148000Y-36196000D03*
X56888000Y-36196000D03*
X59628000Y-36196000D03*
X62368000Y-36196000D03*
G04 #@! TD*
G04 #@! TO.C,JP1*
G36*
G01*
X66356000Y-131024000D02*
X68056000Y-131024000D01*
G75*
G02*
X68106000Y-131074000I0J-50000D01*
G01*
X68106000Y-132774000D01*
G75*
G02*
X68056000Y-132824000I-50000J0D01*
G01*
X66356000Y-132824000D01*
G75*
G02*
X66306000Y-132774000I0J50000D01*
G01*
X66306000Y-131074000D01*
G75*
G02*
X66356000Y-131024000I50000J0D01*
G01*
G37*
D21*
X64666000Y-131924000D03*
G04 #@! TD*
G04 #@! TO.C,U3*
G36*
G01*
X58140000Y-118650000D02*
X59740000Y-118650000D01*
G75*
G02*
X59790000Y-118700000I0J-50000D01*
G01*
X59790000Y-120300000D01*
G75*
G02*
X59740000Y-120350000I-50000J0D01*
G01*
X58140000Y-120350000D01*
G75*
G02*
X58090000Y-120300000I0J50000D01*
G01*
X58090000Y-118700000D01*
G75*
G02*
X58140000Y-118650000I50000J0D01*
G01*
G37*
D22*
X51320000Y-127120000D03*
X56400000Y-119500000D03*
X53860000Y-127120000D03*
X53860000Y-119500000D03*
X56400000Y-127120000D03*
X51320000Y-119500000D03*
X58940000Y-127120000D03*
G04 #@! TD*
G04 #@! TO.C,U2*
G36*
G01*
X50976000Y-63462000D02*
X49376000Y-63462000D01*
G75*
G02*
X49326000Y-63412000I0J50000D01*
G01*
X49326000Y-61812000D01*
G75*
G02*
X49376000Y-61762000I50000J0D01*
G01*
X50976000Y-61762000D01*
G75*
G02*
X51026000Y-61812000I0J-50000D01*
G01*
X51026000Y-63412000D01*
G75*
G02*
X50976000Y-63462000I-50000J0D01*
G01*
G37*
X57796000Y-54992000D03*
X52716000Y-62612000D03*
X55256000Y-54992000D03*
X55256000Y-62612000D03*
X52716000Y-54992000D03*
X57796000Y-62612000D03*
X50176000Y-54992000D03*
G04 #@! TD*
G04 #@! TO.C,U6*
G36*
G01*
X86853920Y-54534700D02*
X84353920Y-54534700D01*
G75*
G02*
X84303920Y-54484700I0J50000D01*
G01*
X84303920Y-52984700D01*
G75*
G02*
X84353920Y-52934700I50000J0D01*
G01*
X86853920Y-52934700D01*
G75*
G02*
X86903920Y-52984700I0J-50000D01*
G01*
X86903920Y-54484700D01*
G75*
G02*
X86853920Y-54534700I-50000J0D01*
G01*
G37*
D23*
X85603920Y-51194700D03*
X85603920Y-48654700D03*
G04 #@! TD*
G04 #@! TO.C,U5*
G36*
G01*
X51358000Y-91860000D02*
X51358000Y-90260000D01*
G75*
G02*
X51408000Y-90210000I50000J0D01*
G01*
X53008000Y-90210000D01*
G75*
G02*
X53058000Y-90260000I0J-50000D01*
G01*
X53058000Y-91860000D01*
G75*
G02*
X53008000Y-91910000I-50000J0D01*
G01*
X51408000Y-91910000D01*
G75*
G02*
X51358000Y-91860000I0J50000D01*
G01*
G37*
D22*
X59828000Y-108840000D03*
X52208000Y-93600000D03*
X59828000Y-106300000D03*
X52208000Y-96140000D03*
X59828000Y-103760000D03*
X52208000Y-98680000D03*
X59828000Y-101220000D03*
X52208000Y-101220000D03*
X59828000Y-98680000D03*
X52208000Y-103760000D03*
X59828000Y-96140000D03*
X52208000Y-106300000D03*
X59828000Y-93600000D03*
X52208000Y-108840000D03*
X59828000Y-91060000D03*
G04 #@! TD*
D15*
G04 #@! TO.C,SW2*
X93428000Y-103506000D03*
X97928000Y-103506000D03*
X93428000Y-110006000D03*
X97928000Y-110006000D03*
G04 #@! TD*
G04 #@! TO.C,J14*
G36*
G01*
X50822000Y-83606000D02*
X50822000Y-85306000D01*
G75*
G02*
X50772000Y-85356000I-50000J0D01*
G01*
X49072000Y-85356000D01*
G75*
G02*
X49022000Y-85306000I0J50000D01*
G01*
X49022000Y-83606000D01*
G75*
G02*
X49072000Y-83556000I50000J0D01*
G01*
X50772000Y-83556000D01*
G75*
G02*
X50822000Y-83606000I0J-50000D01*
G01*
G37*
D21*
X49922000Y-81916000D03*
G04 #@! TD*
G04 #@! TO.C,J13*
G36*
G01*
X64775080Y-56868160D02*
X64775080Y-55168160D01*
G75*
G02*
X64825080Y-55118160I50000J0D01*
G01*
X66525080Y-55118160D01*
G75*
G02*
X66575080Y-55168160I0J-50000D01*
G01*
X66575080Y-56868160D01*
G75*
G02*
X66525080Y-56918160I-50000J0D01*
G01*
X64825080Y-56918160D01*
G75*
G02*
X64775080Y-56868160I0J50000D01*
G01*
G37*
X65675080Y-58558160D03*
X65675080Y-61098160D03*
X65675080Y-63638160D03*
G04 #@! TD*
G04 #@! TO.C,J12*
G36*
G01*
X49022000Y-70878800D02*
X49022000Y-69178800D01*
G75*
G02*
X49072000Y-69128800I50000J0D01*
G01*
X50772000Y-69128800D01*
G75*
G02*
X50822000Y-69178800I0J-50000D01*
G01*
X50822000Y-70878800D01*
G75*
G02*
X50772000Y-70928800I-50000J0D01*
G01*
X49072000Y-70928800D01*
G75*
G02*
X49022000Y-70878800I0J50000D01*
G01*
G37*
X49922000Y-72568800D03*
X49922000Y-75108800D03*
X49922000Y-77648800D03*
G04 #@! TD*
G04 #@! TO.C,D4*
G36*
G01*
X92152000Y-134886000D02*
X92152000Y-133086000D01*
G75*
G02*
X92202000Y-133036000I50000J0D01*
G01*
X94002000Y-133036000D01*
G75*
G02*
X94052000Y-133086000I0J-50000D01*
G01*
X94052000Y-134886000D01*
G75*
G02*
X94002000Y-134936000I-50000J0D01*
G01*
X92202000Y-134936000D01*
G75*
G02*
X92152000Y-134886000I0J50000D01*
G01*
G37*
D20*
X95642000Y-133986000D03*
G04 #@! TD*
G04 #@! TO.C,D3*
G36*
G01*
X92152000Y-125996000D02*
X92152000Y-124196000D01*
G75*
G02*
X92202000Y-124146000I50000J0D01*
G01*
X94002000Y-124146000D01*
G75*
G02*
X94052000Y-124196000I0J-50000D01*
G01*
X94052000Y-125996000D01*
G75*
G02*
X94002000Y-126046000I-50000J0D01*
G01*
X92202000Y-126046000D01*
G75*
G02*
X92152000Y-125996000I0J50000D01*
G01*
G37*
X95642000Y-125096000D03*
G04 #@! TD*
G04 #@! TO.C,D2*
G36*
G01*
X92152000Y-117360000D02*
X92152000Y-115560000D01*
G75*
G02*
X92202000Y-115510000I50000J0D01*
G01*
X94002000Y-115510000D01*
G75*
G02*
X94052000Y-115560000I0J-50000D01*
G01*
X94052000Y-117360000D01*
G75*
G02*
X94002000Y-117410000I-50000J0D01*
G01*
X92202000Y-117410000D01*
G75*
G02*
X92152000Y-117360000I0J50000D01*
G01*
G37*
X95642000Y-116460000D03*
G04 #@! TD*
D10*
G04 #@! TO.C,H1*
X97800000Y-46100000D03*
D11*
X101025000Y-46100000D03*
X100080419Y-48380419D03*
X97800000Y-49325000D03*
X95519581Y-48380419D03*
X94575000Y-46100000D03*
X95519581Y-43819581D03*
X97800000Y-42875000D03*
X100080419Y-43819581D03*
G04 #@! TD*
D10*
G04 #@! TO.C,H2*
X33800000Y-46100000D03*
D11*
X37025000Y-46100000D03*
X36080419Y-48380419D03*
X33800000Y-49325000D03*
X31519581Y-48380419D03*
X30575000Y-46100000D03*
X31519581Y-43819581D03*
X33800000Y-42875000D03*
X36080419Y-43819581D03*
G04 #@! TD*
D10*
G04 #@! TO.C,H3*
X33800000Y-142000000D03*
D11*
X37025000Y-142000000D03*
X36080419Y-144280419D03*
X33800000Y-145225000D03*
X31519581Y-144280419D03*
X30575000Y-142000000D03*
X31519581Y-139719581D03*
X33800000Y-138775000D03*
X36080419Y-139719581D03*
G04 #@! TD*
D10*
G04 #@! TO.C,H4*
X97800000Y-142000000D03*
D11*
X101025000Y-142000000D03*
X100080419Y-144280419D03*
X97800000Y-145225000D03*
X95519581Y-144280419D03*
X94575000Y-142000000D03*
X95519581Y-139719581D03*
X97800000Y-138775000D03*
X100080419Y-139719581D03*
G04 #@! TD*
M02*
