G04 #@! TF.GenerationSoftware,KiCad,Pcbnew,(5.1.9)-1*
G04 #@! TF.CreationDate,2021-02-18T20:03:26+01:00*
G04 #@! TF.ProjectId,SNModule,534e4d6f-6475-46c6-952e-6b696361645f,rev?*
G04 #@! TF.SameCoordinates,Original*
G04 #@! TF.FileFunction,Copper,L1,Top*
G04 #@! TF.FilePolarity,Positive*
%FSLAX46Y46*%
G04 Gerber Fmt 4.6, Leading zero omitted, Abs format (unit mm)*
G04 Created by KiCad (PCBNEW (5.1.9)-1) date 2021-02-18 20:03:26*
%MOMM*%
%LPD*%
G01*
G04 APERTURE LIST*
G04 #@! TA.AperFunction,ComponentPad*
%ADD10C,8.600000*%
G04 #@! TD*
G04 #@! TA.AperFunction,ComponentPad*
%ADD11C,0.900000*%
G04 #@! TD*
G04 #@! TA.AperFunction,SMDPad,CuDef*
%ADD12R,1.250000X0.600000*%
G04 #@! TD*
G04 #@! TA.AperFunction,SMDPad,CuDef*
%ADD13R,0.600000X1.250000*%
G04 #@! TD*
G04 #@! TA.AperFunction,ComponentPad*
%ADD14C,4.800000*%
G04 #@! TD*
G04 #@! TA.AperFunction,ComponentPad*
%ADD15C,1.400000*%
G04 #@! TD*
G04 #@! TA.AperFunction,ComponentPad*
%ADD16C,1.500000*%
G04 #@! TD*
G04 #@! TA.AperFunction,ComponentPad*
%ADD17R,2.000000X2.000000*%
G04 #@! TD*
G04 #@! TA.AperFunction,ComponentPad*
%ADD18C,2.000000*%
G04 #@! TD*
G04 #@! TA.AperFunction,ComponentPad*
%ADD19R,2.400000X1.600000*%
G04 #@! TD*
G04 #@! TA.AperFunction,ComponentPad*
%ADD20O,2.400000X1.600000*%
G04 #@! TD*
G04 #@! TA.AperFunction,SMDPad,CuDef*
%ADD21R,2.000000X1.700000*%
G04 #@! TD*
G04 #@! TA.AperFunction,SMDPad,CuDef*
%ADD22R,1.700000X2.000000*%
G04 #@! TD*
G04 #@! TA.AperFunction,ComponentPad*
%ADD23C,1.520000*%
G04 #@! TD*
G04 #@! TA.AperFunction,ComponentPad*
%ADD24R,1.520000X1.520000*%
G04 #@! TD*
G04 #@! TA.AperFunction,SMDPad,CuDef*
%ADD25R,1.600000X3.500000*%
G04 #@! TD*
G04 #@! TA.AperFunction,ComponentPad*
%ADD26C,1.600000*%
G04 #@! TD*
G04 #@! TA.AperFunction,SMDPad,CuDef*
%ADD27C,0.500000*%
G04 #@! TD*
G04 #@! TA.AperFunction,ComponentPad*
%ADD28C,4.952000*%
G04 #@! TD*
G04 #@! TA.AperFunction,ComponentPad*
%ADD29C,1.800000*%
G04 #@! TD*
G04 #@! TA.AperFunction,ComponentPad*
%ADD30R,1.700000X1.700000*%
G04 #@! TD*
G04 #@! TA.AperFunction,ComponentPad*
%ADD31O,1.700000X1.700000*%
G04 #@! TD*
G04 #@! TA.AperFunction,SMDPad,CuDef*
%ADD32R,2.150000X5.500000*%
G04 #@! TD*
G04 #@! TA.AperFunction,SMDPad,CuDef*
%ADD33R,1.550000X0.600000*%
G04 #@! TD*
G04 #@! TA.AperFunction,ComponentPad*
%ADD34R,1.600000X1.600000*%
G04 #@! TD*
G04 #@! TA.AperFunction,ComponentPad*
%ADD35O,1.600000X1.600000*%
G04 #@! TD*
G04 #@! TA.AperFunction,ComponentPad*
%ADD36R,2.500000X1.500000*%
G04 #@! TD*
G04 #@! TA.AperFunction,ComponentPad*
%ADD37O,2.500000X1.500000*%
G04 #@! TD*
G04 #@! TA.AperFunction,SMDPad,CuDef*
%ADD38R,2.030000X2.650000*%
G04 #@! TD*
G04 #@! TA.AperFunction,ComponentPad*
%ADD39R,1.800000X1.800000*%
G04 #@! TD*
G04 #@! TA.AperFunction,SMDPad,CuDef*
%ADD40R,1.600000X2.000000*%
G04 #@! TD*
G04 #@! TA.AperFunction,SMDPad,CuDef*
%ADD41R,1.600000X1.000000*%
G04 #@! TD*
G04 #@! TA.AperFunction,SMDPad,CuDef*
%ADD42R,2.000000X3.000000*%
G04 #@! TD*
G04 #@! TA.AperFunction,SMDPad,CuDef*
%ADD43R,3.500000X1.600000*%
G04 #@! TD*
G04 #@! TA.AperFunction,SMDPad,CuDef*
%ADD44R,2.000000X1.600000*%
G04 #@! TD*
G04 #@! TA.AperFunction,ViaPad*
%ADD45C,1.100000*%
G04 #@! TD*
G04 #@! TA.AperFunction,ViaPad*
%ADD46C,0.800000*%
G04 #@! TD*
G04 #@! TA.AperFunction,Conductor*
%ADD47C,1.000000*%
G04 #@! TD*
G04 #@! TA.AperFunction,Conductor*
%ADD48C,0.500000*%
G04 #@! TD*
G04 #@! TA.AperFunction,Conductor*
%ADD49C,0.250000*%
G04 #@! TD*
G04 #@! TA.AperFunction,Conductor*
%ADD50C,0.200000*%
G04 #@! TD*
G04 APERTURE END LIST*
D10*
G04 #@! TO.P,H6,1*
G04 #@! TO.N,GND*
X97800000Y-157700000D03*
D11*
X101025000Y-157700000D03*
X100080419Y-159980419D03*
X97800000Y-160925000D03*
X95519581Y-159980419D03*
X94575000Y-157700000D03*
X95519581Y-155419581D03*
X97800000Y-154475000D03*
X100080419Y-155419581D03*
G04 #@! TD*
D10*
G04 #@! TO.P,H5,1*
G04 #@! TO.N,GND*
X33800000Y-157600000D03*
D11*
X37025000Y-157600000D03*
X36080419Y-159880419D03*
X33800000Y-160825000D03*
X31519581Y-159880419D03*
X30575000Y-157600000D03*
X31519581Y-155319581D03*
X33800000Y-154375000D03*
X36080419Y-155319581D03*
G04 #@! TD*
D12*
G04 #@! TO.P,D7,3*
G04 #@! TO.N,GND*
X58700000Y-131400000D03*
G04 #@! TO.P,D7,2*
G04 #@! TO.N,/Mod_CAN_P*
X60700000Y-130450000D03*
G04 #@! TO.P,D7,1*
G04 #@! TO.N,/Mod_CAN_N*
X60700000Y-132350000D03*
G04 #@! TD*
D13*
G04 #@! TO.P,D6,3*
G04 #@! TO.N,GND*
X58875500Y-38926500D03*
G04 #@! TO.P,D6,2*
G04 #@! TO.N,/SN_CAN_N*
X59825500Y-40926500D03*
G04 #@! TO.P,D6,1*
G04 #@! TO.N,/SN_CAN_P*
X57925500Y-40926500D03*
G04 #@! TD*
D14*
G04 #@! TO.P,J2,0*
G04 #@! TO.N,GND*
X53405000Y-136420000D03*
X78395000Y-136420000D03*
D15*
G04 #@! TO.P,J2,9*
G04 #@! TO.N,Net-(C5-Pad1)*
X61790000Y-137840000D03*
G04 #@! TO.P,J2,8*
G04 #@! TO.N,Net-(J2-Pad8)*
X64530000Y-137840000D03*
G04 #@! TO.P,J2,7*
G04 #@! TO.N,/Mod_CAN_P*
X67270000Y-137840000D03*
G04 #@! TO.P,J2,6*
G04 #@! TO.N,GND*
X70010000Y-137840000D03*
G04 #@! TO.P,J2,5*
G04 #@! TO.N,Net-(J2-Pad5)*
X60420000Y-135000000D03*
G04 #@! TO.P,J2,4*
G04 #@! TO.N,Net-(J2-Pad4)*
X63160000Y-135000000D03*
G04 #@! TO.P,J2,3*
G04 #@! TO.N,GND*
X65900000Y-135000000D03*
G04 #@! TO.P,J2,2*
G04 #@! TO.N,/Mod_CAN_N*
X68640000Y-135000000D03*
G04 #@! TO.P,J2,1*
G04 #@! TO.N,Net-(J2-Pad1)*
X71380000Y-135000000D03*
G04 #@! TD*
D16*
G04 #@! TO.P,J6,4*
G04 #@! TO.N,Net-(J3-Pad8)*
X40980000Y-183540000D03*
G04 #@! TO.P,J6,3*
X35900000Y-183540000D03*
G04 #@! TO.P,J6,2*
G04 #@! TO.N,GND*
X40980000Y-181000000D03*
G04 #@! TO.P,J6,1*
X35900000Y-181000000D03*
G04 #@! TD*
D14*
G04 #@! TO.P,J3,0*
G04 #@! TO.N,GND*
X53405000Y-162580000D03*
X78395000Y-162580000D03*
D15*
G04 #@! TO.P,J3,9*
G04 #@! TO.N,Net-(J3-Pad9)*
X61790000Y-161160000D03*
G04 #@! TO.P,J3,8*
G04 #@! TO.N,Net-(J3-Pad8)*
X64530000Y-161160000D03*
G04 #@! TO.P,J3,7*
G04 #@! TO.N,Net-(J3-Pad7)*
X67270000Y-161160000D03*
G04 #@! TO.P,J3,6*
G04 #@! TO.N,Net-(J10-Pad3)*
X70010000Y-161160000D03*
G04 #@! TO.P,J3,5*
G04 #@! TO.N,GND*
X60420000Y-164000000D03*
G04 #@! TO.P,J3,4*
G04 #@! TO.N,Net-(J3-Pad4)*
X63160000Y-164000000D03*
G04 #@! TO.P,J3,3*
G04 #@! TO.N,Net-(J3-Pad3)*
X65900000Y-164000000D03*
G04 #@! TO.P,J3,2*
G04 #@! TO.N,Net-(J3-Pad2)*
X68640000Y-164000000D03*
G04 #@! TO.P,J3,1*
G04 #@! TO.N,Net-(J17-Pad3)*
X71380000Y-164000000D03*
G04 #@! TD*
D16*
G04 #@! TO.P,J17,4*
G04 #@! TO.N,Net-(J17-Pad3)*
X91400000Y-171700000D03*
G04 #@! TO.P,J17,3*
X96480000Y-171700000D03*
G04 #@! TO.P,J17,2*
G04 #@! TO.N,GND*
X91400000Y-174240000D03*
G04 #@! TO.P,J17,1*
X96480000Y-174240000D03*
G04 #@! TD*
G04 #@! TO.P,J10,4*
G04 #@! TO.N,Net-(J10-Pad3)*
X91400000Y-164600000D03*
G04 #@! TO.P,J10,3*
X96480000Y-164600000D03*
G04 #@! TO.P,J10,2*
G04 #@! TO.N,GND*
X91400000Y-167140000D03*
G04 #@! TO.P,J10,1*
X96480000Y-167140000D03*
G04 #@! TD*
G04 #@! TO.P,J9,4*
G04 #@! TO.N,Net-(J3-Pad2)*
X91400000Y-178600000D03*
G04 #@! TO.P,J9,3*
X96480000Y-178600000D03*
G04 #@! TO.P,J9,2*
G04 #@! TO.N,GND*
X91400000Y-181140000D03*
G04 #@! TO.P,J9,1*
X96480000Y-181140000D03*
G04 #@! TD*
G04 #@! TO.P,J8,4*
G04 #@! TO.N,Net-(J3-Pad7)*
X71700000Y-174400000D03*
G04 #@! TO.P,J8,3*
X71700000Y-179480000D03*
G04 #@! TO.P,J8,2*
G04 #@! TO.N,GND*
X69160000Y-174400000D03*
G04 #@! TO.P,J8,1*
X69160000Y-179480000D03*
G04 #@! TD*
G04 #@! TO.P,J7,4*
G04 #@! TO.N,Net-(J3-Pad3)*
X63200000Y-174500000D03*
G04 #@! TO.P,J7,3*
X63200000Y-179580000D03*
G04 #@! TO.P,J7,2*
G04 #@! TO.N,GND*
X60660000Y-174500000D03*
G04 #@! TO.P,J7,1*
X60660000Y-179580000D03*
G04 #@! TD*
G04 #@! TO.P,J5,4*
G04 #@! TO.N,Net-(J3-Pad4)*
X40980000Y-176540000D03*
G04 #@! TO.P,J5,3*
X35900000Y-176540000D03*
G04 #@! TO.P,J5,2*
G04 #@! TO.N,GND*
X40980000Y-174000000D03*
G04 #@! TO.P,J5,1*
X35900000Y-174000000D03*
G04 #@! TD*
G04 #@! TO.P,J4,4*
G04 #@! TO.N,Net-(J3-Pad9)*
X40980000Y-169540000D03*
G04 #@! TO.P,J4,3*
X35900000Y-169540000D03*
G04 #@! TO.P,J4,2*
G04 #@! TO.N,GND*
X40980000Y-167000000D03*
G04 #@! TO.P,J4,1*
X35900000Y-167000000D03*
G04 #@! TD*
D17*
G04 #@! TO.P,BZ1,1*
G04 #@! TO.N,+3V3*
X68210000Y-121032000D03*
D18*
G04 #@! TO.P,BZ1,2*
G04 #@! TO.N,Net-(BZ1-Pad2)*
X68200000Y-116032000D03*
G04 #@! TD*
D14*
G04 #@! TO.P,J15,0*
G04 #@! TO.N,GND*
X39929500Y-87436000D03*
X39929500Y-112426000D03*
D15*
G04 #@! TO.P,J15,9*
G04 #@! TO.N,Net-(J15-Pad9)*
X38509500Y-95821000D03*
G04 #@! TO.P,J15,8*
G04 #@! TO.N,Net-(J15-Pad8)*
X38509500Y-98561000D03*
G04 #@! TO.P,J15,7*
G04 #@! TO.N,Net-(J15-Pad7)*
X38509500Y-101301000D03*
G04 #@! TO.P,J15,6*
G04 #@! TO.N,Net-(J15-Pad6)*
X38509500Y-104041000D03*
G04 #@! TO.P,J15,5*
G04 #@! TO.N,GND*
X41349500Y-94451000D03*
G04 #@! TO.P,J15,4*
G04 #@! TO.N,Net-(J15-Pad4)*
X41349500Y-97191000D03*
G04 #@! TO.P,J15,3*
G04 #@! TO.N,Net-(J15-Pad3)*
X41349500Y-99931000D03*
G04 #@! TO.P,J15,2*
G04 #@! TO.N,Net-(J15-Pad2)*
X41349500Y-102671000D03*
G04 #@! TO.P,J15,1*
G04 #@! TO.N,Net-(J15-Pad1)*
X41349500Y-105411000D03*
G04 #@! TD*
D18*
G04 #@! TO.P,SW3,2*
G04 #@! TO.N,BUTTON2*
X93356000Y-93092000D03*
G04 #@! TO.P,SW3,1*
G04 #@! TO.N,GND*
X97856000Y-93092000D03*
G04 #@! TO.P,SW3,2*
G04 #@! TO.N,BUTTON2*
X93356000Y-99592000D03*
G04 #@! TO.P,SW3,1*
G04 #@! TO.N,GND*
X97856000Y-99592000D03*
G04 #@! TD*
D16*
G04 #@! TO.P,J16,4*
G04 #@! TO.N,Net-(J16-Pad3)*
X42302000Y-65660000D03*
G04 #@! TO.P,J16,3*
X37222000Y-65660000D03*
G04 #@! TO.P,J16,2*
G04 #@! TO.N,Net-(J16-Pad1)*
X42302000Y-63120000D03*
G04 #@! TO.P,J16,1*
X37222000Y-63120000D03*
G04 #@! TD*
D19*
G04 #@! TO.P,U8,1*
G04 #@! TO.N,Net-(R23-Pad1)*
X42810000Y-72010000D03*
D20*
G04 #@! TO.P,U8,3*
G04 #@! TO.N,Net-(J16-Pad3)*
X35190000Y-69470000D03*
G04 #@! TO.P,U8,2*
G04 #@! TO.N,GND*
X42810000Y-69470000D03*
G04 #@! TO.P,U8,4*
G04 #@! TO.N,Net-(J16-Pad1)*
X35190000Y-72010000D03*
G04 #@! TD*
D21*
G04 #@! TO.P,R23,1*
G04 #@! TO.N,Net-(R23-Pad1)*
X42810000Y-75058000D03*
G04 #@! TO.P,R23,2*
G04 #@! TO.N,Opto1*
X46810000Y-75058000D03*
G04 #@! TD*
G04 #@! TO.P,R18,1*
G04 #@! TO.N,+3V3*
X77672000Y-127636000D03*
G04 #@! TO.P,R18,2*
G04 #@! TO.N,Net-(R16-Pad2)*
X81672000Y-127636000D03*
G04 #@! TD*
D22*
G04 #@! TO.P,R9,1*
G04 #@! TO.N,+3V3*
X41286000Y-121794000D03*
G04 #@! TO.P,R9,2*
G04 #@! TO.N,Net-(J15-Pad6)*
X41286000Y-117794000D03*
G04 #@! TD*
D23*
G04 #@! TO.P,Q1,2*
G04 #@! TO.N,Net-(Q1-Pad2)*
X66203400Y-110110000D03*
G04 #@! TO.P,Q1,3*
G04 #@! TO.N,GND*
X63663400Y-110110000D03*
D24*
G04 #@! TO.P,Q1,1*
G04 #@! TO.N,Net-(BZ1-Pad2)*
X68743400Y-110110000D03*
G04 #@! TD*
D25*
G04 #@! TO.P,C5,1*
G04 #@! TO.N,Net-(C5-Pad1)*
X38238000Y-134306000D03*
G04 #@! TO.P,C5,2*
G04 #@! TO.N,GND*
X38238000Y-128906000D03*
G04 #@! TD*
D26*
G04 #@! TO.P,U1,1*
G04 #@! TO.N,GND*
X66686000Y-71756000D03*
G04 #@! TO.P,U1,2*
G04 #@! TO.N,SN_CAN2_RX*
X66686000Y-74296000D03*
G04 #@! TO.P,U1,3*
G04 #@! TO.N,SN_CAN2_TX*
X66686000Y-76836000D03*
G04 #@! TO.P,U1,4*
G04 #@! TO.N,LED1*
X66686000Y-79376000D03*
G04 #@! TO.P,U1,5*
G04 #@! TO.N,LED2*
X66686000Y-81916000D03*
G04 #@! TO.P,U1,6*
G04 #@! TO.N,LED3*
X66686000Y-84456000D03*
G04 #@! TO.P,U1,7*
G04 #@! TO.N,Opto1*
X66686000Y-86996000D03*
G04 #@! TO.P,U1,8*
G04 #@! TO.N,RGBLED_DATAOUT*
X66686000Y-89536000D03*
G04 #@! TO.P,U1,9*
G04 #@! TO.N,SERIAL2_RX*
X66686000Y-92076000D03*
G04 #@! TO.P,U1,10*
G04 #@! TO.N,SERIAL2_TX*
X66686000Y-94616000D03*
G04 #@! TO.P,U1,11*
G04 #@! TO.N,BUZZER*
X66686000Y-97156000D03*
G04 #@! TO.P,U1,12*
G04 #@! TO.N,ADC_CS_SPI*
X66686000Y-99696000D03*
G04 #@! TO.P,U1,13*
G04 #@! TO.N,ADC_MOSI_SPI*
X66686000Y-102236000D03*
G04 #@! TO.P,U1,34*
G04 #@! TO.N,Net-(U1-Pad34)*
X79386000Y-74296000D03*
G04 #@! TO.P,U1,33*
G04 #@! TO.N,+5V*
X81926000Y-71756000D03*
G04 #@! TO.P,U1,32*
G04 #@! TO.N,GND*
X81926000Y-74296000D03*
G04 #@! TO.P,U1,31*
G04 #@! TO.N,+3V3*
X81926000Y-76836000D03*
G04 #@! TO.P,U1,30*
G04 #@! TO.N,Mod_CAN1_RX*
X81926000Y-79376000D03*
G04 #@! TO.P,U1,29*
G04 #@! TO.N,Mod_CAN1_TX*
X81926000Y-81916000D03*
G04 #@! TO.P,U1,28*
G04 #@! TO.N,ROTENC_SW*
X81926000Y-84456000D03*
G04 #@! TO.P,U1,27*
G04 #@! TO.N,Net-(U1-Pad27)*
X81926000Y-86996000D03*
G04 #@! TO.P,U1,26*
G04 #@! TO.N,FRAM_SCL*
X81926000Y-89536000D03*
G04 #@! TO.P,U1,25*
G04 #@! TO.N,FRAM_SDA*
X81926000Y-92076000D03*
G04 #@! TO.P,U1,24*
G04 #@! TO.N,ROTENC_A*
X81926000Y-94616000D03*
G04 #@! TO.P,U1,23*
G04 #@! TO.N,ROTENC_B*
X81926000Y-97156000D03*
G04 #@! TO.P,U1,22*
G04 #@! TO.N,BUTTON2*
X81926000Y-99696000D03*
G04 #@! TO.P,U1,21*
G04 #@! TO.N,BUTTON1*
X81926000Y-102236000D03*
G04 #@! TO.P,U1,14*
G04 #@! TO.N,ADC_MISO_SPI*
X66686000Y-104776000D03*
G04 #@! TO.P,U1,15*
G04 #@! TO.N,Net-(U1-Pad15)*
X69226000Y-104776000D03*
G04 #@! TO.P,U1,16*
G04 #@! TO.N,Net-(U1-Pad16)*
X71766000Y-104776000D03*
G04 #@! TO.P,U1,20*
G04 #@! TO.N,ADC_SCK_SPI*
X81926000Y-104776000D03*
G04 #@! TO.P,U1,19*
G04 #@! TO.N,Net-(U1-Pad19)*
X79386000Y-104776000D03*
G04 #@! TO.P,U1,18*
G04 #@! TO.N,Net-(U1-Pad18)*
X76846000Y-104776000D03*
G04 #@! TO.P,U1,17*
G04 #@! TO.N,Net-(U1-Pad17)*
X74306000Y-104776000D03*
G04 #@! TD*
D22*
G04 #@! TO.P,R20,1*
G04 #@! TO.N,Net-(Q1-Pad2)*
X71766000Y-101156000D03*
G04 #@! TO.P,R20,2*
G04 #@! TO.N,BUZZER*
X71766000Y-97156000D03*
G04 #@! TD*
D27*
G04 #@! TO.P,FID3,~*
G04 #@! TO.N,N/C*
X103900000Y-147000000D03*
G04 #@! TD*
G04 #@! TO.P,FID2,~*
G04 #@! TO.N,N/C*
X28840000Y-147000000D03*
G04 #@! TD*
G04 #@! TO.P,FID1,~*
G04 #@! TO.N,N/C*
X28840000Y-39752000D03*
G04 #@! TD*
D28*
G04 #@! TO.P,U7,MH2*
G04 #@! TO.N,Net-(U7-PadMH2)*
X99440000Y-71876000D03*
G04 #@! TO.P,U7,MH1*
G04 #@! TO.N,Net-(U7-PadMH1)*
X90240000Y-71876000D03*
D29*
G04 #@! TO.P,U7,E1*
G04 #@! TO.N,ROTENC_SW*
X97340000Y-64876000D03*
G04 #@! TO.P,U7,D1*
G04 #@! TO.N,GND*
X92340000Y-64876000D03*
G04 #@! TO.P,U7,C1*
X94840000Y-79376000D03*
G04 #@! TO.P,U7,B1*
G04 #@! TO.N,ROTENC_B*
X97340000Y-79376000D03*
G04 #@! TO.P,U7,A1*
G04 #@! TO.N,ROTENC_A*
X92340000Y-79376000D03*
G04 #@! TD*
D30*
G04 #@! TO.P,J11,1*
G04 #@! TO.N,+24V*
X89546000Y-60326000D03*
D31*
G04 #@! TO.P,J11,2*
G04 #@! TO.N,+5V*
X92086000Y-60326000D03*
G04 #@! TO.P,J11,3*
G04 #@! TO.N,+3V3*
X94626000Y-60326000D03*
G04 #@! TO.P,J11,4*
G04 #@! TO.N,GND*
X97166000Y-60326000D03*
G04 #@! TD*
D14*
G04 #@! TO.P,J1,0*
G04 #@! TO.N,GND*
X44393000Y-34776000D03*
X69383000Y-34776000D03*
D15*
G04 #@! TO.P,J1,9*
G04 #@! TO.N,+24V*
X52778000Y-33356000D03*
G04 #@! TO.P,J1,8*
G04 #@! TO.N,Net-(J1-Pad8)*
X55518000Y-33356000D03*
G04 #@! TO.P,J1,7*
G04 #@! TO.N,/SN_CAN_P*
X58258000Y-33356000D03*
G04 #@! TO.P,J1,6*
G04 #@! TO.N,GND*
X60998000Y-33356000D03*
G04 #@! TO.P,J1,5*
G04 #@! TO.N,Net-(J1-Pad5)*
X51408000Y-36196000D03*
G04 #@! TO.P,J1,4*
G04 #@! TO.N,Net-(J1-Pad4)*
X54148000Y-36196000D03*
G04 #@! TO.P,J1,3*
G04 #@! TO.N,GND*
X56888000Y-36196000D03*
G04 #@! TO.P,J1,2*
G04 #@! TO.N,/SN_CAN_N*
X59628000Y-36196000D03*
G04 #@! TO.P,J1,1*
G04 #@! TO.N,Net-(J1-Pad1)*
X62368000Y-36196000D03*
G04 #@! TD*
D32*
G04 #@! TO.P,L1,2*
G04 #@! TO.N,Net-(C3-Pad1)*
X63170000Y-48388000D03*
G04 #@! TO.P,L1,1*
G04 #@! TO.N,Net-(C1-Pad1)*
X59320000Y-48388000D03*
G04 #@! TD*
D21*
G04 #@! TO.P,R13,1*
G04 #@! TO.N,Net-(D4-Pad1)*
X88276000Y-133986000D03*
G04 #@! TO.P,R13,2*
G04 #@! TO.N,GND*
X84276000Y-133986000D03*
G04 #@! TD*
G04 #@! TO.P,R12,1*
G04 #@! TO.N,Net-(D3-Pad1)*
X88276000Y-125096000D03*
G04 #@! TO.P,R12,2*
G04 #@! TO.N,GND*
X84276000Y-125096000D03*
G04 #@! TD*
G04 #@! TO.P,R11,1*
G04 #@! TO.N,Net-(D2-Pad1)*
X88276000Y-116460000D03*
G04 #@! TO.P,R11,2*
G04 #@! TO.N,GND*
X84276000Y-116460000D03*
G04 #@! TD*
D22*
G04 #@! TO.P,R10,1*
G04 #@! TO.N,+3V3*
X44842000Y-121794000D03*
G04 #@! TO.P,R10,2*
G04 #@! TO.N,Net-(J15-Pad1)*
X44842000Y-117794000D03*
G04 #@! TD*
G04 #@! TO.P,R8,1*
G04 #@! TO.N,+3V3*
X37730000Y-121794000D03*
G04 #@! TO.P,R8,2*
G04 #@! TO.N,Net-(J15-Pad2)*
X37730000Y-117794000D03*
G04 #@! TD*
G04 #@! TO.P,R7,1*
G04 #@! TO.N,+3V3*
X34174000Y-121794000D03*
G04 #@! TO.P,R7,2*
G04 #@! TO.N,Net-(J15-Pad7)*
X34174000Y-117794000D03*
G04 #@! TD*
G04 #@! TO.P,R6,1*
G04 #@! TO.N,+3V3*
X34428000Y-77852000D03*
G04 #@! TO.P,R6,2*
G04 #@! TO.N,Net-(J15-Pad3)*
X34428000Y-81852000D03*
G04 #@! TD*
G04 #@! TO.P,R5,1*
G04 #@! TO.N,+3V3*
X37730000Y-77852000D03*
G04 #@! TO.P,R5,2*
G04 #@! TO.N,Net-(J15-Pad8)*
X37730000Y-81852000D03*
G04 #@! TD*
G04 #@! TO.P,R4,1*
G04 #@! TO.N,+3V3*
X41286000Y-77852000D03*
G04 #@! TO.P,R4,2*
G04 #@! TO.N,Net-(J15-Pad4)*
X41286000Y-81852000D03*
G04 #@! TD*
G04 #@! TO.P,R3,1*
G04 #@! TO.N,+3V3*
X44842000Y-77852000D03*
G04 #@! TO.P,R3,2*
G04 #@! TO.N,Net-(J15-Pad9)*
X44842000Y-81852000D03*
G04 #@! TD*
G04 #@! TO.P,R2,1*
G04 #@! TO.N,+3V3*
X76211000Y-77027000D03*
G04 #@! TO.P,R2,2*
G04 #@! TO.N,FRAM_SCL*
X76211000Y-81027000D03*
G04 #@! TD*
G04 #@! TO.P,R1,1*
G04 #@! TO.N,+3V3*
X72274000Y-77027000D03*
G04 #@! TO.P,R1,2*
G04 #@! TO.N,FRAM_SDA*
X72274000Y-81027000D03*
G04 #@! TD*
D21*
G04 #@! TO.P,R14,1*
G04 #@! TO.N,Net-(JP1-Pad2)*
X64666000Y-128876000D03*
G04 #@! TO.P,R14,2*
G04 #@! TO.N,/Mod_CAN_N*
X68666000Y-128876000D03*
G04 #@! TD*
D30*
G04 #@! TO.P,JP1,1*
G04 #@! TO.N,/Mod_CAN_P*
X67206000Y-131924000D03*
D31*
G04 #@! TO.P,JP1,2*
G04 #@! TO.N,Net-(JP1-Pad2)*
X64666000Y-131924000D03*
G04 #@! TD*
D33*
G04 #@! TO.P,U4,1*
G04 #@! TO.N,Net-(U4-Pad1)*
X71733000Y-87250000D03*
G04 #@! TO.P,U4,2*
G04 #@! TO.N,Net-(U4-Pad2)*
X71733000Y-88520000D03*
G04 #@! TO.P,U4,3*
G04 #@! TO.N,Net-(U4-Pad3)*
X71733000Y-89790000D03*
G04 #@! TO.P,U4,4*
G04 #@! TO.N,GND*
X71733000Y-91060000D03*
G04 #@! TO.P,U4,5*
G04 #@! TO.N,FRAM_SDA*
X77133000Y-91060000D03*
G04 #@! TO.P,U4,6*
G04 #@! TO.N,FRAM_SCL*
X77133000Y-89790000D03*
G04 #@! TO.P,U4,7*
G04 #@! TO.N,Net-(U4-Pad7)*
X77133000Y-88520000D03*
G04 #@! TO.P,U4,8*
G04 #@! TO.N,+5V*
X77133000Y-87250000D03*
G04 #@! TD*
D34*
G04 #@! TO.P,U3,1*
G04 #@! TO.N,Mod_CAN1_TX*
X58940000Y-119500000D03*
D35*
G04 #@! TO.P,U3,5*
G04 #@! TO.N,+3V3*
X51320000Y-127120000D03*
G04 #@! TO.P,U3,2*
G04 #@! TO.N,GND*
X56400000Y-119500000D03*
G04 #@! TO.P,U3,6*
G04 #@! TO.N,/Mod_CAN_N*
X53860000Y-127120000D03*
G04 #@! TO.P,U3,3*
G04 #@! TO.N,+5V*
X53860000Y-119500000D03*
G04 #@! TO.P,U3,7*
G04 #@! TO.N,/Mod_CAN_P*
X56400000Y-127120000D03*
G04 #@! TO.P,U3,4*
G04 #@! TO.N,Mod_CAN1_RX*
X51320000Y-119500000D03*
G04 #@! TO.P,U3,8*
G04 #@! TO.N,GND*
X58940000Y-127120000D03*
G04 #@! TD*
D34*
G04 #@! TO.P,U2,1*
G04 #@! TO.N,SN_CAN2_TX*
X50176000Y-62612000D03*
D35*
G04 #@! TO.P,U2,5*
G04 #@! TO.N,+3V3*
X57796000Y-54992000D03*
G04 #@! TO.P,U2,2*
G04 #@! TO.N,GND*
X52716000Y-62612000D03*
G04 #@! TO.P,U2,6*
G04 #@! TO.N,/SN_CAN_N*
X55256000Y-54992000D03*
G04 #@! TO.P,U2,3*
G04 #@! TO.N,+5V*
X55256000Y-62612000D03*
G04 #@! TO.P,U2,7*
G04 #@! TO.N,/SN_CAN_P*
X52716000Y-54992000D03*
G04 #@! TO.P,U2,4*
G04 #@! TO.N,SN_CAN2_RX*
X57796000Y-62612000D03*
G04 #@! TO.P,U2,8*
G04 #@! TO.N,GND*
X50176000Y-54992000D03*
G04 #@! TD*
D36*
G04 #@! TO.P,U6,1*
G04 #@! TO.N,Net-(C3-Pad1)*
X85603920Y-53734700D03*
D37*
G04 #@! TO.P,U6,2*
G04 #@! TO.N,GND*
X85603920Y-51194700D03*
G04 #@! TO.P,U6,3*
G04 #@! TO.N,+5V*
X85603920Y-48654700D03*
G04 #@! TD*
D34*
G04 #@! TO.P,U5,1*
G04 #@! TO.N,Net-(J15-Pad9)*
X52208000Y-91060000D03*
D35*
G04 #@! TO.P,U5,9*
G04 #@! TO.N,GND*
X59828000Y-108840000D03*
G04 #@! TO.P,U5,2*
G04 #@! TO.N,Net-(J15-Pad4)*
X52208000Y-93600000D03*
G04 #@! TO.P,U5,10*
G04 #@! TO.N,ADC_CS_SPI*
X59828000Y-106300000D03*
G04 #@! TO.P,U5,3*
G04 #@! TO.N,Net-(J15-Pad8)*
X52208000Y-96140000D03*
G04 #@! TO.P,U5,11*
G04 #@! TO.N,ADC_MOSI_SPI*
X59828000Y-103760000D03*
G04 #@! TO.P,U5,4*
G04 #@! TO.N,Net-(J15-Pad3)*
X52208000Y-98680000D03*
G04 #@! TO.P,U5,12*
G04 #@! TO.N,ADC_MISO_SPI*
X59828000Y-101220000D03*
G04 #@! TO.P,U5,5*
G04 #@! TO.N,Net-(J15-Pad7)*
X52208000Y-101220000D03*
G04 #@! TO.P,U5,13*
G04 #@! TO.N,ADC_SCK_SPI*
X59828000Y-98680000D03*
G04 #@! TO.P,U5,6*
G04 #@! TO.N,Net-(J15-Pad2)*
X52208000Y-103760000D03*
G04 #@! TO.P,U5,14*
G04 #@! TO.N,GND*
X59828000Y-96140000D03*
G04 #@! TO.P,U5,7*
G04 #@! TO.N,Net-(J15-Pad6)*
X52208000Y-106300000D03*
G04 #@! TO.P,U5,15*
G04 #@! TO.N,+3V3*
X59828000Y-93600000D03*
G04 #@! TO.P,U5,8*
G04 #@! TO.N,Net-(J15-Pad1)*
X52208000Y-108840000D03*
G04 #@! TO.P,U5,16*
G04 #@! TO.N,+3V3*
X59828000Y-91060000D03*
G04 #@! TD*
D18*
G04 #@! TO.P,SW2,2*
G04 #@! TO.N,BUTTON1*
X93428000Y-103506000D03*
G04 #@! TO.P,SW2,1*
G04 #@! TO.N,GND*
X97928000Y-103506000D03*
G04 #@! TO.P,SW2,2*
G04 #@! TO.N,BUTTON1*
X93428000Y-110006000D03*
G04 #@! TO.P,SW2,1*
G04 #@! TO.N,GND*
X97928000Y-110006000D03*
G04 #@! TD*
D30*
G04 #@! TO.P,J14,1*
G04 #@! TO.N,SERIAL2_TX*
X49922000Y-84456000D03*
D31*
G04 #@! TO.P,J14,2*
G04 #@! TO.N,SERIAL2_RX*
X49922000Y-81916000D03*
G04 #@! TD*
D30*
G04 #@! TO.P,J13,1*
G04 #@! TO.N,GND*
X65675080Y-56018160D03*
D31*
G04 #@! TO.P,J13,2*
G04 #@! TO.N,+5V*
X65675080Y-58558160D03*
G04 #@! TO.P,J13,3*
G04 #@! TO.N,FRAM_SCL*
X65675080Y-61098160D03*
G04 #@! TO.P,J13,4*
G04 #@! TO.N,FRAM_SDA*
X65675080Y-63638160D03*
G04 #@! TD*
D30*
G04 #@! TO.P,J12,1*
G04 #@! TO.N,GND*
X49922000Y-70028800D03*
D31*
G04 #@! TO.P,J12,2*
G04 #@! TO.N,+3V3*
X49922000Y-72568800D03*
G04 #@! TO.P,J12,3*
G04 #@! TO.N,RGBLED_DATAOUT*
X49922000Y-75108800D03*
G04 #@! TO.P,J12,4*
G04 #@! TO.N,GND*
X49922000Y-77648800D03*
G04 #@! TD*
D38*
G04 #@! TO.P,F1,1*
G04 #@! TO.N,Net-(C1-Pad1)*
X45858000Y-48642000D03*
G04 #@! TO.P,F1,2*
G04 #@! TO.N,Net-(D1-Pad1)*
X45858000Y-52822000D03*
G04 #@! TD*
D39*
G04 #@! TO.P,D4,1*
G04 #@! TO.N,Net-(D4-Pad1)*
X93102000Y-133986000D03*
D29*
G04 #@! TO.P,D4,2*
G04 #@! TO.N,LED3*
X95642000Y-133986000D03*
G04 #@! TD*
D39*
G04 #@! TO.P,D3,1*
G04 #@! TO.N,Net-(D3-Pad1)*
X93102000Y-125096000D03*
D29*
G04 #@! TO.P,D3,2*
G04 #@! TO.N,LED2*
X95642000Y-125096000D03*
G04 #@! TD*
D39*
G04 #@! TO.P,D2,1*
G04 #@! TO.N,Net-(D2-Pad1)*
X93102000Y-116460000D03*
D29*
G04 #@! TO.P,D2,2*
G04 #@! TO.N,LED1*
X95642000Y-116460000D03*
G04 #@! TD*
D40*
G04 #@! TO.P,C3,1*
G04 #@! TO.N,Net-(C3-Pad1)*
X68140000Y-50420000D03*
G04 #@! TO.P,C3,2*
G04 #@! TO.N,GND*
X68140000Y-46420000D03*
G04 #@! TD*
G04 #@! TO.P,C2,1*
G04 #@! TO.N,Net-(C1-Pad1)*
X50557000Y-48578000D03*
G04 #@! TO.P,C2,2*
G04 #@! TO.N,GND*
X50557000Y-44578000D03*
G04 #@! TD*
G04 #@! TO.P,C1,1*
G04 #@! TO.N,Net-(C1-Pad1)*
X54621000Y-48578000D03*
G04 #@! TO.P,C1,2*
G04 #@! TO.N,GND*
X54621000Y-44578000D03*
G04 #@! TD*
D10*
G04 #@! TO.P,H1,1*
G04 #@! TO.N,GND*
X97800000Y-46100000D03*
D11*
X101025000Y-46100000D03*
X100080419Y-48380419D03*
X97800000Y-49325000D03*
X95519581Y-48380419D03*
X94575000Y-46100000D03*
X95519581Y-43819581D03*
X97800000Y-42875000D03*
X100080419Y-43819581D03*
G04 #@! TD*
D10*
G04 #@! TO.P,H2,1*
G04 #@! TO.N,GND*
X33800000Y-46100000D03*
D11*
X37025000Y-46100000D03*
X36080419Y-48380419D03*
X33800000Y-49325000D03*
X31519581Y-48380419D03*
X30575000Y-46100000D03*
X31519581Y-43819581D03*
X33800000Y-42875000D03*
X36080419Y-43819581D03*
G04 #@! TD*
D10*
G04 #@! TO.P,H3,1*
G04 #@! TO.N,GND*
X33800000Y-142000000D03*
D11*
X37025000Y-142000000D03*
X36080419Y-144280419D03*
X33800000Y-145225000D03*
X31519581Y-144280419D03*
X30575000Y-142000000D03*
X31519581Y-139719581D03*
X33800000Y-138775000D03*
X36080419Y-139719581D03*
G04 #@! TD*
D10*
G04 #@! TO.P,H4,1*
G04 #@! TO.N,GND*
X97800000Y-142000000D03*
D11*
X101025000Y-142000000D03*
X100080419Y-144280419D03*
X97800000Y-145225000D03*
X95519581Y-144280419D03*
X94575000Y-142000000D03*
X95519581Y-139719581D03*
X97800000Y-138775000D03*
X100080419Y-139719581D03*
G04 #@! TD*
D41*
G04 #@! TO.P,D1,1*
G04 #@! TO.N,Net-(D1-Pad1)*
X42048000Y-52960000D03*
G04 #@! TO.P,D1,2*
G04 #@! TO.N,+24V*
X42048000Y-49960000D03*
G04 #@! TD*
D42*
G04 #@! TO.P,D5,1*
G04 #@! TO.N,Net-(C5-Pad1)*
X30110000Y-54992000D03*
G04 #@! TO.P,D5,2*
G04 #@! TO.N,+24V*
X34760000Y-54992000D03*
G04 #@! TD*
D43*
G04 #@! TO.P,C4,1*
G04 #@! TO.N,+5V*
X85613040Y-41179480D03*
G04 #@! TO.P,C4,2*
G04 #@! TO.N,GND*
X80213040Y-41179480D03*
G04 #@! TD*
D40*
G04 #@! TO.P,C6,1*
G04 #@! TO.N,+3V3*
X63130000Y-91568000D03*
G04 #@! TO.P,C6,2*
G04 #@! TO.N,GND*
X63130000Y-95568000D03*
G04 #@! TD*
D44*
G04 #@! TO.P,C7,1*
G04 #@! TO.N,+5V*
X76338000Y-84329000D03*
G04 #@! TO.P,C7,2*
G04 #@! TO.N,GND*
X72338000Y-84329000D03*
G04 #@! TD*
G04 #@! TO.P,C8,1*
G04 #@! TO.N,+5V*
X53150000Y-116250000D03*
G04 #@! TO.P,C8,2*
G04 #@! TO.N,GND*
X57150000Y-116250000D03*
G04 #@! TD*
G04 #@! TO.P,C9,1*
G04 #@! TO.N,+5V*
X56208000Y-65660000D03*
G04 #@! TO.P,C9,2*
G04 #@! TO.N,GND*
X52208000Y-65660000D03*
G04 #@! TD*
D21*
G04 #@! TO.P,R15,1*
G04 #@! TO.N,Net-(R15-Pad1)*
X81672000Y-118492000D03*
G04 #@! TO.P,R15,2*
G04 #@! TO.N,Net-(R15-Pad2)*
X77672000Y-118492000D03*
G04 #@! TD*
G04 #@! TO.P,R16,1*
G04 #@! TO.N,Net-(R15-Pad2)*
X77672000Y-122556000D03*
G04 #@! TO.P,R16,2*
G04 #@! TO.N,Net-(R16-Pad2)*
X81672000Y-122556000D03*
G04 #@! TD*
G04 #@! TO.P,R17,1*
G04 #@! TO.N,Net-(R17-Pad1)*
X77672000Y-114428000D03*
G04 #@! TO.P,R17,2*
G04 #@! TO.N,Net-(R15-Pad1)*
X81672000Y-114428000D03*
G04 #@! TD*
G04 #@! TO.P,R19,1*
G04 #@! TO.N,Net-(BZ1-Pad2)*
X71004000Y-112142000D03*
G04 #@! TO.P,R19,2*
G04 #@! TO.N,Net-(R17-Pad1)*
X75004000Y-112142000D03*
G04 #@! TD*
D22*
G04 #@! TO.P,R21,1*
G04 #@! TO.N,+5V*
X75365180Y-48578500D03*
G04 #@! TO.P,R21,2*
G04 #@! TO.N,GND*
X75365180Y-44578500D03*
G04 #@! TD*
G04 #@! TO.P,R22,2*
G04 #@! TO.N,GND*
X44588000Y-129668000D03*
G04 #@! TO.P,R22,1*
G04 #@! TO.N,Net-(C5-Pad1)*
X44588000Y-133668000D03*
G04 #@! TD*
D45*
G04 #@! TO.N,*
X28900000Y-150000000D03*
X30900000Y-150000000D03*
X32900000Y-150000000D03*
X34900000Y-150000000D03*
X36900000Y-150000000D03*
X38900000Y-150000000D03*
X40900000Y-150000000D03*
X42900000Y-150000000D03*
X44900000Y-150000000D03*
X46900000Y-150000000D03*
X48900000Y-150000000D03*
X50900000Y-150000000D03*
X52900000Y-150000000D03*
X54900000Y-150000000D03*
X56900000Y-150000000D03*
X103900000Y-150000000D03*
X101900000Y-150000000D03*
X99900000Y-150000000D03*
X97900000Y-150000000D03*
X95900000Y-150000000D03*
X93900000Y-150000000D03*
X91900000Y-150000000D03*
X89900000Y-150000000D03*
X87900000Y-150000000D03*
X85900000Y-150000000D03*
X83900000Y-150000000D03*
X81900000Y-150000000D03*
X79900000Y-150000000D03*
X77900000Y-150000000D03*
X75900000Y-150000000D03*
X58900000Y-150000000D03*
X73900000Y-150000000D03*
X71900000Y-150000000D03*
X60900000Y-150000000D03*
X62900000Y-150000000D03*
X69900000Y-150000000D03*
X64900000Y-150000000D03*
X67900000Y-150000000D03*
D46*
G04 #@! TO.N,GND*
X67378000Y-44070000D03*
X68902000Y-44070000D03*
X72401000Y-85853000D03*
X72401000Y-82932000D03*
X78817040Y-39401480D03*
X77801040Y-39909480D03*
X77801040Y-41179480D03*
X77801040Y-42449480D03*
X78817040Y-42957480D03*
X84466000Y-119000000D03*
X84466000Y-123318000D03*
X84466000Y-132208000D03*
X39254000Y-126366000D03*
X37222000Y-126366000D03*
X39762000Y-127128000D03*
X36714000Y-127128000D03*
X38238000Y-125858000D03*
X55129000Y-125604000D03*
X58875500Y-42101500D03*
X53224000Y-44578000D03*
X52208000Y-44578000D03*
D45*
X57000000Y-131400000D03*
D46*
G04 #@! TO.N,LED1*
X78116000Y-106808000D03*
X78116000Y-100585000D03*
G04 #@! TO.N,LED2*
X75576000Y-106808000D03*
X76973000Y-100585000D03*
G04 #@! TO.N,LED3*
X73036000Y-106808000D03*
X75830000Y-100585000D03*
G04 #@! TO.N,+5V*
X85736000Y-72899000D03*
X85736000Y-68327000D03*
G04 #@! TO.N,+3V3*
X76211000Y-75058000D03*
X72274000Y-75058000D03*
G04 #@! TO.N,Mod_CAN1_RX*
X86244000Y-83440000D03*
G04 #@! TO.N,Mod_CAN1_TX*
X85228000Y-83440000D03*
G04 #@! TO.N,/SN_CAN_P*
X57923000Y-43879500D03*
G04 #@! TO.N,/SN_CAN_N*
X59129500Y-44514500D03*
G04 #@! TD*
D47*
G04 #@! TO.N,Net-(C1-Pad1)*
X50493000Y-48642000D02*
X50557000Y-48578000D01*
X45858000Y-48642000D02*
X50493000Y-48642000D01*
X50557000Y-48578000D02*
X54621000Y-48578000D01*
X59130000Y-48578000D02*
X59320000Y-48388000D01*
X54621000Y-48578000D02*
X59130000Y-48578000D01*
G04 #@! TO.N,GND*
X67378000Y-44070000D02*
X68902000Y-44070000D01*
X67378000Y-44070000D02*
X68140000Y-44832000D01*
X68902000Y-44070000D02*
X68140000Y-44832000D01*
X68140000Y-44832000D02*
X68140000Y-45912000D01*
D48*
X52208000Y-63120000D02*
X52716000Y-62612000D01*
X52208000Y-65660000D02*
X52208000Y-63120000D01*
X71733000Y-91060000D02*
X70750000Y-91060000D01*
X70750000Y-91060000D02*
X70115000Y-90425000D01*
X70115000Y-90425000D02*
X70115000Y-85091000D01*
X70877000Y-84329000D02*
X72338000Y-84329000D01*
X70115000Y-85091000D02*
X70242000Y-84964000D01*
X62558000Y-96140000D02*
X63130000Y-95568000D01*
X70242000Y-84964000D02*
X70877000Y-84329000D01*
D49*
X72338000Y-85790000D02*
X72401000Y-85853000D01*
X72338000Y-84329000D02*
X72338000Y-85790000D01*
X72338000Y-82995000D02*
X72401000Y-82932000D01*
X72338000Y-84329000D02*
X72338000Y-82995000D01*
D47*
X80213040Y-41179480D02*
X77801040Y-41179480D01*
X79071040Y-41179480D02*
X77801040Y-39909480D01*
X79071040Y-41179480D02*
X77801040Y-42449480D01*
X80213040Y-41179480D02*
X79071040Y-41179480D01*
X78817040Y-39783480D02*
X80213040Y-41179480D01*
X78817040Y-39401480D02*
X78817040Y-39783480D01*
X78817040Y-42575480D02*
X80213040Y-41179480D01*
X78817040Y-42957480D02*
X78817040Y-42575480D01*
X78309040Y-42957480D02*
X77801040Y-42449480D01*
X78817040Y-42957480D02*
X78309040Y-42957480D01*
X77801040Y-42449480D02*
X77801040Y-39909480D01*
X78309040Y-39909480D02*
X78817040Y-39401480D01*
X77801040Y-39909480D02*
X78309040Y-39909480D01*
D49*
X84276000Y-118810000D02*
X84466000Y-119000000D01*
X84276000Y-116460000D02*
X84276000Y-118810000D01*
X84276000Y-123508000D02*
X84466000Y-123318000D01*
X84276000Y-125096000D02*
X84276000Y-123508000D01*
X84276000Y-132398000D02*
X84466000Y-132208000D01*
X84276000Y-133986000D02*
X84276000Y-132398000D01*
D47*
X60400000Y-95568000D02*
X59828000Y-96140000D01*
X63130000Y-95568000D02*
X60400000Y-95568000D01*
X38238000Y-127382000D02*
X39254000Y-126366000D01*
X38238000Y-128906000D02*
X38238000Y-127382000D01*
X38238000Y-127382000D02*
X37222000Y-126366000D01*
X38238000Y-128906000D02*
X38238000Y-128646000D01*
X38238000Y-128906000D02*
X38186000Y-128906000D01*
X38238000Y-128652000D02*
X39762000Y-127128000D01*
X38238000Y-128906000D02*
X38238000Y-128652000D01*
X38238000Y-128652000D02*
X36714000Y-127128000D01*
X38238000Y-128906000D02*
X38238000Y-125858000D01*
D49*
X91600000Y-64876000D02*
X92340000Y-64876000D01*
X94840000Y-79844000D02*
X94840000Y-79376000D01*
X77801040Y-42449480D02*
X75553140Y-42449480D01*
X75365180Y-42637440D02*
X75365180Y-44578500D01*
X75553140Y-42449480D02*
X75365180Y-42637440D01*
X36698760Y-127143240D02*
X36714000Y-127128000D01*
X55190000Y-125665000D02*
X55129000Y-125604000D01*
D47*
X56400000Y-119500000D02*
X56400000Y-118237000D01*
X57150000Y-117487000D02*
X57150000Y-116250000D01*
X56400000Y-118237000D02*
X57150000Y-117487000D01*
X50557000Y-44578000D02*
X52208000Y-44578000D01*
D49*
X58875500Y-38926500D02*
X58875500Y-42101500D01*
D47*
X53224000Y-44578000D02*
X54621000Y-44578000D01*
X52208000Y-44578000D02*
X53224000Y-44578000D01*
D49*
X44588000Y-129668000D02*
X39508000Y-129668000D01*
X39508000Y-129668000D02*
X38238000Y-129668000D01*
D48*
X58700000Y-131400000D02*
X57000000Y-131400000D01*
D47*
G04 #@! TO.N,Net-(C3-Pad1)*
X80783000Y-53734700D02*
X85603920Y-53734700D01*
X66220000Y-50420000D02*
X68140000Y-50420000D01*
X65800000Y-50000000D02*
X66220000Y-50420000D01*
X65800000Y-49200000D02*
X65800000Y-50000000D01*
X64988000Y-48388000D02*
X65800000Y-49200000D01*
X63170000Y-48388000D02*
X64988000Y-48388000D01*
X68140000Y-50420000D02*
X70820000Y-50420000D01*
X74134700Y-53734700D02*
X80783000Y-53734700D01*
X70820000Y-50420000D02*
X74134700Y-53734700D01*
G04 #@! TO.N,+24V*
X42048000Y-49960000D02*
X42048000Y-44578000D01*
X42048000Y-49960000D02*
X39440000Y-49960000D01*
X39440000Y-49960000D02*
X38700000Y-50700000D01*
X38700000Y-50700000D02*
X38700000Y-53700000D01*
X37408000Y-54992000D02*
X34760000Y-54992000D01*
X38700000Y-53700000D02*
X37408000Y-54992000D01*
X52778000Y-33356000D02*
X51192000Y-33356000D01*
X51192000Y-33356000D02*
X51192000Y-33402000D01*
X42048000Y-42546000D02*
X42048000Y-44578000D01*
X51192000Y-33402000D02*
X42048000Y-42546000D01*
X91641500Y-56071500D02*
X89546000Y-58167000D01*
X91641500Y-40577500D02*
X91641500Y-56071500D01*
X82053000Y-30989000D02*
X91641500Y-40577500D01*
X53605000Y-30989000D02*
X82053000Y-30989000D01*
X89546000Y-58167000D02*
X89546000Y-60326000D01*
X52778000Y-32194000D02*
X52589000Y-32005000D01*
X52778000Y-33356000D02*
X52778000Y-32194000D01*
X52589000Y-32005000D02*
X53605000Y-30989000D01*
X51192000Y-33402000D02*
X52589000Y-32005000D01*
D50*
G04 #@! TO.N,SN_CAN2_RX*
X57796000Y-65406000D02*
X57796000Y-62612000D01*
X66686000Y-74296000D02*
X57796000Y-65406000D01*
D49*
G04 #@! TO.N,SN_CAN2_TX*
X50176000Y-62612000D02*
X50176000Y-66930000D01*
X50176000Y-66930000D02*
X50811000Y-67565000D01*
X57415000Y-67565000D02*
X66686000Y-76836000D01*
X50811000Y-67565000D02*
X57415000Y-67565000D01*
G04 #@! TO.N,LED1*
X78116000Y-94743000D02*
X78116000Y-100585000D01*
X71512000Y-93346000D02*
X76719000Y-93346000D01*
X69226000Y-91060000D02*
X71512000Y-93346000D01*
X69226000Y-79630000D02*
X69226000Y-91060000D01*
X76719000Y-93346000D02*
X78116000Y-94743000D01*
X68972000Y-79376000D02*
X69226000Y-79630000D01*
X66686000Y-79376000D02*
X68972000Y-79376000D01*
X95487002Y-116460000D02*
X95642000Y-116460000D01*
X88121002Y-109094000D02*
X95487002Y-116460000D01*
X80402000Y-109094000D02*
X88121002Y-109094000D01*
X78116000Y-106808000D02*
X80402000Y-109094000D01*
G04 #@! TO.N,LED2*
X76973000Y-94616000D02*
X76973000Y-100585000D01*
X76338000Y-93981000D02*
X76973000Y-94616000D01*
X68718000Y-91314000D02*
X71385000Y-93981000D01*
X68718000Y-82170000D02*
X68718000Y-91314000D01*
X68464000Y-81916000D02*
X68718000Y-82170000D01*
X71385000Y-93981000D02*
X76338000Y-93981000D01*
X66686000Y-81916000D02*
X68464000Y-81916000D01*
X94118000Y-121032000D02*
X95642000Y-122556000D01*
X88022000Y-121032000D02*
X94118000Y-121032000D01*
X86950999Y-119960999D02*
X88022000Y-121032000D01*
X84212000Y-110618000D02*
X86950999Y-113356999D01*
X95642000Y-122556000D02*
X95642000Y-125096000D01*
X79386000Y-110618000D02*
X84212000Y-110618000D01*
X86950999Y-113356999D02*
X86950999Y-119960999D01*
X75576000Y-106808000D02*
X79386000Y-110618000D01*
G04 #@! TO.N,LED3*
X67702000Y-84456000D02*
X66686000Y-84456000D01*
X68267990Y-85021990D02*
X67702000Y-84456000D01*
X68267990Y-91752990D02*
X68267990Y-85021990D01*
X71131000Y-94616000D02*
X68267990Y-91752990D01*
X75449000Y-94616000D02*
X71131000Y-94616000D01*
X75830000Y-94997000D02*
X75449000Y-94616000D01*
X75830000Y-100585000D02*
X75830000Y-94997000D01*
X95642000Y-130938000D02*
X95642000Y-133986000D01*
X88022000Y-129160000D02*
X93864000Y-129160000D01*
X93864000Y-129160000D02*
X95642000Y-130938000D01*
X86244000Y-127382000D02*
X88022000Y-129160000D01*
X86244000Y-113666000D02*
X86244000Y-127382000D01*
X83958000Y-111380000D02*
X86244000Y-113666000D01*
X77608000Y-111380000D02*
X83958000Y-111380000D01*
X73036000Y-106808000D02*
X77608000Y-111380000D01*
G04 #@! TO.N,ROTENC_SW*
X89292000Y-82932000D02*
X87768000Y-84456000D01*
X92848000Y-74804000D02*
X89292000Y-78360000D01*
X87768000Y-84456000D02*
X81926000Y-84456000D01*
X89292000Y-78360000D02*
X89292000Y-82932000D01*
X97340000Y-64876000D02*
X94016000Y-68200000D01*
X94016000Y-73636000D02*
X92848000Y-74804000D01*
X94016000Y-68200000D02*
X94016000Y-73636000D01*
G04 #@! TO.N,RGBLED_DATAOUT*
X65416000Y-89536000D02*
X66686000Y-89536000D01*
X64654000Y-88774000D02*
X65416000Y-89536000D01*
X64654000Y-79122000D02*
X64654000Y-88774000D01*
X60640800Y-75108800D02*
X64654000Y-79122000D01*
X49922000Y-75108800D02*
X60640800Y-75108800D01*
G04 #@! TO.N,SERIAL2_RX*
X62368000Y-81916000D02*
X49922000Y-81916000D01*
X64146000Y-83694000D02*
X62368000Y-81916000D01*
X64146000Y-88902410D02*
X64146000Y-83694000D01*
X66049590Y-90806000D02*
X64146000Y-88902410D01*
X66432000Y-90806000D02*
X66049590Y-90806000D01*
X66686000Y-91060000D02*
X66432000Y-90806000D01*
X66686000Y-92076000D02*
X66686000Y-91060000D01*
G04 #@! TO.N,SERIAL2_TX*
X65416000Y-94616000D02*
X66686000Y-94616000D01*
X65162000Y-90554820D02*
X65162000Y-94362000D01*
X63695991Y-89088811D02*
X65162000Y-90554820D01*
X63695990Y-89085990D02*
X63695991Y-89088811D01*
X63638000Y-89028000D02*
X63695990Y-89085990D01*
X63638000Y-85472000D02*
X63638000Y-89028000D01*
X62622000Y-84456000D02*
X63638000Y-85472000D01*
X65162000Y-94362000D02*
X65416000Y-94616000D01*
X49922000Y-84456000D02*
X62622000Y-84456000D01*
G04 #@! TO.N,BUZZER*
X66686000Y-97156000D02*
X71766000Y-97156000D01*
G04 #@! TO.N,ADC_CS_SPI*
X66287001Y-100094999D02*
X58159001Y-100094999D01*
X66686000Y-99696000D02*
X66287001Y-100094999D01*
X58159001Y-100094999D02*
X57034000Y-101220000D01*
X57034000Y-103506000D02*
X59828000Y-106300000D01*
X57034000Y-101220000D02*
X57034000Y-103506000D01*
G04 #@! TO.N,ADC_MOSI_SPI*
X66686000Y-102236000D02*
X63638000Y-102236000D01*
X62114000Y-103760000D02*
X59828000Y-103760000D01*
X63638000Y-102236000D02*
X62114000Y-103760000D01*
D47*
G04 #@! TO.N,+5V*
X84212000Y-69470000D02*
X81926000Y-71756000D01*
D48*
X56208000Y-63564000D02*
X55256000Y-62612000D01*
X56208000Y-65660000D02*
X56208000Y-63564000D01*
D49*
X77133000Y-85124000D02*
X76338000Y-84329000D01*
X77133000Y-87250000D02*
X77133000Y-85124000D01*
X76338000Y-84329000D02*
X76338000Y-83948000D01*
X76338000Y-83298998D02*
X81530998Y-78106000D01*
X76338000Y-83948000D02*
X76338000Y-83298998D01*
X82562410Y-78106000D02*
X85736000Y-74932410D01*
X81530998Y-78106000D02*
X82562410Y-78106000D01*
X85736000Y-74932410D02*
X85736000Y-72899000D01*
X85736000Y-68327000D02*
X84212000Y-68327000D01*
D47*
X84212000Y-68327000D02*
X84212000Y-69470000D01*
X85603920Y-41188600D02*
X85613040Y-41179480D01*
X85603920Y-48654700D02*
X85603920Y-41188600D01*
X85613040Y-41179480D02*
X87742600Y-41179480D01*
X87742600Y-41179480D02*
X89358040Y-42794920D01*
X89358040Y-44875180D02*
X89358040Y-54217300D01*
X89358040Y-42794920D02*
X89358040Y-44875180D01*
D48*
X56708880Y-58558160D02*
X65675080Y-58558160D01*
X55256000Y-60011040D02*
X56708880Y-58558160D01*
X55256000Y-62612000D02*
X55256000Y-60011040D01*
D47*
X84212000Y-59363340D02*
X89358040Y-54217300D01*
X65675080Y-58558160D02*
X79441880Y-58558160D01*
X82019980Y-61136260D02*
X84212000Y-61136260D01*
X79441880Y-58558160D02*
X82019980Y-61136260D01*
X84212000Y-61136260D02*
X84212000Y-59363340D01*
X84212000Y-68327000D02*
X84212000Y-61136260D01*
D49*
X85527720Y-48578500D02*
X85603920Y-48654700D01*
X75365180Y-48578500D02*
X85527720Y-48578500D01*
D47*
X84212000Y-61136260D02*
X85276260Y-61136260D01*
X85276260Y-61136260D02*
X87260000Y-63120000D01*
X87260000Y-63120000D02*
X91070000Y-63120000D01*
X92086000Y-62104000D02*
X92086000Y-60326000D01*
X91070000Y-63120000D02*
X92086000Y-62104000D01*
X53150000Y-117529000D02*
X53150000Y-116250000D01*
X53860000Y-118239000D02*
X53150000Y-117529000D01*
X53860000Y-119500000D02*
X53860000Y-118239000D01*
D49*
X92086000Y-58802000D02*
X92086000Y-60326000D01*
X53860000Y-119500000D02*
X53860000Y-122430000D01*
X102881000Y-60453000D02*
X100722000Y-58294000D01*
X100214000Y-90933000D02*
X102881000Y-88266000D01*
X55256000Y-123826000D02*
X63130000Y-123826000D01*
X53860000Y-122430000D02*
X55256000Y-123826000D01*
X63130000Y-123826000D02*
X66178000Y-126874000D01*
X102881000Y-88266000D02*
X102881000Y-60453000D01*
X66178000Y-126874000D02*
X72782000Y-126874000D01*
X92594000Y-58294000D02*
X92086000Y-58802000D01*
X81672000Y-135764000D02*
X98436000Y-135764000D01*
X72782000Y-126874000D02*
X81672000Y-135764000D01*
X98436000Y-135764000D02*
X100214000Y-133986000D01*
X100214000Y-133986000D02*
X100214000Y-90933000D01*
X100722000Y-58294000D02*
X92594000Y-58294000D01*
D48*
G04 #@! TO.N,+3V3*
X76402000Y-76836000D02*
X76211000Y-77027000D01*
X81926000Y-76836000D02*
X76402000Y-76836000D01*
X76211000Y-77027000D02*
X76211000Y-75058000D01*
X72274000Y-75058000D02*
X72274000Y-77027000D01*
X62622000Y-91060000D02*
X63130000Y-91568000D01*
D49*
X59828000Y-91060000D02*
X59828000Y-93600000D01*
D47*
X60336000Y-91568000D02*
X59828000Y-91060000D01*
X63130000Y-91568000D02*
X60336000Y-91568000D01*
D48*
X44842000Y-77852000D02*
X34174000Y-77852000D01*
X31888000Y-121794000D02*
X44842000Y-121794000D01*
X31428973Y-121334973D02*
X31888000Y-121794000D01*
X31428972Y-78819028D02*
X31428973Y-121334973D01*
X32396000Y-77852000D02*
X31428972Y-78819028D01*
X34174000Y-77852000D02*
X32396000Y-77852000D01*
X48144000Y-79376000D02*
X46620000Y-77852000D01*
X48144000Y-86996000D02*
X48144000Y-79376000D01*
X46620000Y-77852000D02*
X44842000Y-77852000D01*
X49160000Y-88012000D02*
X48144000Y-86996000D01*
X59066000Y-88012000D02*
X49160000Y-88012000D01*
X59828000Y-88774000D02*
X59066000Y-88012000D01*
X59828000Y-91060000D02*
X59828000Y-88774000D01*
X71214999Y-78086001D02*
X65650001Y-78086001D01*
X72274000Y-77027000D02*
X71214999Y-78086001D01*
X65650001Y-78086001D02*
X60336000Y-72772000D01*
X50125200Y-72772000D02*
X49922000Y-72568800D01*
X60336000Y-72772000D02*
X50125200Y-72772000D01*
X44842000Y-75312000D02*
X44842000Y-77852000D01*
X44842000Y-73534000D02*
X44842000Y-75312000D01*
X45807200Y-72568800D02*
X44842000Y-73534000D01*
X46416800Y-72568800D02*
X46416800Y-60275200D01*
X49457180Y-72568800D02*
X46416800Y-72568800D01*
X46416800Y-72568800D02*
X45807200Y-72568800D01*
X46416800Y-60275200D02*
X49160000Y-57532000D01*
X55256000Y-57532000D02*
X57796000Y-54992000D01*
X49160000Y-57532000D02*
X55256000Y-57532000D01*
D49*
X94626000Y-65914000D02*
X94626000Y-60326000D01*
X92848000Y-67692000D02*
X94626000Y-65914000D01*
X88784000Y-67692000D02*
X92848000Y-67692000D01*
X83196000Y-73280000D02*
X88784000Y-67692000D01*
X83196000Y-76836000D02*
X83196000Y-73280000D01*
X81926000Y-76836000D02*
X83196000Y-76836000D01*
D48*
X52716000Y-113412000D02*
X60590000Y-113412000D01*
X49414000Y-120651000D02*
X49414000Y-116714000D01*
X49414000Y-116714000D02*
X52716000Y-113412000D01*
X48271000Y-121794000D02*
X49414000Y-120651000D01*
X51320000Y-127120000D02*
X51320000Y-124716000D01*
X51320000Y-124716000D02*
X50303000Y-123699000D01*
X50303000Y-123699000D02*
X48525000Y-123699000D01*
X48525000Y-123699000D02*
X47382000Y-122556000D01*
X47382000Y-121794000D02*
X48271000Y-121794000D01*
X47382000Y-122556000D02*
X47382000Y-121794000D01*
X44842000Y-121794000D02*
X47382000Y-121794000D01*
D49*
X68210000Y-122810000D02*
X68210000Y-121032000D01*
X68718000Y-123318000D02*
X68210000Y-122810000D01*
X70496000Y-123318000D02*
X68718000Y-123318000D01*
X74814000Y-127636000D02*
X70496000Y-123318000D01*
X77640000Y-127636000D02*
X74814000Y-127636000D01*
D48*
X68210000Y-121032000D02*
X64908000Y-121032000D01*
X64908000Y-121032000D02*
X63384000Y-119508000D01*
X63384000Y-116206000D02*
X60590000Y-113412000D01*
X63384000Y-119508000D02*
X63384000Y-116206000D01*
D49*
G04 #@! TO.N,Mod_CAN1_RX*
X81926000Y-79376000D02*
X83704000Y-79376000D01*
X86244000Y-81916000D02*
X83704000Y-79376000D01*
X86244000Y-83440000D02*
X86244000Y-81916000D01*
G04 #@! TO.N,Mod_CAN1_TX*
X85228000Y-83440000D02*
X85228000Y-82678000D01*
X84466000Y-81916000D02*
X81926000Y-81916000D01*
X85228000Y-82678000D02*
X84466000Y-81916000D01*
G04 #@! TO.N,FRAM_SCL*
X79767000Y-89536000D02*
X81926000Y-89536000D01*
X79513000Y-89790000D02*
X79767000Y-89536000D01*
X77133000Y-89790000D02*
X79513000Y-89790000D01*
X77133000Y-89790000D02*
X75957000Y-89790000D01*
X75957000Y-89790000D02*
X74814000Y-88647000D01*
X74814000Y-82424000D02*
X76211000Y-81027000D01*
X74814000Y-88647000D02*
X74814000Y-82424000D01*
X74814000Y-79630000D02*
X74811460Y-64826880D01*
X76211000Y-81027000D02*
X74814000Y-79630000D01*
X74811460Y-64826880D02*
X74811460Y-63579740D01*
X72329880Y-61098160D02*
X65675080Y-61098160D01*
X74811460Y-63579740D02*
X72329880Y-61098160D01*
G04 #@! TO.N,FRAM_SDA*
X77133000Y-91060000D02*
X79513000Y-91060000D01*
X79513000Y-91060000D02*
X80529000Y-92076000D01*
X80529000Y-92076000D02*
X81926000Y-92076000D01*
X76108000Y-91060000D02*
X73925000Y-88877000D01*
X77133000Y-91060000D02*
X76108000Y-91060000D01*
X73925000Y-82678000D02*
X72274000Y-81027000D01*
X73925000Y-88877000D02*
X73925000Y-82678000D01*
X73671000Y-79884000D02*
X73665920Y-66074020D01*
X72528000Y-81027000D02*
X73671000Y-79884000D01*
X72274000Y-81027000D02*
X72528000Y-81027000D01*
X73665920Y-66074020D02*
X73665920Y-64948800D01*
X72355280Y-63638160D02*
X65675080Y-63638160D01*
X73665920Y-64948800D02*
X72355280Y-63638160D01*
G04 #@! TO.N,BUTTON2*
X93252000Y-99696000D02*
X93356000Y-99592000D01*
X81926000Y-99696000D02*
X93252000Y-99696000D01*
X93356000Y-99592000D02*
X93356000Y-93092000D01*
G04 #@! TO.N,BUTTON1*
X93428000Y-110006000D02*
X93428000Y-103506000D01*
X83196000Y-103506000D02*
X81926000Y-102236000D01*
X93428000Y-103506000D02*
X83196000Y-103506000D01*
G04 #@! TO.N,ROTENC_B*
X84974000Y-96394000D02*
X84212000Y-97156000D01*
X84974000Y-91822000D02*
X84974000Y-96394000D01*
X88530000Y-88266000D02*
X84974000Y-91822000D01*
X88530000Y-85218000D02*
X88530000Y-88266000D01*
X84212000Y-97156000D02*
X81926000Y-97156000D01*
X90816000Y-82932000D02*
X88530000Y-85218000D01*
X90816000Y-81916000D02*
X90816000Y-82932000D01*
X91658000Y-81074000D02*
X90816000Y-81916000D01*
X95642000Y-81074000D02*
X91658000Y-81074000D01*
X97340000Y-79376000D02*
X95642000Y-81074000D01*
G04 #@! TO.N,ROTENC_A*
X84466000Y-93600000D02*
X83450000Y-94616000D01*
X84466000Y-91568000D02*
X84466000Y-93600000D01*
X88022000Y-88012000D02*
X84466000Y-91568000D01*
X83450000Y-94616000D02*
X81926000Y-94616000D01*
X88022000Y-84964000D02*
X88022000Y-88012000D01*
X90308000Y-82678000D02*
X88022000Y-84964000D01*
X90308000Y-81408000D02*
X90308000Y-82678000D01*
X92340000Y-79376000D02*
X90308000Y-81408000D01*
G04 #@! TO.N,ADC_MISO_SPI*
X60082000Y-100966000D02*
X59828000Y-101220000D01*
X67081002Y-100966000D02*
X60082000Y-100966000D01*
X68464000Y-102348998D02*
X67081002Y-100966000D01*
X68464000Y-102998000D02*
X68464000Y-102348998D01*
X66686000Y-104776000D02*
X68464000Y-102998000D01*
G04 #@! TO.N,ADC_SCK_SPI*
X60082000Y-98426000D02*
X59828000Y-98680000D01*
X68464000Y-98426000D02*
X60082000Y-98426000D01*
X69226000Y-99188000D02*
X68464000Y-98426000D01*
X75957000Y-102236000D02*
X72909000Y-99188000D01*
X79386000Y-102236000D02*
X75957000Y-102236000D01*
X72909000Y-99188000D02*
X69226000Y-99188000D01*
X81926000Y-104776000D02*
X79386000Y-102236000D01*
G04 #@! TO.N,Net-(D2-Pad1)*
X88276000Y-116460000D02*
X93102000Y-116460000D01*
G04 #@! TO.N,Net-(D3-Pad1)*
X88276000Y-125096000D02*
X93102000Y-125096000D01*
G04 #@! TO.N,Net-(D4-Pad1)*
X88276000Y-133986000D02*
X93102000Y-133986000D01*
D50*
G04 #@! TO.N,Net-(JP1-Pad2)*
X64666000Y-128876000D02*
X64666000Y-131924000D01*
D49*
G04 #@! TO.N,/SN_CAN_P*
X57925500Y-40926500D02*
X57925500Y-37654000D01*
X58258000Y-37321500D02*
X58258000Y-33356000D01*
X57925500Y-37654000D02*
X58258000Y-37321500D01*
X57925500Y-43877000D02*
X57923000Y-43879500D01*
X57925500Y-40926500D02*
X57925500Y-43877000D01*
G04 #@! TO.N,/SN_CAN_N*
X59825500Y-40926500D02*
X59825500Y-37908000D01*
X59628000Y-37710500D02*
X59628000Y-36196000D01*
X59825500Y-37908000D02*
X59628000Y-37710500D01*
X59825500Y-40926500D02*
X59825500Y-44009000D01*
X59320000Y-44514500D02*
X59129500Y-44514500D01*
X59825500Y-44009000D02*
X59320000Y-44514500D01*
D50*
G04 #@! TO.N,/Mod_CAN_P*
X56400000Y-127120000D02*
X56400000Y-128700000D01*
X58150000Y-130450000D02*
X60700000Y-130450000D01*
X56400000Y-128700000D02*
X58150000Y-130450000D01*
X60700000Y-130450000D02*
X62650000Y-130450000D01*
X62650000Y-130450000D02*
X63000000Y-130800000D01*
X63000000Y-130800000D02*
X63000000Y-132300000D01*
X63000000Y-132300000D02*
X64100000Y-133400000D01*
X64100000Y-133400000D02*
X65100000Y-133400000D01*
X65100000Y-133400000D02*
X65800000Y-132700000D01*
X65800000Y-132700000D02*
X65800000Y-132200000D01*
X66076000Y-131924000D02*
X67206000Y-131924000D01*
X65800000Y-132200000D02*
X66076000Y-131924000D01*
G04 #@! TO.N,/Mod_CAN_N*
X53860000Y-127120000D02*
X53860000Y-130360000D01*
X55850000Y-132350000D02*
X60700000Y-132350000D01*
X53860000Y-130360000D02*
X55850000Y-132350000D01*
X67400000Y-135000000D02*
X68640000Y-135000000D01*
X67119998Y-134719998D02*
X67400000Y-135000000D01*
X66280002Y-133900000D02*
X67100000Y-134719998D01*
X63500000Y-133900000D02*
X66280002Y-133900000D01*
X67100000Y-134719998D02*
X67119998Y-134719998D01*
X61950000Y-132350000D02*
X63500000Y-133900000D01*
X60700000Y-132350000D02*
X61950000Y-132350000D01*
X68640000Y-128902000D02*
X68666000Y-128876000D01*
X68640000Y-135000000D02*
X68640000Y-128902000D01*
D47*
G04 #@! TO.N,Net-(D1-Pad1)*
X45720000Y-52960000D02*
X45858000Y-52822000D01*
X42048000Y-52960000D02*
X45720000Y-52960000D01*
D49*
G04 #@! TO.N,Net-(BZ1-Pad2)*
X68845000Y-110237000D02*
X68845000Y-111507000D01*
X69480000Y-112142000D02*
X71004000Y-112142000D01*
X68845000Y-111507000D02*
X69480000Y-112142000D01*
X69908000Y-116032000D02*
X71004000Y-114936000D01*
X71004000Y-114936000D02*
X71004000Y-112142000D01*
X68200000Y-116032000D02*
X69908000Y-116032000D01*
G04 #@! TO.N,Net-(Q1-Pad2)*
X71766000Y-101156000D02*
X70496000Y-102426000D01*
X66305000Y-110237000D02*
X66305000Y-108840000D01*
X66305000Y-108840000D02*
X67829000Y-107316000D01*
X69607000Y-107316000D02*
X70496000Y-106427000D01*
X67829000Y-107316000D02*
X69607000Y-107316000D01*
X70496000Y-102426000D02*
X70496000Y-106427000D01*
G04 #@! TO.N,Net-(R15-Pad2)*
X77672000Y-118492000D02*
X77672000Y-122556000D01*
G04 #@! TO.N,Net-(R15-Pad1)*
X81672000Y-114428000D02*
X81672000Y-118492000D01*
G04 #@! TO.N,Net-(R16-Pad2)*
X81672000Y-127604000D02*
X81640000Y-127636000D01*
X81672000Y-122556000D02*
X81672000Y-127604000D01*
G04 #@! TO.N,Net-(R17-Pad1)*
X75004000Y-112142000D02*
X75004000Y-113856000D01*
X75576000Y-114428000D02*
X77672000Y-114428000D01*
X75004000Y-113856000D02*
X75576000Y-114428000D01*
D47*
G04 #@! TO.N,Net-(C5-Pad1)*
X38238000Y-134306000D02*
X40458000Y-134306000D01*
X41096000Y-133668000D02*
X44588000Y-133668000D01*
X40458000Y-134306000D02*
X41096000Y-133668000D01*
X30110000Y-132716000D02*
X30110000Y-54992000D01*
X31700000Y-134306000D02*
X30110000Y-132716000D01*
X38238000Y-134306000D02*
X31700000Y-134306000D01*
X61790000Y-140110000D02*
X61790000Y-137840000D01*
X60800000Y-141100000D02*
X61790000Y-140110000D01*
X50200000Y-141100000D02*
X60800000Y-141100000D01*
X44588000Y-135488000D02*
X50200000Y-141100000D01*
X44588000Y-133668000D02*
X44588000Y-135488000D01*
D49*
G04 #@! TO.N,Net-(J15-Pad9)*
X46048000Y-81852000D02*
X44842000Y-81852000D01*
X47382000Y-83186000D02*
X46048000Y-81852000D01*
X47382000Y-88774000D02*
X47382000Y-83186000D01*
X49668000Y-91060000D02*
X47382000Y-88774000D01*
X52208000Y-91060000D02*
X49668000Y-91060000D01*
X38509500Y-91839500D02*
X38509500Y-95821000D01*
X32142000Y-85472000D02*
X38509500Y-91839500D01*
X32142000Y-80389180D02*
X32142000Y-85472000D01*
X32904199Y-79626981D02*
X32142000Y-80389180D01*
X41536979Y-79626981D02*
X32904199Y-79626981D01*
X43762000Y-81852000D02*
X41536979Y-79626981D01*
X44842000Y-81852000D02*
X43762000Y-81852000D01*
G04 #@! TO.N,Net-(J15-Pad8)*
X39190000Y-81852000D02*
X37730000Y-81852000D01*
X39508000Y-82678000D02*
X39508000Y-82170000D01*
X39508000Y-82170000D02*
X39190000Y-81852000D01*
X40270000Y-83440000D02*
X39508000Y-82678000D01*
X42556000Y-83440000D02*
X40270000Y-83440000D01*
X45096000Y-83948000D02*
X43064000Y-83948000D01*
X45858000Y-84710000D02*
X45096000Y-83948000D01*
X49160000Y-92584000D02*
X45858000Y-89282000D01*
X49160000Y-94362000D02*
X49160000Y-92584000D01*
X43064000Y-83948000D02*
X42556000Y-83440000D01*
X50938000Y-96140000D02*
X49160000Y-94362000D01*
X45858000Y-89282000D02*
X45858000Y-84710000D01*
X52208000Y-96140000D02*
X50938000Y-96140000D01*
X37730000Y-81852000D02*
X36904000Y-81852000D01*
X44707000Y-98561000D02*
X38509500Y-98561000D01*
X45858000Y-97410000D02*
X44707000Y-98561000D01*
X38746000Y-90552000D02*
X42048000Y-90552000D01*
X33158000Y-84964000D02*
X38746000Y-90552000D01*
X42048000Y-90552000D02*
X45858000Y-94362000D01*
X33158000Y-80646000D02*
X33158000Y-84964000D01*
X33277001Y-80526999D02*
X33158000Y-80646000D01*
X36086999Y-80526998D02*
X33277001Y-80526999D01*
X36206000Y-80646000D02*
X36086999Y-80526998D01*
X36206000Y-81408000D02*
X36206000Y-80646000D01*
X45858000Y-94362000D02*
X45858000Y-97410000D01*
X36650000Y-81852000D02*
X36206000Y-81408000D01*
X37730000Y-81852000D02*
X36650000Y-81852000D01*
G04 #@! TO.N,Net-(J15-Pad7)*
X34174000Y-116206000D02*
X34174000Y-117794000D01*
X38746000Y-115952000D02*
X34428000Y-115952000D01*
X39254000Y-115444000D02*
X38746000Y-115952000D01*
X41794000Y-115444000D02*
X39254000Y-115444000D01*
X46620000Y-114428000D02*
X42810000Y-114428000D01*
X47128000Y-113920000D02*
X46620000Y-114428000D01*
X34428000Y-115952000D02*
X34174000Y-116206000D01*
X47128000Y-103506000D02*
X47128000Y-113920000D01*
X42810000Y-114428000D02*
X41794000Y-115444000D01*
X49922000Y-101220000D02*
X49414000Y-101220000D01*
X52208000Y-101220000D02*
X49922000Y-101220000D01*
X49414000Y-101220000D02*
X48271000Y-102363000D01*
X38509500Y-101301000D02*
X47082000Y-101301000D01*
X48144000Y-102363000D02*
X48144000Y-102490000D01*
X47082000Y-101301000D02*
X48144000Y-102363000D01*
X48144000Y-102490000D02*
X47128000Y-103506000D01*
X48271000Y-102363000D02*
X48144000Y-102490000D01*
G04 #@! TO.N,Net-(J15-Pad6)*
X42492000Y-117794000D02*
X41286000Y-117794000D01*
X43064000Y-117222000D02*
X42492000Y-117794000D01*
X43064000Y-116206000D02*
X43064000Y-117222000D01*
X43318000Y-115952000D02*
X43064000Y-116206000D01*
X48906000Y-107824000D02*
X48906000Y-114936000D01*
X50430000Y-106300000D02*
X48906000Y-107824000D01*
X47890000Y-115952000D02*
X43318000Y-115952000D01*
X48906000Y-114936000D02*
X47890000Y-115952000D01*
X52208000Y-106300000D02*
X50430000Y-106300000D01*
X41286000Y-117794000D02*
X40206000Y-117794000D01*
X40206000Y-117794000D02*
X38238000Y-119762000D01*
X32453990Y-119186400D02*
X32453990Y-115003600D01*
X33029590Y-119762000D02*
X32453990Y-119186400D01*
X38238000Y-119762000D02*
X33029590Y-119762000D01*
X32453990Y-115003600D02*
X39379590Y-108078000D01*
X39379590Y-108078000D02*
X42048000Y-108078000D01*
X42048000Y-108078000D02*
X43318000Y-106808000D01*
X43318000Y-106808000D02*
X43318000Y-105538000D01*
X41821000Y-104041000D02*
X38509500Y-104041000D01*
X43318000Y-105538000D02*
X41821000Y-104041000D01*
G04 #@! TO.N,Net-(J15-Pad4)*
X51192000Y-93600000D02*
X52208000Y-93600000D01*
X46620000Y-89028000D02*
X51192000Y-93600000D01*
X46620000Y-84456000D02*
X46620000Y-89028000D01*
X43318000Y-83440000D02*
X45604000Y-83440000D01*
X43064000Y-83186000D02*
X43318000Y-83440000D01*
X43064000Y-82170000D02*
X43064000Y-83186000D01*
X45604000Y-83440000D02*
X46620000Y-84456000D01*
X42746000Y-81852000D02*
X43064000Y-82170000D01*
X41286000Y-81852000D02*
X42746000Y-81852000D01*
X40206000Y-81852000D02*
X38430989Y-80076989D01*
X41286000Y-81852000D02*
X40206000Y-81852000D01*
X44807000Y-97191000D02*
X41349500Y-97191000D01*
X45350000Y-94616000D02*
X45350000Y-96648000D01*
X45350000Y-96648000D02*
X44807000Y-97191000D01*
X41794000Y-91060000D02*
X45350000Y-94616000D01*
X38492000Y-91060000D02*
X41794000Y-91060000D01*
X32650000Y-85218000D02*
X38492000Y-91060000D01*
X33090600Y-80076990D02*
X32650000Y-80517590D01*
X38430989Y-80076989D02*
X33090600Y-80076990D01*
X32650000Y-80517590D02*
X32650000Y-85218000D01*
G04 #@! TO.N,Net-(J15-Pad3)*
X48652000Y-97918000D02*
X49414000Y-98680000D01*
X49414000Y-98680000D02*
X52208000Y-98680000D01*
X35634000Y-81852000D02*
X35952000Y-82170000D01*
X35952000Y-82170000D02*
X35952000Y-82932000D01*
X44784010Y-84398010D02*
X45350000Y-84964000D01*
X35952000Y-82932000D02*
X36460000Y-83440000D01*
X36460000Y-83440000D02*
X39633590Y-83440000D01*
X39633590Y-83440000D02*
X40083600Y-83890010D01*
X42244010Y-83890010D02*
X42752010Y-84398010D01*
X40083600Y-83890010D02*
X42244010Y-83890010D01*
X45350000Y-89536000D02*
X48652000Y-92838000D01*
X42752010Y-84398010D02*
X44784010Y-84398010D01*
X45350000Y-84964000D02*
X45350000Y-89536000D01*
X48652000Y-97410000D02*
X48652000Y-97918000D01*
X41349500Y-99931000D02*
X44543500Y-99931000D01*
X47128000Y-97346500D02*
X48652000Y-97346500D01*
X44543500Y-99931000D02*
X47128000Y-97346500D01*
X48652000Y-97346500D02*
X48652000Y-97410000D01*
X48652000Y-92838000D02*
X48652000Y-97346500D01*
X35634000Y-81852000D02*
X34428000Y-81852000D01*
G04 #@! TO.N,Net-(J15-Pad2)*
X38936000Y-117794000D02*
X37730000Y-117794000D01*
X39508000Y-116460000D02*
X39508000Y-117222000D01*
X40016000Y-115952000D02*
X39508000Y-116460000D01*
X42302000Y-115952000D02*
X40016000Y-115952000D01*
X47890000Y-114682000D02*
X47382000Y-115190000D01*
X43064000Y-115190000D02*
X42302000Y-115952000D01*
X47890000Y-105538000D02*
X47890000Y-114682000D01*
X49668000Y-103760000D02*
X47890000Y-105538000D01*
X47382000Y-115190000D02*
X43064000Y-115190000D01*
X52208000Y-103760000D02*
X49668000Y-103760000D01*
X39508000Y-117222000D02*
X38936000Y-117794000D01*
X43826000Y-107062000D02*
X43826000Y-105147500D01*
X42302000Y-108586000D02*
X43826000Y-107062000D01*
X32904000Y-119000000D02*
X32904000Y-115190000D01*
X43826000Y-105147500D02*
X41349500Y-102671000D01*
X33158000Y-119254000D02*
X32904000Y-119000000D01*
X39508000Y-108586000D02*
X42302000Y-108586000D01*
X35190000Y-119254000D02*
X33158000Y-119254000D01*
X32904000Y-115190000D02*
X39508000Y-108586000D01*
X36650000Y-117794000D02*
X35190000Y-119254000D01*
X37730000Y-117794000D02*
X36650000Y-117794000D01*
G04 #@! TO.N,Net-(J15-Pad1)*
X52208000Y-108840000D02*
X50430000Y-108840000D01*
X50430000Y-108840000D02*
X49668000Y-109602000D01*
X49668000Y-109602000D02*
X49668000Y-115444000D01*
X47318000Y-117794000D02*
X44842000Y-117794000D01*
X49668000Y-115444000D02*
X47318000Y-117794000D01*
X40524000Y-107570000D02*
X41349500Y-106744500D01*
X39251180Y-107570000D02*
X40524000Y-107570000D01*
X32003981Y-114817199D02*
X39251180Y-107570000D01*
X32003980Y-119372800D02*
X32003981Y-114817199D01*
X32901180Y-120270000D02*
X32003980Y-119372800D01*
X41286000Y-120270000D02*
X32901180Y-120270000D01*
X41349500Y-106744500D02*
X41349500Y-105411000D01*
X43762000Y-117794000D02*
X41286000Y-120270000D01*
X44842000Y-117794000D02*
X43762000Y-117794000D01*
D48*
G04 #@! TO.N,Net-(J16-Pad3)*
X37222000Y-65660000D02*
X42302000Y-65660000D01*
X35698000Y-65660000D02*
X37222000Y-65660000D01*
X35190000Y-66168000D02*
X35698000Y-65660000D01*
X35190000Y-69470000D02*
X35190000Y-66168000D01*
G04 #@! TO.N,Net-(J16-Pad1)*
X42302000Y-63120000D02*
X37222000Y-63120000D01*
X33158000Y-72010000D02*
X32650000Y-71502000D01*
X32650000Y-71502000D02*
X32650000Y-64390000D01*
X33920000Y-63120000D02*
X37222000Y-63120000D01*
X32650000Y-64390000D02*
X33920000Y-63120000D01*
X35190000Y-72010000D02*
X33158000Y-72010000D01*
D49*
G04 #@! TO.N,Net-(R23-Pad1)*
X42810000Y-75058000D02*
X42810000Y-72010000D01*
G04 #@! TO.N,Opto1*
X46874000Y-74042000D02*
X46874000Y-75058000D01*
X47128000Y-73788000D02*
X46874000Y-74042000D01*
X60082000Y-73788000D02*
X47128000Y-73788000D01*
X65162000Y-78868000D02*
X60082000Y-73788000D01*
X65162000Y-85472000D02*
X65162000Y-78868000D01*
X66686000Y-86996000D02*
X65162000Y-85472000D01*
G04 #@! TO.N,Net-(J3-Pad9)*
X35900000Y-169540000D02*
X40980000Y-169540000D01*
X40980000Y-169540000D02*
X51629800Y-169540000D01*
X60009800Y-161160000D02*
X61790000Y-161160000D01*
X51629800Y-169540000D02*
X60009800Y-161160000D01*
G04 #@! TO.N,Net-(J3-Pad8)*
X35900000Y-183540000D02*
X40980000Y-183540000D01*
X40980000Y-183540000D02*
X43217800Y-183540000D01*
X43217800Y-183540000D02*
X58583400Y-168174400D01*
X58583400Y-168174400D02*
X63307800Y-168174400D01*
X64530000Y-166952200D02*
X64530000Y-161160000D01*
X63307800Y-168174400D02*
X64530000Y-166952200D01*
G04 #@! TO.N,Net-(J3-Pad7)*
X71700000Y-179480000D02*
X71700000Y-174400000D01*
X71700000Y-174400000D02*
X71700000Y-170882000D01*
X71700000Y-170882000D02*
X67295600Y-166477600D01*
X67295600Y-161185600D02*
X67270000Y-161160000D01*
X67295600Y-166477600D02*
X67295600Y-161185600D01*
G04 #@! TO.N,Net-(J10-Pad3)*
X96480000Y-164600000D02*
X91400000Y-164600000D01*
X91400000Y-164600000D02*
X85297200Y-164600000D01*
X85297200Y-164600000D02*
X82967400Y-166929800D01*
X82967400Y-166929800D02*
X76871400Y-166929800D01*
X76871400Y-166929800D02*
X73874200Y-163932600D01*
X73874200Y-163932600D02*
X73874200Y-162535600D01*
X72498600Y-161160000D02*
X70010000Y-161160000D01*
X73874200Y-162535600D02*
X72498600Y-161160000D01*
G04 #@! TO.N,Net-(J3-Pad4)*
X35900000Y-176540000D02*
X40980000Y-176540000D01*
X40980000Y-176540000D02*
X46331600Y-176540000D01*
X46331600Y-176540000D02*
X55459200Y-167412400D01*
X55459200Y-167412400D02*
X61225000Y-167412400D01*
X63160000Y-165477400D02*
X63160000Y-164000000D01*
X61225000Y-167412400D02*
X63160000Y-165477400D01*
G04 #@! TO.N,Net-(J3-Pad3)*
X63200000Y-179580000D02*
X63200000Y-174500000D01*
X63200000Y-174500000D02*
X63200000Y-170466600D01*
X65900000Y-167766600D02*
X65900000Y-164000000D01*
X63200000Y-170466600D02*
X65900000Y-167766600D01*
G04 #@! TO.N,Net-(J3-Pad2)*
X96480000Y-178600000D02*
X91400000Y-178600000D01*
X68640000Y-164000000D02*
X68640000Y-165607200D01*
X81632800Y-178600000D02*
X91400000Y-178600000D01*
X68640000Y-165607200D02*
X81632800Y-178600000D01*
G04 #@! TO.N,Net-(J17-Pad3)*
X96480000Y-171700000D02*
X91400000Y-171700000D01*
X71380000Y-164000000D02*
X71380000Y-165858000D01*
X77222000Y-171700000D02*
X91400000Y-171700000D01*
X71380000Y-165858000D02*
X77222000Y-171700000D01*
G04 #@! TD*
M02*
