G04 #@! TF.GenerationSoftware,KiCad,Pcbnew,(5.1.9)-1*
G04 #@! TF.CreationDate,2021-02-18T20:03:26+01:00*
G04 #@! TF.ProjectId,SNModule,534e4d6f-6475-46c6-952e-6b696361645f,rev?*
G04 #@! TF.SameCoordinates,Original*
G04 #@! TF.FileFunction,Soldermask,Top*
G04 #@! TF.FilePolarity,Negative*
%FSLAX46Y46*%
G04 Gerber Fmt 4.6, Leading zero omitted, Abs format (unit mm)*
G04 Created by KiCad (PCBNEW (5.1.9)-1) date 2021-02-18 20:03:26*
%MOMM*%
%LPD*%
G01*
G04 APERTURE LIST*
%ADD10C,8.700000*%
%ADD11C,1.000000*%
%ADD12C,4.900000*%
%ADD13C,1.500000*%
%ADD14C,1.600000*%
%ADD15C,2.100000*%
%ADD16O,2.500000X1.700000*%
%ADD17C,1.620000*%
%ADD18C,1.700000*%
%ADD19C,5.052000*%
%ADD20C,1.900000*%
%ADD21O,1.800000X1.800000*%
%ADD22O,1.700000X1.700000*%
%ADD23O,2.600000X1.600000*%
G04 APERTURE END LIST*
D10*
G04 #@! TO.C,H6*
X97800000Y-157700000D03*
D11*
X101025000Y-157700000D03*
X100080419Y-159980419D03*
X97800000Y-160925000D03*
X95519581Y-159980419D03*
X94575000Y-157700000D03*
X95519581Y-155419581D03*
X97800000Y-154475000D03*
X100080419Y-155419581D03*
G04 #@! TD*
D10*
G04 #@! TO.C,H5*
X33800000Y-157600000D03*
D11*
X37025000Y-157600000D03*
X36080419Y-159880419D03*
X33800000Y-160825000D03*
X31519581Y-159880419D03*
X30575000Y-157600000D03*
X31519581Y-155319581D03*
X33800000Y-154375000D03*
X36080419Y-155319581D03*
G04 #@! TD*
G04 #@! TO.C,D7*
G36*
G01*
X58075000Y-131050000D02*
X59325000Y-131050000D01*
G75*
G02*
X59375000Y-131100000I0J-50000D01*
G01*
X59375000Y-131700000D01*
G75*
G02*
X59325000Y-131750000I-50000J0D01*
G01*
X58075000Y-131750000D01*
G75*
G02*
X58025000Y-131700000I0J50000D01*
G01*
X58025000Y-131100000D01*
G75*
G02*
X58075000Y-131050000I50000J0D01*
G01*
G37*
G36*
G01*
X60075000Y-130100000D02*
X61325000Y-130100000D01*
G75*
G02*
X61375000Y-130150000I0J-50000D01*
G01*
X61375000Y-130750000D01*
G75*
G02*
X61325000Y-130800000I-50000J0D01*
G01*
X60075000Y-130800000D01*
G75*
G02*
X60025000Y-130750000I0J50000D01*
G01*
X60025000Y-130150000D01*
G75*
G02*
X60075000Y-130100000I50000J0D01*
G01*
G37*
G36*
G01*
X60075000Y-132000000D02*
X61325000Y-132000000D01*
G75*
G02*
X61375000Y-132050000I0J-50000D01*
G01*
X61375000Y-132650000D01*
G75*
G02*
X61325000Y-132700000I-50000J0D01*
G01*
X60075000Y-132700000D01*
G75*
G02*
X60025000Y-132650000I0J50000D01*
G01*
X60025000Y-132050000D01*
G75*
G02*
X60075000Y-132000000I50000J0D01*
G01*
G37*
G04 #@! TD*
G04 #@! TO.C,D6*
G36*
G01*
X59225500Y-38301500D02*
X59225500Y-39551500D01*
G75*
G02*
X59175500Y-39601500I-50000J0D01*
G01*
X58575500Y-39601500D01*
G75*
G02*
X58525500Y-39551500I0J50000D01*
G01*
X58525500Y-38301500D01*
G75*
G02*
X58575500Y-38251500I50000J0D01*
G01*
X59175500Y-38251500D01*
G75*
G02*
X59225500Y-38301500I0J-50000D01*
G01*
G37*
G36*
G01*
X60175500Y-40301500D02*
X60175500Y-41551500D01*
G75*
G02*
X60125500Y-41601500I-50000J0D01*
G01*
X59525500Y-41601500D01*
G75*
G02*
X59475500Y-41551500I0J50000D01*
G01*
X59475500Y-40301500D01*
G75*
G02*
X59525500Y-40251500I50000J0D01*
G01*
X60125500Y-40251500D01*
G75*
G02*
X60175500Y-40301500I0J-50000D01*
G01*
G37*
G36*
G01*
X58275500Y-40301500D02*
X58275500Y-41551500D01*
G75*
G02*
X58225500Y-41601500I-50000J0D01*
G01*
X57625500Y-41601500D01*
G75*
G02*
X57575500Y-41551500I0J50000D01*
G01*
X57575500Y-40301500D01*
G75*
G02*
X57625500Y-40251500I50000J0D01*
G01*
X58225500Y-40251500D01*
G75*
G02*
X58275500Y-40301500I0J-50000D01*
G01*
G37*
G04 #@! TD*
D12*
G04 #@! TO.C,J2*
X53405000Y-136420000D03*
X78395000Y-136420000D03*
D13*
X61790000Y-137840000D03*
X64530000Y-137840000D03*
X67270000Y-137840000D03*
X70010000Y-137840000D03*
X60420000Y-135000000D03*
X63160000Y-135000000D03*
X65900000Y-135000000D03*
X68640000Y-135000000D03*
X71380000Y-135000000D03*
G04 #@! TD*
D14*
G04 #@! TO.C,J6*
X40980000Y-183540000D03*
X35900000Y-183540000D03*
X40980000Y-181000000D03*
X35900000Y-181000000D03*
G04 #@! TD*
D12*
G04 #@! TO.C,J3*
X53405000Y-162580000D03*
X78395000Y-162580000D03*
D13*
X61790000Y-161160000D03*
X64530000Y-161160000D03*
X67270000Y-161160000D03*
X70010000Y-161160000D03*
X60420000Y-164000000D03*
X63160000Y-164000000D03*
X65900000Y-164000000D03*
X68640000Y-164000000D03*
X71380000Y-164000000D03*
G04 #@! TD*
D14*
G04 #@! TO.C,J17*
X91400000Y-171700000D03*
X96480000Y-171700000D03*
X91400000Y-174240000D03*
X96480000Y-174240000D03*
G04 #@! TD*
G04 #@! TO.C,J10*
X91400000Y-164600000D03*
X96480000Y-164600000D03*
X91400000Y-167140000D03*
X96480000Y-167140000D03*
G04 #@! TD*
G04 #@! TO.C,J9*
X91400000Y-178600000D03*
X96480000Y-178600000D03*
X91400000Y-181140000D03*
X96480000Y-181140000D03*
G04 #@! TD*
G04 #@! TO.C,J8*
X71700000Y-174400000D03*
X71700000Y-179480000D03*
X69160000Y-174400000D03*
X69160000Y-179480000D03*
G04 #@! TD*
G04 #@! TO.C,J7*
X63200000Y-174500000D03*
X63200000Y-179580000D03*
X60660000Y-174500000D03*
X60660000Y-179580000D03*
G04 #@! TD*
G04 #@! TO.C,J5*
X40980000Y-176540000D03*
X35900000Y-176540000D03*
X40980000Y-174000000D03*
X35900000Y-174000000D03*
G04 #@! TD*
G04 #@! TO.C,J4*
X40980000Y-169540000D03*
X35900000Y-169540000D03*
X40980000Y-167000000D03*
X35900000Y-167000000D03*
G04 #@! TD*
G04 #@! TO.C,BZ1*
G36*
G01*
X69210000Y-122082000D02*
X67210000Y-122082000D01*
G75*
G02*
X67160000Y-122032000I0J50000D01*
G01*
X67160000Y-120032000D01*
G75*
G02*
X67210000Y-119982000I50000J0D01*
G01*
X69210000Y-119982000D01*
G75*
G02*
X69260000Y-120032000I0J-50000D01*
G01*
X69260000Y-122032000D01*
G75*
G02*
X69210000Y-122082000I-50000J0D01*
G01*
G37*
D15*
X68200000Y-116032000D03*
G04 #@! TD*
D12*
G04 #@! TO.C,J15*
X39929500Y-87436000D03*
X39929500Y-112426000D03*
D13*
X38509500Y-95821000D03*
X38509500Y-98561000D03*
X38509500Y-101301000D03*
X38509500Y-104041000D03*
X41349500Y-94451000D03*
X41349500Y-97191000D03*
X41349500Y-99931000D03*
X41349500Y-102671000D03*
X41349500Y-105411000D03*
G04 #@! TD*
D15*
G04 #@! TO.C,SW3*
X93356000Y-93092000D03*
X97856000Y-93092000D03*
X93356000Y-99592000D03*
X97856000Y-99592000D03*
G04 #@! TD*
D14*
G04 #@! TO.C,J16*
X42302000Y-65660000D03*
X37222000Y-65660000D03*
X42302000Y-63120000D03*
X37222000Y-63120000D03*
G04 #@! TD*
G04 #@! TO.C,U8*
G36*
G01*
X44060000Y-71210000D02*
X44060000Y-72810000D01*
G75*
G02*
X44010000Y-72860000I-50000J0D01*
G01*
X41610000Y-72860000D01*
G75*
G02*
X41560000Y-72810000I0J50000D01*
G01*
X41560000Y-71210000D01*
G75*
G02*
X41610000Y-71160000I50000J0D01*
G01*
X44010000Y-71160000D01*
G75*
G02*
X44060000Y-71210000I0J-50000D01*
G01*
G37*
D16*
X35190000Y-69470000D03*
X42810000Y-69470000D03*
X35190000Y-72010000D03*
G04 #@! TD*
G04 #@! TO.C,R23*
G36*
G01*
X41760000Y-75908000D02*
X41760000Y-74208000D01*
G75*
G02*
X41810000Y-74158000I50000J0D01*
G01*
X43810000Y-74158000D01*
G75*
G02*
X43860000Y-74208000I0J-50000D01*
G01*
X43860000Y-75908000D01*
G75*
G02*
X43810000Y-75958000I-50000J0D01*
G01*
X41810000Y-75958000D01*
G75*
G02*
X41760000Y-75908000I0J50000D01*
G01*
G37*
G36*
G01*
X45760000Y-75908000D02*
X45760000Y-74208000D01*
G75*
G02*
X45810000Y-74158000I50000J0D01*
G01*
X47810000Y-74158000D01*
G75*
G02*
X47860000Y-74208000I0J-50000D01*
G01*
X47860000Y-75908000D01*
G75*
G02*
X47810000Y-75958000I-50000J0D01*
G01*
X45810000Y-75958000D01*
G75*
G02*
X45760000Y-75908000I0J50000D01*
G01*
G37*
G04 #@! TD*
G04 #@! TO.C,R18*
G36*
G01*
X76622000Y-128486000D02*
X76622000Y-126786000D01*
G75*
G02*
X76672000Y-126736000I50000J0D01*
G01*
X78672000Y-126736000D01*
G75*
G02*
X78722000Y-126786000I0J-50000D01*
G01*
X78722000Y-128486000D01*
G75*
G02*
X78672000Y-128536000I-50000J0D01*
G01*
X76672000Y-128536000D01*
G75*
G02*
X76622000Y-128486000I0J50000D01*
G01*
G37*
G36*
G01*
X80622000Y-128486000D02*
X80622000Y-126786000D01*
G75*
G02*
X80672000Y-126736000I50000J0D01*
G01*
X82672000Y-126736000D01*
G75*
G02*
X82722000Y-126786000I0J-50000D01*
G01*
X82722000Y-128486000D01*
G75*
G02*
X82672000Y-128536000I-50000J0D01*
G01*
X80672000Y-128536000D01*
G75*
G02*
X80622000Y-128486000I0J50000D01*
G01*
G37*
G04 #@! TD*
G04 #@! TO.C,R9*
G36*
G01*
X42136000Y-122844000D02*
X40436000Y-122844000D01*
G75*
G02*
X40386000Y-122794000I0J50000D01*
G01*
X40386000Y-120794000D01*
G75*
G02*
X40436000Y-120744000I50000J0D01*
G01*
X42136000Y-120744000D01*
G75*
G02*
X42186000Y-120794000I0J-50000D01*
G01*
X42186000Y-122794000D01*
G75*
G02*
X42136000Y-122844000I-50000J0D01*
G01*
G37*
G36*
G01*
X42136000Y-118844000D02*
X40436000Y-118844000D01*
G75*
G02*
X40386000Y-118794000I0J50000D01*
G01*
X40386000Y-116794000D01*
G75*
G02*
X40436000Y-116744000I50000J0D01*
G01*
X42136000Y-116744000D01*
G75*
G02*
X42186000Y-116794000I0J-50000D01*
G01*
X42186000Y-118794000D01*
G75*
G02*
X42136000Y-118844000I-50000J0D01*
G01*
G37*
G04 #@! TD*
D17*
G04 #@! TO.C,Q1*
X66203400Y-110110000D03*
X63663400Y-110110000D03*
G36*
G01*
X67983400Y-109300000D02*
X69503400Y-109300000D01*
G75*
G02*
X69553400Y-109350000I0J-50000D01*
G01*
X69553400Y-110870000D01*
G75*
G02*
X69503400Y-110920000I-50000J0D01*
G01*
X67983400Y-110920000D01*
G75*
G02*
X67933400Y-110870000I0J50000D01*
G01*
X67933400Y-109350000D01*
G75*
G02*
X67983400Y-109300000I50000J0D01*
G01*
G37*
G04 #@! TD*
G04 #@! TO.C,C5*
G36*
G01*
X37438000Y-132506000D02*
X39038000Y-132506000D01*
G75*
G02*
X39088000Y-132556000I0J-50000D01*
G01*
X39088000Y-136056000D01*
G75*
G02*
X39038000Y-136106000I-50000J0D01*
G01*
X37438000Y-136106000D01*
G75*
G02*
X37388000Y-136056000I0J50000D01*
G01*
X37388000Y-132556000D01*
G75*
G02*
X37438000Y-132506000I50000J0D01*
G01*
G37*
G36*
G01*
X37438000Y-127106000D02*
X39038000Y-127106000D01*
G75*
G02*
X39088000Y-127156000I0J-50000D01*
G01*
X39088000Y-130656000D01*
G75*
G02*
X39038000Y-130706000I-50000J0D01*
G01*
X37438000Y-130706000D01*
G75*
G02*
X37388000Y-130656000I0J50000D01*
G01*
X37388000Y-127156000D01*
G75*
G02*
X37438000Y-127106000I50000J0D01*
G01*
G37*
G04 #@! TD*
D18*
G04 #@! TO.C,U1*
X66686000Y-71756000D03*
X66686000Y-74296000D03*
X66686000Y-76836000D03*
X66686000Y-79376000D03*
X66686000Y-81916000D03*
X66686000Y-84456000D03*
X66686000Y-86996000D03*
X66686000Y-89536000D03*
X66686000Y-92076000D03*
X66686000Y-94616000D03*
X66686000Y-97156000D03*
X66686000Y-99696000D03*
X66686000Y-102236000D03*
X79386000Y-74296000D03*
X81926000Y-71756000D03*
X81926000Y-74296000D03*
X81926000Y-76836000D03*
X81926000Y-79376000D03*
X81926000Y-81916000D03*
X81926000Y-84456000D03*
X81926000Y-86996000D03*
X81926000Y-89536000D03*
X81926000Y-92076000D03*
X81926000Y-94616000D03*
X81926000Y-97156000D03*
X81926000Y-99696000D03*
X81926000Y-102236000D03*
X66686000Y-104776000D03*
X69226000Y-104776000D03*
X71766000Y-104776000D03*
X81926000Y-104776000D03*
X79386000Y-104776000D03*
X76846000Y-104776000D03*
X74306000Y-104776000D03*
G04 #@! TD*
G04 #@! TO.C,R20*
G36*
G01*
X72616000Y-102206000D02*
X70916000Y-102206000D01*
G75*
G02*
X70866000Y-102156000I0J50000D01*
G01*
X70866000Y-100156000D01*
G75*
G02*
X70916000Y-100106000I50000J0D01*
G01*
X72616000Y-100106000D01*
G75*
G02*
X72666000Y-100156000I0J-50000D01*
G01*
X72666000Y-102156000D01*
G75*
G02*
X72616000Y-102206000I-50000J0D01*
G01*
G37*
G36*
G01*
X72616000Y-98206000D02*
X70916000Y-98206000D01*
G75*
G02*
X70866000Y-98156000I0J50000D01*
G01*
X70866000Y-96156000D01*
G75*
G02*
X70916000Y-96106000I50000J0D01*
G01*
X72616000Y-96106000D01*
G75*
G02*
X72666000Y-96156000I0J-50000D01*
G01*
X72666000Y-98156000D01*
G75*
G02*
X72616000Y-98206000I-50000J0D01*
G01*
G37*
G04 #@! TD*
D11*
G04 #@! TO.C,FID3*
X103900000Y-147000000D03*
G04 #@! TD*
G04 #@! TO.C,FID2*
X28840000Y-147000000D03*
G04 #@! TD*
G04 #@! TO.C,FID1*
X28840000Y-39752000D03*
G04 #@! TD*
D19*
G04 #@! TO.C,U7*
X99440000Y-71876000D03*
X90240000Y-71876000D03*
D20*
X97340000Y-64876000D03*
X92340000Y-64876000D03*
X94840000Y-79376000D03*
X97340000Y-79376000D03*
X92340000Y-79376000D03*
G04 #@! TD*
G04 #@! TO.C,J11*
G36*
G01*
X90396000Y-61226000D02*
X88696000Y-61226000D01*
G75*
G02*
X88646000Y-61176000I0J50000D01*
G01*
X88646000Y-59476000D01*
G75*
G02*
X88696000Y-59426000I50000J0D01*
G01*
X90396000Y-59426000D01*
G75*
G02*
X90446000Y-59476000I0J-50000D01*
G01*
X90446000Y-61176000D01*
G75*
G02*
X90396000Y-61226000I-50000J0D01*
G01*
G37*
D21*
X92086000Y-60326000D03*
X94626000Y-60326000D03*
X97166000Y-60326000D03*
G04 #@! TD*
D12*
G04 #@! TO.C,J1*
X44393000Y-34776000D03*
X69383000Y-34776000D03*
D13*
X52778000Y-33356000D03*
X55518000Y-33356000D03*
X58258000Y-33356000D03*
X60998000Y-33356000D03*
X51408000Y-36196000D03*
X54148000Y-36196000D03*
X56888000Y-36196000D03*
X59628000Y-36196000D03*
X62368000Y-36196000D03*
G04 #@! TD*
G04 #@! TO.C,L1*
G36*
G01*
X64245000Y-51188000D02*
X62095000Y-51188000D01*
G75*
G02*
X62045000Y-51138000I0J50000D01*
G01*
X62045000Y-45638000D01*
G75*
G02*
X62095000Y-45588000I50000J0D01*
G01*
X64245000Y-45588000D01*
G75*
G02*
X64295000Y-45638000I0J-50000D01*
G01*
X64295000Y-51138000D01*
G75*
G02*
X64245000Y-51188000I-50000J0D01*
G01*
G37*
G36*
G01*
X60395000Y-51188000D02*
X58245000Y-51188000D01*
G75*
G02*
X58195000Y-51138000I0J50000D01*
G01*
X58195000Y-45638000D01*
G75*
G02*
X58245000Y-45588000I50000J0D01*
G01*
X60395000Y-45588000D01*
G75*
G02*
X60445000Y-45638000I0J-50000D01*
G01*
X60445000Y-51138000D01*
G75*
G02*
X60395000Y-51188000I-50000J0D01*
G01*
G37*
G04 #@! TD*
G04 #@! TO.C,R13*
G36*
G01*
X89326000Y-133136000D02*
X89326000Y-134836000D01*
G75*
G02*
X89276000Y-134886000I-50000J0D01*
G01*
X87276000Y-134886000D01*
G75*
G02*
X87226000Y-134836000I0J50000D01*
G01*
X87226000Y-133136000D01*
G75*
G02*
X87276000Y-133086000I50000J0D01*
G01*
X89276000Y-133086000D01*
G75*
G02*
X89326000Y-133136000I0J-50000D01*
G01*
G37*
G36*
G01*
X85326000Y-133136000D02*
X85326000Y-134836000D01*
G75*
G02*
X85276000Y-134886000I-50000J0D01*
G01*
X83276000Y-134886000D01*
G75*
G02*
X83226000Y-134836000I0J50000D01*
G01*
X83226000Y-133136000D01*
G75*
G02*
X83276000Y-133086000I50000J0D01*
G01*
X85276000Y-133086000D01*
G75*
G02*
X85326000Y-133136000I0J-50000D01*
G01*
G37*
G04 #@! TD*
G04 #@! TO.C,R12*
G36*
G01*
X89326000Y-124246000D02*
X89326000Y-125946000D01*
G75*
G02*
X89276000Y-125996000I-50000J0D01*
G01*
X87276000Y-125996000D01*
G75*
G02*
X87226000Y-125946000I0J50000D01*
G01*
X87226000Y-124246000D01*
G75*
G02*
X87276000Y-124196000I50000J0D01*
G01*
X89276000Y-124196000D01*
G75*
G02*
X89326000Y-124246000I0J-50000D01*
G01*
G37*
G36*
G01*
X85326000Y-124246000D02*
X85326000Y-125946000D01*
G75*
G02*
X85276000Y-125996000I-50000J0D01*
G01*
X83276000Y-125996000D01*
G75*
G02*
X83226000Y-125946000I0J50000D01*
G01*
X83226000Y-124246000D01*
G75*
G02*
X83276000Y-124196000I50000J0D01*
G01*
X85276000Y-124196000D01*
G75*
G02*
X85326000Y-124246000I0J-50000D01*
G01*
G37*
G04 #@! TD*
G04 #@! TO.C,R11*
G36*
G01*
X89326000Y-115610000D02*
X89326000Y-117310000D01*
G75*
G02*
X89276000Y-117360000I-50000J0D01*
G01*
X87276000Y-117360000D01*
G75*
G02*
X87226000Y-117310000I0J50000D01*
G01*
X87226000Y-115610000D01*
G75*
G02*
X87276000Y-115560000I50000J0D01*
G01*
X89276000Y-115560000D01*
G75*
G02*
X89326000Y-115610000I0J-50000D01*
G01*
G37*
G36*
G01*
X85326000Y-115610000D02*
X85326000Y-117310000D01*
G75*
G02*
X85276000Y-117360000I-50000J0D01*
G01*
X83276000Y-117360000D01*
G75*
G02*
X83226000Y-117310000I0J50000D01*
G01*
X83226000Y-115610000D01*
G75*
G02*
X83276000Y-115560000I50000J0D01*
G01*
X85276000Y-115560000D01*
G75*
G02*
X85326000Y-115610000I0J-50000D01*
G01*
G37*
G04 #@! TD*
G04 #@! TO.C,R10*
G36*
G01*
X45692000Y-122844000D02*
X43992000Y-122844000D01*
G75*
G02*
X43942000Y-122794000I0J50000D01*
G01*
X43942000Y-120794000D01*
G75*
G02*
X43992000Y-120744000I50000J0D01*
G01*
X45692000Y-120744000D01*
G75*
G02*
X45742000Y-120794000I0J-50000D01*
G01*
X45742000Y-122794000D01*
G75*
G02*
X45692000Y-122844000I-50000J0D01*
G01*
G37*
G36*
G01*
X45692000Y-118844000D02*
X43992000Y-118844000D01*
G75*
G02*
X43942000Y-118794000I0J50000D01*
G01*
X43942000Y-116794000D01*
G75*
G02*
X43992000Y-116744000I50000J0D01*
G01*
X45692000Y-116744000D01*
G75*
G02*
X45742000Y-116794000I0J-50000D01*
G01*
X45742000Y-118794000D01*
G75*
G02*
X45692000Y-118844000I-50000J0D01*
G01*
G37*
G04 #@! TD*
G04 #@! TO.C,R8*
G36*
G01*
X38580000Y-122844000D02*
X36880000Y-122844000D01*
G75*
G02*
X36830000Y-122794000I0J50000D01*
G01*
X36830000Y-120794000D01*
G75*
G02*
X36880000Y-120744000I50000J0D01*
G01*
X38580000Y-120744000D01*
G75*
G02*
X38630000Y-120794000I0J-50000D01*
G01*
X38630000Y-122794000D01*
G75*
G02*
X38580000Y-122844000I-50000J0D01*
G01*
G37*
G36*
G01*
X38580000Y-118844000D02*
X36880000Y-118844000D01*
G75*
G02*
X36830000Y-118794000I0J50000D01*
G01*
X36830000Y-116794000D01*
G75*
G02*
X36880000Y-116744000I50000J0D01*
G01*
X38580000Y-116744000D01*
G75*
G02*
X38630000Y-116794000I0J-50000D01*
G01*
X38630000Y-118794000D01*
G75*
G02*
X38580000Y-118844000I-50000J0D01*
G01*
G37*
G04 #@! TD*
G04 #@! TO.C,R7*
G36*
G01*
X35024000Y-122844000D02*
X33324000Y-122844000D01*
G75*
G02*
X33274000Y-122794000I0J50000D01*
G01*
X33274000Y-120794000D01*
G75*
G02*
X33324000Y-120744000I50000J0D01*
G01*
X35024000Y-120744000D01*
G75*
G02*
X35074000Y-120794000I0J-50000D01*
G01*
X35074000Y-122794000D01*
G75*
G02*
X35024000Y-122844000I-50000J0D01*
G01*
G37*
G36*
G01*
X35024000Y-118844000D02*
X33324000Y-118844000D01*
G75*
G02*
X33274000Y-118794000I0J50000D01*
G01*
X33274000Y-116794000D01*
G75*
G02*
X33324000Y-116744000I50000J0D01*
G01*
X35024000Y-116744000D01*
G75*
G02*
X35074000Y-116794000I0J-50000D01*
G01*
X35074000Y-118794000D01*
G75*
G02*
X35024000Y-118844000I-50000J0D01*
G01*
G37*
G04 #@! TD*
G04 #@! TO.C,R6*
G36*
G01*
X33578000Y-76802000D02*
X35278000Y-76802000D01*
G75*
G02*
X35328000Y-76852000I0J-50000D01*
G01*
X35328000Y-78852000D01*
G75*
G02*
X35278000Y-78902000I-50000J0D01*
G01*
X33578000Y-78902000D01*
G75*
G02*
X33528000Y-78852000I0J50000D01*
G01*
X33528000Y-76852000D01*
G75*
G02*
X33578000Y-76802000I50000J0D01*
G01*
G37*
G36*
G01*
X33578000Y-80802000D02*
X35278000Y-80802000D01*
G75*
G02*
X35328000Y-80852000I0J-50000D01*
G01*
X35328000Y-82852000D01*
G75*
G02*
X35278000Y-82902000I-50000J0D01*
G01*
X33578000Y-82902000D01*
G75*
G02*
X33528000Y-82852000I0J50000D01*
G01*
X33528000Y-80852000D01*
G75*
G02*
X33578000Y-80802000I50000J0D01*
G01*
G37*
G04 #@! TD*
G04 #@! TO.C,R5*
G36*
G01*
X36880000Y-76802000D02*
X38580000Y-76802000D01*
G75*
G02*
X38630000Y-76852000I0J-50000D01*
G01*
X38630000Y-78852000D01*
G75*
G02*
X38580000Y-78902000I-50000J0D01*
G01*
X36880000Y-78902000D01*
G75*
G02*
X36830000Y-78852000I0J50000D01*
G01*
X36830000Y-76852000D01*
G75*
G02*
X36880000Y-76802000I50000J0D01*
G01*
G37*
G36*
G01*
X36880000Y-80802000D02*
X38580000Y-80802000D01*
G75*
G02*
X38630000Y-80852000I0J-50000D01*
G01*
X38630000Y-82852000D01*
G75*
G02*
X38580000Y-82902000I-50000J0D01*
G01*
X36880000Y-82902000D01*
G75*
G02*
X36830000Y-82852000I0J50000D01*
G01*
X36830000Y-80852000D01*
G75*
G02*
X36880000Y-80802000I50000J0D01*
G01*
G37*
G04 #@! TD*
G04 #@! TO.C,R4*
G36*
G01*
X40436000Y-76802000D02*
X42136000Y-76802000D01*
G75*
G02*
X42186000Y-76852000I0J-50000D01*
G01*
X42186000Y-78852000D01*
G75*
G02*
X42136000Y-78902000I-50000J0D01*
G01*
X40436000Y-78902000D01*
G75*
G02*
X40386000Y-78852000I0J50000D01*
G01*
X40386000Y-76852000D01*
G75*
G02*
X40436000Y-76802000I50000J0D01*
G01*
G37*
G36*
G01*
X40436000Y-80802000D02*
X42136000Y-80802000D01*
G75*
G02*
X42186000Y-80852000I0J-50000D01*
G01*
X42186000Y-82852000D01*
G75*
G02*
X42136000Y-82902000I-50000J0D01*
G01*
X40436000Y-82902000D01*
G75*
G02*
X40386000Y-82852000I0J50000D01*
G01*
X40386000Y-80852000D01*
G75*
G02*
X40436000Y-80802000I50000J0D01*
G01*
G37*
G04 #@! TD*
G04 #@! TO.C,R3*
G36*
G01*
X43992000Y-76802000D02*
X45692000Y-76802000D01*
G75*
G02*
X45742000Y-76852000I0J-50000D01*
G01*
X45742000Y-78852000D01*
G75*
G02*
X45692000Y-78902000I-50000J0D01*
G01*
X43992000Y-78902000D01*
G75*
G02*
X43942000Y-78852000I0J50000D01*
G01*
X43942000Y-76852000D01*
G75*
G02*
X43992000Y-76802000I50000J0D01*
G01*
G37*
G36*
G01*
X43992000Y-80802000D02*
X45692000Y-80802000D01*
G75*
G02*
X45742000Y-80852000I0J-50000D01*
G01*
X45742000Y-82852000D01*
G75*
G02*
X45692000Y-82902000I-50000J0D01*
G01*
X43992000Y-82902000D01*
G75*
G02*
X43942000Y-82852000I0J50000D01*
G01*
X43942000Y-80852000D01*
G75*
G02*
X43992000Y-80802000I50000J0D01*
G01*
G37*
G04 #@! TD*
G04 #@! TO.C,R2*
G36*
G01*
X75361000Y-75977000D02*
X77061000Y-75977000D01*
G75*
G02*
X77111000Y-76027000I0J-50000D01*
G01*
X77111000Y-78027000D01*
G75*
G02*
X77061000Y-78077000I-50000J0D01*
G01*
X75361000Y-78077000D01*
G75*
G02*
X75311000Y-78027000I0J50000D01*
G01*
X75311000Y-76027000D01*
G75*
G02*
X75361000Y-75977000I50000J0D01*
G01*
G37*
G36*
G01*
X75361000Y-79977000D02*
X77061000Y-79977000D01*
G75*
G02*
X77111000Y-80027000I0J-50000D01*
G01*
X77111000Y-82027000D01*
G75*
G02*
X77061000Y-82077000I-50000J0D01*
G01*
X75361000Y-82077000D01*
G75*
G02*
X75311000Y-82027000I0J50000D01*
G01*
X75311000Y-80027000D01*
G75*
G02*
X75361000Y-79977000I50000J0D01*
G01*
G37*
G04 #@! TD*
G04 #@! TO.C,R1*
G36*
G01*
X71424000Y-75977000D02*
X73124000Y-75977000D01*
G75*
G02*
X73174000Y-76027000I0J-50000D01*
G01*
X73174000Y-78027000D01*
G75*
G02*
X73124000Y-78077000I-50000J0D01*
G01*
X71424000Y-78077000D01*
G75*
G02*
X71374000Y-78027000I0J50000D01*
G01*
X71374000Y-76027000D01*
G75*
G02*
X71424000Y-75977000I50000J0D01*
G01*
G37*
G36*
G01*
X71424000Y-79977000D02*
X73124000Y-79977000D01*
G75*
G02*
X73174000Y-80027000I0J-50000D01*
G01*
X73174000Y-82027000D01*
G75*
G02*
X73124000Y-82077000I-50000J0D01*
G01*
X71424000Y-82077000D01*
G75*
G02*
X71374000Y-82027000I0J50000D01*
G01*
X71374000Y-80027000D01*
G75*
G02*
X71424000Y-79977000I50000J0D01*
G01*
G37*
G04 #@! TD*
G04 #@! TO.C,R14*
G36*
G01*
X63616000Y-129726000D02*
X63616000Y-128026000D01*
G75*
G02*
X63666000Y-127976000I50000J0D01*
G01*
X65666000Y-127976000D01*
G75*
G02*
X65716000Y-128026000I0J-50000D01*
G01*
X65716000Y-129726000D01*
G75*
G02*
X65666000Y-129776000I-50000J0D01*
G01*
X63666000Y-129776000D01*
G75*
G02*
X63616000Y-129726000I0J50000D01*
G01*
G37*
G36*
G01*
X67616000Y-129726000D02*
X67616000Y-128026000D01*
G75*
G02*
X67666000Y-127976000I50000J0D01*
G01*
X69666000Y-127976000D01*
G75*
G02*
X69716000Y-128026000I0J-50000D01*
G01*
X69716000Y-129726000D01*
G75*
G02*
X69666000Y-129776000I-50000J0D01*
G01*
X67666000Y-129776000D01*
G75*
G02*
X67616000Y-129726000I0J50000D01*
G01*
G37*
G04 #@! TD*
G04 #@! TO.C,JP1*
G36*
G01*
X66356000Y-131024000D02*
X68056000Y-131024000D01*
G75*
G02*
X68106000Y-131074000I0J-50000D01*
G01*
X68106000Y-132774000D01*
G75*
G02*
X68056000Y-132824000I-50000J0D01*
G01*
X66356000Y-132824000D01*
G75*
G02*
X66306000Y-132774000I0J50000D01*
G01*
X66306000Y-131074000D01*
G75*
G02*
X66356000Y-131024000I50000J0D01*
G01*
G37*
D21*
X64666000Y-131924000D03*
G04 #@! TD*
G04 #@! TO.C,U4*
G36*
G01*
X70908000Y-87550000D02*
X70908000Y-86950000D01*
G75*
G02*
X70958000Y-86900000I50000J0D01*
G01*
X72508000Y-86900000D01*
G75*
G02*
X72558000Y-86950000I0J-50000D01*
G01*
X72558000Y-87550000D01*
G75*
G02*
X72508000Y-87600000I-50000J0D01*
G01*
X70958000Y-87600000D01*
G75*
G02*
X70908000Y-87550000I0J50000D01*
G01*
G37*
G36*
G01*
X70908000Y-88820000D02*
X70908000Y-88220000D01*
G75*
G02*
X70958000Y-88170000I50000J0D01*
G01*
X72508000Y-88170000D01*
G75*
G02*
X72558000Y-88220000I0J-50000D01*
G01*
X72558000Y-88820000D01*
G75*
G02*
X72508000Y-88870000I-50000J0D01*
G01*
X70958000Y-88870000D01*
G75*
G02*
X70908000Y-88820000I0J50000D01*
G01*
G37*
G36*
G01*
X70908000Y-90090000D02*
X70908000Y-89490000D01*
G75*
G02*
X70958000Y-89440000I50000J0D01*
G01*
X72508000Y-89440000D01*
G75*
G02*
X72558000Y-89490000I0J-50000D01*
G01*
X72558000Y-90090000D01*
G75*
G02*
X72508000Y-90140000I-50000J0D01*
G01*
X70958000Y-90140000D01*
G75*
G02*
X70908000Y-90090000I0J50000D01*
G01*
G37*
G36*
G01*
X70908000Y-91360000D02*
X70908000Y-90760000D01*
G75*
G02*
X70958000Y-90710000I50000J0D01*
G01*
X72508000Y-90710000D01*
G75*
G02*
X72558000Y-90760000I0J-50000D01*
G01*
X72558000Y-91360000D01*
G75*
G02*
X72508000Y-91410000I-50000J0D01*
G01*
X70958000Y-91410000D01*
G75*
G02*
X70908000Y-91360000I0J50000D01*
G01*
G37*
G36*
G01*
X76308000Y-91360000D02*
X76308000Y-90760000D01*
G75*
G02*
X76358000Y-90710000I50000J0D01*
G01*
X77908000Y-90710000D01*
G75*
G02*
X77958000Y-90760000I0J-50000D01*
G01*
X77958000Y-91360000D01*
G75*
G02*
X77908000Y-91410000I-50000J0D01*
G01*
X76358000Y-91410000D01*
G75*
G02*
X76308000Y-91360000I0J50000D01*
G01*
G37*
G36*
G01*
X76308000Y-90090000D02*
X76308000Y-89490000D01*
G75*
G02*
X76358000Y-89440000I50000J0D01*
G01*
X77908000Y-89440000D01*
G75*
G02*
X77958000Y-89490000I0J-50000D01*
G01*
X77958000Y-90090000D01*
G75*
G02*
X77908000Y-90140000I-50000J0D01*
G01*
X76358000Y-90140000D01*
G75*
G02*
X76308000Y-90090000I0J50000D01*
G01*
G37*
G36*
G01*
X76308000Y-88820000D02*
X76308000Y-88220000D01*
G75*
G02*
X76358000Y-88170000I50000J0D01*
G01*
X77908000Y-88170000D01*
G75*
G02*
X77958000Y-88220000I0J-50000D01*
G01*
X77958000Y-88820000D01*
G75*
G02*
X77908000Y-88870000I-50000J0D01*
G01*
X76358000Y-88870000D01*
G75*
G02*
X76308000Y-88820000I0J50000D01*
G01*
G37*
G36*
G01*
X76308000Y-87550000D02*
X76308000Y-86950000D01*
G75*
G02*
X76358000Y-86900000I50000J0D01*
G01*
X77908000Y-86900000D01*
G75*
G02*
X77958000Y-86950000I0J-50000D01*
G01*
X77958000Y-87550000D01*
G75*
G02*
X77908000Y-87600000I-50000J0D01*
G01*
X76358000Y-87600000D01*
G75*
G02*
X76308000Y-87550000I0J50000D01*
G01*
G37*
G04 #@! TD*
G04 #@! TO.C,U3*
G36*
G01*
X58140000Y-118650000D02*
X59740000Y-118650000D01*
G75*
G02*
X59790000Y-118700000I0J-50000D01*
G01*
X59790000Y-120300000D01*
G75*
G02*
X59740000Y-120350000I-50000J0D01*
G01*
X58140000Y-120350000D01*
G75*
G02*
X58090000Y-120300000I0J50000D01*
G01*
X58090000Y-118700000D01*
G75*
G02*
X58140000Y-118650000I50000J0D01*
G01*
G37*
D22*
X51320000Y-127120000D03*
X56400000Y-119500000D03*
X53860000Y-127120000D03*
X53860000Y-119500000D03*
X56400000Y-127120000D03*
X51320000Y-119500000D03*
X58940000Y-127120000D03*
G04 #@! TD*
G04 #@! TO.C,U2*
G36*
G01*
X50976000Y-63462000D02*
X49376000Y-63462000D01*
G75*
G02*
X49326000Y-63412000I0J50000D01*
G01*
X49326000Y-61812000D01*
G75*
G02*
X49376000Y-61762000I50000J0D01*
G01*
X50976000Y-61762000D01*
G75*
G02*
X51026000Y-61812000I0J-50000D01*
G01*
X51026000Y-63412000D01*
G75*
G02*
X50976000Y-63462000I-50000J0D01*
G01*
G37*
X57796000Y-54992000D03*
X52716000Y-62612000D03*
X55256000Y-54992000D03*
X55256000Y-62612000D03*
X52716000Y-54992000D03*
X57796000Y-62612000D03*
X50176000Y-54992000D03*
G04 #@! TD*
G04 #@! TO.C,U6*
G36*
G01*
X86853920Y-54534700D02*
X84353920Y-54534700D01*
G75*
G02*
X84303920Y-54484700I0J50000D01*
G01*
X84303920Y-52984700D01*
G75*
G02*
X84353920Y-52934700I50000J0D01*
G01*
X86853920Y-52934700D01*
G75*
G02*
X86903920Y-52984700I0J-50000D01*
G01*
X86903920Y-54484700D01*
G75*
G02*
X86853920Y-54534700I-50000J0D01*
G01*
G37*
D23*
X85603920Y-51194700D03*
X85603920Y-48654700D03*
G04 #@! TD*
G04 #@! TO.C,U5*
G36*
G01*
X51358000Y-91860000D02*
X51358000Y-90260000D01*
G75*
G02*
X51408000Y-90210000I50000J0D01*
G01*
X53008000Y-90210000D01*
G75*
G02*
X53058000Y-90260000I0J-50000D01*
G01*
X53058000Y-91860000D01*
G75*
G02*
X53008000Y-91910000I-50000J0D01*
G01*
X51408000Y-91910000D01*
G75*
G02*
X51358000Y-91860000I0J50000D01*
G01*
G37*
D22*
X59828000Y-108840000D03*
X52208000Y-93600000D03*
X59828000Y-106300000D03*
X52208000Y-96140000D03*
X59828000Y-103760000D03*
X52208000Y-98680000D03*
X59828000Y-101220000D03*
X52208000Y-101220000D03*
X59828000Y-98680000D03*
X52208000Y-103760000D03*
X59828000Y-96140000D03*
X52208000Y-106300000D03*
X59828000Y-93600000D03*
X52208000Y-108840000D03*
X59828000Y-91060000D03*
G04 #@! TD*
D15*
G04 #@! TO.C,SW2*
X93428000Y-103506000D03*
X97928000Y-103506000D03*
X93428000Y-110006000D03*
X97928000Y-110006000D03*
G04 #@! TD*
G04 #@! TO.C,J14*
G36*
G01*
X50822000Y-83606000D02*
X50822000Y-85306000D01*
G75*
G02*
X50772000Y-85356000I-50000J0D01*
G01*
X49072000Y-85356000D01*
G75*
G02*
X49022000Y-85306000I0J50000D01*
G01*
X49022000Y-83606000D01*
G75*
G02*
X49072000Y-83556000I50000J0D01*
G01*
X50772000Y-83556000D01*
G75*
G02*
X50822000Y-83606000I0J-50000D01*
G01*
G37*
D21*
X49922000Y-81916000D03*
G04 #@! TD*
G04 #@! TO.C,J13*
G36*
G01*
X64775080Y-56868160D02*
X64775080Y-55168160D01*
G75*
G02*
X64825080Y-55118160I50000J0D01*
G01*
X66525080Y-55118160D01*
G75*
G02*
X66575080Y-55168160I0J-50000D01*
G01*
X66575080Y-56868160D01*
G75*
G02*
X66525080Y-56918160I-50000J0D01*
G01*
X64825080Y-56918160D01*
G75*
G02*
X64775080Y-56868160I0J50000D01*
G01*
G37*
X65675080Y-58558160D03*
X65675080Y-61098160D03*
X65675080Y-63638160D03*
G04 #@! TD*
G04 #@! TO.C,J12*
G36*
G01*
X49022000Y-70878800D02*
X49022000Y-69178800D01*
G75*
G02*
X49072000Y-69128800I50000J0D01*
G01*
X50772000Y-69128800D01*
G75*
G02*
X50822000Y-69178800I0J-50000D01*
G01*
X50822000Y-70878800D01*
G75*
G02*
X50772000Y-70928800I-50000J0D01*
G01*
X49072000Y-70928800D01*
G75*
G02*
X49022000Y-70878800I0J50000D01*
G01*
G37*
X49922000Y-72568800D03*
X49922000Y-75108800D03*
X49922000Y-77648800D03*
G04 #@! TD*
G04 #@! TO.C,F1*
G36*
G01*
X44793000Y-49967000D02*
X44793000Y-47317000D01*
G75*
G02*
X44843000Y-47267000I50000J0D01*
G01*
X46873000Y-47267000D01*
G75*
G02*
X46923000Y-47317000I0J-50000D01*
G01*
X46923000Y-49967000D01*
G75*
G02*
X46873000Y-50017000I-50000J0D01*
G01*
X44843000Y-50017000D01*
G75*
G02*
X44793000Y-49967000I0J50000D01*
G01*
G37*
G36*
G01*
X44793000Y-54147000D02*
X44793000Y-51497000D01*
G75*
G02*
X44843000Y-51447000I50000J0D01*
G01*
X46873000Y-51447000D01*
G75*
G02*
X46923000Y-51497000I0J-50000D01*
G01*
X46923000Y-54147000D01*
G75*
G02*
X46873000Y-54197000I-50000J0D01*
G01*
X44843000Y-54197000D01*
G75*
G02*
X44793000Y-54147000I0J50000D01*
G01*
G37*
G04 #@! TD*
G04 #@! TO.C,D4*
G36*
G01*
X92152000Y-134886000D02*
X92152000Y-133086000D01*
G75*
G02*
X92202000Y-133036000I50000J0D01*
G01*
X94002000Y-133036000D01*
G75*
G02*
X94052000Y-133086000I0J-50000D01*
G01*
X94052000Y-134886000D01*
G75*
G02*
X94002000Y-134936000I-50000J0D01*
G01*
X92202000Y-134936000D01*
G75*
G02*
X92152000Y-134886000I0J50000D01*
G01*
G37*
D20*
X95642000Y-133986000D03*
G04 #@! TD*
G04 #@! TO.C,D3*
G36*
G01*
X92152000Y-125996000D02*
X92152000Y-124196000D01*
G75*
G02*
X92202000Y-124146000I50000J0D01*
G01*
X94002000Y-124146000D01*
G75*
G02*
X94052000Y-124196000I0J-50000D01*
G01*
X94052000Y-125996000D01*
G75*
G02*
X94002000Y-126046000I-50000J0D01*
G01*
X92202000Y-126046000D01*
G75*
G02*
X92152000Y-125996000I0J50000D01*
G01*
G37*
X95642000Y-125096000D03*
G04 #@! TD*
G04 #@! TO.C,D2*
G36*
G01*
X92152000Y-117360000D02*
X92152000Y-115560000D01*
G75*
G02*
X92202000Y-115510000I50000J0D01*
G01*
X94002000Y-115510000D01*
G75*
G02*
X94052000Y-115560000I0J-50000D01*
G01*
X94052000Y-117360000D01*
G75*
G02*
X94002000Y-117410000I-50000J0D01*
G01*
X92202000Y-117410000D01*
G75*
G02*
X92152000Y-117360000I0J50000D01*
G01*
G37*
X95642000Y-116460000D03*
G04 #@! TD*
G04 #@! TO.C,C3*
G36*
G01*
X68940000Y-51470000D02*
X67340000Y-51470000D01*
G75*
G02*
X67290000Y-51420000I0J50000D01*
G01*
X67290000Y-49420000D01*
G75*
G02*
X67340000Y-49370000I50000J0D01*
G01*
X68940000Y-49370000D01*
G75*
G02*
X68990000Y-49420000I0J-50000D01*
G01*
X68990000Y-51420000D01*
G75*
G02*
X68940000Y-51470000I-50000J0D01*
G01*
G37*
G36*
G01*
X68940000Y-47470000D02*
X67340000Y-47470000D01*
G75*
G02*
X67290000Y-47420000I0J50000D01*
G01*
X67290000Y-45420000D01*
G75*
G02*
X67340000Y-45370000I50000J0D01*
G01*
X68940000Y-45370000D01*
G75*
G02*
X68990000Y-45420000I0J-50000D01*
G01*
X68990000Y-47420000D01*
G75*
G02*
X68940000Y-47470000I-50000J0D01*
G01*
G37*
G04 #@! TD*
G04 #@! TO.C,C2*
G36*
G01*
X51357000Y-49628000D02*
X49757000Y-49628000D01*
G75*
G02*
X49707000Y-49578000I0J50000D01*
G01*
X49707000Y-47578000D01*
G75*
G02*
X49757000Y-47528000I50000J0D01*
G01*
X51357000Y-47528000D01*
G75*
G02*
X51407000Y-47578000I0J-50000D01*
G01*
X51407000Y-49578000D01*
G75*
G02*
X51357000Y-49628000I-50000J0D01*
G01*
G37*
G36*
G01*
X51357000Y-45628000D02*
X49757000Y-45628000D01*
G75*
G02*
X49707000Y-45578000I0J50000D01*
G01*
X49707000Y-43578000D01*
G75*
G02*
X49757000Y-43528000I50000J0D01*
G01*
X51357000Y-43528000D01*
G75*
G02*
X51407000Y-43578000I0J-50000D01*
G01*
X51407000Y-45578000D01*
G75*
G02*
X51357000Y-45628000I-50000J0D01*
G01*
G37*
G04 #@! TD*
G04 #@! TO.C,C1*
G36*
G01*
X55421000Y-49628000D02*
X53821000Y-49628000D01*
G75*
G02*
X53771000Y-49578000I0J50000D01*
G01*
X53771000Y-47578000D01*
G75*
G02*
X53821000Y-47528000I50000J0D01*
G01*
X55421000Y-47528000D01*
G75*
G02*
X55471000Y-47578000I0J-50000D01*
G01*
X55471000Y-49578000D01*
G75*
G02*
X55421000Y-49628000I-50000J0D01*
G01*
G37*
G36*
G01*
X55421000Y-45628000D02*
X53821000Y-45628000D01*
G75*
G02*
X53771000Y-45578000I0J50000D01*
G01*
X53771000Y-43578000D01*
G75*
G02*
X53821000Y-43528000I50000J0D01*
G01*
X55421000Y-43528000D01*
G75*
G02*
X55471000Y-43578000I0J-50000D01*
G01*
X55471000Y-45578000D01*
G75*
G02*
X55421000Y-45628000I-50000J0D01*
G01*
G37*
G04 #@! TD*
D10*
G04 #@! TO.C,H1*
X97800000Y-46100000D03*
D11*
X101025000Y-46100000D03*
X100080419Y-48380419D03*
X97800000Y-49325000D03*
X95519581Y-48380419D03*
X94575000Y-46100000D03*
X95519581Y-43819581D03*
X97800000Y-42875000D03*
X100080419Y-43819581D03*
G04 #@! TD*
D10*
G04 #@! TO.C,H2*
X33800000Y-46100000D03*
D11*
X37025000Y-46100000D03*
X36080419Y-48380419D03*
X33800000Y-49325000D03*
X31519581Y-48380419D03*
X30575000Y-46100000D03*
X31519581Y-43819581D03*
X33800000Y-42875000D03*
X36080419Y-43819581D03*
G04 #@! TD*
D10*
G04 #@! TO.C,H3*
X33800000Y-142000000D03*
D11*
X37025000Y-142000000D03*
X36080419Y-144280419D03*
X33800000Y-145225000D03*
X31519581Y-144280419D03*
X30575000Y-142000000D03*
X31519581Y-139719581D03*
X33800000Y-138775000D03*
X36080419Y-139719581D03*
G04 #@! TD*
D10*
G04 #@! TO.C,H4*
X97800000Y-142000000D03*
D11*
X101025000Y-142000000D03*
X100080419Y-144280419D03*
X97800000Y-145225000D03*
X95519581Y-144280419D03*
X94575000Y-142000000D03*
X95519581Y-139719581D03*
X97800000Y-138775000D03*
X100080419Y-139719581D03*
G04 #@! TD*
G04 #@! TO.C,D1*
G36*
G01*
X42848000Y-53510000D02*
X41248000Y-53510000D01*
G75*
G02*
X41198000Y-53460000I0J50000D01*
G01*
X41198000Y-52460000D01*
G75*
G02*
X41248000Y-52410000I50000J0D01*
G01*
X42848000Y-52410000D01*
G75*
G02*
X42898000Y-52460000I0J-50000D01*
G01*
X42898000Y-53460000D01*
G75*
G02*
X42848000Y-53510000I-50000J0D01*
G01*
G37*
G36*
G01*
X42848000Y-50510000D02*
X41248000Y-50510000D01*
G75*
G02*
X41198000Y-50460000I0J50000D01*
G01*
X41198000Y-49460000D01*
G75*
G02*
X41248000Y-49410000I50000J0D01*
G01*
X42848000Y-49410000D01*
G75*
G02*
X42898000Y-49460000I0J-50000D01*
G01*
X42898000Y-50460000D01*
G75*
G02*
X42848000Y-50510000I-50000J0D01*
G01*
G37*
G04 #@! TD*
G04 #@! TO.C,D5*
G36*
G01*
X29060000Y-56492000D02*
X29060000Y-53492000D01*
G75*
G02*
X29110000Y-53442000I50000J0D01*
G01*
X31110000Y-53442000D01*
G75*
G02*
X31160000Y-53492000I0J-50000D01*
G01*
X31160000Y-56492000D01*
G75*
G02*
X31110000Y-56542000I-50000J0D01*
G01*
X29110000Y-56542000D01*
G75*
G02*
X29060000Y-56492000I0J50000D01*
G01*
G37*
G36*
G01*
X33710000Y-56492000D02*
X33710000Y-53492000D01*
G75*
G02*
X33760000Y-53442000I50000J0D01*
G01*
X35760000Y-53442000D01*
G75*
G02*
X35810000Y-53492000I0J-50000D01*
G01*
X35810000Y-56492000D01*
G75*
G02*
X35760000Y-56542000I-50000J0D01*
G01*
X33760000Y-56542000D01*
G75*
G02*
X33710000Y-56492000I0J50000D01*
G01*
G37*
G04 #@! TD*
G04 #@! TO.C,C4*
G36*
G01*
X83813040Y-41979480D02*
X83813040Y-40379480D01*
G75*
G02*
X83863040Y-40329480I50000J0D01*
G01*
X87363040Y-40329480D01*
G75*
G02*
X87413040Y-40379480I0J-50000D01*
G01*
X87413040Y-41979480D01*
G75*
G02*
X87363040Y-42029480I-50000J0D01*
G01*
X83863040Y-42029480D01*
G75*
G02*
X83813040Y-41979480I0J50000D01*
G01*
G37*
G36*
G01*
X78413040Y-41979480D02*
X78413040Y-40379480D01*
G75*
G02*
X78463040Y-40329480I50000J0D01*
G01*
X81963040Y-40329480D01*
G75*
G02*
X82013040Y-40379480I0J-50000D01*
G01*
X82013040Y-41979480D01*
G75*
G02*
X81963040Y-42029480I-50000J0D01*
G01*
X78463040Y-42029480D01*
G75*
G02*
X78413040Y-41979480I0J50000D01*
G01*
G37*
G04 #@! TD*
G04 #@! TO.C,C6*
G36*
G01*
X62330000Y-90518000D02*
X63930000Y-90518000D01*
G75*
G02*
X63980000Y-90568000I0J-50000D01*
G01*
X63980000Y-92568000D01*
G75*
G02*
X63930000Y-92618000I-50000J0D01*
G01*
X62330000Y-92618000D01*
G75*
G02*
X62280000Y-92568000I0J50000D01*
G01*
X62280000Y-90568000D01*
G75*
G02*
X62330000Y-90518000I50000J0D01*
G01*
G37*
G36*
G01*
X62330000Y-94518000D02*
X63930000Y-94518000D01*
G75*
G02*
X63980000Y-94568000I0J-50000D01*
G01*
X63980000Y-96568000D01*
G75*
G02*
X63930000Y-96618000I-50000J0D01*
G01*
X62330000Y-96618000D01*
G75*
G02*
X62280000Y-96568000I0J50000D01*
G01*
X62280000Y-94568000D01*
G75*
G02*
X62330000Y-94518000I50000J0D01*
G01*
G37*
G04 #@! TD*
G04 #@! TO.C,C7*
G36*
G01*
X77388000Y-83529000D02*
X77388000Y-85129000D01*
G75*
G02*
X77338000Y-85179000I-50000J0D01*
G01*
X75338000Y-85179000D01*
G75*
G02*
X75288000Y-85129000I0J50000D01*
G01*
X75288000Y-83529000D01*
G75*
G02*
X75338000Y-83479000I50000J0D01*
G01*
X77338000Y-83479000D01*
G75*
G02*
X77388000Y-83529000I0J-50000D01*
G01*
G37*
G36*
G01*
X73388000Y-83529000D02*
X73388000Y-85129000D01*
G75*
G02*
X73338000Y-85179000I-50000J0D01*
G01*
X71338000Y-85179000D01*
G75*
G02*
X71288000Y-85129000I0J50000D01*
G01*
X71288000Y-83529000D01*
G75*
G02*
X71338000Y-83479000I50000J0D01*
G01*
X73338000Y-83479000D01*
G75*
G02*
X73388000Y-83529000I0J-50000D01*
G01*
G37*
G04 #@! TD*
G04 #@! TO.C,C8*
G36*
G01*
X52100000Y-117050000D02*
X52100000Y-115450000D01*
G75*
G02*
X52150000Y-115400000I50000J0D01*
G01*
X54150000Y-115400000D01*
G75*
G02*
X54200000Y-115450000I0J-50000D01*
G01*
X54200000Y-117050000D01*
G75*
G02*
X54150000Y-117100000I-50000J0D01*
G01*
X52150000Y-117100000D01*
G75*
G02*
X52100000Y-117050000I0J50000D01*
G01*
G37*
G36*
G01*
X56100000Y-117050000D02*
X56100000Y-115450000D01*
G75*
G02*
X56150000Y-115400000I50000J0D01*
G01*
X58150000Y-115400000D01*
G75*
G02*
X58200000Y-115450000I0J-50000D01*
G01*
X58200000Y-117050000D01*
G75*
G02*
X58150000Y-117100000I-50000J0D01*
G01*
X56150000Y-117100000D01*
G75*
G02*
X56100000Y-117050000I0J50000D01*
G01*
G37*
G04 #@! TD*
G04 #@! TO.C,C9*
G36*
G01*
X57258000Y-64860000D02*
X57258000Y-66460000D01*
G75*
G02*
X57208000Y-66510000I-50000J0D01*
G01*
X55208000Y-66510000D01*
G75*
G02*
X55158000Y-66460000I0J50000D01*
G01*
X55158000Y-64860000D01*
G75*
G02*
X55208000Y-64810000I50000J0D01*
G01*
X57208000Y-64810000D01*
G75*
G02*
X57258000Y-64860000I0J-50000D01*
G01*
G37*
G36*
G01*
X53258000Y-64860000D02*
X53258000Y-66460000D01*
G75*
G02*
X53208000Y-66510000I-50000J0D01*
G01*
X51208000Y-66510000D01*
G75*
G02*
X51158000Y-66460000I0J50000D01*
G01*
X51158000Y-64860000D01*
G75*
G02*
X51208000Y-64810000I50000J0D01*
G01*
X53208000Y-64810000D01*
G75*
G02*
X53258000Y-64860000I0J-50000D01*
G01*
G37*
G04 #@! TD*
G04 #@! TO.C,R15*
G36*
G01*
X82722000Y-117642000D02*
X82722000Y-119342000D01*
G75*
G02*
X82672000Y-119392000I-50000J0D01*
G01*
X80672000Y-119392000D01*
G75*
G02*
X80622000Y-119342000I0J50000D01*
G01*
X80622000Y-117642000D01*
G75*
G02*
X80672000Y-117592000I50000J0D01*
G01*
X82672000Y-117592000D01*
G75*
G02*
X82722000Y-117642000I0J-50000D01*
G01*
G37*
G36*
G01*
X78722000Y-117642000D02*
X78722000Y-119342000D01*
G75*
G02*
X78672000Y-119392000I-50000J0D01*
G01*
X76672000Y-119392000D01*
G75*
G02*
X76622000Y-119342000I0J50000D01*
G01*
X76622000Y-117642000D01*
G75*
G02*
X76672000Y-117592000I50000J0D01*
G01*
X78672000Y-117592000D01*
G75*
G02*
X78722000Y-117642000I0J-50000D01*
G01*
G37*
G04 #@! TD*
G04 #@! TO.C,R16*
G36*
G01*
X76622000Y-123406000D02*
X76622000Y-121706000D01*
G75*
G02*
X76672000Y-121656000I50000J0D01*
G01*
X78672000Y-121656000D01*
G75*
G02*
X78722000Y-121706000I0J-50000D01*
G01*
X78722000Y-123406000D01*
G75*
G02*
X78672000Y-123456000I-50000J0D01*
G01*
X76672000Y-123456000D01*
G75*
G02*
X76622000Y-123406000I0J50000D01*
G01*
G37*
G36*
G01*
X80622000Y-123406000D02*
X80622000Y-121706000D01*
G75*
G02*
X80672000Y-121656000I50000J0D01*
G01*
X82672000Y-121656000D01*
G75*
G02*
X82722000Y-121706000I0J-50000D01*
G01*
X82722000Y-123406000D01*
G75*
G02*
X82672000Y-123456000I-50000J0D01*
G01*
X80672000Y-123456000D01*
G75*
G02*
X80622000Y-123406000I0J50000D01*
G01*
G37*
G04 #@! TD*
G04 #@! TO.C,R17*
G36*
G01*
X76622000Y-115278000D02*
X76622000Y-113578000D01*
G75*
G02*
X76672000Y-113528000I50000J0D01*
G01*
X78672000Y-113528000D01*
G75*
G02*
X78722000Y-113578000I0J-50000D01*
G01*
X78722000Y-115278000D01*
G75*
G02*
X78672000Y-115328000I-50000J0D01*
G01*
X76672000Y-115328000D01*
G75*
G02*
X76622000Y-115278000I0J50000D01*
G01*
G37*
G36*
G01*
X80622000Y-115278000D02*
X80622000Y-113578000D01*
G75*
G02*
X80672000Y-113528000I50000J0D01*
G01*
X82672000Y-113528000D01*
G75*
G02*
X82722000Y-113578000I0J-50000D01*
G01*
X82722000Y-115278000D01*
G75*
G02*
X82672000Y-115328000I-50000J0D01*
G01*
X80672000Y-115328000D01*
G75*
G02*
X80622000Y-115278000I0J50000D01*
G01*
G37*
G04 #@! TD*
G04 #@! TO.C,R19*
G36*
G01*
X69954000Y-112992000D02*
X69954000Y-111292000D01*
G75*
G02*
X70004000Y-111242000I50000J0D01*
G01*
X72004000Y-111242000D01*
G75*
G02*
X72054000Y-111292000I0J-50000D01*
G01*
X72054000Y-112992000D01*
G75*
G02*
X72004000Y-113042000I-50000J0D01*
G01*
X70004000Y-113042000D01*
G75*
G02*
X69954000Y-112992000I0J50000D01*
G01*
G37*
G36*
G01*
X73954000Y-112992000D02*
X73954000Y-111292000D01*
G75*
G02*
X74004000Y-111242000I50000J0D01*
G01*
X76004000Y-111242000D01*
G75*
G02*
X76054000Y-111292000I0J-50000D01*
G01*
X76054000Y-112992000D01*
G75*
G02*
X76004000Y-113042000I-50000J0D01*
G01*
X74004000Y-113042000D01*
G75*
G02*
X73954000Y-112992000I0J50000D01*
G01*
G37*
G04 #@! TD*
G04 #@! TO.C,R21*
G36*
G01*
X76215180Y-49628500D02*
X74515180Y-49628500D01*
G75*
G02*
X74465180Y-49578500I0J50000D01*
G01*
X74465180Y-47578500D01*
G75*
G02*
X74515180Y-47528500I50000J0D01*
G01*
X76215180Y-47528500D01*
G75*
G02*
X76265180Y-47578500I0J-50000D01*
G01*
X76265180Y-49578500D01*
G75*
G02*
X76215180Y-49628500I-50000J0D01*
G01*
G37*
G36*
G01*
X76215180Y-45628500D02*
X74515180Y-45628500D01*
G75*
G02*
X74465180Y-45578500I0J50000D01*
G01*
X74465180Y-43578500D01*
G75*
G02*
X74515180Y-43528500I50000J0D01*
G01*
X76215180Y-43528500D01*
G75*
G02*
X76265180Y-43578500I0J-50000D01*
G01*
X76265180Y-45578500D01*
G75*
G02*
X76215180Y-45628500I-50000J0D01*
G01*
G37*
G04 #@! TD*
G04 #@! TO.C,R22*
G36*
G01*
X45438000Y-130718000D02*
X43738000Y-130718000D01*
G75*
G02*
X43688000Y-130668000I0J50000D01*
G01*
X43688000Y-128668000D01*
G75*
G02*
X43738000Y-128618000I50000J0D01*
G01*
X45438000Y-128618000D01*
G75*
G02*
X45488000Y-128668000I0J-50000D01*
G01*
X45488000Y-130668000D01*
G75*
G02*
X45438000Y-130718000I-50000J0D01*
G01*
G37*
G36*
G01*
X45438000Y-134718000D02*
X43738000Y-134718000D01*
G75*
G02*
X43688000Y-134668000I0J50000D01*
G01*
X43688000Y-132668000D01*
G75*
G02*
X43738000Y-132618000I50000J0D01*
G01*
X45438000Y-132618000D01*
G75*
G02*
X45488000Y-132668000I0J-50000D01*
G01*
X45488000Y-134668000D01*
G75*
G02*
X45438000Y-134718000I-50000J0D01*
G01*
G37*
G04 #@! TD*
M02*
