M48
; DRILL file {KiCad (5.1.9)-1} date 02/18/21 20:03:49
; FORMAT={-:-/ absolute / inch / decimal}
; #@! TF.CreationDate,2021-02-18T20:03:49+01:00
; #@! TF.GenerationSoftware,Kicad,Pcbnew,(5.1.9)-1
FMAT,2
INCH
T1C0.0157
T2C0.0236
T3C0.0315
T4C0.0354
T5C0.0394
T6C0.0433
T7C0.0472
T8C0.1260
T9C0.1300
T10C0.1693
%
G90
G05
T1
X1.4454Y-5.005
X1.4654Y-4.975
X1.5054Y-4.955
X1.5454Y-4.975
X1.5654Y-5.005
X2.0554Y-1.755
X2.0954Y-1.755
X2.1704Y-4.945
X2.2804Y-1.7275
X2.3179Y-1.6575
X2.3279Y-1.7525
X2.6527Y-1.735
X2.7127Y-1.735
X2.8454Y-2.955
X2.8504Y-3.265
X2.8504Y-3.38
X2.8754Y-4.205
X2.9754Y-4.205
X2.9854Y-3.96
X3.0004Y-2.955
X3.0304Y-3.96
X3.063Y-1.5712
X3.063Y-1.6212
X3.063Y-1.6712
X3.0754Y-3.96
X3.0754Y-4.205
X3.103Y-1.5512
X3.103Y-1.6912
X3.3254Y-4.685
X3.3254Y-4.855
X3.3254Y-5.205
X3.3554Y-3.285
X3.3754Y-2.69
X3.3754Y-2.87
X3.3954Y-3.285
T2
X1.2037Y-1.815
X1.2037Y-5.5906
X1.2037Y-6.2047
X1.2409Y-1.7252
X1.2409Y-1.9047
X1.2409Y-5.5008
X1.2409Y-5.6803
X1.2409Y-6.1149
X1.2409Y-6.2945
X1.3307Y-1.688
X1.3307Y-1.9419
X1.3307Y-5.4636
X1.3307Y-5.7175
X1.3307Y-6.0778
X1.3307Y-6.3317
X1.4205Y-1.7252
X1.4205Y-1.9047
X1.4205Y-5.5008
X1.4205Y-5.6803
X1.4205Y-6.1149
X1.4205Y-6.2945
X1.4577Y-1.815
X1.4577Y-5.5906
X1.4577Y-6.2047
X3.7234Y-1.815
X3.7234Y-5.5906
X3.7234Y-6.2087
X3.7606Y-1.7252
X3.7606Y-1.9047
X3.7606Y-5.5008
X3.7606Y-5.6803
X3.7606Y-6.1189
X3.7606Y-6.2984
X3.8504Y-1.688
X3.8504Y-1.9419
X3.8504Y-5.4636
X3.8504Y-5.7175
X3.8504Y-6.0817
X3.8504Y-6.3356
X3.9402Y-1.7252
X3.9402Y-1.9047
X3.9402Y-5.5008
X3.9402Y-5.6803
X3.9402Y-6.1189
X3.9402Y-6.2984
X3.9774Y-1.815
X3.9774Y-5.5906
X3.9774Y-6.2087
T3
X1.3854Y-2.735
X1.3854Y-2.835
X1.6854Y-2.735
X1.6854Y-2.835
X1.9754Y-2.165
X1.9754Y-2.465
X2.0205Y-4.7047
X2.0205Y-5.0047
X2.0554Y-3.585
X2.0554Y-3.685
X2.0554Y-3.785
X2.0554Y-3.885
X2.0554Y-3.985
X2.0554Y-4.085
X2.0554Y-4.185
X2.0554Y-4.285
X2.0754Y-2.165
X2.0754Y-2.465
X2.1205Y-4.7047
X2.1205Y-5.0047
X2.1754Y-2.165
X2.1754Y-2.465
X2.2205Y-4.7047
X2.2205Y-5.0047
X2.2754Y-2.165
X2.2754Y-2.465
X2.3205Y-4.7047
X2.3205Y-5.0047
X2.3554Y-3.585
X2.3554Y-3.685
X2.3554Y-3.785
X2.3554Y-3.885
X2.3554Y-3.985
X2.3554Y-4.085
X2.3554Y-4.185
X2.3554Y-4.285
X2.5064Y-4.335
X2.6064Y-4.335
X2.7064Y-4.335
T4
X1.5161Y-3.7725
X1.5161Y-3.8804
X1.5161Y-3.9882
X1.5161Y-4.0961
X1.6279Y-3.7185
X1.6279Y-3.8264
X1.6279Y-3.9343
X1.6279Y-4.0422
X1.6279Y-4.15
X2.0239Y-1.425
X2.0779Y-1.3132
X2.1318Y-1.425
X2.1857Y-1.3132
X2.2397Y-1.425
X2.2936Y-1.3132
X2.3476Y-1.425
X2.3787Y-5.315
X2.3787Y-6.4567
X2.4015Y-1.3132
X2.4327Y-5.4268
X2.4327Y-6.3449
X2.4554Y-1.425
X2.4866Y-5.315
X2.4866Y-6.4567
X2.5406Y-5.4268
X2.5406Y-6.3449
X2.5945Y-5.315
X2.5945Y-6.4567
X2.6484Y-5.4268
X2.6484Y-6.3449
X2.7024Y-5.315
X2.7024Y-6.4567
X2.7563Y-5.4268
X2.7563Y-6.3449
X2.8102Y-5.315
X2.8102Y-6.4567
X3.6654Y-4.585
X3.6654Y-4.925
X3.6654Y-5.275
X3.7654Y-4.585
X3.7654Y-4.925
X3.7654Y-5.275
T5
X1.1378Y-5.9055
X1.2165Y-5.9055
X1.2953Y-5.9055
X1.374Y-5.9055
X1.4134Y-6.5748
X1.4134Y-6.6748
X1.4134Y-6.8504
X1.4134Y-6.9504
X1.4134Y-7.126
X1.4134Y-7.226
X1.4528Y-5.9055
X1.4654Y-2.485
X1.4654Y-2.585
X1.5315Y-5.9055
X1.6102Y-5.9055
X1.6134Y-6.5748
X1.6134Y-6.6748
X1.6134Y-6.8504
X1.6134Y-6.9504
X1.6134Y-7.126
X1.6134Y-7.226
X1.6654Y-2.485
X1.6654Y-2.585
X1.689Y-5.9055
X1.7677Y-5.9055
X1.8465Y-5.9055
X1.9252Y-5.9055
X1.9654Y-2.757
X1.9654Y-2.857
X1.9654Y-2.957
X1.9654Y-3.057
X1.9654Y-3.225
X1.9654Y-3.325
X2.0039Y-5.9055
X2.0827Y-5.9055
X2.1614Y-5.9055
X2.2402Y-5.9055
X2.2441Y-5.1732
X2.3189Y-5.9055
X2.3882Y-6.8701
X2.3882Y-7.0701
X2.3976Y-5.9055
X2.4764Y-5.9055
X2.4882Y-6.8701
X2.4882Y-7.0701
X2.5459Y-5.1939
X2.5551Y-5.9055
X2.5856Y-2.2054
X2.5856Y-2.3054
X2.5856Y-2.4054
X2.5856Y-2.5054
X2.6459Y-5.1939
X2.6732Y-5.9055
X2.685Y-4.5682
X2.6854Y-4.765
X2.7228Y-6.8661
X2.7228Y-7.0661
X2.752Y-5.9055
X2.8228Y-6.8661
X2.8228Y-7.0661
X2.8307Y-5.9055
X2.9094Y-5.9055
X2.9882Y-5.9055
X3.0669Y-5.9055
X3.1457Y-5.9055
X3.2244Y-5.9055
X3.3031Y-5.9055
X3.3702Y-1.9155
X3.3702Y-2.0155
X3.3702Y-2.1155
X3.3819Y-5.9055
X3.4606Y-5.9055
X3.5254Y-2.375
X3.5394Y-5.9055
X3.5984Y-6.4803
X3.5984Y-6.5803
X3.5984Y-6.7598
X3.5984Y-6.8598
X3.5984Y-7.0315
X3.5984Y-7.1315
X3.6181Y-5.9055
X3.6254Y-2.375
X3.6969Y-5.9055
X3.7254Y-2.375
X3.7756Y-5.9055
X3.7984Y-6.4803
X3.7984Y-6.5803
X3.7984Y-6.7598
X3.7984Y-6.8598
X3.7984Y-7.0315
X3.7984Y-7.1315
X3.8254Y-2.375
X3.8543Y-5.9055
X3.9331Y-5.9055
X4.0118Y-5.9055
X4.0906Y-5.9055
T6
X2.6254Y-2.825
X2.6254Y-2.925
X2.6254Y-3.025
X2.6254Y-3.125
X2.6254Y-3.225
X2.6254Y-3.325
X2.6254Y-3.425
X2.6254Y-3.525
X2.6254Y-3.625
X2.6254Y-3.725
X2.6254Y-3.825
X2.6254Y-3.925
X2.6254Y-4.025
X2.6254Y-4.125
X2.7254Y-4.125
X2.8254Y-4.125
X2.9254Y-4.125
X3.0254Y-4.125
X3.1254Y-2.925
X3.1254Y-4.125
X3.2254Y-2.825
X3.2254Y-2.925
X3.2254Y-3.025
X3.2254Y-3.125
X3.2254Y-3.225
X3.2254Y-3.325
X3.2254Y-3.425
X3.2254Y-3.525
X3.2254Y-3.625
X3.2254Y-3.725
X3.2254Y-3.825
X3.2254Y-3.925
X3.2254Y-4.025
X3.2254Y-4.125
X3.6754Y-3.665
X3.6754Y-3.9209
X3.6783Y-4.075
X3.6783Y-4.3309
X3.8526Y-3.665
X3.8526Y-3.9209
X3.8554Y-4.075
X3.8554Y-4.3309
T7
X3.6354Y-2.5542
X3.6354Y-3.125
X3.7339Y-3.125
X3.8323Y-2.5542
X3.8323Y-3.125
T8
X1.572Y-3.4424
X1.572Y-4.4262
X1.7478Y-1.3691
X2.1026Y-5.3709
X2.1026Y-6.4008
X2.7316Y-1.3691
X3.0864Y-5.3709
X3.0864Y-6.4008
T9
X3.5528Y-2.8298
X3.915Y-2.8298
T10
X1.3307Y-1.815
X1.3307Y-5.5906
X1.3307Y-6.2047
X3.8504Y-1.815
X3.8504Y-5.5906
X3.8504Y-6.2087
T0
M30
