G04 #@! TF.GenerationSoftware,KiCad,Pcbnew,(5.1.9)-1*
G04 #@! TF.CreationDate,2021-02-18T20:03:26+01:00*
G04 #@! TF.ProjectId,SNModule,534e4d6f-6475-46c6-952e-6b696361645f,rev?*
G04 #@! TF.SameCoordinates,Original*
G04 #@! TF.FileFunction,Legend,Top*
G04 #@! TF.FilePolarity,Positive*
%FSLAX46Y46*%
G04 Gerber Fmt 4.6, Leading zero omitted, Abs format (unit mm)*
G04 Created by KiCad (PCBNEW (5.1.9)-1) date 2021-02-18 20:03:26*
%MOMM*%
%LPD*%
G01*
G04 APERTURE LIST*
%ADD10C,0.150000*%
%ADD11C,0.300000*%
%ADD12C,0.250000*%
%ADD13C,0.200000*%
%ADD14C,0.100000*%
%ADD15C,0.120000*%
%ADD16C,0.254000*%
G04 APERTURE END LIST*
D10*
X84278571Y-163292857D02*
X82778571Y-163292857D01*
X83850000Y-162792857D01*
X82778571Y-162292857D01*
X84278571Y-162292857D01*
X84278571Y-160935714D02*
X83492857Y-160935714D01*
X83350000Y-161007142D01*
X83278571Y-161150000D01*
X83278571Y-161435714D01*
X83350000Y-161578571D01*
X84207142Y-160935714D02*
X84278571Y-161078571D01*
X84278571Y-161435714D01*
X84207142Y-161578571D01*
X84064285Y-161650000D01*
X83921428Y-161650000D01*
X83778571Y-161578571D01*
X83707142Y-161435714D01*
X83707142Y-161078571D01*
X83635714Y-160935714D01*
X84278571Y-160221428D02*
X83278571Y-160221428D01*
X82778571Y-160221428D02*
X82850000Y-160292857D01*
X82921428Y-160221428D01*
X82850000Y-160150000D01*
X82778571Y-160221428D01*
X82921428Y-160221428D01*
X83278571Y-159507142D02*
X84278571Y-159507142D01*
X83421428Y-159507142D02*
X83350000Y-159435714D01*
X83278571Y-159292857D01*
X83278571Y-159078571D01*
X83350000Y-158935714D01*
X83492857Y-158864285D01*
X84278571Y-158864285D01*
X84278571Y-158150000D02*
X82778571Y-158150000D01*
X83350000Y-158150000D02*
X83278571Y-158007142D01*
X83278571Y-157721428D01*
X83350000Y-157578571D01*
X83421428Y-157507142D01*
X83564285Y-157435714D01*
X83992857Y-157435714D01*
X84135714Y-157507142D01*
X84207142Y-157578571D01*
X84278571Y-157721428D01*
X84278571Y-158007142D01*
X84207142Y-158150000D01*
X84278571Y-156578571D02*
X84207142Y-156721428D01*
X84135714Y-156792857D01*
X83992857Y-156864285D01*
X83564285Y-156864285D01*
X83421428Y-156792857D01*
X83350000Y-156721428D01*
X83278571Y-156578571D01*
X83278571Y-156364285D01*
X83350000Y-156221428D01*
X83421428Y-156150000D01*
X83564285Y-156078571D01*
X83992857Y-156078571D01*
X84135714Y-156150000D01*
X84207142Y-156221428D01*
X84278571Y-156364285D01*
X84278571Y-156578571D01*
X84278571Y-154792857D02*
X83492857Y-154792857D01*
X83350000Y-154864285D01*
X83278571Y-155007142D01*
X83278571Y-155292857D01*
X83350000Y-155435714D01*
X84207142Y-154792857D02*
X84278571Y-154935714D01*
X84278571Y-155292857D01*
X84207142Y-155435714D01*
X84064285Y-155507142D01*
X83921428Y-155507142D01*
X83778571Y-155435714D01*
X83707142Y-155292857D01*
X83707142Y-154935714D01*
X83635714Y-154792857D01*
X84278571Y-154078571D02*
X83278571Y-154078571D01*
X83564285Y-154078571D02*
X83421428Y-154007142D01*
X83350000Y-153935714D01*
X83278571Y-153792857D01*
X83278571Y-153650000D01*
X84278571Y-152507142D02*
X82778571Y-152507142D01*
X84207142Y-152507142D02*
X84278571Y-152650000D01*
X84278571Y-152935714D01*
X84207142Y-153078571D01*
X84135714Y-153150000D01*
X83992857Y-153221428D01*
X83564285Y-153221428D01*
X83421428Y-153150000D01*
X83350000Y-153078571D01*
X83278571Y-152935714D01*
X83278571Y-152650000D01*
X83350000Y-152507142D01*
D11*
X43778571Y-110728571D02*
X43778571Y-109871428D01*
X45278571Y-110300000D02*
X43778571Y-110300000D01*
X45207142Y-108800000D02*
X45278571Y-108942857D01*
X45278571Y-109228571D01*
X45207142Y-109371428D01*
X45064285Y-109442857D01*
X44492857Y-109442857D01*
X44350000Y-109371428D01*
X44278571Y-109228571D01*
X44278571Y-108942857D01*
X44350000Y-108800000D01*
X44492857Y-108728571D01*
X44635714Y-108728571D01*
X44778571Y-109442857D01*
X45278571Y-108085714D02*
X44278571Y-108085714D01*
X44421428Y-108085714D02*
X44350000Y-108014285D01*
X44278571Y-107871428D01*
X44278571Y-107657142D01*
X44350000Y-107514285D01*
X44492857Y-107442857D01*
X45278571Y-107442857D01*
X44492857Y-107442857D02*
X44350000Y-107371428D01*
X44278571Y-107228571D01*
X44278571Y-107014285D01*
X44350000Y-106871428D01*
X44492857Y-106800000D01*
X45278571Y-106800000D01*
X44278571Y-106085714D02*
X45778571Y-106085714D01*
X44350000Y-106085714D02*
X44278571Y-105942857D01*
X44278571Y-105657142D01*
X44350000Y-105514285D01*
X44421428Y-105442857D01*
X44564285Y-105371428D01*
X44992857Y-105371428D01*
X45135714Y-105442857D01*
X45207142Y-105514285D01*
X45278571Y-105657142D01*
X45278571Y-105942857D01*
X45207142Y-106085714D01*
X45207142Y-103657142D02*
X45278571Y-103442857D01*
X45278571Y-103085714D01*
X45207142Y-102942857D01*
X45135714Y-102871428D01*
X44992857Y-102800000D01*
X44850000Y-102800000D01*
X44707142Y-102871428D01*
X44635714Y-102942857D01*
X44564285Y-103085714D01*
X44492857Y-103371428D01*
X44421428Y-103514285D01*
X44350000Y-103585714D01*
X44207142Y-103657142D01*
X44064285Y-103657142D01*
X43921428Y-103585714D01*
X43850000Y-103514285D01*
X43778571Y-103371428D01*
X43778571Y-103014285D01*
X43850000Y-102800000D01*
X45207142Y-101585714D02*
X45278571Y-101728571D01*
X45278571Y-102014285D01*
X45207142Y-102157142D01*
X45064285Y-102228571D01*
X44492857Y-102228571D01*
X44350000Y-102157142D01*
X44278571Y-102014285D01*
X44278571Y-101728571D01*
X44350000Y-101585714D01*
X44492857Y-101514285D01*
X44635714Y-101514285D01*
X44778571Y-102228571D01*
X44278571Y-100871428D02*
X45278571Y-100871428D01*
X44421428Y-100871428D02*
X44350000Y-100800000D01*
X44278571Y-100657142D01*
X44278571Y-100442857D01*
X44350000Y-100300000D01*
X44492857Y-100228571D01*
X45278571Y-100228571D01*
X45207142Y-99585714D02*
X45278571Y-99442857D01*
X45278571Y-99157142D01*
X45207142Y-99014285D01*
X45064285Y-98942857D01*
X44992857Y-98942857D01*
X44850000Y-99014285D01*
X44778571Y-99157142D01*
X44778571Y-99371428D01*
X44707142Y-99514285D01*
X44564285Y-99585714D01*
X44492857Y-99585714D01*
X44350000Y-99514285D01*
X44278571Y-99371428D01*
X44278571Y-99157142D01*
X44350000Y-99014285D01*
X45278571Y-98085714D02*
X45207142Y-98228571D01*
X45135714Y-98300000D01*
X44992857Y-98371428D01*
X44564285Y-98371428D01*
X44421428Y-98300000D01*
X44350000Y-98228571D01*
X44278571Y-98085714D01*
X44278571Y-97871428D01*
X44350000Y-97728571D01*
X44421428Y-97657142D01*
X44564285Y-97585714D01*
X44992857Y-97585714D01*
X45135714Y-97657142D01*
X45207142Y-97728571D01*
X45278571Y-97871428D01*
X45278571Y-98085714D01*
X45278571Y-96942857D02*
X44278571Y-96942857D01*
X44564285Y-96942857D02*
X44421428Y-96871428D01*
X44350000Y-96800000D01*
X44278571Y-96657142D01*
X44278571Y-96514285D01*
X44492857Y-94371428D02*
X44564285Y-94157142D01*
X44635714Y-94085714D01*
X44778571Y-94014285D01*
X44992857Y-94014285D01*
X45135714Y-94085714D01*
X45207142Y-94157142D01*
X45278571Y-94300000D01*
X45278571Y-94871428D01*
X43778571Y-94871428D01*
X43778571Y-94371428D01*
X43850000Y-94228571D01*
X43921428Y-94157142D01*
X44064285Y-94085714D01*
X44207142Y-94085714D01*
X44350000Y-94157142D01*
X44421428Y-94228571D01*
X44492857Y-94371428D01*
X44492857Y-94871428D01*
X45278571Y-93157142D02*
X45207142Y-93300000D01*
X45135714Y-93371428D01*
X44992857Y-93442857D01*
X44564285Y-93442857D01*
X44421428Y-93371428D01*
X44350000Y-93300000D01*
X44278571Y-93157142D01*
X44278571Y-92942857D01*
X44350000Y-92800000D01*
X44421428Y-92728571D01*
X44564285Y-92657142D01*
X44992857Y-92657142D01*
X45135714Y-92728571D01*
X45207142Y-92800000D01*
X45278571Y-92942857D01*
X45278571Y-93157142D01*
X45278571Y-91371428D02*
X44492857Y-91371428D01*
X44350000Y-91442857D01*
X44278571Y-91585714D01*
X44278571Y-91871428D01*
X44350000Y-92014285D01*
X45207142Y-91371428D02*
X45278571Y-91514285D01*
X45278571Y-91871428D01*
X45207142Y-92014285D01*
X45064285Y-92085714D01*
X44921428Y-92085714D01*
X44778571Y-92014285D01*
X44707142Y-91871428D01*
X44707142Y-91514285D01*
X44635714Y-91371428D01*
X45278571Y-90657142D02*
X44278571Y-90657142D01*
X44564285Y-90657142D02*
X44421428Y-90585714D01*
X44350000Y-90514285D01*
X44278571Y-90371428D01*
X44278571Y-90228571D01*
X45278571Y-89085714D02*
X43778571Y-89085714D01*
X45207142Y-89085714D02*
X45278571Y-89228571D01*
X45278571Y-89514285D01*
X45207142Y-89657142D01*
X45135714Y-89728571D01*
X44992857Y-89800000D01*
X44564285Y-89800000D01*
X44421428Y-89728571D01*
X44350000Y-89657142D01*
X44278571Y-89514285D01*
X44278571Y-89228571D01*
X44350000Y-89085714D01*
D12*
X60077380Y-172385714D02*
X60077380Y-171719047D01*
X61077380Y-172385714D01*
X61077380Y-171719047D01*
X60696428Y-171338095D02*
X60696428Y-170576190D01*
X60791666Y-170147619D02*
X60791666Y-169671428D01*
X61077380Y-170242857D02*
X60077380Y-169909523D01*
X61077380Y-169576190D01*
X61077380Y-169338095D02*
X60410714Y-168814285D01*
X60410714Y-169338095D02*
X61077380Y-168814285D01*
X61077380Y-168433333D02*
X60410714Y-168433333D01*
X60077380Y-168433333D02*
X60125000Y-168480952D01*
X60172619Y-168433333D01*
X60125000Y-168385714D01*
X60077380Y-168433333D01*
X60172619Y-168433333D01*
X61029761Y-168004761D02*
X61077380Y-167909523D01*
X61077380Y-167719047D01*
X61029761Y-167623809D01*
X60934523Y-167576190D01*
X60886904Y-167576190D01*
X60791666Y-167623809D01*
X60744047Y-167719047D01*
X60744047Y-167861904D01*
X60696428Y-167957142D01*
X60601190Y-168004761D01*
X60553571Y-168004761D01*
X60458333Y-167957142D01*
X60410714Y-167861904D01*
X60410714Y-167719047D01*
X60458333Y-167623809D01*
X61077380Y-165861904D02*
X61077380Y-166433333D01*
X61077380Y-166147619D02*
X60077380Y-166147619D01*
X60220238Y-166242857D01*
X60315476Y-166338095D01*
X60363095Y-166433333D01*
X68827380Y-172385714D02*
X68827380Y-171719047D01*
X69827380Y-172385714D01*
X69827380Y-171719047D01*
X69446428Y-171338095D02*
X69446428Y-170576190D01*
X69541666Y-170147619D02*
X69541666Y-169671428D01*
X69827380Y-170242857D02*
X68827380Y-169909523D01*
X69827380Y-169576190D01*
X69827380Y-169338095D02*
X69160714Y-168814285D01*
X69160714Y-169338095D02*
X69827380Y-168814285D01*
X69827380Y-168433333D02*
X69160714Y-168433333D01*
X68827380Y-168433333D02*
X68875000Y-168480952D01*
X68922619Y-168433333D01*
X68875000Y-168385714D01*
X68827380Y-168433333D01*
X68922619Y-168433333D01*
X69779761Y-168004761D02*
X69827380Y-167909523D01*
X69827380Y-167719047D01*
X69779761Y-167623809D01*
X69684523Y-167576190D01*
X69636904Y-167576190D01*
X69541666Y-167623809D01*
X69494047Y-167719047D01*
X69494047Y-167861904D01*
X69446428Y-167957142D01*
X69351190Y-168004761D01*
X69303571Y-168004761D01*
X69208333Y-167957142D01*
X69160714Y-167861904D01*
X69160714Y-167719047D01*
X69208333Y-167623809D01*
X68922619Y-166433333D02*
X68875000Y-166385714D01*
X68827380Y-166290476D01*
X68827380Y-166052380D01*
X68875000Y-165957142D01*
X68922619Y-165909523D01*
X69017857Y-165861904D01*
X69113095Y-165861904D01*
X69255952Y-165909523D01*
X69827380Y-166480952D01*
X69827380Y-165861904D01*
D10*
X83214285Y-166527380D02*
X83214285Y-167336904D01*
X83261904Y-167432142D01*
X83309523Y-167479761D01*
X83404761Y-167527380D01*
X83595238Y-167527380D01*
X83690476Y-167479761D01*
X83738095Y-167432142D01*
X83785714Y-167336904D01*
X83785714Y-166527380D01*
X84214285Y-167479761D02*
X84309523Y-167527380D01*
X84500000Y-167527380D01*
X84595238Y-167479761D01*
X84642857Y-167384523D01*
X84642857Y-167336904D01*
X84595238Y-167241666D01*
X84500000Y-167194047D01*
X84357142Y-167194047D01*
X84261904Y-167146428D01*
X84214285Y-167051190D01*
X84214285Y-167003571D01*
X84261904Y-166908333D01*
X84357142Y-166860714D01*
X84500000Y-166860714D01*
X84595238Y-166908333D01*
X85452380Y-167479761D02*
X85357142Y-167527380D01*
X85166666Y-167527380D01*
X85071428Y-167479761D01*
X85023809Y-167384523D01*
X85023809Y-167003571D01*
X85071428Y-166908333D01*
X85166666Y-166860714D01*
X85357142Y-166860714D01*
X85452380Y-166908333D01*
X85500000Y-167003571D01*
X85500000Y-167098809D01*
X85023809Y-167194047D01*
X85928571Y-167527380D02*
X85928571Y-166860714D01*
X85928571Y-167051190D02*
X85976190Y-166955952D01*
X86023809Y-166908333D01*
X86119047Y-166860714D01*
X86214285Y-166860714D01*
X87833333Y-167527380D02*
X87261904Y-167527380D01*
X87547619Y-167527380D02*
X87547619Y-166527380D01*
X87452380Y-166670238D01*
X87357142Y-166765476D01*
X87261904Y-166813095D01*
X83214285Y-173127380D02*
X83214285Y-173936904D01*
X83261904Y-174032142D01*
X83309523Y-174079761D01*
X83404761Y-174127380D01*
X83595238Y-174127380D01*
X83690476Y-174079761D01*
X83738095Y-174032142D01*
X83785714Y-173936904D01*
X83785714Y-173127380D01*
X84214285Y-174079761D02*
X84309523Y-174127380D01*
X84500000Y-174127380D01*
X84595238Y-174079761D01*
X84642857Y-173984523D01*
X84642857Y-173936904D01*
X84595238Y-173841666D01*
X84500000Y-173794047D01*
X84357142Y-173794047D01*
X84261904Y-173746428D01*
X84214285Y-173651190D01*
X84214285Y-173603571D01*
X84261904Y-173508333D01*
X84357142Y-173460714D01*
X84500000Y-173460714D01*
X84595238Y-173508333D01*
X85452380Y-174079761D02*
X85357142Y-174127380D01*
X85166666Y-174127380D01*
X85071428Y-174079761D01*
X85023809Y-173984523D01*
X85023809Y-173603571D01*
X85071428Y-173508333D01*
X85166666Y-173460714D01*
X85357142Y-173460714D01*
X85452380Y-173508333D01*
X85500000Y-173603571D01*
X85500000Y-173698809D01*
X85023809Y-173794047D01*
X85928571Y-174127380D02*
X85928571Y-173460714D01*
X85928571Y-173651190D02*
X85976190Y-173555952D01*
X86023809Y-173508333D01*
X86119047Y-173460714D01*
X86214285Y-173460714D01*
X87261904Y-173222619D02*
X87309523Y-173175000D01*
X87404761Y-173127380D01*
X87642857Y-173127380D01*
X87738095Y-173175000D01*
X87785714Y-173222619D01*
X87833333Y-173317857D01*
X87833333Y-173413095D01*
X87785714Y-173555952D01*
X87214285Y-174127380D01*
X87833333Y-174127380D01*
X82738095Y-182091666D02*
X83214285Y-182091666D01*
X82642857Y-182377380D02*
X82976190Y-181377380D01*
X83309523Y-182377380D01*
X83642857Y-182377380D02*
X83642857Y-181710714D01*
X83642857Y-181805952D02*
X83690476Y-181758333D01*
X83785714Y-181710714D01*
X83928571Y-181710714D01*
X84023809Y-181758333D01*
X84071428Y-181853571D01*
X84071428Y-182377380D01*
X84071428Y-181853571D02*
X84119047Y-181758333D01*
X84214285Y-181710714D01*
X84357142Y-181710714D01*
X84452380Y-181758333D01*
X84500000Y-181853571D01*
X84500000Y-182377380D01*
X84976190Y-182377380D02*
X84976190Y-181377380D01*
X84976190Y-181758333D02*
X85071428Y-181710714D01*
X85261904Y-181710714D01*
X85357142Y-181758333D01*
X85404761Y-181805952D01*
X85452380Y-181901190D01*
X85452380Y-182186904D01*
X85404761Y-182282142D01*
X85357142Y-182329761D01*
X85261904Y-182377380D01*
X85071428Y-182377380D01*
X84976190Y-182329761D01*
X85880952Y-182377380D02*
X85880952Y-181710714D01*
X85880952Y-181377380D02*
X85833333Y-181425000D01*
X85880952Y-181472619D01*
X85928571Y-181425000D01*
X85880952Y-181377380D01*
X85880952Y-181472619D01*
X86738095Y-182329761D02*
X86642857Y-182377380D01*
X86452380Y-182377380D01*
X86357142Y-182329761D01*
X86309523Y-182234523D01*
X86309523Y-181853571D01*
X86357142Y-181758333D01*
X86452380Y-181710714D01*
X86642857Y-181710714D01*
X86738095Y-181758333D01*
X86785714Y-181853571D01*
X86785714Y-181948809D01*
X86309523Y-182044047D01*
X87214285Y-181710714D02*
X87214285Y-182377380D01*
X87214285Y-181805952D02*
X87261904Y-181758333D01*
X87357142Y-181710714D01*
X87500000Y-181710714D01*
X87595238Y-181758333D01*
X87642857Y-181853571D01*
X87642857Y-182377380D01*
X87976190Y-181710714D02*
X88357142Y-181710714D01*
X88119047Y-181377380D02*
X88119047Y-182234523D01*
X88166666Y-182329761D01*
X88261904Y-182377380D01*
X88357142Y-182377380D01*
X43871428Y-166002380D02*
X44538095Y-167002380D01*
X44538095Y-166002380D02*
X43871428Y-167002380D01*
X44919047Y-166621428D02*
X45680952Y-166621428D01*
X46109523Y-166716666D02*
X46585714Y-166716666D01*
X46014285Y-167002380D02*
X46347619Y-166002380D01*
X46680952Y-167002380D01*
X46919047Y-167002380D02*
X47442857Y-166335714D01*
X46919047Y-166335714D02*
X47442857Y-167002380D01*
X47823809Y-167002380D02*
X47823809Y-166335714D01*
X47823809Y-166002380D02*
X47776190Y-166050000D01*
X47823809Y-166097619D01*
X47871428Y-166050000D01*
X47823809Y-166002380D01*
X47823809Y-166097619D01*
X48252380Y-166954761D02*
X48347619Y-167002380D01*
X48538095Y-167002380D01*
X48633333Y-166954761D01*
X48680952Y-166859523D01*
X48680952Y-166811904D01*
X48633333Y-166716666D01*
X48538095Y-166669047D01*
X48395238Y-166669047D01*
X48300000Y-166621428D01*
X48252380Y-166526190D01*
X48252380Y-166478571D01*
X48300000Y-166383333D01*
X48395238Y-166335714D01*
X48538095Y-166335714D01*
X48633333Y-166383333D01*
X43347619Y-174776190D02*
X43347619Y-175252380D01*
X43014285Y-174252380D02*
X43347619Y-174776190D01*
X43680952Y-174252380D01*
X44014285Y-174871428D02*
X44776190Y-174871428D01*
X45204761Y-174966666D02*
X45680952Y-174966666D01*
X45109523Y-175252380D02*
X45442857Y-174252380D01*
X45776190Y-175252380D01*
X46014285Y-175252380D02*
X46538095Y-174585714D01*
X46014285Y-174585714D02*
X46538095Y-175252380D01*
X46919047Y-175252380D02*
X46919047Y-174585714D01*
X46919047Y-174252380D02*
X46871428Y-174300000D01*
X46919047Y-174347619D01*
X46966666Y-174300000D01*
X46919047Y-174252380D01*
X46919047Y-174347619D01*
X47347619Y-175204761D02*
X47442857Y-175252380D01*
X47633333Y-175252380D01*
X47728571Y-175204761D01*
X47776190Y-175109523D01*
X47776190Y-175061904D01*
X47728571Y-174966666D01*
X47633333Y-174919047D01*
X47490476Y-174919047D01*
X47395238Y-174871428D01*
X47347619Y-174776190D01*
X47347619Y-174728571D01*
X47395238Y-174633333D01*
X47490476Y-174585714D01*
X47633333Y-174585714D01*
X47728571Y-174633333D01*
X49490476Y-175252380D02*
X48919047Y-175252380D01*
X49204761Y-175252380D02*
X49204761Y-174252380D01*
X49109523Y-174395238D01*
X49014285Y-174490476D01*
X48919047Y-174538095D01*
X43347619Y-183026190D02*
X43347619Y-183502380D01*
X43014285Y-182502380D02*
X43347619Y-183026190D01*
X43680952Y-182502380D01*
X44014285Y-183121428D02*
X44776190Y-183121428D01*
X45204761Y-183216666D02*
X45680952Y-183216666D01*
X45109523Y-183502380D02*
X45442857Y-182502380D01*
X45776190Y-183502380D01*
X46014285Y-183502380D02*
X46538095Y-182835714D01*
X46014285Y-182835714D02*
X46538095Y-183502380D01*
X46919047Y-183502380D02*
X46919047Y-182835714D01*
X46919047Y-182502380D02*
X46871428Y-182550000D01*
X46919047Y-182597619D01*
X46966666Y-182550000D01*
X46919047Y-182502380D01*
X46919047Y-182597619D01*
X47347619Y-183454761D02*
X47442857Y-183502380D01*
X47633333Y-183502380D01*
X47728571Y-183454761D01*
X47776190Y-183359523D01*
X47776190Y-183311904D01*
X47728571Y-183216666D01*
X47633333Y-183169047D01*
X47490476Y-183169047D01*
X47395238Y-183121428D01*
X47347619Y-183026190D01*
X47347619Y-182978571D01*
X47395238Y-182883333D01*
X47490476Y-182835714D01*
X47633333Y-182835714D01*
X47728571Y-182883333D01*
X48919047Y-182597619D02*
X48966666Y-182550000D01*
X49061904Y-182502380D01*
X49300000Y-182502380D01*
X49395238Y-182550000D01*
X49442857Y-182597619D01*
X49490476Y-182692857D01*
X49490476Y-182788095D01*
X49442857Y-182930952D01*
X48871428Y-183502380D01*
X49490476Y-183502380D01*
D11*
X75973619Y-32973285D02*
X75878380Y-33068523D01*
X75592666Y-33163761D01*
X75402190Y-33163761D01*
X75116476Y-33068523D01*
X74926000Y-32878047D01*
X74830761Y-32687571D01*
X74735523Y-32306619D01*
X74735523Y-32020904D01*
X74830761Y-31639952D01*
X74926000Y-31449476D01*
X75116476Y-31259000D01*
X75402190Y-31163761D01*
X75592666Y-31163761D01*
X75878380Y-31259000D01*
X75973619Y-31354238D01*
X76735523Y-32592333D02*
X77687904Y-32592333D01*
X76545047Y-33163761D02*
X77211714Y-31163761D01*
X77878380Y-33163761D01*
X78545047Y-33163761D02*
X78545047Y-31163761D01*
X79687904Y-33163761D01*
X79687904Y-31163761D01*
X81021238Y-31163761D02*
X81211714Y-31163761D01*
X81402190Y-31259000D01*
X81497428Y-31354238D01*
X81592666Y-31544714D01*
X81687904Y-31925666D01*
X81687904Y-32401857D01*
X81592666Y-32782809D01*
X81497428Y-32973285D01*
X81402190Y-33068523D01*
X81211714Y-33163761D01*
X81021238Y-33163761D01*
X80830761Y-33068523D01*
X80735523Y-32973285D01*
X80640285Y-32782809D01*
X80545047Y-32401857D01*
X80545047Y-31925666D01*
X80640285Y-31544714D01*
X80735523Y-31354238D01*
X80830761Y-31259000D01*
X81021238Y-31163761D01*
X82068857Y-33354238D02*
X83592666Y-33354238D01*
X83973619Y-33068523D02*
X84259333Y-33163761D01*
X84735523Y-33163761D01*
X84926000Y-33068523D01*
X85021238Y-32973285D01*
X85116476Y-32782809D01*
X85116476Y-32592333D01*
X85021238Y-32401857D01*
X84926000Y-32306619D01*
X84735523Y-32211380D01*
X84354571Y-32116142D01*
X84164095Y-32020904D01*
X84068857Y-31925666D01*
X83973619Y-31735190D01*
X83973619Y-31544714D01*
X84068857Y-31354238D01*
X84164095Y-31259000D01*
X84354571Y-31163761D01*
X84830761Y-31163761D01*
X85116476Y-31259000D01*
X85973619Y-33163761D02*
X85973619Y-31163761D01*
X87116476Y-33163761D01*
X87116476Y-31163761D01*
X87973619Y-31354238D02*
X88068857Y-31259000D01*
X88259333Y-31163761D01*
X88735523Y-31163761D01*
X88926000Y-31259000D01*
X89021238Y-31354238D01*
X89116476Y-31544714D01*
X89116476Y-31735190D01*
X89021238Y-32020904D01*
X87878380Y-33163761D01*
X89116476Y-33163761D01*
X82875000Y-146125000D02*
X82791666Y-146208333D01*
X82541666Y-146291666D01*
X82375000Y-146291666D01*
X82125000Y-146208333D01*
X81958333Y-146041666D01*
X81875000Y-145875000D01*
X81791666Y-145541666D01*
X81791666Y-145291666D01*
X81875000Y-144958333D01*
X81958333Y-144791666D01*
X82125000Y-144625000D01*
X82375000Y-144541666D01*
X82541666Y-144541666D01*
X82791666Y-144625000D01*
X82875000Y-144708333D01*
X83541666Y-145791666D02*
X84375000Y-145791666D01*
X83375000Y-146291666D02*
X83958333Y-144541666D01*
X84541666Y-146291666D01*
X85125000Y-146291666D02*
X85125000Y-144541666D01*
X86125000Y-146291666D01*
X86125000Y-144541666D01*
X87875000Y-146291666D02*
X86875000Y-146291666D01*
X87375000Y-146291666D02*
X87375000Y-144541666D01*
X87208333Y-144791666D01*
X87041666Y-144958333D01*
X86875000Y-145041666D01*
X88208333Y-146458333D02*
X89541666Y-146458333D01*
X89958333Y-145375000D02*
X90541666Y-145375000D01*
X90791666Y-146291666D02*
X89958333Y-146291666D01*
X89958333Y-144541666D01*
X90791666Y-144541666D01*
X91375000Y-146291666D02*
X92291666Y-145125000D01*
X91375000Y-145125000D02*
X92291666Y-146291666D01*
X92708333Y-145125000D02*
X93375000Y-145125000D01*
X92958333Y-144541666D02*
X92958333Y-146041666D01*
X93041666Y-146208333D01*
X93208333Y-146291666D01*
X93375000Y-146291666D01*
D12*
X51764238Y-85265523D02*
X52049952Y-85360761D01*
X52526142Y-85360761D01*
X52716619Y-85265523D01*
X52811857Y-85170285D01*
X52907095Y-84979809D01*
X52907095Y-84789333D01*
X52811857Y-84598857D01*
X52716619Y-84503619D01*
X52526142Y-84408380D01*
X52145190Y-84313142D01*
X51954714Y-84217904D01*
X51859476Y-84122666D01*
X51764238Y-83932190D01*
X51764238Y-83741714D01*
X51859476Y-83551238D01*
X51954714Y-83456000D01*
X52145190Y-83360761D01*
X52621380Y-83360761D01*
X52907095Y-83456000D01*
X53764238Y-84313142D02*
X54430904Y-84313142D01*
X54716619Y-85360761D02*
X53764238Y-85360761D01*
X53764238Y-83360761D01*
X54716619Y-83360761D01*
X56716619Y-85360761D02*
X56049952Y-84408380D01*
X55573761Y-85360761D02*
X55573761Y-83360761D01*
X56335666Y-83360761D01*
X56526142Y-83456000D01*
X56621380Y-83551238D01*
X56716619Y-83741714D01*
X56716619Y-84027428D01*
X56621380Y-84217904D01*
X56526142Y-84313142D01*
X56335666Y-84408380D01*
X55573761Y-84408380D01*
X57478523Y-83551238D02*
X57573761Y-83456000D01*
X57764238Y-83360761D01*
X58240428Y-83360761D01*
X58430904Y-83456000D01*
X58526142Y-83551238D01*
X58621380Y-83741714D01*
X58621380Y-83932190D01*
X58526142Y-84217904D01*
X57383285Y-85360761D01*
X58621380Y-85360761D01*
X59002333Y-85551238D02*
X60526142Y-85551238D01*
X60716619Y-83360761D02*
X61859476Y-83360761D01*
X61288047Y-85360761D02*
X61288047Y-83360761D01*
X62335666Y-83360761D02*
X63669000Y-85360761D01*
X63669000Y-83360761D02*
X62335666Y-85360761D01*
X51526142Y-82598523D02*
X51811857Y-82693761D01*
X52288047Y-82693761D01*
X52478523Y-82598523D01*
X52573761Y-82503285D01*
X52669000Y-82312809D01*
X52669000Y-82122333D01*
X52573761Y-81931857D01*
X52478523Y-81836619D01*
X52288047Y-81741380D01*
X51907095Y-81646142D01*
X51716619Y-81550904D01*
X51621380Y-81455666D01*
X51526142Y-81265190D01*
X51526142Y-81074714D01*
X51621380Y-80884238D01*
X51716619Y-80789000D01*
X51907095Y-80693761D01*
X52383285Y-80693761D01*
X52669000Y-80789000D01*
X53526142Y-81646142D02*
X54192809Y-81646142D01*
X54478523Y-82693761D02*
X53526142Y-82693761D01*
X53526142Y-80693761D01*
X54478523Y-80693761D01*
X56478523Y-82693761D02*
X55811857Y-81741380D01*
X55335666Y-82693761D02*
X55335666Y-80693761D01*
X56097571Y-80693761D01*
X56288047Y-80789000D01*
X56383285Y-80884238D01*
X56478523Y-81074714D01*
X56478523Y-81360428D01*
X56383285Y-81550904D01*
X56288047Y-81646142D01*
X56097571Y-81741380D01*
X55335666Y-81741380D01*
X57240428Y-80884238D02*
X57335666Y-80789000D01*
X57526142Y-80693761D01*
X58002333Y-80693761D01*
X58192809Y-80789000D01*
X58288047Y-80884238D01*
X58383285Y-81074714D01*
X58383285Y-81265190D01*
X58288047Y-81550904D01*
X57145190Y-82693761D01*
X58383285Y-82693761D01*
X58764238Y-82884238D02*
X60288047Y-82884238D01*
X61907095Y-82693761D02*
X61240428Y-81741380D01*
X60764238Y-82693761D02*
X60764238Y-80693761D01*
X61526142Y-80693761D01*
X61716619Y-80789000D01*
X61811857Y-80884238D01*
X61907095Y-81074714D01*
X61907095Y-81360428D01*
X61811857Y-81550904D01*
X61716619Y-81646142D01*
X61526142Y-81741380D01*
X60764238Y-81741380D01*
X62573761Y-80693761D02*
X63907095Y-82693761D01*
X63907095Y-80693761D02*
X62573761Y-82693761D01*
D11*
X52886370Y-76775800D02*
X52695894Y-76680561D01*
X52410180Y-76680561D01*
X52124465Y-76775800D01*
X51933989Y-76966276D01*
X51838751Y-77156752D01*
X51743513Y-77537704D01*
X51743513Y-77823419D01*
X51838751Y-78204371D01*
X51933989Y-78394847D01*
X52124465Y-78585323D01*
X52410180Y-78680561D01*
X52600656Y-78680561D01*
X52886370Y-78585323D01*
X52981608Y-78490085D01*
X52981608Y-77823419D01*
X52600656Y-77823419D01*
X53838751Y-78680561D02*
X53838751Y-76680561D01*
X54981608Y-78680561D01*
X54981608Y-76680561D01*
X55933989Y-78680561D02*
X55933989Y-76680561D01*
X56410180Y-76680561D01*
X56695894Y-76775800D01*
X56886370Y-76966276D01*
X56981608Y-77156752D01*
X57076846Y-77537704D01*
X57076846Y-77823419D01*
X56981608Y-78204371D01*
X56886370Y-78394847D01*
X56695894Y-78585323D01*
X56410180Y-78680561D01*
X55933989Y-78680561D01*
X51505418Y-76140561D02*
X51505418Y-74140561D01*
X51981608Y-74140561D01*
X52267322Y-74235800D01*
X52457799Y-74426276D01*
X52553037Y-74616752D01*
X52648275Y-74997704D01*
X52648275Y-75283419D01*
X52553037Y-75664371D01*
X52457799Y-75854847D01*
X52267322Y-76045323D01*
X51981608Y-76140561D01*
X51505418Y-76140561D01*
X53791132Y-76140561D02*
X53600656Y-76045323D01*
X53505418Y-75950085D01*
X53410180Y-75759609D01*
X53410180Y-75188180D01*
X53505418Y-74997704D01*
X53600656Y-74902466D01*
X53791132Y-74807228D01*
X54076846Y-74807228D01*
X54267322Y-74902466D01*
X54362560Y-74997704D01*
X54457799Y-75188180D01*
X54457799Y-75759609D01*
X54362560Y-75950085D01*
X54267322Y-76045323D01*
X54076846Y-76140561D01*
X53791132Y-76140561D01*
X56172084Y-74807228D02*
X56172084Y-76140561D01*
X55314941Y-74807228D02*
X55314941Y-75854847D01*
X55410180Y-76045323D01*
X55600656Y-76140561D01*
X55886370Y-76140561D01*
X56076846Y-76045323D01*
X56172084Y-75950085D01*
X56838751Y-74807228D02*
X57600656Y-74807228D01*
X57124465Y-74140561D02*
X57124465Y-75854847D01*
X57219703Y-76045323D01*
X57410180Y-76140561D01*
X57600656Y-76140561D01*
X51933989Y-71600561D02*
X53172084Y-71600561D01*
X52505418Y-72362466D01*
X52791132Y-72362466D01*
X52981608Y-72457704D01*
X53076846Y-72552942D01*
X53172084Y-72743419D01*
X53172084Y-73219609D01*
X53076846Y-73410085D01*
X52981608Y-73505323D01*
X52791132Y-73600561D01*
X52219703Y-73600561D01*
X52029227Y-73505323D01*
X51933989Y-73410085D01*
X53743513Y-71600561D02*
X54410180Y-73600561D01*
X55076846Y-71600561D01*
X55553037Y-71600561D02*
X56791132Y-71600561D01*
X56124465Y-72362466D01*
X56410180Y-72362466D01*
X56600656Y-72457704D01*
X56695894Y-72552942D01*
X56791132Y-72743419D01*
X56791132Y-73219609D01*
X56695894Y-73410085D01*
X56600656Y-73505323D01*
X56410180Y-73600561D01*
X55838751Y-73600561D01*
X55648275Y-73505323D01*
X55553037Y-73410085D01*
X52886370Y-69028800D02*
X52695894Y-68933561D01*
X52410180Y-68933561D01*
X52124465Y-69028800D01*
X51933989Y-69219276D01*
X51838751Y-69409752D01*
X51743513Y-69790704D01*
X51743513Y-70076419D01*
X51838751Y-70457371D01*
X51933989Y-70647847D01*
X52124465Y-70838323D01*
X52410180Y-70933561D01*
X52600656Y-70933561D01*
X52886370Y-70838323D01*
X52981608Y-70743085D01*
X52981608Y-70076419D01*
X52600656Y-70076419D01*
X53838751Y-70933561D02*
X53838751Y-68933561D01*
X54981608Y-70933561D01*
X54981608Y-68933561D01*
X55933989Y-70933561D02*
X55933989Y-68933561D01*
X56410180Y-68933561D01*
X56695894Y-69028800D01*
X56886370Y-69219276D01*
X56981608Y-69409752D01*
X57076846Y-69790704D01*
X57076846Y-70076419D01*
X56981608Y-70457371D01*
X56886370Y-70647847D01*
X56695894Y-70838323D01*
X56410180Y-70933561D01*
X55933989Y-70933561D01*
X69206250Y-54854940D02*
X69015774Y-54759701D01*
X68730060Y-54759701D01*
X68444345Y-54854940D01*
X68253869Y-55045416D01*
X68158631Y-55235892D01*
X68063393Y-55616844D01*
X68063393Y-55902559D01*
X68158631Y-56283511D01*
X68253869Y-56473987D01*
X68444345Y-56664463D01*
X68730060Y-56759701D01*
X68920536Y-56759701D01*
X69206250Y-56664463D01*
X69301488Y-56569225D01*
X69301488Y-55902559D01*
X68920536Y-55902559D01*
X70158631Y-56759701D02*
X70158631Y-54759701D01*
X71301488Y-56759701D01*
X71301488Y-54759701D01*
X72253869Y-56759701D02*
X72253869Y-54759701D01*
X72730060Y-54759701D01*
X73015774Y-54854940D01*
X73206250Y-55045416D01*
X73301488Y-55235892D01*
X73396726Y-55616844D01*
X73396726Y-55902559D01*
X73301488Y-56283511D01*
X73206250Y-56473987D01*
X73015774Y-56664463D01*
X72730060Y-56759701D01*
X72253869Y-56759701D01*
X68301488Y-64764463D02*
X68587202Y-64859701D01*
X69063393Y-64859701D01*
X69253869Y-64764463D01*
X69349107Y-64669225D01*
X69444345Y-64478749D01*
X69444345Y-64288273D01*
X69349107Y-64097797D01*
X69253869Y-64002559D01*
X69063393Y-63907320D01*
X68682440Y-63812082D01*
X68491964Y-63716844D01*
X68396726Y-63621606D01*
X68301488Y-63431130D01*
X68301488Y-63240654D01*
X68396726Y-63050178D01*
X68491964Y-62954940D01*
X68682440Y-62859701D01*
X69158631Y-62859701D01*
X69444345Y-62954940D01*
X70301488Y-64859701D02*
X70301488Y-62859701D01*
X70777679Y-62859701D01*
X71063393Y-62954940D01*
X71253869Y-63145416D01*
X71349107Y-63335892D01*
X71444345Y-63716844D01*
X71444345Y-64002559D01*
X71349107Y-64383511D01*
X71253869Y-64573987D01*
X71063393Y-64764463D01*
X70777679Y-64859701D01*
X70301488Y-64859701D01*
X72206250Y-64288273D02*
X73158631Y-64288273D01*
X72015774Y-64859701D02*
X72682440Y-62859701D01*
X73349107Y-64859701D01*
X68349107Y-62064463D02*
X68634821Y-62159701D01*
X69111012Y-62159701D01*
X69301488Y-62064463D01*
X69396726Y-61969225D01*
X69491964Y-61778749D01*
X69491964Y-61588273D01*
X69396726Y-61397797D01*
X69301488Y-61302559D01*
X69111012Y-61207320D01*
X68730060Y-61112082D01*
X68539583Y-61016844D01*
X68444345Y-60921606D01*
X68349107Y-60731130D01*
X68349107Y-60540654D01*
X68444345Y-60350178D01*
X68539583Y-60254940D01*
X68730060Y-60159701D01*
X69206250Y-60159701D01*
X69491964Y-60254940D01*
X71491964Y-61969225D02*
X71396726Y-62064463D01*
X71111012Y-62159701D01*
X70920536Y-62159701D01*
X70634821Y-62064463D01*
X70444345Y-61873987D01*
X70349107Y-61683511D01*
X70253869Y-61302559D01*
X70253869Y-61016844D01*
X70349107Y-60635892D01*
X70444345Y-60445416D01*
X70634821Y-60254940D01*
X70920536Y-60159701D01*
X71111012Y-60159701D01*
X71396726Y-60254940D01*
X71491964Y-60350178D01*
X73301488Y-62159701D02*
X72349107Y-62159701D01*
X72349107Y-60159701D01*
X70249107Y-57259701D02*
X69296726Y-57259701D01*
X69201488Y-58212082D01*
X69296726Y-58116844D01*
X69487202Y-58021606D01*
X69963393Y-58021606D01*
X70153869Y-58116844D01*
X70249107Y-58212082D01*
X70344345Y-58402559D01*
X70344345Y-58878749D01*
X70249107Y-59069225D01*
X70153869Y-59164463D01*
X69963393Y-59259701D01*
X69487202Y-59259701D01*
X69296726Y-59164463D01*
X69201488Y-59069225D01*
X70915774Y-57259701D02*
X71582440Y-59259701D01*
X72249107Y-57259701D01*
X89146428Y-57785714D02*
X89075000Y-57714285D01*
X89003571Y-57571428D01*
X89003571Y-57214285D01*
X89075000Y-57071428D01*
X89146428Y-57000000D01*
X89289285Y-56928571D01*
X89432142Y-56928571D01*
X89646428Y-57000000D01*
X90503571Y-57857142D01*
X90503571Y-56928571D01*
X89503571Y-55642857D02*
X90503571Y-55642857D01*
X88932142Y-56000000D02*
X90003571Y-56357142D01*
X90003571Y-55428571D01*
X89003571Y-55071428D02*
X90503571Y-54571428D01*
X89003571Y-54071428D01*
X91553571Y-56285714D02*
X91553571Y-57000000D01*
X92267857Y-57071428D01*
X92196428Y-57000000D01*
X92125000Y-56857142D01*
X92125000Y-56500000D01*
X92196428Y-56357142D01*
X92267857Y-56285714D01*
X92410714Y-56214285D01*
X92767857Y-56214285D01*
X92910714Y-56285714D01*
X92982142Y-56357142D01*
X93053571Y-56500000D01*
X93053571Y-56857142D01*
X92982142Y-57000000D01*
X92910714Y-57071428D01*
X91553571Y-55785714D02*
X93053571Y-55285714D01*
X91553571Y-54785714D01*
X94103571Y-57857142D02*
X94103571Y-56928571D01*
X94675000Y-57428571D01*
X94675000Y-57214285D01*
X94746428Y-57071428D01*
X94817857Y-57000000D01*
X94960714Y-56928571D01*
X95317857Y-56928571D01*
X95460714Y-57000000D01*
X95532142Y-57071428D01*
X95603571Y-57214285D01*
X95603571Y-57642857D01*
X95532142Y-57785714D01*
X95460714Y-57857142D01*
X94103571Y-56500000D02*
X95603571Y-56000000D01*
X94103571Y-55500000D01*
X94103571Y-55142857D02*
X94103571Y-54214285D01*
X94675000Y-54714285D01*
X94675000Y-54500000D01*
X94746428Y-54357142D01*
X94817857Y-54285714D01*
X94960714Y-54214285D01*
X95317857Y-54214285D01*
X95460714Y-54285714D01*
X95532142Y-54357142D01*
X95603571Y-54500000D01*
X95603571Y-54928571D01*
X95532142Y-55071428D01*
X95460714Y-55142857D01*
X96725000Y-57142857D02*
X96653571Y-57285714D01*
X96653571Y-57500000D01*
X96725000Y-57714285D01*
X96867857Y-57857142D01*
X97010714Y-57928571D01*
X97296428Y-58000000D01*
X97510714Y-58000000D01*
X97796428Y-57928571D01*
X97939285Y-57857142D01*
X98082142Y-57714285D01*
X98153571Y-57500000D01*
X98153571Y-57357142D01*
X98082142Y-57142857D01*
X98010714Y-57071428D01*
X97510714Y-57071428D01*
X97510714Y-57357142D01*
X98153571Y-56428571D02*
X96653571Y-56428571D01*
X98153571Y-55571428D01*
X96653571Y-55571428D01*
X98153571Y-54857142D02*
X96653571Y-54857142D01*
X96653571Y-54500000D01*
X96725000Y-54285714D01*
X96867857Y-54142857D01*
X97010714Y-54071428D01*
X97296428Y-54000000D01*
X97510714Y-54000000D01*
X97796428Y-54071428D01*
X97939285Y-54142857D01*
X98082142Y-54285714D01*
X98153571Y-54500000D01*
X98153571Y-54857142D01*
D13*
G04 #@! TO.C,D7*
X59725000Y-132850000D02*
X59675000Y-132850000D01*
X59675000Y-132850000D02*
X59675000Y-129950000D01*
X59675000Y-129950000D02*
X59725000Y-129950000D01*
X59725000Y-129950000D02*
X59725000Y-132850000D01*
X61325000Y-132900000D02*
X60075000Y-132900000D01*
G04 #@! TO.C,D6*
X57425500Y-39951500D02*
X57425500Y-39901500D01*
X57425500Y-39901500D02*
X60325500Y-39901500D01*
X60325500Y-39901500D02*
X60325500Y-39951500D01*
X60325500Y-39951500D02*
X57425500Y-39951500D01*
X57375500Y-41551500D02*
X57375500Y-40301500D01*
D14*
G04 #@! TO.C,J2*
X81305000Y-148240000D02*
X81305000Y-133590000D01*
X50495000Y-148240000D02*
X81305000Y-148240000D01*
X50495000Y-133590000D02*
X50495000Y-148240000D01*
X81305000Y-133590000D02*
X50495000Y-133590000D01*
G04 #@! TO.C,J6*
X34980000Y-184380000D02*
X26630000Y-184380000D01*
X26630000Y-184380000D02*
X26630000Y-177800000D01*
X26630000Y-177800000D02*
X42430000Y-177800000D01*
X42430000Y-177800000D02*
X42430000Y-184380000D01*
X42430000Y-184380000D02*
X41480000Y-184380000D01*
X40480000Y-184380000D02*
X36480000Y-184380000D01*
D11*
G04 #@! TO.C,J3*
X71580000Y-168260000D02*
G75*
G02*
X71680000Y-168260000I50000J0D01*
G01*
X71680000Y-168260000D02*
G75*
G02*
X71580000Y-168260000I-50000J0D01*
G01*
X71580000Y-168260000D02*
G75*
G02*
X71680000Y-168260000I50000J0D01*
G01*
X71680000Y-168260000D02*
X71680000Y-168260000D01*
X71580000Y-168260000D02*
X71580000Y-168260000D01*
X71680000Y-168260000D02*
X71680000Y-168260000D01*
D14*
X74295000Y-150760000D02*
X74295000Y-144860000D01*
X57505000Y-150760000D02*
X74295000Y-150760000D01*
X57505000Y-144860000D02*
X57505000Y-150760000D01*
X74295000Y-144860000D02*
X57505000Y-144860000D01*
X81305000Y-165410000D02*
X81305000Y-150760000D01*
X50495000Y-165410000D02*
X81305000Y-165410000D01*
X50495000Y-150760000D02*
X50495000Y-165410000D01*
X81305000Y-150760000D02*
X50495000Y-150760000D01*
G04 #@! TO.C,J17*
X97400000Y-170860000D02*
X105750000Y-170860000D01*
X105750000Y-170860000D02*
X105750000Y-177440000D01*
X105750000Y-177440000D02*
X89950000Y-177440000D01*
X89950000Y-177440000D02*
X89950000Y-170860000D01*
X89950000Y-170860000D02*
X90900000Y-170860000D01*
X91900000Y-170860000D02*
X95900000Y-170860000D01*
G04 #@! TO.C,J10*
X97400000Y-163760000D02*
X105750000Y-163760000D01*
X105750000Y-163760000D02*
X105750000Y-170340000D01*
X105750000Y-170340000D02*
X89950000Y-170340000D01*
X89950000Y-170340000D02*
X89950000Y-163760000D01*
X89950000Y-163760000D02*
X90900000Y-163760000D01*
X91900000Y-163760000D02*
X95900000Y-163760000D01*
G04 #@! TO.C,J9*
X97400000Y-177760000D02*
X105750000Y-177760000D01*
X105750000Y-177760000D02*
X105750000Y-184340000D01*
X105750000Y-184340000D02*
X89950000Y-184340000D01*
X89950000Y-184340000D02*
X89950000Y-177760000D01*
X89950000Y-177760000D02*
X90900000Y-177760000D01*
X91900000Y-177760000D02*
X95900000Y-177760000D01*
G04 #@! TO.C,J8*
X72540000Y-180400000D02*
X72540000Y-188750000D01*
X72540000Y-188750000D02*
X65960000Y-188750000D01*
X65960000Y-188750000D02*
X65960000Y-172950000D01*
X65960000Y-172950000D02*
X72540000Y-172950000D01*
X72540000Y-172950000D02*
X72540000Y-173900000D01*
X72540000Y-174900000D02*
X72540000Y-178900000D01*
G04 #@! TO.C,J7*
X64040000Y-180500000D02*
X64040000Y-188850000D01*
X64040000Y-188850000D02*
X57460000Y-188850000D01*
X57460000Y-188850000D02*
X57460000Y-173050000D01*
X57460000Y-173050000D02*
X64040000Y-173050000D01*
X64040000Y-173050000D02*
X64040000Y-174000000D01*
X64040000Y-175000000D02*
X64040000Y-179000000D01*
G04 #@! TO.C,J5*
X34980000Y-177380000D02*
X26630000Y-177380000D01*
X26630000Y-177380000D02*
X26630000Y-170800000D01*
X26630000Y-170800000D02*
X42430000Y-170800000D01*
X42430000Y-170800000D02*
X42430000Y-177380000D01*
X42430000Y-177380000D02*
X41480000Y-177380000D01*
X40480000Y-177380000D02*
X36480000Y-177380000D01*
G04 #@! TO.C,J4*
X34980000Y-170380000D02*
X26630000Y-170380000D01*
X26630000Y-170380000D02*
X26630000Y-163800000D01*
X26630000Y-163800000D02*
X42430000Y-163800000D01*
X42430000Y-163800000D02*
X42430000Y-170380000D01*
X42430000Y-170380000D02*
X41480000Y-170380000D01*
X40480000Y-170380000D02*
X36480000Y-170380000D01*
D15*
G04 #@! TO.C,BZ1*
X74300000Y-118442000D02*
G75*
G03*
X74300000Y-118442000I-6100000J0D01*
G01*
D14*
G04 #@! TO.C,J15*
X28109500Y-115336000D02*
X42759500Y-115336000D01*
X28109500Y-84526000D02*
X28109500Y-115336000D01*
X42759500Y-84526000D02*
X28109500Y-84526000D01*
X42759500Y-115336000D02*
X42759500Y-84526000D01*
D15*
G04 #@! TO.C,SW3*
X94856000Y-99842000D02*
X96356000Y-99842000D01*
X98856000Y-98592000D02*
X98856000Y-94092000D01*
X96356000Y-92842000D02*
X94856000Y-92842000D01*
X92356000Y-94092000D02*
X92356000Y-98592000D01*
D14*
G04 #@! TO.C,J16*
X41802000Y-66500000D02*
X37802000Y-66500000D01*
X43752000Y-66500000D02*
X42802000Y-66500000D01*
X43752000Y-59920000D02*
X43752000Y-66500000D01*
X27952000Y-59920000D02*
X43752000Y-59920000D01*
X27952000Y-66500000D02*
X27952000Y-59920000D01*
X36302000Y-66500000D02*
X27952000Y-66500000D01*
D15*
G04 #@! TO.C,U8*
X40000000Y-73340000D02*
X41250000Y-73340000D01*
X41250000Y-73340000D02*
X41250000Y-68140000D01*
X41250000Y-68140000D02*
X36750000Y-68140000D01*
X36750000Y-68140000D02*
X36750000Y-73340000D01*
X36750000Y-73340000D02*
X38000000Y-73340000D01*
X38000000Y-73340000D02*
G75*
G02*
X40000000Y-73340000I1000000J0D01*
G01*
G04 #@! TO.C,R23*
X45810000Y-76128000D02*
X43810000Y-76128000D01*
X43810000Y-73988000D02*
X45810000Y-73988000D01*
G04 #@! TO.C,R18*
X80672000Y-128706000D02*
X78672000Y-128706000D01*
X78672000Y-126566000D02*
X80672000Y-126566000D01*
G04 #@! TO.C,R9*
X40216000Y-120794000D02*
X40216000Y-118794000D01*
X42356000Y-118794000D02*
X42356000Y-120794000D01*
G04 #@! TO.C,Q1*
X68003400Y-108260000D02*
X64403400Y-108260000D01*
X68527584Y-108987205D02*
G75*
G03*
X68003400Y-108260000I-2324184J-1122795D01*
G01*
X68559800Y-111208807D02*
G75*
G02*
X66203400Y-112710000I-2356400J1098807D01*
G01*
X63847000Y-111208807D02*
G75*
G03*
X66203400Y-112710000I2356400J1098807D01*
G01*
X63879216Y-108987205D02*
G75*
G02*
X64403400Y-108260000I2324184J-1122795D01*
G01*
G04 #@! TO.C,C5*
X34938000Y-134146000D02*
X34938000Y-128306000D01*
X35698000Y-134906000D02*
X34938000Y-134146000D01*
X41538000Y-134146000D02*
X40778000Y-134906000D01*
X41538000Y-128306000D02*
X41538000Y-134146000D01*
X35698000Y-134906000D02*
X37118000Y-134906000D01*
X34938000Y-128306000D02*
X37118000Y-128306000D01*
X41538000Y-128306000D02*
X39358000Y-128306000D01*
X40778000Y-134906000D02*
X39358000Y-134906000D01*
D10*
G04 #@! TO.C,U1*
X70496000Y-70486000D02*
X70496000Y-69216000D01*
X70496000Y-69216000D02*
X78116000Y-69216000D01*
X78116000Y-69216000D02*
X78116000Y-70486000D01*
X70496000Y-75566000D02*
X78116000Y-75566000D01*
X78116000Y-75566000D02*
X78116000Y-70486000D01*
X70496000Y-75566000D02*
X70496000Y-70486000D01*
X75576000Y-102998000D02*
X73036000Y-102998000D01*
X73036000Y-102998000D02*
X73036000Y-98426000D01*
X73036000Y-98426000D02*
X75576000Y-98426000D01*
X75576000Y-98426000D02*
X75576000Y-102998000D01*
X69226000Y-92711000D02*
X79386000Y-92711000D01*
X79386000Y-82551000D02*
X69226000Y-82551000D01*
X79386000Y-92711000D02*
X79386000Y-82551000D01*
X69226000Y-92711000D02*
X69226000Y-82551000D01*
X83196000Y-70486000D02*
X83196000Y-106046000D01*
X83196000Y-106046000D02*
X65416000Y-106046000D01*
X65416000Y-106046000D02*
X65416000Y-70486000D01*
X65416000Y-70486000D02*
X83196000Y-70486000D01*
X79386000Y-93346000D02*
X79386000Y-95886000D01*
X79386000Y-95886000D02*
X76211000Y-95886000D01*
X76211000Y-95886000D02*
X76211000Y-93346000D01*
X76211000Y-93346000D02*
X79386000Y-93346000D01*
D14*
G36*
X74941000Y-85091000D02*
G01*
X75195000Y-85345000D01*
X74814000Y-85599000D01*
X74560000Y-85345000D01*
X74941000Y-85091000D01*
G37*
X74941000Y-85091000D02*
X75195000Y-85345000D01*
X74814000Y-85599000D01*
X74560000Y-85345000D01*
X74941000Y-85091000D01*
G36*
X74433000Y-85472000D02*
G01*
X74687000Y-85726000D01*
X74306000Y-85980000D01*
X74052000Y-85726000D01*
X74433000Y-85472000D01*
G37*
X74433000Y-85472000D02*
X74687000Y-85726000D01*
X74306000Y-85980000D01*
X74052000Y-85726000D01*
X74433000Y-85472000D01*
G36*
X73925000Y-85853000D02*
G01*
X74179000Y-86107000D01*
X73798000Y-86361000D01*
X73544000Y-86107000D01*
X73925000Y-85853000D01*
G37*
X73925000Y-85853000D02*
X74179000Y-86107000D01*
X73798000Y-86361000D01*
X73544000Y-86107000D01*
X73925000Y-85853000D01*
G36*
X74814000Y-85853000D02*
G01*
X75068000Y-86107000D01*
X74687000Y-86361000D01*
X74433000Y-86107000D01*
X74814000Y-85853000D01*
G37*
X74814000Y-85853000D02*
X75068000Y-86107000D01*
X74687000Y-86361000D01*
X74433000Y-86107000D01*
X74814000Y-85853000D01*
G36*
X74306000Y-86234000D02*
G01*
X74560000Y-86488000D01*
X74179000Y-86742000D01*
X73925000Y-86488000D01*
X74306000Y-86234000D01*
G37*
X74306000Y-86234000D02*
X74560000Y-86488000D01*
X74179000Y-86742000D01*
X73925000Y-86488000D01*
X74306000Y-86234000D01*
G36*
X73798000Y-86615000D02*
G01*
X74052000Y-86869000D01*
X73671000Y-87123000D01*
X73417000Y-86869000D01*
X73798000Y-86615000D01*
G37*
X73798000Y-86615000D02*
X74052000Y-86869000D01*
X73671000Y-87123000D01*
X73417000Y-86869000D01*
X73798000Y-86615000D01*
G36*
X74560000Y-84710000D02*
G01*
X74814000Y-84964000D01*
X74433000Y-85218000D01*
X74179000Y-84964000D01*
X74560000Y-84710000D01*
G37*
X74560000Y-84710000D02*
X74814000Y-84964000D01*
X74433000Y-85218000D01*
X74179000Y-84964000D01*
X74560000Y-84710000D01*
G36*
X74179000Y-84329000D02*
G01*
X74433000Y-84583000D01*
X74052000Y-84837000D01*
X73798000Y-84583000D01*
X74179000Y-84329000D01*
G37*
X74179000Y-84329000D02*
X74433000Y-84583000D01*
X74052000Y-84837000D01*
X73798000Y-84583000D01*
X74179000Y-84329000D01*
D15*
G04 #@! TO.C,R20*
X70696000Y-100156000D02*
X70696000Y-98156000D01*
X72836000Y-98156000D02*
X72836000Y-100156000D01*
D14*
G04 #@! TO.C,U7*
X90840000Y-64626000D02*
X88990000Y-64626000D01*
X88990000Y-64626000D02*
X88990000Y-68876000D01*
X88990000Y-74876000D02*
X88990000Y-78376000D01*
X88990000Y-78376000D02*
X91840000Y-78376000D01*
X97840000Y-78376000D02*
X100690000Y-78376000D01*
X100690000Y-78376000D02*
X100690000Y-74876000D01*
X100690000Y-68876000D02*
X100690000Y-64626000D01*
X100690000Y-64626000D02*
X98840000Y-64626000D01*
D13*
X92240000Y-80776000D02*
X92240000Y-80776000D01*
X92440000Y-80776000D02*
X92440000Y-80776000D01*
X92240000Y-80776000D02*
G75*
G02*
X92440000Y-80776000I100000J0D01*
G01*
X92440000Y-80776000D02*
G75*
G02*
X92240000Y-80776000I-100000J0D01*
G01*
D15*
G04 #@! TO.C,J11*
X88216000Y-61656000D02*
X88216000Y-60326000D01*
X89546000Y-61656000D02*
X88216000Y-61656000D01*
X90816000Y-58996000D02*
X90816000Y-61656000D01*
X98496000Y-58996000D02*
X90816000Y-58996000D01*
X98496000Y-61656000D02*
X98496000Y-58996000D01*
X90816000Y-61656000D02*
X98496000Y-61656000D01*
D11*
G04 #@! TO.C,J1*
X62668000Y-40456000D02*
X62668000Y-40456000D01*
X62568000Y-40456000D02*
X62568000Y-40456000D01*
X62668000Y-40456000D02*
X62668000Y-40456000D01*
D14*
X65283000Y-22956000D02*
X65283000Y-17056000D01*
X48493000Y-22956000D02*
X65283000Y-22956000D01*
X48493000Y-17056000D02*
X48493000Y-22956000D01*
X65283000Y-17056000D02*
X48493000Y-17056000D01*
X72293000Y-37606000D02*
X72293000Y-22956000D01*
X41483000Y-37606000D02*
X72293000Y-37606000D01*
X41483000Y-22956000D02*
X41483000Y-37606000D01*
X72293000Y-22956000D02*
X41483000Y-22956000D01*
D11*
X62568000Y-40456000D02*
G75*
G02*
X62668000Y-40456000I50000J0D01*
G01*
X62668000Y-40456000D02*
G75*
G02*
X62568000Y-40456000I-50000J0D01*
G01*
X62568000Y-40456000D02*
G75*
G02*
X62668000Y-40456000I50000J0D01*
G01*
D15*
G04 #@! TO.C,L1*
X60645000Y-51188000D02*
X61845000Y-51188000D01*
X61845000Y-45588000D02*
X60645000Y-45588000D01*
G04 #@! TO.C,R13*
X87276000Y-135056000D02*
X85276000Y-135056000D01*
X85276000Y-132916000D02*
X87276000Y-132916000D01*
G04 #@! TO.C,R12*
X87276000Y-126166000D02*
X85276000Y-126166000D01*
X85276000Y-124026000D02*
X87276000Y-124026000D01*
G04 #@! TO.C,R11*
X87276000Y-117530000D02*
X85276000Y-117530000D01*
X85276000Y-115390000D02*
X87276000Y-115390000D01*
G04 #@! TO.C,R10*
X43772000Y-120794000D02*
X43772000Y-118794000D01*
X45912000Y-118794000D02*
X45912000Y-120794000D01*
G04 #@! TO.C,R8*
X36660000Y-120794000D02*
X36660000Y-118794000D01*
X38800000Y-118794000D02*
X38800000Y-120794000D01*
G04 #@! TO.C,R7*
X33104000Y-120794000D02*
X33104000Y-118794000D01*
X35244000Y-118794000D02*
X35244000Y-120794000D01*
G04 #@! TO.C,R6*
X35498000Y-78852000D02*
X35498000Y-80852000D01*
X33358000Y-80852000D02*
X33358000Y-78852000D01*
G04 #@! TO.C,R5*
X38800000Y-78852000D02*
X38800000Y-80852000D01*
X36660000Y-80852000D02*
X36660000Y-78852000D01*
G04 #@! TO.C,R4*
X42356000Y-78852000D02*
X42356000Y-80852000D01*
X40216000Y-80852000D02*
X40216000Y-78852000D01*
G04 #@! TO.C,R3*
X45912000Y-78852000D02*
X45912000Y-80852000D01*
X43772000Y-80852000D02*
X43772000Y-78852000D01*
G04 #@! TO.C,R2*
X77281000Y-78027000D02*
X77281000Y-80027000D01*
X75141000Y-80027000D02*
X75141000Y-78027000D01*
G04 #@! TO.C,R1*
X73344000Y-78027000D02*
X73344000Y-80027000D01*
X71204000Y-80027000D02*
X71204000Y-78027000D01*
G04 #@! TO.C,R14*
X65666000Y-127806000D02*
X67666000Y-127806000D01*
X67666000Y-129946000D02*
X65666000Y-129946000D01*
G04 #@! TO.C,JP1*
X68536000Y-130594000D02*
X68536000Y-131924000D01*
X67206000Y-130594000D02*
X68536000Y-130594000D01*
X65936000Y-130594000D02*
X65936000Y-133254000D01*
X65936000Y-133254000D02*
X63336000Y-133254000D01*
X65936000Y-130594000D02*
X63336000Y-130594000D01*
X63336000Y-130594000D02*
X63336000Y-133254000D01*
D10*
G04 #@! TO.C,U4*
X72358000Y-86630000D02*
X70958000Y-86630000D01*
X72358000Y-91730000D02*
X76508000Y-91730000D01*
X72358000Y-86580000D02*
X76508000Y-86580000D01*
X72358000Y-91730000D02*
X72358000Y-91585000D01*
X76508000Y-91730000D02*
X76508000Y-91585000D01*
X76508000Y-86580000D02*
X76508000Y-86725000D01*
X72358000Y-86580000D02*
X72358000Y-86630000D01*
D15*
G04 #@! TO.C,U3*
X60330000Y-128450000D02*
X60330000Y-118170000D01*
X49930000Y-128450000D02*
X60330000Y-128450000D01*
X49930000Y-118170000D02*
X49930000Y-128450000D01*
X60330000Y-118170000D02*
X49930000Y-118170000D01*
X60270000Y-125960000D02*
X60270000Y-124310000D01*
X49990000Y-125960000D02*
X60270000Y-125960000D01*
X49990000Y-120660000D02*
X49990000Y-125960000D01*
X60270000Y-120660000D02*
X49990000Y-120660000D01*
X60270000Y-122310000D02*
X60270000Y-120660000D01*
X60270000Y-124310000D02*
G75*
G02*
X60270000Y-122310000I0J1000000D01*
G01*
G04 #@! TO.C,U2*
X48786000Y-53662000D02*
X48786000Y-63942000D01*
X59186000Y-53662000D02*
X48786000Y-53662000D01*
X59186000Y-63942000D02*
X59186000Y-53662000D01*
X48786000Y-63942000D02*
X59186000Y-63942000D01*
X48846000Y-56152000D02*
X48846000Y-57802000D01*
X59126000Y-56152000D02*
X48846000Y-56152000D01*
X59126000Y-61452000D02*
X59126000Y-56152000D01*
X48846000Y-61452000D02*
X59126000Y-61452000D01*
X48846000Y-59802000D02*
X48846000Y-61452000D01*
X48846000Y-57802000D02*
G75*
G02*
X48846000Y-59802000I0J-1000000D01*
G01*
G04 #@! TO.C,U6*
X87723920Y-57154700D02*
X79873920Y-57154700D01*
X79873920Y-57154700D02*
X79873920Y-45214700D01*
X79873920Y-45214700D02*
X87723920Y-45214700D01*
X87723920Y-45214700D02*
X87723920Y-57154700D01*
X85603920Y-57484700D02*
X88053920Y-57484700D01*
X88053920Y-57484700D02*
X88053920Y-55154700D01*
G04 #@! TO.C,U5*
X61158000Y-89670000D02*
X50878000Y-89670000D01*
X61158000Y-110230000D02*
X61158000Y-89670000D01*
X50878000Y-110230000D02*
X61158000Y-110230000D01*
X50878000Y-89670000D02*
X50878000Y-110230000D01*
X58668000Y-89730000D02*
X57018000Y-89730000D01*
X58668000Y-110170000D02*
X58668000Y-89730000D01*
X53368000Y-110170000D02*
X58668000Y-110170000D01*
X53368000Y-89730000D02*
X53368000Y-110170000D01*
X55018000Y-89730000D02*
X53368000Y-89730000D01*
X57018000Y-89730000D02*
G75*
G02*
X55018000Y-89730000I-1000000J0D01*
G01*
G04 #@! TO.C,SW2*
X94928000Y-110256000D02*
X96428000Y-110256000D01*
X98928000Y-109006000D02*
X98928000Y-104506000D01*
X96428000Y-103256000D02*
X94928000Y-103256000D01*
X92428000Y-104506000D02*
X92428000Y-109006000D01*
G04 #@! TO.C,J14*
X51252000Y-85786000D02*
X49922000Y-85786000D01*
X51252000Y-84456000D02*
X51252000Y-85786000D01*
X51252000Y-83186000D02*
X48592000Y-83186000D01*
X48592000Y-83186000D02*
X48592000Y-80586000D01*
X51252000Y-83186000D02*
X51252000Y-80586000D01*
X51252000Y-80586000D02*
X48592000Y-80586000D01*
G04 #@! TO.C,J13*
X64345080Y-54688160D02*
X65675080Y-54688160D01*
X64345080Y-56018160D02*
X64345080Y-54688160D01*
X67005080Y-57288160D02*
X64345080Y-57288160D01*
X67005080Y-64968160D02*
X67005080Y-57288160D01*
X64345080Y-64968160D02*
X67005080Y-64968160D01*
X64345080Y-57288160D02*
X64345080Y-64968160D01*
G04 #@! TO.C,J12*
X48592000Y-68698800D02*
X49922000Y-68698800D01*
X48592000Y-70028800D02*
X48592000Y-68698800D01*
X51252000Y-71298800D02*
X48592000Y-71298800D01*
X51252000Y-78978800D02*
X51252000Y-71298800D01*
X48592000Y-78978800D02*
X51252000Y-78978800D01*
X48592000Y-71298800D02*
X48592000Y-78978800D01*
G04 #@! TO.C,F1*
X46928000Y-49732000D02*
X46928000Y-51732000D01*
X44788000Y-51732000D02*
X44788000Y-49732000D01*
G04 #@! TO.C,D4*
X91812000Y-132346000D02*
X91812000Y-135626000D01*
X96872000Y-133986000D02*
G75*
G03*
X96872000Y-133986000I-2500000J0D01*
G01*
X97411999Y-133987958D02*
G75*
G03*
X91812000Y-132346488I-3039999J1958D01*
G01*
X97411999Y-133984042D02*
G75*
G02*
X91812000Y-135625512I-3039999J-1958D01*
G01*
G04 #@! TO.C,D3*
X91812000Y-123456000D02*
X91812000Y-126736000D01*
X96872000Y-125096000D02*
G75*
G03*
X96872000Y-125096000I-2500000J0D01*
G01*
X97411999Y-125097958D02*
G75*
G03*
X91812000Y-123456488I-3039999J1958D01*
G01*
X97411999Y-125094042D02*
G75*
G02*
X91812000Y-126735512I-3039999J-1958D01*
G01*
G04 #@! TO.C,D2*
X91812000Y-114820000D02*
X91812000Y-118100000D01*
X96872000Y-116460000D02*
G75*
G03*
X96872000Y-116460000I-2500000J0D01*
G01*
X97411999Y-116461958D02*
G75*
G03*
X91812000Y-114820488I-3039999J1958D01*
G01*
X97411999Y-116458042D02*
G75*
G02*
X91812000Y-118099512I-3039999J-1958D01*
G01*
G04 #@! TO.C,C3*
X69160000Y-49420000D02*
X69160000Y-47420000D01*
X67120000Y-47420000D02*
X67120000Y-49420000D01*
G04 #@! TO.C,C2*
X51577000Y-47578000D02*
X51577000Y-45578000D01*
X49537000Y-45578000D02*
X49537000Y-47578000D01*
G04 #@! TO.C,C1*
X55641000Y-47578000D02*
X55641000Y-45578000D01*
X53601000Y-45578000D02*
X53601000Y-47578000D01*
G04 #@! TO.C,D1*
X43108000Y-53660000D02*
X43108000Y-50460000D01*
X40988000Y-50460000D02*
X40988000Y-53660000D01*
X40988000Y-53660000D02*
X43108000Y-53660000D01*
G04 #@! TO.C,D5*
X28975000Y-53042000D02*
X34585000Y-53042000D01*
X28975000Y-56942000D02*
X34585000Y-56942000D01*
X28975000Y-53042000D02*
X28975000Y-56942000D01*
G04 #@! TO.C,C4*
X85453040Y-44479480D02*
X79613040Y-44479480D01*
X86213040Y-43719480D02*
X85453040Y-44479480D01*
X85453040Y-37879480D02*
X86213040Y-38639480D01*
X79613040Y-37879480D02*
X85453040Y-37879480D01*
X86213040Y-43719480D02*
X86213040Y-42299480D01*
X79613040Y-44479480D02*
X79613040Y-42299480D01*
X79613040Y-37879480D02*
X79613040Y-40059480D01*
X86213040Y-38639480D02*
X86213040Y-40059480D01*
G04 #@! TO.C,C6*
X62110000Y-92568000D02*
X62110000Y-94568000D01*
X64150000Y-94568000D02*
X64150000Y-92568000D01*
G04 #@! TO.C,C7*
X75338000Y-83309000D02*
X73338000Y-83309000D01*
X73338000Y-85349000D02*
X75338000Y-85349000D01*
G04 #@! TO.C,C8*
X54150000Y-117270000D02*
X56150000Y-117270000D01*
X56150000Y-115230000D02*
X54150000Y-115230000D01*
G04 #@! TO.C,C9*
X55208000Y-64640000D02*
X53208000Y-64640000D01*
X53208000Y-66680000D02*
X55208000Y-66680000D01*
G04 #@! TO.C,R15*
X80672000Y-119562000D02*
X78672000Y-119562000D01*
X78672000Y-117422000D02*
X80672000Y-117422000D01*
G04 #@! TO.C,R16*
X78672000Y-121486000D02*
X80672000Y-121486000D01*
X80672000Y-123626000D02*
X78672000Y-123626000D01*
G04 #@! TO.C,R17*
X78672000Y-113358000D02*
X80672000Y-113358000D01*
X80672000Y-115498000D02*
X78672000Y-115498000D01*
G04 #@! TO.C,R19*
X72004000Y-111072000D02*
X74004000Y-111072000D01*
X74004000Y-113212000D02*
X72004000Y-113212000D01*
G04 #@! TO.C,R21*
X76435180Y-45578500D02*
X76435180Y-47578500D01*
X74295180Y-47578500D02*
X74295180Y-45578500D01*
G04 #@! TO.C,R22*
X43518000Y-132668000D02*
X43518000Y-130668000D01*
X45658000Y-130668000D02*
X45658000Y-132668000D01*
G04 #@! TO.C,H6*
D10*
X97038095Y-152852380D02*
X97038095Y-151852380D01*
X97038095Y-152328571D02*
X97609523Y-152328571D01*
X97609523Y-152852380D02*
X97609523Y-151852380D01*
X98514285Y-151852380D02*
X98323809Y-151852380D01*
X98228571Y-151900000D01*
X98180952Y-151947619D01*
X98085714Y-152090476D01*
X98038095Y-152280952D01*
X98038095Y-152661904D01*
X98085714Y-152757142D01*
X98133333Y-152804761D01*
X98228571Y-152852380D01*
X98419047Y-152852380D01*
X98514285Y-152804761D01*
X98561904Y-152757142D01*
X98609523Y-152661904D01*
X98609523Y-152423809D01*
X98561904Y-152328571D01*
X98514285Y-152280952D01*
X98419047Y-152233333D01*
X98228571Y-152233333D01*
X98133333Y-152280952D01*
X98085714Y-152328571D01*
X98038095Y-152423809D01*
G04 #@! TO.C,H5*
X33038095Y-152752380D02*
X33038095Y-151752380D01*
X33038095Y-152228571D02*
X33609523Y-152228571D01*
X33609523Y-152752380D02*
X33609523Y-151752380D01*
X34561904Y-151752380D02*
X34085714Y-151752380D01*
X34038095Y-152228571D01*
X34085714Y-152180952D01*
X34180952Y-152133333D01*
X34419047Y-152133333D01*
X34514285Y-152180952D01*
X34561904Y-152228571D01*
X34609523Y-152323809D01*
X34609523Y-152561904D01*
X34561904Y-152657142D01*
X34514285Y-152704761D01*
X34419047Y-152752380D01*
X34180952Y-152752380D01*
X34085714Y-152704761D01*
X34038095Y-152657142D01*
G04 #@! TO.C,D7*
D16*
X58762619Y-131974523D02*
X58762619Y-130704523D01*
X59065000Y-130704523D01*
X59246428Y-130765000D01*
X59367380Y-130885952D01*
X59427857Y-131006904D01*
X59488333Y-131248809D01*
X59488333Y-131430238D01*
X59427857Y-131672142D01*
X59367380Y-131793095D01*
X59246428Y-131914047D01*
X59065000Y-131974523D01*
X58762619Y-131974523D01*
X59911666Y-130704523D02*
X60758333Y-130704523D01*
X60214047Y-131974523D01*
G04 #@! TO.C,D6*
X59450023Y-40863880D02*
X58180023Y-40863880D01*
X58180023Y-40561500D01*
X58240500Y-40380071D01*
X58361452Y-40259119D01*
X58482404Y-40198642D01*
X58724309Y-40138166D01*
X58905738Y-40138166D01*
X59147642Y-40198642D01*
X59268595Y-40259119D01*
X59389547Y-40380071D01*
X59450023Y-40561500D01*
X59450023Y-40863880D01*
X58180023Y-39049595D02*
X58180023Y-39291500D01*
X58240500Y-39412452D01*
X58300976Y-39472928D01*
X58482404Y-39593880D01*
X58724309Y-39654357D01*
X59208119Y-39654357D01*
X59329071Y-39593880D01*
X59389547Y-39533404D01*
X59450023Y-39412452D01*
X59450023Y-39170547D01*
X59389547Y-39049595D01*
X59329071Y-38989119D01*
X59208119Y-38928642D01*
X58905738Y-38928642D01*
X58784785Y-38989119D01*
X58724309Y-39049595D01*
X58663833Y-39170547D01*
X58663833Y-39412452D01*
X58724309Y-39533404D01*
X58784785Y-39593880D01*
X58905738Y-39654357D01*
G04 #@! TO.C,J2*
X80354666Y-131256523D02*
X80354666Y-132163666D01*
X80294190Y-132345095D01*
X80173238Y-132466047D01*
X79991809Y-132526523D01*
X79870857Y-132526523D01*
X80898952Y-131377476D02*
X80959428Y-131317000D01*
X81080380Y-131256523D01*
X81382761Y-131256523D01*
X81503714Y-131317000D01*
X81564190Y-131377476D01*
X81624666Y-131498428D01*
X81624666Y-131619380D01*
X81564190Y-131800809D01*
X80838476Y-132526523D01*
X81624666Y-132526523D01*
G04 #@! TO.C,J6*
X33834523Y-181513333D02*
X34741666Y-181513333D01*
X34923095Y-181573809D01*
X35044047Y-181694761D01*
X35104523Y-181876190D01*
X35104523Y-181997142D01*
X33834523Y-180364285D02*
X33834523Y-180606190D01*
X33895000Y-180727142D01*
X33955476Y-180787619D01*
X34136904Y-180908571D01*
X34378809Y-180969047D01*
X34862619Y-180969047D01*
X34983571Y-180908571D01*
X35044047Y-180848095D01*
X35104523Y-180727142D01*
X35104523Y-180485238D01*
X35044047Y-180364285D01*
X34983571Y-180303809D01*
X34862619Y-180243333D01*
X34560238Y-180243333D01*
X34439285Y-180303809D01*
X34378809Y-180364285D01*
X34318333Y-180485238D01*
X34318333Y-180727142D01*
X34378809Y-180848095D01*
X34439285Y-180908571D01*
X34560238Y-180969047D01*
G04 #@! TO.C,J3*
X65476666Y-155889523D02*
X65476666Y-156796666D01*
X65416190Y-156978095D01*
X65295238Y-157099047D01*
X65113809Y-157159523D01*
X64992857Y-157159523D01*
X65960476Y-155889523D02*
X66746666Y-155889523D01*
X66323333Y-156373333D01*
X66504761Y-156373333D01*
X66625714Y-156433809D01*
X66686190Y-156494285D01*
X66746666Y-156615238D01*
X66746666Y-156917619D01*
X66686190Y-157038571D01*
X66625714Y-157099047D01*
X66504761Y-157159523D01*
X66141904Y-157159523D01*
X66020952Y-157099047D01*
X65960476Y-157038571D01*
G04 #@! TO.C,J17*
X97154523Y-175178095D02*
X98061666Y-175178095D01*
X98243095Y-175238571D01*
X98364047Y-175359523D01*
X98424523Y-175540952D01*
X98424523Y-175661904D01*
X98424523Y-173908095D02*
X98424523Y-174633809D01*
X98424523Y-174270952D02*
X97154523Y-174270952D01*
X97335952Y-174391904D01*
X97456904Y-174512857D01*
X97517380Y-174633809D01*
X97154523Y-173484761D02*
X97154523Y-172638095D01*
X98424523Y-173182380D01*
G04 #@! TO.C,J10*
X97154523Y-168078095D02*
X98061666Y-168078095D01*
X98243095Y-168138571D01*
X98364047Y-168259523D01*
X98424523Y-168440952D01*
X98424523Y-168561904D01*
X98424523Y-166808095D02*
X98424523Y-167533809D01*
X98424523Y-167170952D02*
X97154523Y-167170952D01*
X97335952Y-167291904D01*
X97456904Y-167412857D01*
X97517380Y-167533809D01*
X97154523Y-166021904D02*
X97154523Y-165900952D01*
X97215000Y-165780000D01*
X97275476Y-165719523D01*
X97396428Y-165659047D01*
X97638333Y-165598571D01*
X97940714Y-165598571D01*
X98182619Y-165659047D01*
X98303571Y-165719523D01*
X98364047Y-165780000D01*
X98424523Y-165900952D01*
X98424523Y-166021904D01*
X98364047Y-166142857D01*
X98303571Y-166203333D01*
X98182619Y-166263809D01*
X97940714Y-166324285D01*
X97638333Y-166324285D01*
X97396428Y-166263809D01*
X97275476Y-166203333D01*
X97215000Y-166142857D01*
X97154523Y-166021904D01*
G04 #@! TO.C,J9*
X97154523Y-181473333D02*
X98061666Y-181473333D01*
X98243095Y-181533809D01*
X98364047Y-181654761D01*
X98424523Y-181836190D01*
X98424523Y-181957142D01*
X98424523Y-180808095D02*
X98424523Y-180566190D01*
X98364047Y-180445238D01*
X98303571Y-180384761D01*
X98122142Y-180263809D01*
X97880238Y-180203333D01*
X97396428Y-180203333D01*
X97275476Y-180263809D01*
X97215000Y-180324285D01*
X97154523Y-180445238D01*
X97154523Y-180687142D01*
X97215000Y-180808095D01*
X97275476Y-180868571D01*
X97396428Y-180929047D01*
X97698809Y-180929047D01*
X97819761Y-180868571D01*
X97880238Y-180808095D01*
X97940714Y-180687142D01*
X97940714Y-180445238D01*
X97880238Y-180324285D01*
X97819761Y-180263809D01*
X97698809Y-180203333D01*
G04 #@! TO.C,J8*
X68826666Y-180154523D02*
X68826666Y-181061666D01*
X68766190Y-181243095D01*
X68645238Y-181364047D01*
X68463809Y-181424523D01*
X68342857Y-181424523D01*
X69612857Y-180698809D02*
X69491904Y-180638333D01*
X69431428Y-180577857D01*
X69370952Y-180456904D01*
X69370952Y-180396428D01*
X69431428Y-180275476D01*
X69491904Y-180215000D01*
X69612857Y-180154523D01*
X69854761Y-180154523D01*
X69975714Y-180215000D01*
X70036190Y-180275476D01*
X70096666Y-180396428D01*
X70096666Y-180456904D01*
X70036190Y-180577857D01*
X69975714Y-180638333D01*
X69854761Y-180698809D01*
X69612857Y-180698809D01*
X69491904Y-180759285D01*
X69431428Y-180819761D01*
X69370952Y-180940714D01*
X69370952Y-181182619D01*
X69431428Y-181303571D01*
X69491904Y-181364047D01*
X69612857Y-181424523D01*
X69854761Y-181424523D01*
X69975714Y-181364047D01*
X70036190Y-181303571D01*
X70096666Y-181182619D01*
X70096666Y-180940714D01*
X70036190Y-180819761D01*
X69975714Y-180759285D01*
X69854761Y-180698809D01*
G04 #@! TO.C,J7*
X60326666Y-180254523D02*
X60326666Y-181161666D01*
X60266190Y-181343095D01*
X60145238Y-181464047D01*
X59963809Y-181524523D01*
X59842857Y-181524523D01*
X60810476Y-180254523D02*
X61657142Y-180254523D01*
X61112857Y-181524523D01*
G04 #@! TO.C,J5*
X33834523Y-174513333D02*
X34741666Y-174513333D01*
X34923095Y-174573809D01*
X35044047Y-174694761D01*
X35104523Y-174876190D01*
X35104523Y-174997142D01*
X33834523Y-173303809D02*
X33834523Y-173908571D01*
X34439285Y-173969047D01*
X34378809Y-173908571D01*
X34318333Y-173787619D01*
X34318333Y-173485238D01*
X34378809Y-173364285D01*
X34439285Y-173303809D01*
X34560238Y-173243333D01*
X34862619Y-173243333D01*
X34983571Y-173303809D01*
X35044047Y-173364285D01*
X35104523Y-173485238D01*
X35104523Y-173787619D01*
X35044047Y-173908571D01*
X34983571Y-173969047D01*
G04 #@! TO.C,J4*
X33834523Y-167513333D02*
X34741666Y-167513333D01*
X34923095Y-167573809D01*
X35044047Y-167694761D01*
X35104523Y-167876190D01*
X35104523Y-167997142D01*
X34257857Y-166364285D02*
X35104523Y-166364285D01*
X33774047Y-166666666D02*
X34681190Y-166969047D01*
X34681190Y-166182857D01*
G04 #@! TO.C,BZ1*
D10*
X60938571Y-118182952D02*
X60986190Y-118040095D01*
X61033809Y-117992476D01*
X61129047Y-117944857D01*
X61271904Y-117944857D01*
X61367142Y-117992476D01*
X61414761Y-118040095D01*
X61462380Y-118135333D01*
X61462380Y-118516285D01*
X60462380Y-118516285D01*
X60462380Y-118182952D01*
X60510000Y-118087714D01*
X60557619Y-118040095D01*
X60652857Y-117992476D01*
X60748095Y-117992476D01*
X60843333Y-118040095D01*
X60890952Y-118087714D01*
X60938571Y-118182952D01*
X60938571Y-118516285D01*
X60462380Y-117611523D02*
X60462380Y-116944857D01*
X61462380Y-117611523D01*
X61462380Y-116944857D01*
X61462380Y-116040095D02*
X61462380Y-116611523D01*
X61462380Y-116325809D02*
X60462380Y-116325809D01*
X60605238Y-116421047D01*
X60700476Y-116516285D01*
X60748095Y-116611523D01*
X65741428Y-121492952D02*
X65741428Y-120731047D01*
X66122380Y-121112000D02*
X65360476Y-121112000D01*
G04 #@! TO.C,J15*
D16*
X31654023Y-100959095D02*
X32561166Y-100959095D01*
X32742595Y-101019571D01*
X32863547Y-101140523D01*
X32924023Y-101321952D01*
X32924023Y-101442904D01*
X32924023Y-99689095D02*
X32924023Y-100414809D01*
X32924023Y-100051952D02*
X31654023Y-100051952D01*
X31835452Y-100172904D01*
X31956404Y-100293857D01*
X32016880Y-100414809D01*
X31654023Y-98540047D02*
X31654023Y-99144809D01*
X32258785Y-99205285D01*
X32198309Y-99144809D01*
X32137833Y-99023857D01*
X32137833Y-98721476D01*
X32198309Y-98600523D01*
X32258785Y-98540047D01*
X32379738Y-98479571D01*
X32682119Y-98479571D01*
X32803071Y-98540047D01*
X32863547Y-98600523D01*
X32924023Y-98721476D01*
X32924023Y-99023857D01*
X32863547Y-99144809D01*
X32803071Y-99205285D01*
G04 #@! TO.C,SW3*
D10*
X100260761Y-97675333D02*
X100308380Y-97532476D01*
X100308380Y-97294380D01*
X100260761Y-97199142D01*
X100213142Y-97151523D01*
X100117904Y-97103904D01*
X100022666Y-97103904D01*
X99927428Y-97151523D01*
X99879809Y-97199142D01*
X99832190Y-97294380D01*
X99784571Y-97484857D01*
X99736952Y-97580095D01*
X99689333Y-97627714D01*
X99594095Y-97675333D01*
X99498857Y-97675333D01*
X99403619Y-97627714D01*
X99356000Y-97580095D01*
X99308380Y-97484857D01*
X99308380Y-97246761D01*
X99356000Y-97103904D01*
X99308380Y-96770571D02*
X100308380Y-96532476D01*
X99594095Y-96342000D01*
X100308380Y-96151523D01*
X99308380Y-95913428D01*
X99308380Y-95627714D02*
X99308380Y-95008666D01*
X99689333Y-95342000D01*
X99689333Y-95199142D01*
X99736952Y-95103904D01*
X99784571Y-95056285D01*
X99879809Y-95008666D01*
X100117904Y-95008666D01*
X100213142Y-95056285D01*
X100260761Y-95103904D01*
X100308380Y-95199142D01*
X100308380Y-95484857D01*
X100260761Y-95580095D01*
X100213142Y-95627714D01*
G04 #@! TO.C,J16*
D16*
X35156523Y-64238095D02*
X36063666Y-64238095D01*
X36245095Y-64298571D01*
X36366047Y-64419523D01*
X36426523Y-64600952D01*
X36426523Y-64721904D01*
X36426523Y-62968095D02*
X36426523Y-63693809D01*
X36426523Y-63330952D02*
X35156523Y-63330952D01*
X35337952Y-63451904D01*
X35458904Y-63572857D01*
X35519380Y-63693809D01*
X35156523Y-61879523D02*
X35156523Y-62121428D01*
X35217000Y-62242380D01*
X35277476Y-62302857D01*
X35458904Y-62423809D01*
X35700809Y-62484285D01*
X36184619Y-62484285D01*
X36305571Y-62423809D01*
X36366047Y-62363333D01*
X36426523Y-62242380D01*
X36426523Y-62000476D01*
X36366047Y-61879523D01*
X36305571Y-61819047D01*
X36184619Y-61758571D01*
X35882238Y-61758571D01*
X35761285Y-61819047D01*
X35700809Y-61879523D01*
X35640333Y-62000476D01*
X35640333Y-62242380D01*
X35700809Y-62363333D01*
X35761285Y-62423809D01*
X35882238Y-62484285D01*
G04 #@! TO.C,U8*
D10*
X38238095Y-73792380D02*
X38238095Y-74601904D01*
X38285714Y-74697142D01*
X38333333Y-74744761D01*
X38428571Y-74792380D01*
X38619047Y-74792380D01*
X38714285Y-74744761D01*
X38761904Y-74697142D01*
X38809523Y-74601904D01*
X38809523Y-73792380D01*
X39428571Y-74220952D02*
X39333333Y-74173333D01*
X39285714Y-74125714D01*
X39238095Y-74030476D01*
X39238095Y-73982857D01*
X39285714Y-73887619D01*
X39333333Y-73840000D01*
X39428571Y-73792380D01*
X39619047Y-73792380D01*
X39714285Y-73840000D01*
X39761904Y-73887619D01*
X39809523Y-73982857D01*
X39809523Y-74030476D01*
X39761904Y-74125714D01*
X39714285Y-74173333D01*
X39619047Y-74220952D01*
X39428571Y-74220952D01*
X39333333Y-74268571D01*
X39285714Y-74316190D01*
X39238095Y-74411428D01*
X39238095Y-74601904D01*
X39285714Y-74697142D01*
X39333333Y-74744761D01*
X39428571Y-74792380D01*
X39619047Y-74792380D01*
X39714285Y-74744761D01*
X39761904Y-74697142D01*
X39809523Y-74601904D01*
X39809523Y-74411428D01*
X39761904Y-74316190D01*
X39714285Y-74268571D01*
X39619047Y-74220952D01*
G04 #@! TO.C,R23*
X44167142Y-73660380D02*
X43833809Y-73184190D01*
X43595714Y-73660380D02*
X43595714Y-72660380D01*
X43976666Y-72660380D01*
X44071904Y-72708000D01*
X44119523Y-72755619D01*
X44167142Y-72850857D01*
X44167142Y-72993714D01*
X44119523Y-73088952D01*
X44071904Y-73136571D01*
X43976666Y-73184190D01*
X43595714Y-73184190D01*
X44548095Y-72755619D02*
X44595714Y-72708000D01*
X44690952Y-72660380D01*
X44929047Y-72660380D01*
X45024285Y-72708000D01*
X45071904Y-72755619D01*
X45119523Y-72850857D01*
X45119523Y-72946095D01*
X45071904Y-73088952D01*
X44500476Y-73660380D01*
X45119523Y-73660380D01*
X45452857Y-72660380D02*
X46071904Y-72660380D01*
X45738571Y-73041333D01*
X45881428Y-73041333D01*
X45976666Y-73088952D01*
X46024285Y-73136571D01*
X46071904Y-73231809D01*
X46071904Y-73469904D01*
X46024285Y-73565142D01*
X45976666Y-73612761D01*
X45881428Y-73660380D01*
X45595714Y-73660380D01*
X45500476Y-73612761D01*
X45452857Y-73565142D01*
G04 #@! TO.C,R18*
X79029142Y-126238380D02*
X78695809Y-125762190D01*
X78457714Y-126238380D02*
X78457714Y-125238380D01*
X78838666Y-125238380D01*
X78933904Y-125286000D01*
X78981523Y-125333619D01*
X79029142Y-125428857D01*
X79029142Y-125571714D01*
X78981523Y-125666952D01*
X78933904Y-125714571D01*
X78838666Y-125762190D01*
X78457714Y-125762190D01*
X79981523Y-126238380D02*
X79410095Y-126238380D01*
X79695809Y-126238380D02*
X79695809Y-125238380D01*
X79600571Y-125381238D01*
X79505333Y-125476476D01*
X79410095Y-125524095D01*
X80552952Y-125666952D02*
X80457714Y-125619333D01*
X80410095Y-125571714D01*
X80362476Y-125476476D01*
X80362476Y-125428857D01*
X80410095Y-125333619D01*
X80457714Y-125286000D01*
X80552952Y-125238380D01*
X80743428Y-125238380D01*
X80838666Y-125286000D01*
X80886285Y-125333619D01*
X80933904Y-125428857D01*
X80933904Y-125476476D01*
X80886285Y-125571714D01*
X80838666Y-125619333D01*
X80743428Y-125666952D01*
X80552952Y-125666952D01*
X80457714Y-125714571D01*
X80410095Y-125762190D01*
X80362476Y-125857428D01*
X80362476Y-126047904D01*
X80410095Y-126143142D01*
X80457714Y-126190761D01*
X80552952Y-126238380D01*
X80743428Y-126238380D01*
X80838666Y-126190761D01*
X80886285Y-126143142D01*
X80933904Y-126047904D01*
X80933904Y-125857428D01*
X80886285Y-125762190D01*
X80838666Y-125714571D01*
X80743428Y-125666952D01*
G04 #@! TO.C,R9*
X39888380Y-119960666D02*
X39412190Y-120294000D01*
X39888380Y-120532095D02*
X38888380Y-120532095D01*
X38888380Y-120151142D01*
X38936000Y-120055904D01*
X38983619Y-120008285D01*
X39078857Y-119960666D01*
X39221714Y-119960666D01*
X39316952Y-120008285D01*
X39364571Y-120055904D01*
X39412190Y-120151142D01*
X39412190Y-120532095D01*
X39888380Y-119484476D02*
X39888380Y-119294000D01*
X39840761Y-119198761D01*
X39793142Y-119151142D01*
X39650285Y-119055904D01*
X39459809Y-119008285D01*
X39078857Y-119008285D01*
X38983619Y-119055904D01*
X38936000Y-119103523D01*
X38888380Y-119198761D01*
X38888380Y-119389238D01*
X38936000Y-119484476D01*
X38983619Y-119532095D01*
X39078857Y-119579714D01*
X39316952Y-119579714D01*
X39412190Y-119532095D01*
X39459809Y-119484476D01*
X39507428Y-119389238D01*
X39507428Y-119198761D01*
X39459809Y-119103523D01*
X39412190Y-119055904D01*
X39316952Y-119008285D01*
G04 #@! TO.C,Q1*
X64050761Y-114213619D02*
X63955523Y-114166000D01*
X63860285Y-114070761D01*
X63717428Y-113927904D01*
X63622190Y-113880285D01*
X63526952Y-113880285D01*
X63574571Y-114118380D02*
X63479333Y-114070761D01*
X63384095Y-113975523D01*
X63336476Y-113785047D01*
X63336476Y-113451714D01*
X63384095Y-113261238D01*
X63479333Y-113166000D01*
X63574571Y-113118380D01*
X63765047Y-113118380D01*
X63860285Y-113166000D01*
X63955523Y-113261238D01*
X64003142Y-113451714D01*
X64003142Y-113785047D01*
X63955523Y-113975523D01*
X63860285Y-114070761D01*
X63765047Y-114118380D01*
X63574571Y-114118380D01*
X64955523Y-114118380D02*
X64384095Y-114118380D01*
X64669809Y-114118380D02*
X64669809Y-113118380D01*
X64574571Y-113261238D01*
X64479333Y-113356476D01*
X64384095Y-113404095D01*
G04 #@! TO.C,C5*
X43025142Y-131772666D02*
X43072761Y-131820285D01*
X43120380Y-131963142D01*
X43120380Y-132058380D01*
X43072761Y-132201238D01*
X42977523Y-132296476D01*
X42882285Y-132344095D01*
X42691809Y-132391714D01*
X42548952Y-132391714D01*
X42358476Y-132344095D01*
X42263238Y-132296476D01*
X42168000Y-132201238D01*
X42120380Y-132058380D01*
X42120380Y-131963142D01*
X42168000Y-131820285D01*
X42215619Y-131772666D01*
X42120380Y-130867904D02*
X42120380Y-131344095D01*
X42596571Y-131391714D01*
X42548952Y-131344095D01*
X42501333Y-131248857D01*
X42501333Y-131010761D01*
X42548952Y-130915523D01*
X42596571Y-130867904D01*
X42691809Y-130820285D01*
X42929904Y-130820285D01*
X43025142Y-130867904D01*
X43072761Y-130915523D01*
X43120380Y-131010761D01*
X43120380Y-131248857D01*
X43072761Y-131344095D01*
X43025142Y-131391714D01*
X41219428Y-136266952D02*
X41219428Y-135505047D01*
X41600380Y-135886000D02*
X40838476Y-135886000D01*
G04 #@! TO.C,U1*
X79132095Y-68922380D02*
X79132095Y-69731904D01*
X79179714Y-69827142D01*
X79227333Y-69874761D01*
X79322571Y-69922380D01*
X79513047Y-69922380D01*
X79608285Y-69874761D01*
X79655904Y-69827142D01*
X79703523Y-69731904D01*
X79703523Y-68922380D01*
X80703523Y-69922380D02*
X80132095Y-69922380D01*
X80417809Y-69922380D02*
X80417809Y-68922380D01*
X80322571Y-69065238D01*
X80227333Y-69160476D01*
X80132095Y-69208095D01*
X72906000Y-90360666D02*
X72906000Y-89660666D01*
X73072666Y-89660666D01*
X73172666Y-89694000D01*
X73239333Y-89760666D01*
X73272666Y-89827333D01*
X73306000Y-89960666D01*
X73306000Y-90060666D01*
X73272666Y-90194000D01*
X73239333Y-90260666D01*
X73172666Y-90327333D01*
X73072666Y-90360666D01*
X72906000Y-90360666D01*
X73506000Y-89660666D02*
X73739333Y-90360666D01*
X73972666Y-89660666D01*
X74539333Y-90360666D02*
X74206000Y-90360666D01*
X74206000Y-89660666D01*
X75072666Y-89660666D02*
X74939333Y-89660666D01*
X74872666Y-89694000D01*
X74839333Y-89727333D01*
X74772666Y-89827333D01*
X74739333Y-89960666D01*
X74739333Y-90227333D01*
X74772666Y-90294000D01*
X74806000Y-90327333D01*
X74872666Y-90360666D01*
X75006000Y-90360666D01*
X75072666Y-90327333D01*
X75106000Y-90294000D01*
X75139333Y-90227333D01*
X75139333Y-90060666D01*
X75106000Y-89994000D01*
X75072666Y-89960666D01*
X75006000Y-89927333D01*
X74872666Y-89927333D01*
X74806000Y-89960666D01*
X74772666Y-89994000D01*
X74739333Y-90060666D01*
X75406000Y-90160666D02*
X75739333Y-90160666D01*
X75339333Y-90360666D02*
X75572666Y-89660666D01*
X75806000Y-90360666D01*
X71222666Y-88836666D02*
X71222666Y-88136666D01*
X71456000Y-88636666D01*
X71689333Y-88136666D01*
X71689333Y-88836666D01*
X72022666Y-88836666D02*
X72022666Y-88136666D01*
X72356000Y-88836666D02*
X72356000Y-88136666D01*
X72589333Y-88636666D01*
X72822666Y-88136666D01*
X72822666Y-88836666D01*
X73089333Y-88136666D02*
X73556000Y-88836666D01*
X73556000Y-88136666D02*
X73089333Y-88836666D01*
X74222666Y-88836666D02*
X73989333Y-88503333D01*
X73822666Y-88836666D02*
X73822666Y-88136666D01*
X74089333Y-88136666D01*
X74156000Y-88170000D01*
X74189333Y-88203333D01*
X74222666Y-88270000D01*
X74222666Y-88370000D01*
X74189333Y-88436666D01*
X74156000Y-88470000D01*
X74089333Y-88503333D01*
X73822666Y-88503333D01*
X74422666Y-88136666D02*
X74822666Y-88136666D01*
X74622666Y-88836666D02*
X74622666Y-88136666D01*
X75422666Y-88836666D02*
X75022666Y-88836666D01*
X75222666Y-88836666D02*
X75222666Y-88136666D01*
X75156000Y-88236666D01*
X75089333Y-88303333D01*
X75022666Y-88336666D01*
X75856000Y-88136666D02*
X75922666Y-88136666D01*
X75989333Y-88170000D01*
X76022666Y-88203333D01*
X76056000Y-88270000D01*
X76089333Y-88403333D01*
X76089333Y-88570000D01*
X76056000Y-88703333D01*
X76022666Y-88770000D01*
X75989333Y-88803333D01*
X75922666Y-88836666D01*
X75856000Y-88836666D01*
X75789333Y-88803333D01*
X75756000Y-88770000D01*
X75722666Y-88703333D01*
X75689333Y-88570000D01*
X75689333Y-88403333D01*
X75722666Y-88270000D01*
X75756000Y-88203333D01*
X75789333Y-88170000D01*
X75856000Y-88136666D01*
X76689333Y-88136666D02*
X76556000Y-88136666D01*
X76489333Y-88170000D01*
X76456000Y-88203333D01*
X76389333Y-88303333D01*
X76356000Y-88436666D01*
X76356000Y-88703333D01*
X76389333Y-88770000D01*
X76422666Y-88803333D01*
X76489333Y-88836666D01*
X76622666Y-88836666D01*
X76689333Y-88803333D01*
X76722666Y-88770000D01*
X76756000Y-88703333D01*
X76756000Y-88536666D01*
X76722666Y-88470000D01*
X76689333Y-88436666D01*
X76622666Y-88403333D01*
X76489333Y-88403333D01*
X76422666Y-88436666D01*
X76389333Y-88470000D01*
X76356000Y-88536666D01*
X77022666Y-88203333D02*
X77056000Y-88170000D01*
X77122666Y-88136666D01*
X77289333Y-88136666D01*
X77356000Y-88170000D01*
X77389333Y-88203333D01*
X77422666Y-88270000D01*
X77422666Y-88336666D01*
X77389333Y-88436666D01*
X76989333Y-88836666D01*
X77422666Y-88836666D01*
G04 #@! TO.C,R20*
X70368380Y-99798857D02*
X69892190Y-100132190D01*
X70368380Y-100370285D02*
X69368380Y-100370285D01*
X69368380Y-99989333D01*
X69416000Y-99894095D01*
X69463619Y-99846476D01*
X69558857Y-99798857D01*
X69701714Y-99798857D01*
X69796952Y-99846476D01*
X69844571Y-99894095D01*
X69892190Y-99989333D01*
X69892190Y-100370285D01*
X69463619Y-99417904D02*
X69416000Y-99370285D01*
X69368380Y-99275047D01*
X69368380Y-99036952D01*
X69416000Y-98941714D01*
X69463619Y-98894095D01*
X69558857Y-98846476D01*
X69654095Y-98846476D01*
X69796952Y-98894095D01*
X70368380Y-99465523D01*
X70368380Y-98846476D01*
X69368380Y-98227428D02*
X69368380Y-98132190D01*
X69416000Y-98036952D01*
X69463619Y-97989333D01*
X69558857Y-97941714D01*
X69749333Y-97894095D01*
X69987428Y-97894095D01*
X70177904Y-97941714D01*
X70273142Y-97989333D01*
X70320761Y-98036952D01*
X70368380Y-98132190D01*
X70368380Y-98227428D01*
X70320761Y-98322666D01*
X70273142Y-98370285D01*
X70177904Y-98417904D01*
X69987428Y-98465523D01*
X69749333Y-98465523D01*
X69558857Y-98417904D01*
X69463619Y-98370285D01*
X69416000Y-98322666D01*
X69368380Y-98227428D01*
G04 #@! TO.C,U7*
D16*
X93872380Y-82236523D02*
X93872380Y-83264619D01*
X93932857Y-83385571D01*
X93993333Y-83446047D01*
X94114285Y-83506523D01*
X94356190Y-83506523D01*
X94477142Y-83446047D01*
X94537619Y-83385571D01*
X94598095Y-83264619D01*
X94598095Y-82236523D01*
X95081904Y-82236523D02*
X95928571Y-82236523D01*
X95384285Y-83506523D01*
G04 #@! TO.C,J11*
D10*
X86458380Y-59230523D02*
X87172666Y-59230523D01*
X87315523Y-59278142D01*
X87410761Y-59373380D01*
X87458380Y-59516238D01*
X87458380Y-59611476D01*
X87458380Y-58230523D02*
X87458380Y-58801952D01*
X87458380Y-58516238D02*
X86458380Y-58516238D01*
X86601238Y-58611476D01*
X86696476Y-58706714D01*
X86744095Y-58801952D01*
X87458380Y-57278142D02*
X87458380Y-57849571D01*
X87458380Y-57563857D02*
X86458380Y-57563857D01*
X86601238Y-57659095D01*
X86696476Y-57754333D01*
X86744095Y-57849571D01*
G04 #@! TO.C,J1*
D16*
X71596666Y-39564523D02*
X71596666Y-40471666D01*
X71536190Y-40653095D01*
X71415238Y-40774047D01*
X71233809Y-40834523D01*
X71112857Y-40834523D01*
X72866666Y-40834523D02*
X72140952Y-40834523D01*
X72503809Y-40834523D02*
X72503809Y-39564523D01*
X72382857Y-39745952D01*
X72261904Y-39866904D01*
X72140952Y-39927380D01*
G04 #@! TO.C,L1*
D10*
X61078333Y-44840380D02*
X60602142Y-44840380D01*
X60602142Y-43840380D01*
X61935476Y-44840380D02*
X61364047Y-44840380D01*
X61649761Y-44840380D02*
X61649761Y-43840380D01*
X61554523Y-43983238D01*
X61459285Y-44078476D01*
X61364047Y-44126095D01*
G04 #@! TO.C,R13*
X85633142Y-136288380D02*
X85299809Y-135812190D01*
X85061714Y-136288380D02*
X85061714Y-135288380D01*
X85442666Y-135288380D01*
X85537904Y-135336000D01*
X85585523Y-135383619D01*
X85633142Y-135478857D01*
X85633142Y-135621714D01*
X85585523Y-135716952D01*
X85537904Y-135764571D01*
X85442666Y-135812190D01*
X85061714Y-135812190D01*
X86585523Y-136288380D02*
X86014095Y-136288380D01*
X86299809Y-136288380D02*
X86299809Y-135288380D01*
X86204571Y-135431238D01*
X86109333Y-135526476D01*
X86014095Y-135574095D01*
X86918857Y-135288380D02*
X87537904Y-135288380D01*
X87204571Y-135669333D01*
X87347428Y-135669333D01*
X87442666Y-135716952D01*
X87490285Y-135764571D01*
X87537904Y-135859809D01*
X87537904Y-136097904D01*
X87490285Y-136193142D01*
X87442666Y-136240761D01*
X87347428Y-136288380D01*
X87061714Y-136288380D01*
X86966476Y-136240761D01*
X86918857Y-136193142D01*
G04 #@! TO.C,R12*
X85633142Y-127398380D02*
X85299809Y-126922190D01*
X85061714Y-127398380D02*
X85061714Y-126398380D01*
X85442666Y-126398380D01*
X85537904Y-126446000D01*
X85585523Y-126493619D01*
X85633142Y-126588857D01*
X85633142Y-126731714D01*
X85585523Y-126826952D01*
X85537904Y-126874571D01*
X85442666Y-126922190D01*
X85061714Y-126922190D01*
X86585523Y-127398380D02*
X86014095Y-127398380D01*
X86299809Y-127398380D02*
X86299809Y-126398380D01*
X86204571Y-126541238D01*
X86109333Y-126636476D01*
X86014095Y-126684095D01*
X86966476Y-126493619D02*
X87014095Y-126446000D01*
X87109333Y-126398380D01*
X87347428Y-126398380D01*
X87442666Y-126446000D01*
X87490285Y-126493619D01*
X87537904Y-126588857D01*
X87537904Y-126684095D01*
X87490285Y-126826952D01*
X86918857Y-127398380D01*
X87537904Y-127398380D01*
G04 #@! TO.C,R11*
X85633142Y-118762380D02*
X85299809Y-118286190D01*
X85061714Y-118762380D02*
X85061714Y-117762380D01*
X85442666Y-117762380D01*
X85537904Y-117810000D01*
X85585523Y-117857619D01*
X85633142Y-117952857D01*
X85633142Y-118095714D01*
X85585523Y-118190952D01*
X85537904Y-118238571D01*
X85442666Y-118286190D01*
X85061714Y-118286190D01*
X86585523Y-118762380D02*
X86014095Y-118762380D01*
X86299809Y-118762380D02*
X86299809Y-117762380D01*
X86204571Y-117905238D01*
X86109333Y-118000476D01*
X86014095Y-118048095D01*
X87537904Y-118762380D02*
X86966476Y-118762380D01*
X87252190Y-118762380D02*
X87252190Y-117762380D01*
X87156952Y-117905238D01*
X87061714Y-118000476D01*
X86966476Y-118048095D01*
G04 #@! TO.C,R10*
X43444380Y-120436857D02*
X42968190Y-120770190D01*
X43444380Y-121008285D02*
X42444380Y-121008285D01*
X42444380Y-120627333D01*
X42492000Y-120532095D01*
X42539619Y-120484476D01*
X42634857Y-120436857D01*
X42777714Y-120436857D01*
X42872952Y-120484476D01*
X42920571Y-120532095D01*
X42968190Y-120627333D01*
X42968190Y-121008285D01*
X43444380Y-119484476D02*
X43444380Y-120055904D01*
X43444380Y-119770190D02*
X42444380Y-119770190D01*
X42587238Y-119865428D01*
X42682476Y-119960666D01*
X42730095Y-120055904D01*
X42444380Y-118865428D02*
X42444380Y-118770190D01*
X42492000Y-118674952D01*
X42539619Y-118627333D01*
X42634857Y-118579714D01*
X42825333Y-118532095D01*
X43063428Y-118532095D01*
X43253904Y-118579714D01*
X43349142Y-118627333D01*
X43396761Y-118674952D01*
X43444380Y-118770190D01*
X43444380Y-118865428D01*
X43396761Y-118960666D01*
X43349142Y-119008285D01*
X43253904Y-119055904D01*
X43063428Y-119103523D01*
X42825333Y-119103523D01*
X42634857Y-119055904D01*
X42539619Y-119008285D01*
X42492000Y-118960666D01*
X42444380Y-118865428D01*
G04 #@! TO.C,R8*
X36332380Y-119960666D02*
X35856190Y-120294000D01*
X36332380Y-120532095D02*
X35332380Y-120532095D01*
X35332380Y-120151142D01*
X35380000Y-120055904D01*
X35427619Y-120008285D01*
X35522857Y-119960666D01*
X35665714Y-119960666D01*
X35760952Y-120008285D01*
X35808571Y-120055904D01*
X35856190Y-120151142D01*
X35856190Y-120532095D01*
X35760952Y-119389238D02*
X35713333Y-119484476D01*
X35665714Y-119532095D01*
X35570476Y-119579714D01*
X35522857Y-119579714D01*
X35427619Y-119532095D01*
X35380000Y-119484476D01*
X35332380Y-119389238D01*
X35332380Y-119198761D01*
X35380000Y-119103523D01*
X35427619Y-119055904D01*
X35522857Y-119008285D01*
X35570476Y-119008285D01*
X35665714Y-119055904D01*
X35713333Y-119103523D01*
X35760952Y-119198761D01*
X35760952Y-119389238D01*
X35808571Y-119484476D01*
X35856190Y-119532095D01*
X35951428Y-119579714D01*
X36141904Y-119579714D01*
X36237142Y-119532095D01*
X36284761Y-119484476D01*
X36332380Y-119389238D01*
X36332380Y-119198761D01*
X36284761Y-119103523D01*
X36237142Y-119055904D01*
X36141904Y-119008285D01*
X35951428Y-119008285D01*
X35856190Y-119055904D01*
X35808571Y-119103523D01*
X35760952Y-119198761D01*
G04 #@! TO.C,R7*
X32776380Y-119960666D02*
X32300190Y-120294000D01*
X32776380Y-120532095D02*
X31776380Y-120532095D01*
X31776380Y-120151142D01*
X31824000Y-120055904D01*
X31871619Y-120008285D01*
X31966857Y-119960666D01*
X32109714Y-119960666D01*
X32204952Y-120008285D01*
X32252571Y-120055904D01*
X32300190Y-120151142D01*
X32300190Y-120532095D01*
X31776380Y-119627333D02*
X31776380Y-118960666D01*
X32776380Y-119389238D01*
G04 #@! TO.C,R6*
X36730380Y-80018666D02*
X36254190Y-80352000D01*
X36730380Y-80590095D02*
X35730380Y-80590095D01*
X35730380Y-80209142D01*
X35778000Y-80113904D01*
X35825619Y-80066285D01*
X35920857Y-80018666D01*
X36063714Y-80018666D01*
X36158952Y-80066285D01*
X36206571Y-80113904D01*
X36254190Y-80209142D01*
X36254190Y-80590095D01*
X35730380Y-79161523D02*
X35730380Y-79352000D01*
X35778000Y-79447238D01*
X35825619Y-79494857D01*
X35968476Y-79590095D01*
X36158952Y-79637714D01*
X36539904Y-79637714D01*
X36635142Y-79590095D01*
X36682761Y-79542476D01*
X36730380Y-79447238D01*
X36730380Y-79256761D01*
X36682761Y-79161523D01*
X36635142Y-79113904D01*
X36539904Y-79066285D01*
X36301809Y-79066285D01*
X36206571Y-79113904D01*
X36158952Y-79161523D01*
X36111333Y-79256761D01*
X36111333Y-79447238D01*
X36158952Y-79542476D01*
X36206571Y-79590095D01*
X36301809Y-79637714D01*
G04 #@! TO.C,R5*
X40032380Y-80018666D02*
X39556190Y-80352000D01*
X40032380Y-80590095D02*
X39032380Y-80590095D01*
X39032380Y-80209142D01*
X39080000Y-80113904D01*
X39127619Y-80066285D01*
X39222857Y-80018666D01*
X39365714Y-80018666D01*
X39460952Y-80066285D01*
X39508571Y-80113904D01*
X39556190Y-80209142D01*
X39556190Y-80590095D01*
X39032380Y-79113904D02*
X39032380Y-79590095D01*
X39508571Y-79637714D01*
X39460952Y-79590095D01*
X39413333Y-79494857D01*
X39413333Y-79256761D01*
X39460952Y-79161523D01*
X39508571Y-79113904D01*
X39603809Y-79066285D01*
X39841904Y-79066285D01*
X39937142Y-79113904D01*
X39984761Y-79161523D01*
X40032380Y-79256761D01*
X40032380Y-79494857D01*
X39984761Y-79590095D01*
X39937142Y-79637714D01*
G04 #@! TO.C,R4*
X43588380Y-80018666D02*
X43112190Y-80352000D01*
X43588380Y-80590095D02*
X42588380Y-80590095D01*
X42588380Y-80209142D01*
X42636000Y-80113904D01*
X42683619Y-80066285D01*
X42778857Y-80018666D01*
X42921714Y-80018666D01*
X43016952Y-80066285D01*
X43064571Y-80113904D01*
X43112190Y-80209142D01*
X43112190Y-80590095D01*
X42921714Y-79161523D02*
X43588380Y-79161523D01*
X42540761Y-79399619D02*
X43255047Y-79637714D01*
X43255047Y-79018666D01*
G04 #@! TO.C,R3*
X47144380Y-80018666D02*
X46668190Y-80352000D01*
X47144380Y-80590095D02*
X46144380Y-80590095D01*
X46144380Y-80209142D01*
X46192000Y-80113904D01*
X46239619Y-80066285D01*
X46334857Y-80018666D01*
X46477714Y-80018666D01*
X46572952Y-80066285D01*
X46620571Y-80113904D01*
X46668190Y-80209142D01*
X46668190Y-80590095D01*
X46144380Y-79685333D02*
X46144380Y-79066285D01*
X46525333Y-79399619D01*
X46525333Y-79256761D01*
X46572952Y-79161523D01*
X46620571Y-79113904D01*
X46715809Y-79066285D01*
X46953904Y-79066285D01*
X47049142Y-79113904D01*
X47096761Y-79161523D01*
X47144380Y-79256761D01*
X47144380Y-79542476D01*
X47096761Y-79637714D01*
X47049142Y-79685333D01*
G04 #@! TO.C,R2*
X78513380Y-79193666D02*
X78037190Y-79527000D01*
X78513380Y-79765095D02*
X77513380Y-79765095D01*
X77513380Y-79384142D01*
X77561000Y-79288904D01*
X77608619Y-79241285D01*
X77703857Y-79193666D01*
X77846714Y-79193666D01*
X77941952Y-79241285D01*
X77989571Y-79288904D01*
X78037190Y-79384142D01*
X78037190Y-79765095D01*
X77608619Y-78812714D02*
X77561000Y-78765095D01*
X77513380Y-78669857D01*
X77513380Y-78431761D01*
X77561000Y-78336523D01*
X77608619Y-78288904D01*
X77703857Y-78241285D01*
X77799095Y-78241285D01*
X77941952Y-78288904D01*
X78513380Y-78860333D01*
X78513380Y-78241285D01*
G04 #@! TO.C,R1*
X74576380Y-79193666D02*
X74100190Y-79527000D01*
X74576380Y-79765095D02*
X73576380Y-79765095D01*
X73576380Y-79384142D01*
X73624000Y-79288904D01*
X73671619Y-79241285D01*
X73766857Y-79193666D01*
X73909714Y-79193666D01*
X74004952Y-79241285D01*
X74052571Y-79288904D01*
X74100190Y-79384142D01*
X74100190Y-79765095D01*
X74576380Y-78241285D02*
X74576380Y-78812714D01*
X74576380Y-78527000D02*
X73576380Y-78527000D01*
X73719238Y-78622238D01*
X73814476Y-78717476D01*
X73862095Y-78812714D01*
G04 #@! TO.C,R14*
X66023142Y-127478380D02*
X65689809Y-127002190D01*
X65451714Y-127478380D02*
X65451714Y-126478380D01*
X65832666Y-126478380D01*
X65927904Y-126526000D01*
X65975523Y-126573619D01*
X66023142Y-126668857D01*
X66023142Y-126811714D01*
X65975523Y-126906952D01*
X65927904Y-126954571D01*
X65832666Y-127002190D01*
X65451714Y-127002190D01*
X66975523Y-127478380D02*
X66404095Y-127478380D01*
X66689809Y-127478380D02*
X66689809Y-126478380D01*
X66594571Y-126621238D01*
X66499333Y-126716476D01*
X66404095Y-126764095D01*
X67832666Y-126811714D02*
X67832666Y-127478380D01*
X67594571Y-126430761D02*
X67356476Y-127145047D01*
X67975523Y-127145047D01*
G04 #@! TO.C,JP1*
X69452380Y-132757333D02*
X70166666Y-132757333D01*
X70309523Y-132804952D01*
X70404761Y-132900190D01*
X70452380Y-133043047D01*
X70452380Y-133138285D01*
X70452380Y-132281142D02*
X69452380Y-132281142D01*
X69452380Y-131900190D01*
X69500000Y-131804952D01*
X69547619Y-131757333D01*
X69642857Y-131709714D01*
X69785714Y-131709714D01*
X69880952Y-131757333D01*
X69928571Y-131804952D01*
X69976190Y-131900190D01*
X69976190Y-132281142D01*
X70452380Y-130757333D02*
X70452380Y-131328761D01*
X70452380Y-131043047D02*
X69452380Y-131043047D01*
X69595238Y-131138285D01*
X69690476Y-131233523D01*
X69738095Y-131328761D01*
G04 #@! TO.C,U4*
X78624095Y-88099380D02*
X78624095Y-88908904D01*
X78671714Y-89004142D01*
X78719333Y-89051761D01*
X78814571Y-89099380D01*
X79005047Y-89099380D01*
X79100285Y-89051761D01*
X79147904Y-89004142D01*
X79195523Y-88908904D01*
X79195523Y-88099380D01*
X80100285Y-88432714D02*
X80100285Y-89099380D01*
X79862190Y-88051761D02*
X79624095Y-88766047D01*
X80243142Y-88766047D01*
G04 #@! TO.C,U3*
X60722380Y-124071904D02*
X61531904Y-124071904D01*
X61627142Y-124024285D01*
X61674761Y-123976666D01*
X61722380Y-123881428D01*
X61722380Y-123690952D01*
X61674761Y-123595714D01*
X61627142Y-123548095D01*
X61531904Y-123500476D01*
X60722380Y-123500476D01*
X60722380Y-123119523D02*
X60722380Y-122500476D01*
X61103333Y-122833809D01*
X61103333Y-122690952D01*
X61150952Y-122595714D01*
X61198571Y-122548095D01*
X61293809Y-122500476D01*
X61531904Y-122500476D01*
X61627142Y-122548095D01*
X61674761Y-122595714D01*
X61722380Y-122690952D01*
X61722380Y-122976666D01*
X61674761Y-123071904D01*
X61627142Y-123119523D01*
G04 #@! TO.C,U2*
X45858095Y-62572380D02*
X45858095Y-63381904D01*
X45905714Y-63477142D01*
X45953333Y-63524761D01*
X46048571Y-63572380D01*
X46239047Y-63572380D01*
X46334285Y-63524761D01*
X46381904Y-63477142D01*
X46429523Y-63381904D01*
X46429523Y-62572380D01*
X46858095Y-62667619D02*
X46905714Y-62620000D01*
X47000952Y-62572380D01*
X47239047Y-62572380D01*
X47334285Y-62620000D01*
X47381904Y-62667619D01*
X47429523Y-62762857D01*
X47429523Y-62858095D01*
X47381904Y-63000952D01*
X46810476Y-63572380D01*
X47429523Y-63572380D01*
G04 #@! TO.C,U6*
X78346300Y-55996604D02*
X79155824Y-55996604D01*
X79251062Y-55948985D01*
X79298681Y-55901366D01*
X79346300Y-55806128D01*
X79346300Y-55615652D01*
X79298681Y-55520414D01*
X79251062Y-55472795D01*
X79155824Y-55425176D01*
X78346300Y-55425176D01*
X78346300Y-54520414D02*
X78346300Y-54710890D01*
X78393920Y-54806128D01*
X78441539Y-54853747D01*
X78584396Y-54948985D01*
X78774872Y-54996604D01*
X79155824Y-54996604D01*
X79251062Y-54948985D01*
X79298681Y-54901366D01*
X79346300Y-54806128D01*
X79346300Y-54615652D01*
X79298681Y-54520414D01*
X79251062Y-54472795D01*
X79155824Y-54425176D01*
X78917729Y-54425176D01*
X78822491Y-54472795D01*
X78774872Y-54520414D01*
X78727253Y-54615652D01*
X78727253Y-54806128D01*
X78774872Y-54901366D01*
X78822491Y-54948985D01*
X78917729Y-54996604D01*
G04 #@! TO.C,U5*
X55256095Y-88182380D02*
X55256095Y-88991904D01*
X55303714Y-89087142D01*
X55351333Y-89134761D01*
X55446571Y-89182380D01*
X55637047Y-89182380D01*
X55732285Y-89134761D01*
X55779904Y-89087142D01*
X55827523Y-88991904D01*
X55827523Y-88182380D01*
X56779904Y-88182380D02*
X56303714Y-88182380D01*
X56256095Y-88658571D01*
X56303714Y-88610952D01*
X56398952Y-88563333D01*
X56637047Y-88563333D01*
X56732285Y-88610952D01*
X56779904Y-88658571D01*
X56827523Y-88753809D01*
X56827523Y-88991904D01*
X56779904Y-89087142D01*
X56732285Y-89134761D01*
X56637047Y-89182380D01*
X56398952Y-89182380D01*
X56303714Y-89134761D01*
X56256095Y-89087142D01*
G04 #@! TO.C,SW2*
X100332761Y-108089333D02*
X100380380Y-107946476D01*
X100380380Y-107708380D01*
X100332761Y-107613142D01*
X100285142Y-107565523D01*
X100189904Y-107517904D01*
X100094666Y-107517904D01*
X99999428Y-107565523D01*
X99951809Y-107613142D01*
X99904190Y-107708380D01*
X99856571Y-107898857D01*
X99808952Y-107994095D01*
X99761333Y-108041714D01*
X99666095Y-108089333D01*
X99570857Y-108089333D01*
X99475619Y-108041714D01*
X99428000Y-107994095D01*
X99380380Y-107898857D01*
X99380380Y-107660761D01*
X99428000Y-107517904D01*
X99380380Y-107184571D02*
X100380380Y-106946476D01*
X99666095Y-106756000D01*
X100380380Y-106565523D01*
X99380380Y-106327428D01*
X99475619Y-105994095D02*
X99428000Y-105946476D01*
X99380380Y-105851238D01*
X99380380Y-105613142D01*
X99428000Y-105517904D01*
X99475619Y-105470285D01*
X99570857Y-105422666D01*
X99666095Y-105422666D01*
X99808952Y-105470285D01*
X100380380Y-106041714D01*
X100380380Y-105422666D01*
G04 #@! TO.C,J14*
X49112476Y-86238380D02*
X49112476Y-86952666D01*
X49064857Y-87095523D01*
X48969619Y-87190761D01*
X48826761Y-87238380D01*
X48731523Y-87238380D01*
X50112476Y-87238380D02*
X49541047Y-87238380D01*
X49826761Y-87238380D02*
X49826761Y-86238380D01*
X49731523Y-86381238D01*
X49636285Y-86476476D01*
X49541047Y-86524095D01*
X50969619Y-86571714D02*
X50969619Y-87238380D01*
X50731523Y-86190761D02*
X50493428Y-86905047D01*
X51112476Y-86905047D01*
G04 #@! TO.C,J13*
X64865556Y-53140540D02*
X64865556Y-53854826D01*
X64817937Y-53997683D01*
X64722699Y-54092921D01*
X64579841Y-54140540D01*
X64484603Y-54140540D01*
X65865556Y-54140540D02*
X65294127Y-54140540D01*
X65579841Y-54140540D02*
X65579841Y-53140540D01*
X65484603Y-53283398D01*
X65389365Y-53378636D01*
X65294127Y-53426255D01*
X66198889Y-53140540D02*
X66817937Y-53140540D01*
X66484603Y-53521493D01*
X66627460Y-53521493D01*
X66722699Y-53569112D01*
X66770318Y-53616731D01*
X66817937Y-53711969D01*
X66817937Y-53950064D01*
X66770318Y-54045302D01*
X66722699Y-54092921D01*
X66627460Y-54140540D01*
X66341746Y-54140540D01*
X66246508Y-54092921D01*
X66198889Y-54045302D01*
G04 #@! TO.C,J12*
X49112476Y-67151180D02*
X49112476Y-67865466D01*
X49064857Y-68008323D01*
X48969619Y-68103561D01*
X48826761Y-68151180D01*
X48731523Y-68151180D01*
X50112476Y-68151180D02*
X49541047Y-68151180D01*
X49826761Y-68151180D02*
X49826761Y-67151180D01*
X49731523Y-67294038D01*
X49636285Y-67389276D01*
X49541047Y-67436895D01*
X50493428Y-67246419D02*
X50541047Y-67198800D01*
X50636285Y-67151180D01*
X50874380Y-67151180D01*
X50969619Y-67198800D01*
X51017238Y-67246419D01*
X51064857Y-67341657D01*
X51064857Y-67436895D01*
X51017238Y-67579752D01*
X50445809Y-68151180D01*
X51064857Y-68151180D01*
G04 #@! TO.C,F1*
X47986571Y-51015333D02*
X47986571Y-51348666D01*
X48510380Y-51348666D02*
X47510380Y-51348666D01*
X47510380Y-50872476D01*
X48510380Y-49967714D02*
X48510380Y-50539142D01*
X48510380Y-50253428D02*
X47510380Y-50253428D01*
X47653238Y-50348666D01*
X47748476Y-50443904D01*
X47796095Y-50539142D01*
G04 #@! TO.C,D4*
X93633904Y-130428380D02*
X93633904Y-129428380D01*
X93872000Y-129428380D01*
X94014857Y-129476000D01*
X94110095Y-129571238D01*
X94157714Y-129666476D01*
X94205333Y-129856952D01*
X94205333Y-129999809D01*
X94157714Y-130190285D01*
X94110095Y-130285523D01*
X94014857Y-130380761D01*
X93872000Y-130428380D01*
X93633904Y-130428380D01*
X95062476Y-129761714D02*
X95062476Y-130428380D01*
X94824380Y-129380761D02*
X94586285Y-130095047D01*
X95205333Y-130095047D01*
G04 #@! TO.C,D3*
X93633904Y-121538380D02*
X93633904Y-120538380D01*
X93872000Y-120538380D01*
X94014857Y-120586000D01*
X94110095Y-120681238D01*
X94157714Y-120776476D01*
X94205333Y-120966952D01*
X94205333Y-121109809D01*
X94157714Y-121300285D01*
X94110095Y-121395523D01*
X94014857Y-121490761D01*
X93872000Y-121538380D01*
X93633904Y-121538380D01*
X94538666Y-120538380D02*
X95157714Y-120538380D01*
X94824380Y-120919333D01*
X94967238Y-120919333D01*
X95062476Y-120966952D01*
X95110095Y-121014571D01*
X95157714Y-121109809D01*
X95157714Y-121347904D01*
X95110095Y-121443142D01*
X95062476Y-121490761D01*
X94967238Y-121538380D01*
X94681523Y-121538380D01*
X94586285Y-121490761D01*
X94538666Y-121443142D01*
G04 #@! TO.C,D2*
X93633904Y-112902380D02*
X93633904Y-111902380D01*
X93872000Y-111902380D01*
X94014857Y-111950000D01*
X94110095Y-112045238D01*
X94157714Y-112140476D01*
X94205333Y-112330952D01*
X94205333Y-112473809D01*
X94157714Y-112664285D01*
X94110095Y-112759523D01*
X94014857Y-112854761D01*
X93872000Y-112902380D01*
X93633904Y-112902380D01*
X94586285Y-111997619D02*
X94633904Y-111950000D01*
X94729142Y-111902380D01*
X94967238Y-111902380D01*
X95062476Y-111950000D01*
X95110095Y-111997619D01*
X95157714Y-112092857D01*
X95157714Y-112188095D01*
X95110095Y-112330952D01*
X94538666Y-112902380D01*
X95157714Y-112902380D01*
G04 #@! TO.C,C3*
X66747142Y-48586666D02*
X66794761Y-48634285D01*
X66842380Y-48777142D01*
X66842380Y-48872380D01*
X66794761Y-49015238D01*
X66699523Y-49110476D01*
X66604285Y-49158095D01*
X66413809Y-49205714D01*
X66270952Y-49205714D01*
X66080476Y-49158095D01*
X65985238Y-49110476D01*
X65890000Y-49015238D01*
X65842380Y-48872380D01*
X65842380Y-48777142D01*
X65890000Y-48634285D01*
X65937619Y-48586666D01*
X65842380Y-48253333D02*
X65842380Y-47634285D01*
X66223333Y-47967619D01*
X66223333Y-47824761D01*
X66270952Y-47729523D01*
X66318571Y-47681904D01*
X66413809Y-47634285D01*
X66651904Y-47634285D01*
X66747142Y-47681904D01*
X66794761Y-47729523D01*
X66842380Y-47824761D01*
X66842380Y-48110476D01*
X66794761Y-48205714D01*
X66747142Y-48253333D01*
G04 #@! TO.C,C2*
X49164142Y-46744666D02*
X49211761Y-46792285D01*
X49259380Y-46935142D01*
X49259380Y-47030380D01*
X49211761Y-47173238D01*
X49116523Y-47268476D01*
X49021285Y-47316095D01*
X48830809Y-47363714D01*
X48687952Y-47363714D01*
X48497476Y-47316095D01*
X48402238Y-47268476D01*
X48307000Y-47173238D01*
X48259380Y-47030380D01*
X48259380Y-46935142D01*
X48307000Y-46792285D01*
X48354619Y-46744666D01*
X48354619Y-46363714D02*
X48307000Y-46316095D01*
X48259380Y-46220857D01*
X48259380Y-45982761D01*
X48307000Y-45887523D01*
X48354619Y-45839904D01*
X48449857Y-45792285D01*
X48545095Y-45792285D01*
X48687952Y-45839904D01*
X49259380Y-46411333D01*
X49259380Y-45792285D01*
G04 #@! TO.C,C1*
X53228142Y-46744666D02*
X53275761Y-46792285D01*
X53323380Y-46935142D01*
X53323380Y-47030380D01*
X53275761Y-47173238D01*
X53180523Y-47268476D01*
X53085285Y-47316095D01*
X52894809Y-47363714D01*
X52751952Y-47363714D01*
X52561476Y-47316095D01*
X52466238Y-47268476D01*
X52371000Y-47173238D01*
X52323380Y-47030380D01*
X52323380Y-46935142D01*
X52371000Y-46792285D01*
X52418619Y-46744666D01*
X53323380Y-45792285D02*
X53323380Y-46363714D01*
X53323380Y-46078000D02*
X52323380Y-46078000D01*
X52466238Y-46173238D01*
X52561476Y-46268476D01*
X52609095Y-46363714D01*
G04 #@! TO.C,D1*
X40700380Y-52198095D02*
X39700380Y-52198095D01*
X39700380Y-51960000D01*
X39748000Y-51817142D01*
X39843238Y-51721904D01*
X39938476Y-51674285D01*
X40128952Y-51626666D01*
X40271809Y-51626666D01*
X40462285Y-51674285D01*
X40557523Y-51721904D01*
X40652761Y-51817142D01*
X40700380Y-51960000D01*
X40700380Y-52198095D01*
X40700380Y-50674285D02*
X40700380Y-51245714D01*
X40700380Y-50960000D02*
X39700380Y-50960000D01*
X39843238Y-51055238D01*
X39938476Y-51150476D01*
X39986095Y-51245714D01*
G04 #@! TO.C,D5*
X31696904Y-52744380D02*
X31696904Y-51744380D01*
X31935000Y-51744380D01*
X32077857Y-51792000D01*
X32173095Y-51887238D01*
X32220714Y-51982476D01*
X32268333Y-52172952D01*
X32268333Y-52315809D01*
X32220714Y-52506285D01*
X32173095Y-52601523D01*
X32077857Y-52696761D01*
X31935000Y-52744380D01*
X31696904Y-52744380D01*
X33173095Y-51744380D02*
X32696904Y-51744380D01*
X32649285Y-52220571D01*
X32696904Y-52172952D01*
X32792142Y-52125333D01*
X33030238Y-52125333D01*
X33125476Y-52172952D01*
X33173095Y-52220571D01*
X33220714Y-52315809D01*
X33220714Y-52553904D01*
X33173095Y-52649142D01*
X33125476Y-52696761D01*
X33030238Y-52744380D01*
X32792142Y-52744380D01*
X32696904Y-52696761D01*
X32649285Y-52649142D01*
G04 #@! TO.C,C4*
X82746373Y-37106622D02*
X82698754Y-37154241D01*
X82555897Y-37201860D01*
X82460659Y-37201860D01*
X82317801Y-37154241D01*
X82222563Y-37059003D01*
X82174944Y-36963765D01*
X82127325Y-36773289D01*
X82127325Y-36630432D01*
X82174944Y-36439956D01*
X82222563Y-36344718D01*
X82317801Y-36249480D01*
X82460659Y-36201860D01*
X82555897Y-36201860D01*
X82698754Y-36249480D01*
X82746373Y-36297099D01*
X83603516Y-36535194D02*
X83603516Y-37201860D01*
X83365420Y-36154241D02*
X83127325Y-36868527D01*
X83746373Y-36868527D01*
X86812087Y-38340908D02*
X87573992Y-38340908D01*
X87193040Y-38721860D02*
X87193040Y-37959956D01*
G04 #@! TO.C,C6*
X62963333Y-90020142D02*
X62915714Y-90067761D01*
X62772857Y-90115380D01*
X62677619Y-90115380D01*
X62534761Y-90067761D01*
X62439523Y-89972523D01*
X62391904Y-89877285D01*
X62344285Y-89686809D01*
X62344285Y-89543952D01*
X62391904Y-89353476D01*
X62439523Y-89258238D01*
X62534761Y-89163000D01*
X62677619Y-89115380D01*
X62772857Y-89115380D01*
X62915714Y-89163000D01*
X62963333Y-89210619D01*
X63820476Y-89115380D02*
X63630000Y-89115380D01*
X63534761Y-89163000D01*
X63487142Y-89210619D01*
X63391904Y-89353476D01*
X63344285Y-89543952D01*
X63344285Y-89924904D01*
X63391904Y-90020142D01*
X63439523Y-90067761D01*
X63534761Y-90115380D01*
X63725238Y-90115380D01*
X63820476Y-90067761D01*
X63868095Y-90020142D01*
X63915714Y-89924904D01*
X63915714Y-89686809D01*
X63868095Y-89591571D01*
X63820476Y-89543952D01*
X63725238Y-89496333D01*
X63534761Y-89496333D01*
X63439523Y-89543952D01*
X63391904Y-89591571D01*
X63344285Y-89686809D01*
G04 #@! TO.C,C7*
X78457333Y-84686142D02*
X78409714Y-84733761D01*
X78266857Y-84781380D01*
X78171619Y-84781380D01*
X78028761Y-84733761D01*
X77933523Y-84638523D01*
X77885904Y-84543285D01*
X77838285Y-84352809D01*
X77838285Y-84209952D01*
X77885904Y-84019476D01*
X77933523Y-83924238D01*
X78028761Y-83829000D01*
X78171619Y-83781380D01*
X78266857Y-83781380D01*
X78409714Y-83829000D01*
X78457333Y-83876619D01*
X78790666Y-83781380D02*
X79457333Y-83781380D01*
X79028761Y-84781380D01*
G04 #@! TO.C,C8*
X54983333Y-114857142D02*
X54935714Y-114904761D01*
X54792857Y-114952380D01*
X54697619Y-114952380D01*
X54554761Y-114904761D01*
X54459523Y-114809523D01*
X54411904Y-114714285D01*
X54364285Y-114523809D01*
X54364285Y-114380952D01*
X54411904Y-114190476D01*
X54459523Y-114095238D01*
X54554761Y-114000000D01*
X54697619Y-113952380D01*
X54792857Y-113952380D01*
X54935714Y-114000000D01*
X54983333Y-114047619D01*
X55554761Y-114380952D02*
X55459523Y-114333333D01*
X55411904Y-114285714D01*
X55364285Y-114190476D01*
X55364285Y-114142857D01*
X55411904Y-114047619D01*
X55459523Y-114000000D01*
X55554761Y-113952380D01*
X55745238Y-113952380D01*
X55840476Y-114000000D01*
X55888095Y-114047619D01*
X55935714Y-114142857D01*
X55935714Y-114190476D01*
X55888095Y-114285714D01*
X55840476Y-114333333D01*
X55745238Y-114380952D01*
X55554761Y-114380952D01*
X55459523Y-114428571D01*
X55411904Y-114476190D01*
X55364285Y-114571428D01*
X55364285Y-114761904D01*
X55411904Y-114857142D01*
X55459523Y-114904761D01*
X55554761Y-114952380D01*
X55745238Y-114952380D01*
X55840476Y-114904761D01*
X55888095Y-114857142D01*
X55935714Y-114761904D01*
X55935714Y-114571428D01*
X55888095Y-114476190D01*
X55840476Y-114428571D01*
X55745238Y-114380952D01*
G04 #@! TO.C,C9*
X54041333Y-67767142D02*
X53993714Y-67814761D01*
X53850857Y-67862380D01*
X53755619Y-67862380D01*
X53612761Y-67814761D01*
X53517523Y-67719523D01*
X53469904Y-67624285D01*
X53422285Y-67433809D01*
X53422285Y-67290952D01*
X53469904Y-67100476D01*
X53517523Y-67005238D01*
X53612761Y-66910000D01*
X53755619Y-66862380D01*
X53850857Y-66862380D01*
X53993714Y-66910000D01*
X54041333Y-66957619D01*
X54517523Y-67862380D02*
X54708000Y-67862380D01*
X54803238Y-67814761D01*
X54850857Y-67767142D01*
X54946095Y-67624285D01*
X54993714Y-67433809D01*
X54993714Y-67052857D01*
X54946095Y-66957619D01*
X54898476Y-66910000D01*
X54803238Y-66862380D01*
X54612761Y-66862380D01*
X54517523Y-66910000D01*
X54469904Y-66957619D01*
X54422285Y-67052857D01*
X54422285Y-67290952D01*
X54469904Y-67386190D01*
X54517523Y-67433809D01*
X54612761Y-67481428D01*
X54803238Y-67481428D01*
X54898476Y-67433809D01*
X54946095Y-67386190D01*
X54993714Y-67290952D01*
G04 #@! TO.C,R15*
X79029142Y-120794380D02*
X78695809Y-120318190D01*
X78457714Y-120794380D02*
X78457714Y-119794380D01*
X78838666Y-119794380D01*
X78933904Y-119842000D01*
X78981523Y-119889619D01*
X79029142Y-119984857D01*
X79029142Y-120127714D01*
X78981523Y-120222952D01*
X78933904Y-120270571D01*
X78838666Y-120318190D01*
X78457714Y-120318190D01*
X79981523Y-120794380D02*
X79410095Y-120794380D01*
X79695809Y-120794380D02*
X79695809Y-119794380D01*
X79600571Y-119937238D01*
X79505333Y-120032476D01*
X79410095Y-120080095D01*
X80886285Y-119794380D02*
X80410095Y-119794380D01*
X80362476Y-120270571D01*
X80410095Y-120222952D01*
X80505333Y-120175333D01*
X80743428Y-120175333D01*
X80838666Y-120222952D01*
X80886285Y-120270571D01*
X80933904Y-120365809D01*
X80933904Y-120603904D01*
X80886285Y-120699142D01*
X80838666Y-120746761D01*
X80743428Y-120794380D01*
X80505333Y-120794380D01*
X80410095Y-120746761D01*
X80362476Y-120699142D01*
G04 #@! TO.C,R16*
X79029142Y-125040380D02*
X78695809Y-124564190D01*
X78457714Y-125040380D02*
X78457714Y-124040380D01*
X78838666Y-124040380D01*
X78933904Y-124088000D01*
X78981523Y-124135619D01*
X79029142Y-124230857D01*
X79029142Y-124373714D01*
X78981523Y-124468952D01*
X78933904Y-124516571D01*
X78838666Y-124564190D01*
X78457714Y-124564190D01*
X79981523Y-125040380D02*
X79410095Y-125040380D01*
X79695809Y-125040380D02*
X79695809Y-124040380D01*
X79600571Y-124183238D01*
X79505333Y-124278476D01*
X79410095Y-124326095D01*
X80838666Y-124040380D02*
X80648190Y-124040380D01*
X80552952Y-124088000D01*
X80505333Y-124135619D01*
X80410095Y-124278476D01*
X80362476Y-124468952D01*
X80362476Y-124849904D01*
X80410095Y-124945142D01*
X80457714Y-124992761D01*
X80552952Y-125040380D01*
X80743428Y-125040380D01*
X80838666Y-124992761D01*
X80886285Y-124945142D01*
X80933904Y-124849904D01*
X80933904Y-124611809D01*
X80886285Y-124516571D01*
X80838666Y-124468952D01*
X80743428Y-124421333D01*
X80552952Y-124421333D01*
X80457714Y-124468952D01*
X80410095Y-124516571D01*
X80362476Y-124611809D01*
G04 #@! TO.C,R17*
X79029142Y-113030380D02*
X78695809Y-112554190D01*
X78457714Y-113030380D02*
X78457714Y-112030380D01*
X78838666Y-112030380D01*
X78933904Y-112078000D01*
X78981523Y-112125619D01*
X79029142Y-112220857D01*
X79029142Y-112363714D01*
X78981523Y-112458952D01*
X78933904Y-112506571D01*
X78838666Y-112554190D01*
X78457714Y-112554190D01*
X79981523Y-113030380D02*
X79410095Y-113030380D01*
X79695809Y-113030380D02*
X79695809Y-112030380D01*
X79600571Y-112173238D01*
X79505333Y-112268476D01*
X79410095Y-112316095D01*
X80314857Y-112030380D02*
X80981523Y-112030380D01*
X80552952Y-113030380D01*
G04 #@! TO.C,R19*
X72361142Y-110744380D02*
X72027809Y-110268190D01*
X71789714Y-110744380D02*
X71789714Y-109744380D01*
X72170666Y-109744380D01*
X72265904Y-109792000D01*
X72313523Y-109839619D01*
X72361142Y-109934857D01*
X72361142Y-110077714D01*
X72313523Y-110172952D01*
X72265904Y-110220571D01*
X72170666Y-110268190D01*
X71789714Y-110268190D01*
X73313523Y-110744380D02*
X72742095Y-110744380D01*
X73027809Y-110744380D02*
X73027809Y-109744380D01*
X72932571Y-109887238D01*
X72837333Y-109982476D01*
X72742095Y-110030095D01*
X73789714Y-110744380D02*
X73980190Y-110744380D01*
X74075428Y-110696761D01*
X74123047Y-110649142D01*
X74218285Y-110506285D01*
X74265904Y-110315809D01*
X74265904Y-109934857D01*
X74218285Y-109839619D01*
X74170666Y-109792000D01*
X74075428Y-109744380D01*
X73884952Y-109744380D01*
X73789714Y-109792000D01*
X73742095Y-109839619D01*
X73694476Y-109934857D01*
X73694476Y-110172952D01*
X73742095Y-110268190D01*
X73789714Y-110315809D01*
X73884952Y-110363428D01*
X74075428Y-110363428D01*
X74170666Y-110315809D01*
X74218285Y-110268190D01*
X74265904Y-110172952D01*
G04 #@! TO.C,R21*
X73967560Y-47221357D02*
X73491370Y-47554690D01*
X73967560Y-47792785D02*
X72967560Y-47792785D01*
X72967560Y-47411833D01*
X73015180Y-47316595D01*
X73062799Y-47268976D01*
X73158037Y-47221357D01*
X73300894Y-47221357D01*
X73396132Y-47268976D01*
X73443751Y-47316595D01*
X73491370Y-47411833D01*
X73491370Y-47792785D01*
X73062799Y-46840404D02*
X73015180Y-46792785D01*
X72967560Y-46697547D01*
X72967560Y-46459452D01*
X73015180Y-46364214D01*
X73062799Y-46316595D01*
X73158037Y-46268976D01*
X73253275Y-46268976D01*
X73396132Y-46316595D01*
X73967560Y-46888023D01*
X73967560Y-46268976D01*
X73967560Y-45316595D02*
X73967560Y-45888023D01*
X73967560Y-45602309D02*
X72967560Y-45602309D01*
X73110418Y-45697547D01*
X73205656Y-45792785D01*
X73253275Y-45888023D01*
G04 #@! TO.C,R22*
X47072380Y-132310857D02*
X46596190Y-132644190D01*
X47072380Y-132882285D02*
X46072380Y-132882285D01*
X46072380Y-132501333D01*
X46120000Y-132406095D01*
X46167619Y-132358476D01*
X46262857Y-132310857D01*
X46405714Y-132310857D01*
X46500952Y-132358476D01*
X46548571Y-132406095D01*
X46596190Y-132501333D01*
X46596190Y-132882285D01*
X46167619Y-131929904D02*
X46120000Y-131882285D01*
X46072380Y-131787047D01*
X46072380Y-131548952D01*
X46120000Y-131453714D01*
X46167619Y-131406095D01*
X46262857Y-131358476D01*
X46358095Y-131358476D01*
X46500952Y-131406095D01*
X47072380Y-131977523D01*
X47072380Y-131358476D01*
X46167619Y-130977523D02*
X46120000Y-130929904D01*
X46072380Y-130834666D01*
X46072380Y-130596571D01*
X46120000Y-130501333D01*
X46167619Y-130453714D01*
X46262857Y-130406095D01*
X46358095Y-130406095D01*
X46500952Y-130453714D01*
X47072380Y-131025142D01*
X47072380Y-130406095D01*
G04 #@! TD*
M02*
