G04 #@! TF.GenerationSoftware,KiCad,Pcbnew,(5.1.9)-1*
G04 #@! TF.CreationDate,2021-01-23T22:17:01+01:00*
G04 #@! TF.ProjectId,SNModule,534e4d6f-6475-46c6-952e-6b696361645f,rev?*
G04 #@! TF.SameCoordinates,Original*
G04 #@! TF.FileFunction,Legend,Bot*
G04 #@! TF.FilePolarity,Positive*
%FSLAX46Y46*%
G04 Gerber Fmt 4.6, Leading zero omitted, Abs format (unit mm)*
G04 Created by KiCad (PCBNEW (5.1.9)-1) date 2021-01-23 22:17:01*
%MOMM*%
%LPD*%
G01*
G04 APERTURE LIST*
%ADD10C,0.300000*%
G04 APERTURE END LIST*
D10*
X89478571Y-42358571D02*
X89478571Y-43430000D01*
X89550000Y-43644285D01*
X89692857Y-43787142D01*
X89907142Y-43858571D01*
X90050000Y-43858571D01*
X88050000Y-43858571D02*
X88764285Y-43858571D01*
X88764285Y-42358571D01*
X86692857Y-43715714D02*
X86764285Y-43787142D01*
X86978571Y-43858571D01*
X87121428Y-43858571D01*
X87335714Y-43787142D01*
X87478571Y-43644285D01*
X87550000Y-43501428D01*
X87621428Y-43215714D01*
X87621428Y-43001428D01*
X87550000Y-42715714D01*
X87478571Y-42572857D01*
X87335714Y-42430000D01*
X87121428Y-42358571D01*
X86978571Y-42358571D01*
X86764285Y-42430000D01*
X86692857Y-42501428D01*
X85621428Y-42358571D02*
X85621428Y-43430000D01*
X85692857Y-43644285D01*
X85835714Y-43787142D01*
X86050000Y-43858571D01*
X86192857Y-43858571D01*
X84192857Y-43858571D02*
X84907142Y-43858571D01*
X84907142Y-42358571D01*
X82835714Y-43715714D02*
X82907142Y-43787142D01*
X83121428Y-43858571D01*
X83264285Y-43858571D01*
X83478571Y-43787142D01*
X83621428Y-43644285D01*
X83692857Y-43501428D01*
X83764285Y-43215714D01*
X83764285Y-43001428D01*
X83692857Y-42715714D01*
X83621428Y-42572857D01*
X83478571Y-42430000D01*
X83264285Y-42358571D01*
X83121428Y-42358571D01*
X82907142Y-42430000D01*
X82835714Y-42501428D01*
X81764285Y-42358571D02*
X81764285Y-43430000D01*
X81835714Y-43644285D01*
X81978571Y-43787142D01*
X82192857Y-43858571D01*
X82335714Y-43858571D01*
X80335714Y-43858571D02*
X81050000Y-43858571D01*
X81050000Y-42358571D01*
X78978571Y-43715714D02*
X79050000Y-43787142D01*
X79264285Y-43858571D01*
X79407142Y-43858571D01*
X79621428Y-43787142D01*
X79764285Y-43644285D01*
X79835714Y-43501428D01*
X79907142Y-43215714D01*
X79907142Y-43001428D01*
X79835714Y-42715714D01*
X79764285Y-42572857D01*
X79621428Y-42430000D01*
X79407142Y-42358571D01*
X79264285Y-42358571D01*
X79050000Y-42430000D01*
X78978571Y-42501428D01*
X77907142Y-42358571D02*
X77907142Y-43430000D01*
X77978571Y-43644285D01*
X78121428Y-43787142D01*
X78335714Y-43858571D01*
X78478571Y-43858571D01*
X76478571Y-43858571D02*
X77192857Y-43858571D01*
X77192857Y-42358571D01*
X75121428Y-43715714D02*
X75192857Y-43787142D01*
X75407142Y-43858571D01*
X75550000Y-43858571D01*
X75764285Y-43787142D01*
X75907142Y-43644285D01*
X75978571Y-43501428D01*
X76050000Y-43215714D01*
X76050000Y-43001428D01*
X75978571Y-42715714D01*
X75907142Y-42572857D01*
X75764285Y-42430000D01*
X75550000Y-42358571D01*
X75407142Y-42358571D01*
X75192857Y-42430000D01*
X75121428Y-42501428D01*
M02*
