G04 #@! TF.GenerationSoftware,KiCad,Pcbnew,(5.1.9)-1*
G04 #@! TF.CreationDate,2021-01-23T22:17:01+01:00*
G04 #@! TF.ProjectId,SNModule,534e4d6f-6475-46c6-952e-6b696361645f,rev?*
G04 #@! TF.SameCoordinates,Original*
G04 #@! TF.FileFunction,Copper,L1,Top*
G04 #@! TF.FilePolarity,Positive*
%FSLAX46Y46*%
G04 Gerber Fmt 4.6, Leading zero omitted, Abs format (unit mm)*
G04 Created by KiCad (PCBNEW (5.1.9)-1) date 2021-01-23 22:17:01*
%MOMM*%
%LPD*%
G01*
G04 APERTURE LIST*
G04 #@! TA.AperFunction,SMDPad,CuDef*
%ADD10R,1.600000X3.500000*%
G04 #@! TD*
G04 #@! TA.AperFunction,ComponentPad*
%ADD11C,1.500000*%
G04 #@! TD*
G04 #@! TA.AperFunction,ComponentPad*
%ADD12C,1.600000*%
G04 #@! TD*
G04 #@! TA.AperFunction,SMDPad,CuDef*
%ADD13R,1.700000X2.000000*%
G04 #@! TD*
G04 #@! TA.AperFunction,SMDPad,CuDef*
%ADD14C,0.500000*%
G04 #@! TD*
G04 #@! TA.AperFunction,ComponentPad*
%ADD15C,4.800000*%
G04 #@! TD*
G04 #@! TA.AperFunction,ComponentPad*
%ADD16C,1.400000*%
G04 #@! TD*
G04 #@! TA.AperFunction,ComponentPad*
%ADD17C,4.952000*%
G04 #@! TD*
G04 #@! TA.AperFunction,ComponentPad*
%ADD18C,1.800000*%
G04 #@! TD*
G04 #@! TA.AperFunction,ComponentPad*
%ADD19R,1.700000X1.700000*%
G04 #@! TD*
G04 #@! TA.AperFunction,ComponentPad*
%ADD20O,1.700000X1.700000*%
G04 #@! TD*
G04 #@! TA.AperFunction,SMDPad,CuDef*
%ADD21R,2.150000X5.500000*%
G04 #@! TD*
G04 #@! TA.AperFunction,SMDPad,CuDef*
%ADD22R,2.000000X1.700000*%
G04 #@! TD*
G04 #@! TA.AperFunction,SMDPad,CuDef*
%ADD23R,1.550000X0.600000*%
G04 #@! TD*
G04 #@! TA.AperFunction,ComponentPad*
%ADD24R,1.600000X1.600000*%
G04 #@! TD*
G04 #@! TA.AperFunction,ComponentPad*
%ADD25O,1.600000X1.600000*%
G04 #@! TD*
G04 #@! TA.AperFunction,ComponentPad*
%ADD26R,2.500000X1.500000*%
G04 #@! TD*
G04 #@! TA.AperFunction,ComponentPad*
%ADD27O,2.500000X1.500000*%
G04 #@! TD*
G04 #@! TA.AperFunction,ComponentPad*
%ADD28C,2.000000*%
G04 #@! TD*
G04 #@! TA.AperFunction,SMDPad,CuDef*
%ADD29R,2.030000X2.650000*%
G04 #@! TD*
G04 #@! TA.AperFunction,ComponentPad*
%ADD30R,1.800000X1.800000*%
G04 #@! TD*
G04 #@! TA.AperFunction,SMDPad,CuDef*
%ADD31R,1.600000X2.000000*%
G04 #@! TD*
G04 #@! TA.AperFunction,ComponentPad*
%ADD32C,0.900000*%
G04 #@! TD*
G04 #@! TA.AperFunction,ComponentPad*
%ADD33C,8.600000*%
G04 #@! TD*
G04 #@! TA.AperFunction,SMDPad,CuDef*
%ADD34R,1.600000X1.000000*%
G04 #@! TD*
G04 #@! TA.AperFunction,SMDPad,CuDef*
%ADD35R,3.000000X2.000000*%
G04 #@! TD*
G04 #@! TA.AperFunction,ComponentPad*
%ADD36R,2.000000X2.000000*%
G04 #@! TD*
G04 #@! TA.AperFunction,SMDPad,CuDef*
%ADD37R,3.500000X1.600000*%
G04 #@! TD*
G04 #@! TA.AperFunction,SMDPad,CuDef*
%ADD38R,2.000000X1.600000*%
G04 #@! TD*
G04 #@! TA.AperFunction,ComponentPad*
%ADD39R,1.520000X1.520000*%
G04 #@! TD*
G04 #@! TA.AperFunction,ComponentPad*
%ADD40C,1.520000*%
G04 #@! TD*
G04 #@! TA.AperFunction,ViaPad*
%ADD41C,0.800000*%
G04 #@! TD*
G04 #@! TA.AperFunction,Conductor*
%ADD42C,1.000000*%
G04 #@! TD*
G04 #@! TA.AperFunction,Conductor*
%ADD43C,0.500000*%
G04 #@! TD*
G04 #@! TA.AperFunction,Conductor*
%ADD44C,0.250000*%
G04 #@! TD*
G04 #@! TA.AperFunction,Conductor*
%ADD45C,0.200000*%
G04 #@! TD*
G04 APERTURE END LIST*
D10*
X41656000Y-139004000D03*
X41656000Y-133604000D03*
D11*
X36830000Y-124714000D03*
X31750000Y-124714000D03*
X36830000Y-122174000D03*
X31750000Y-122174000D03*
X36830000Y-71120000D03*
X31750000Y-71120000D03*
X36830000Y-68580000D03*
X31750000Y-68580000D03*
X36830000Y-93980000D03*
X31750000Y-93980000D03*
X36830000Y-91440000D03*
X31750000Y-91440000D03*
X36830000Y-86360000D03*
X31750000Y-86360000D03*
X36830000Y-83820000D03*
X31750000Y-83820000D03*
D12*
X65786000Y-79756000D03*
X65786000Y-82296000D03*
X65786000Y-84836000D03*
X65786000Y-87376000D03*
X65786000Y-89916000D03*
X65786000Y-92456000D03*
X65786000Y-94996000D03*
X65786000Y-97536000D03*
X65786000Y-100076000D03*
X65786000Y-102616000D03*
X65786000Y-105156000D03*
X65786000Y-107696000D03*
X65786000Y-110236000D03*
X78486000Y-82296000D03*
X81026000Y-79756000D03*
X81026000Y-82296000D03*
X81026000Y-84836000D03*
X81026000Y-87376000D03*
X81026000Y-89916000D03*
X81026000Y-92456000D03*
X81026000Y-94996000D03*
X81026000Y-97536000D03*
X81026000Y-100076000D03*
X81026000Y-102616000D03*
X81026000Y-105156000D03*
X81026000Y-107696000D03*
X81026000Y-110236000D03*
X65786000Y-112776000D03*
X68326000Y-112776000D03*
X70866000Y-112776000D03*
X81026000Y-112776000D03*
X78486000Y-112776000D03*
X75946000Y-112776000D03*
X73406000Y-112776000D03*
D13*
X70866000Y-109156000D03*
X70866000Y-105156000D03*
D14*
X103000000Y-155000000D03*
X27940000Y-155000000D03*
X28000000Y-39000000D03*
D15*
X45017000Y-146708000D03*
X70007000Y-146708000D03*
D16*
X53402000Y-148128000D03*
X56142000Y-148128000D03*
X58882000Y-148128000D03*
X61622000Y-148128000D03*
X52032000Y-145288000D03*
X54772000Y-145288000D03*
X57512000Y-145288000D03*
X60252000Y-145288000D03*
X62992000Y-145288000D03*
D17*
X98540000Y-79876000D03*
X89340000Y-79876000D03*
D18*
X96440000Y-72876000D03*
X91440000Y-72876000D03*
X93940000Y-87376000D03*
X96440000Y-87376000D03*
X91440000Y-87376000D03*
D19*
X88392000Y-50800000D03*
D20*
X88392000Y-53340000D03*
X88392000Y-55880000D03*
X88392000Y-58420000D03*
D15*
X43493000Y-42776000D03*
X68483000Y-42776000D03*
D16*
X51878000Y-41356000D03*
X54618000Y-41356000D03*
X57358000Y-41356000D03*
X60098000Y-41356000D03*
X50508000Y-44196000D03*
X53248000Y-44196000D03*
X55988000Y-44196000D03*
X58728000Y-44196000D03*
X61468000Y-44196000D03*
D21*
X62270000Y-56388000D03*
X58420000Y-56388000D03*
D22*
X87376000Y-141986000D03*
X83376000Y-141986000D03*
X87376000Y-133096000D03*
X83376000Y-133096000D03*
X87376000Y-124460000D03*
X83376000Y-124460000D03*
X44640000Y-121920000D03*
X40640000Y-121920000D03*
X44640000Y-114300000D03*
X40640000Y-114300000D03*
X44640000Y-106680000D03*
X40640000Y-106680000D03*
X44640000Y-99060000D03*
X40640000Y-99060000D03*
X44640000Y-91440000D03*
X40640000Y-91440000D03*
X44640000Y-83820000D03*
X40640000Y-83820000D03*
X44640000Y-76200000D03*
X40640000Y-76200000D03*
X44640000Y-68580000D03*
X40640000Y-68580000D03*
D13*
X75311000Y-85027000D03*
X75311000Y-89027000D03*
X71374000Y-85027000D03*
X71374000Y-89027000D03*
D11*
X36830000Y-109220000D03*
X31750000Y-109220000D03*
X36830000Y-106680000D03*
X31750000Y-106680000D03*
X36830000Y-116840000D03*
X31750000Y-116840000D03*
X36830000Y-114300000D03*
X31750000Y-114300000D03*
X36830000Y-78740000D03*
X31750000Y-78740000D03*
X36830000Y-76200000D03*
X31750000Y-76200000D03*
X36830000Y-101600000D03*
X31750000Y-101600000D03*
X36830000Y-99060000D03*
X31750000Y-99060000D03*
D13*
X57277000Y-121793000D03*
X57277000Y-125793000D03*
D19*
X52451000Y-124333000D03*
D20*
X52451000Y-121793000D03*
D23*
X70833000Y-95250000D03*
X70833000Y-96520000D03*
X70833000Y-97790000D03*
X70833000Y-99060000D03*
X76233000Y-99060000D03*
X76233000Y-97790000D03*
X76233000Y-96520000D03*
X76233000Y-95250000D03*
D24*
X51308000Y-137414000D03*
D25*
X58928000Y-129794000D03*
X53848000Y-137414000D03*
X56388000Y-129794000D03*
X56388000Y-137414000D03*
X53848000Y-129794000D03*
X58928000Y-137414000D03*
X51308000Y-129794000D03*
D24*
X49276000Y-70612000D03*
D25*
X56896000Y-62992000D03*
X51816000Y-70612000D03*
X54356000Y-62992000D03*
X54356000Y-70612000D03*
X51816000Y-62992000D03*
X56896000Y-70612000D03*
X49276000Y-62992000D03*
D26*
X79248000Y-61595000D03*
D27*
X79248000Y-59055000D03*
X79248000Y-56515000D03*
D24*
X51308000Y-99060000D03*
D25*
X58928000Y-116840000D03*
X51308000Y-101600000D03*
X58928000Y-114300000D03*
X51308000Y-104140000D03*
X58928000Y-111760000D03*
X51308000Y-106680000D03*
X58928000Y-109220000D03*
X51308000Y-109220000D03*
X58928000Y-106680000D03*
X51308000Y-111760000D03*
X58928000Y-104140000D03*
X51308000Y-114300000D03*
X58928000Y-101600000D03*
X51308000Y-116840000D03*
X58928000Y-99060000D03*
D28*
X92528000Y-99822000D03*
X97028000Y-99822000D03*
X92528000Y-106322000D03*
X97028000Y-106322000D03*
X92528000Y-111506000D03*
X97028000Y-111506000D03*
X92528000Y-118006000D03*
X97028000Y-118006000D03*
D19*
X48514000Y-92456000D03*
D20*
X48514000Y-89916000D03*
D19*
X69596000Y-64008000D03*
D20*
X69596000Y-66548000D03*
X69596000Y-69088000D03*
X69596000Y-71628000D03*
D19*
X50292000Y-78486000D03*
D20*
X50292000Y-81026000D03*
X50292000Y-83566000D03*
X50292000Y-86106000D03*
D29*
X43434000Y-56642000D03*
X43434000Y-52462000D03*
D30*
X92202000Y-141986000D03*
D18*
X94742000Y-141986000D03*
D30*
X92202000Y-133096000D03*
D18*
X94742000Y-133096000D03*
D30*
X92202000Y-124460000D03*
D18*
X94742000Y-124460000D03*
D31*
X66040000Y-58420000D03*
X66040000Y-54420000D03*
X49022000Y-56642000D03*
X49022000Y-52642000D03*
X54356000Y-56578000D03*
X54356000Y-52578000D03*
D32*
X100070419Y-41153581D03*
X97790000Y-40209000D03*
X95509581Y-41153581D03*
X94565000Y-43434000D03*
X95509581Y-45714419D03*
X97790000Y-46659000D03*
X100070419Y-45714419D03*
X101015000Y-43434000D03*
D33*
X97790000Y-43434000D03*
X33274000Y-43434000D03*
D32*
X36499000Y-43434000D03*
X35554419Y-45714419D03*
X33274000Y-46659000D03*
X30993581Y-45714419D03*
X30049000Y-43434000D03*
X30993581Y-41153581D03*
X33274000Y-40209000D03*
X35554419Y-41153581D03*
X35554419Y-148341581D03*
X33274000Y-147397000D03*
X30993581Y-148341581D03*
X30049000Y-150622000D03*
X30993581Y-152902419D03*
X33274000Y-153847000D03*
X35554419Y-152902419D03*
X36499000Y-150622000D03*
D33*
X33274000Y-150622000D03*
X97790000Y-150622000D03*
D32*
X101015000Y-150622000D03*
X100070419Y-152902419D03*
X97790000Y-153847000D03*
X95509581Y-152902419D03*
X94565000Y-150622000D03*
X95509581Y-148341581D03*
X97790000Y-147397000D03*
X100070419Y-148341581D03*
D34*
X38354000Y-53086000D03*
X38354000Y-56086000D03*
D35*
X33020000Y-53086000D03*
X33020000Y-57736000D03*
D28*
X67310000Y-123718000D03*
D36*
X67310000Y-131318000D03*
D37*
X75310000Y-48768000D03*
X80710000Y-48768000D03*
D31*
X62230000Y-103568000D03*
X62230000Y-99568000D03*
D38*
X75438000Y-92329000D03*
X71438000Y-92329000D03*
X53150000Y-140208000D03*
X57150000Y-140208000D03*
X55308000Y-73660000D03*
X51308000Y-73660000D03*
D39*
X62865000Y-118237000D03*
D40*
X67945000Y-118237000D03*
X65405000Y-118237000D03*
D22*
X76772000Y-126492000D03*
X80772000Y-126492000D03*
X76772000Y-130556000D03*
X80772000Y-130556000D03*
X76772000Y-122428000D03*
X80772000Y-122428000D03*
X80740000Y-135636000D03*
X76740000Y-135636000D03*
X74104000Y-120142000D03*
X70104000Y-120142000D03*
D41*
X55880000Y-51816000D03*
X55880000Y-53340000D03*
X49784000Y-50546000D03*
X48260000Y-50546000D03*
X65278000Y-52070000D03*
X66802000Y-52070000D03*
X71501000Y-93853000D03*
X71501000Y-90932000D03*
X73914000Y-46990000D03*
X72898000Y-47498000D03*
X72898000Y-48768000D03*
X72898000Y-50038000D03*
X73914000Y-50546000D03*
X83566000Y-127000000D03*
X83566000Y-131318000D03*
X83566000Y-140208000D03*
X42672000Y-131064000D03*
X40640000Y-131064000D03*
X43180000Y-131826000D03*
X40132000Y-131826000D03*
X41656000Y-130556000D03*
X77216000Y-114808000D03*
X77216000Y-108585000D03*
X74676000Y-114808000D03*
X76073000Y-108585000D03*
X72136000Y-114808000D03*
X74930000Y-108585000D03*
X84836000Y-80899000D03*
X84836000Y-76327000D03*
X75311000Y-83058000D03*
X71374000Y-83058000D03*
X85344000Y-91440000D03*
X79248000Y-137668000D03*
X84328000Y-91440000D03*
X78232000Y-137668000D03*
X43339010Y-94996000D03*
X46482000Y-94996000D03*
X43688000Y-101092000D03*
X45720000Y-101092000D03*
X43688000Y-102616000D03*
X45720000Y-102616000D03*
X43688000Y-104140000D03*
X45720000Y-104140000D03*
D42*
X54292000Y-56642000D02*
X54356000Y-56578000D01*
X49022000Y-56642000D02*
X54292000Y-56642000D01*
X43434000Y-56642000D02*
X49022000Y-56642000D01*
X58230000Y-56578000D02*
X58420000Y-56388000D01*
X54356000Y-56578000D02*
X58230000Y-56578000D01*
X49022000Y-52642000D02*
X49022000Y-51562000D01*
X48260000Y-50800000D02*
X48260000Y-50546000D01*
X49022000Y-51562000D02*
X48260000Y-50800000D01*
X49022000Y-51308000D02*
X49784000Y-50546000D01*
X49022000Y-52642000D02*
X49022000Y-51308000D01*
X48260000Y-50546000D02*
X49784000Y-50546000D01*
X55880000Y-51816000D02*
X55880000Y-53340000D01*
X65278000Y-52070000D02*
X66802000Y-52070000D01*
X55880000Y-53340000D02*
X55118000Y-52578000D01*
X55880000Y-51816000D02*
X55118000Y-52578000D01*
X65278000Y-52070000D02*
X66040000Y-52832000D01*
X66802000Y-52070000D02*
X66040000Y-52832000D01*
X66040000Y-52832000D02*
X66040000Y-53912000D01*
D43*
X51308000Y-71120000D02*
X51816000Y-70612000D01*
X51308000Y-73660000D02*
X51308000Y-71120000D01*
X70833000Y-99060000D02*
X69850000Y-99060000D01*
X69850000Y-99060000D02*
X69215000Y-98425000D01*
X69215000Y-98425000D02*
X69215000Y-93091000D01*
X69977000Y-92329000D02*
X71438000Y-92329000D01*
X69215000Y-93091000D02*
X69342000Y-92964000D01*
X61658000Y-104140000D02*
X62230000Y-103568000D01*
X69342000Y-92964000D02*
X69977000Y-92329000D01*
D44*
X71438000Y-93790000D02*
X71501000Y-93853000D01*
X71438000Y-92329000D02*
X71438000Y-93790000D01*
X71438000Y-90995000D02*
X71501000Y-90932000D01*
X71438000Y-92329000D02*
X71438000Y-90995000D01*
D42*
X75310000Y-48768000D02*
X72898000Y-48768000D01*
X74168000Y-48768000D02*
X72898000Y-47498000D01*
X74168000Y-48768000D02*
X72898000Y-50038000D01*
X75310000Y-48768000D02*
X74168000Y-48768000D01*
X73914000Y-47372000D02*
X75310000Y-48768000D01*
X73914000Y-46990000D02*
X73914000Y-47372000D01*
X73914000Y-50164000D02*
X75310000Y-48768000D01*
X73914000Y-50546000D02*
X73914000Y-50164000D01*
X73406000Y-50546000D02*
X72898000Y-50038000D01*
X73914000Y-50546000D02*
X73406000Y-50546000D01*
X72898000Y-50038000D02*
X72898000Y-47498000D01*
X73406000Y-47498000D02*
X73914000Y-46990000D01*
X72898000Y-47498000D02*
X73406000Y-47498000D01*
X54292000Y-52642000D02*
X54356000Y-52578000D01*
X49022000Y-52642000D02*
X54292000Y-52642000D01*
D44*
X83376000Y-126810000D02*
X83566000Y-127000000D01*
X83376000Y-124460000D02*
X83376000Y-126810000D01*
X83376000Y-131508000D02*
X83566000Y-131318000D01*
X83376000Y-133096000D02*
X83376000Y-131508000D01*
X83376000Y-140398000D02*
X83566000Y-140208000D01*
X83376000Y-141986000D02*
X83376000Y-140398000D01*
D42*
X53150000Y-138112000D02*
X53848000Y-137414000D01*
X53150000Y-140208000D02*
X53150000Y-138112000D01*
X59500000Y-103568000D02*
X58928000Y-104140000D01*
X62230000Y-103568000D02*
X59500000Y-103568000D01*
X41656000Y-132080000D02*
X42672000Y-131064000D01*
X41656000Y-133604000D02*
X41656000Y-132080000D01*
X41656000Y-132080000D02*
X40640000Y-131064000D01*
X41656000Y-133604000D02*
X41656000Y-133344000D01*
X41656000Y-133604000D02*
X41604000Y-133604000D01*
X41656000Y-133350000D02*
X43180000Y-131826000D01*
X41656000Y-133604000D02*
X41656000Y-133350000D01*
X41656000Y-133350000D02*
X40132000Y-131826000D01*
X41656000Y-133604000D02*
X41656000Y-130556000D01*
X64008000Y-56388000D02*
X66040000Y-58420000D01*
X62270000Y-56388000D02*
X64008000Y-56388000D01*
X66040000Y-58420000D02*
X67564000Y-59944000D01*
X67564000Y-59944000D02*
X73660000Y-59944000D01*
X75311000Y-61595000D02*
X79248000Y-61595000D01*
X73660000Y-59944000D02*
X75311000Y-61595000D01*
X51878000Y-41356000D02*
X49830000Y-41356000D01*
X47752000Y-43434000D02*
X47752000Y-47752000D01*
X49830000Y-41356000D02*
X47752000Y-43434000D01*
X33020000Y-53086000D02*
X38354000Y-53086000D01*
X38354000Y-53086000D02*
X38354000Y-49276000D01*
X39878000Y-47752000D02*
X47752000Y-47752000D01*
X38354000Y-49276000D02*
X39878000Y-47752000D01*
X70104000Y-47752000D02*
X47752000Y-47752000D01*
X74676000Y-43180000D02*
X70104000Y-47752000D01*
X83185000Y-43180000D02*
X74676000Y-43180000D01*
X88392000Y-48387000D02*
X83185000Y-43180000D01*
X88392000Y-50800000D02*
X88392000Y-48387000D01*
D45*
X56896000Y-73406000D02*
X56896000Y-70612000D01*
X65786000Y-82296000D02*
X56896000Y-73406000D01*
D44*
X49276000Y-70612000D02*
X49276000Y-74930000D01*
X49276000Y-74930000D02*
X49911000Y-75565000D01*
X56515000Y-75565000D02*
X65786000Y-84836000D01*
X49911000Y-75565000D02*
X56515000Y-75565000D01*
X77216000Y-102743000D02*
X77216000Y-108585000D01*
X70612000Y-101346000D02*
X75819000Y-101346000D01*
X68326000Y-99060000D02*
X70612000Y-101346000D01*
X68326000Y-87630000D02*
X68326000Y-99060000D01*
X75819000Y-101346000D02*
X77216000Y-102743000D01*
X68072000Y-87376000D02*
X68326000Y-87630000D01*
X65786000Y-87376000D02*
X68072000Y-87376000D01*
X94587002Y-124460000D02*
X94742000Y-124460000D01*
X87221002Y-117094000D02*
X94587002Y-124460000D01*
X79502000Y-117094000D02*
X87221002Y-117094000D01*
X77216000Y-114808000D02*
X79502000Y-117094000D01*
X76073000Y-102616000D02*
X76073000Y-108585000D01*
X75438000Y-101981000D02*
X76073000Y-102616000D01*
X67818000Y-99314000D02*
X70485000Y-101981000D01*
X67818000Y-90170000D02*
X67818000Y-99314000D01*
X67564000Y-89916000D02*
X67818000Y-90170000D01*
X70485000Y-101981000D02*
X75438000Y-101981000D01*
X65786000Y-89916000D02*
X67564000Y-89916000D01*
X93218000Y-129032000D02*
X94742000Y-130556000D01*
X87122000Y-129032000D02*
X93218000Y-129032000D01*
X86050999Y-127960999D02*
X87122000Y-129032000D01*
X83312000Y-118618000D02*
X86050999Y-121356999D01*
X94742000Y-130556000D02*
X94742000Y-133096000D01*
X78486000Y-118618000D02*
X83312000Y-118618000D01*
X86050999Y-121356999D02*
X86050999Y-127960999D01*
X74676000Y-114808000D02*
X78486000Y-118618000D01*
X66802000Y-92456000D02*
X65786000Y-92456000D01*
X67367990Y-93021990D02*
X66802000Y-92456000D01*
X67367990Y-99752990D02*
X67367990Y-93021990D01*
X70231000Y-102616000D02*
X67367990Y-99752990D01*
X74549000Y-102616000D02*
X70231000Y-102616000D01*
X74930000Y-102997000D02*
X74549000Y-102616000D01*
X74930000Y-108585000D02*
X74930000Y-102997000D01*
X94742000Y-138938000D02*
X94742000Y-141986000D01*
X87122000Y-137160000D02*
X92964000Y-137160000D01*
X92964000Y-137160000D02*
X94742000Y-138938000D01*
X85344000Y-135382000D02*
X87122000Y-137160000D01*
X85344000Y-121666000D02*
X85344000Y-135382000D01*
X83058000Y-119380000D02*
X85344000Y-121666000D01*
X76708000Y-119380000D02*
X83058000Y-119380000D01*
X72136000Y-114808000D02*
X76708000Y-119380000D01*
X88392000Y-90932000D02*
X86868000Y-92456000D01*
X91948000Y-82804000D02*
X88392000Y-86360000D01*
X86868000Y-92456000D02*
X81026000Y-92456000D01*
X88392000Y-86360000D02*
X88392000Y-90932000D01*
X96440000Y-72876000D02*
X93116000Y-76200000D01*
X93116000Y-81636000D02*
X91948000Y-82804000D01*
X93116000Y-76200000D02*
X93116000Y-81636000D01*
X65786000Y-97536000D02*
X64262000Y-96012000D01*
X64262000Y-96012000D02*
X64262000Y-87630000D01*
X64262000Y-87630000D02*
X60198000Y-83566000D01*
X60198000Y-83566000D02*
X50292000Y-83566000D01*
X65786000Y-100076000D02*
X64516000Y-98806000D01*
X64516000Y-98806000D02*
X64516000Y-97028000D01*
X64516000Y-97028000D02*
X63754000Y-96266000D01*
X63754000Y-96266000D02*
X63754000Y-90932000D01*
X62738000Y-89916000D02*
X48514000Y-89916000D01*
X63754000Y-90932000D02*
X62738000Y-89916000D01*
X65786000Y-102616000D02*
X64008000Y-100838000D01*
X64008000Y-100838000D02*
X64008000Y-97282000D01*
X64008000Y-97282000D02*
X63246000Y-96520000D01*
X63246000Y-96520000D02*
X63246000Y-92964000D01*
X62738000Y-92456000D02*
X48514000Y-92456000D01*
X63246000Y-92964000D02*
X62738000Y-92456000D01*
X65786000Y-105156000D02*
X70866000Y-105156000D01*
X65387001Y-108094999D02*
X57259001Y-108094999D01*
X65786000Y-107696000D02*
X65387001Y-108094999D01*
X57259001Y-108094999D02*
X56134000Y-109220000D01*
X56134000Y-111506000D02*
X58928000Y-114300000D01*
X56134000Y-109220000D02*
X56134000Y-111506000D01*
X65786000Y-110236000D02*
X62738000Y-110236000D01*
X61214000Y-111760000D02*
X58928000Y-111760000D01*
X62738000Y-110236000D02*
X61214000Y-111760000D01*
D42*
X84582000Y-53340000D02*
X88392000Y-53340000D01*
X69596000Y-66548000D02*
X83312000Y-66548000D01*
X84582000Y-65278000D02*
X84582000Y-53340000D01*
X83312000Y-66548000D02*
X84582000Y-65278000D01*
X83312000Y-77470000D02*
X81026000Y-79756000D01*
D43*
X69596000Y-66548000D02*
X63500000Y-66548000D01*
X63500000Y-66548000D02*
X62484000Y-67564000D01*
X54356000Y-70612000D02*
X54356000Y-68072000D01*
X54864000Y-67564000D02*
X62484000Y-67564000D01*
X54356000Y-68072000D02*
X54864000Y-67564000D01*
X55308000Y-71564000D02*
X54356000Y-70612000D01*
X55308000Y-73660000D02*
X55308000Y-71564000D01*
D44*
X76233000Y-93124000D02*
X75438000Y-92329000D01*
X76233000Y-95250000D02*
X76233000Y-93124000D01*
X75438000Y-92329000D02*
X75438000Y-91948000D01*
X75438000Y-91298998D02*
X80630998Y-86106000D01*
X75438000Y-91948000D02*
X75438000Y-91298998D01*
X81662410Y-86106000D02*
X84836000Y-82932410D01*
X80630998Y-86106000D02*
X81662410Y-86106000D01*
X84836000Y-82932410D02*
X84836000Y-80899000D01*
X84836000Y-76327000D02*
X83312000Y-76327000D01*
D42*
X83312000Y-76327000D02*
X83312000Y-77470000D01*
X83312000Y-66548000D02*
X83312000Y-76327000D01*
X80710000Y-48768000D02*
X82931000Y-48768000D01*
X84582000Y-50419000D02*
X84582000Y-53340000D01*
X82931000Y-48768000D02*
X84582000Y-50419000D01*
X79248000Y-50230000D02*
X80710000Y-48768000D01*
X79248000Y-56515000D02*
X79248000Y-50230000D01*
D44*
X99314000Y-141986000D02*
X97536000Y-143764000D01*
X99314000Y-98933000D02*
X99314000Y-141986000D01*
X80772000Y-143764000D02*
X77216000Y-140208000D01*
X97536000Y-143764000D02*
X80772000Y-143764000D01*
X101981000Y-96266000D02*
X99314000Y-98933000D01*
X101981000Y-60833000D02*
X101981000Y-96266000D01*
X77216000Y-140208000D02*
X57150000Y-140208000D01*
X94488000Y-53340000D02*
X101981000Y-60833000D01*
X88392000Y-53340000D02*
X94488000Y-53340000D01*
D42*
X57150000Y-138176000D02*
X56388000Y-137414000D01*
X57150000Y-140208000D02*
X57150000Y-138176000D01*
D44*
X97028000Y-118006000D02*
X97028000Y-111506000D01*
X97028000Y-111506000D02*
X97028000Y-106322000D01*
X97028000Y-106322000D02*
X97028000Y-99822000D01*
X88392000Y-55880000D02*
X91440000Y-55880000D01*
X91440000Y-55880000D02*
X96012000Y-60452000D01*
X81026000Y-84836000D02*
X82296000Y-84836000D01*
X82296000Y-84836000D02*
X82296000Y-81280000D01*
X90700000Y-72876000D02*
X91440000Y-72876000D01*
X82296000Y-81280000D02*
X90700000Y-72876000D01*
X96012000Y-60452000D02*
X96012000Y-66040000D01*
X98044000Y-85852000D02*
X98044000Y-89408000D01*
X94488000Y-82296000D02*
X98044000Y-85852000D01*
X98552000Y-74168000D02*
X94488000Y-78232000D01*
X98552000Y-70104000D02*
X98552000Y-74168000D01*
X94488000Y-78232000D02*
X94488000Y-82296000D01*
X96012000Y-66040000D02*
X96012000Y-67564000D01*
X97028000Y-90424000D02*
X96520000Y-90424000D01*
X93940000Y-87844000D02*
X93940000Y-87376000D01*
X96520000Y-90424000D02*
X93940000Y-87844000D01*
X94350000Y-69966000D02*
X91440000Y-72876000D01*
X94720000Y-69596000D02*
X94350000Y-69966000D01*
X96012000Y-69596000D02*
X94720000Y-69596000D01*
X96012000Y-66040000D02*
X96012000Y-69596000D01*
X98044000Y-69596000D02*
X98552000Y-70104000D01*
X96012000Y-69596000D02*
X98044000Y-69596000D01*
X97028000Y-90424000D02*
X98044000Y-90424000D01*
X98044000Y-89408000D02*
X98044000Y-90424000D01*
X97028000Y-97536000D02*
X97028000Y-99822000D01*
X97028000Y-96774000D02*
X97028000Y-97536000D01*
X98044000Y-95758000D02*
X97028000Y-96774000D01*
X98044000Y-90424000D02*
X98044000Y-95758000D01*
D43*
X75502000Y-84836000D02*
X75311000Y-85027000D01*
X81026000Y-84836000D02*
X75502000Y-84836000D01*
X70314999Y-86086001D02*
X64369001Y-86086001D01*
X71374000Y-85027000D02*
X70314999Y-86086001D01*
X64369001Y-86086001D02*
X60198000Y-81915000D01*
X51181000Y-81915000D02*
X50292000Y-81026000D01*
X60198000Y-81915000D02*
X51181000Y-81915000D01*
X75311000Y-85027000D02*
X75311000Y-83058000D01*
X71374000Y-83058000D02*
X71374000Y-85027000D01*
X61722000Y-99060000D02*
X62230000Y-99568000D01*
D44*
X58928000Y-99060000D02*
X58928000Y-101600000D01*
D43*
X44640000Y-68580000D02*
X44640000Y-76200000D01*
X44640000Y-76200000D02*
X44640000Y-83820000D01*
X44640000Y-91440000D02*
X44640000Y-99060000D01*
X44640000Y-99060000D02*
X44640000Y-106680000D01*
X44640000Y-106680000D02*
X44640000Y-114300000D01*
X44640000Y-114300000D02*
X44640000Y-121920000D01*
X47434000Y-81026000D02*
X44640000Y-83820000D01*
X50292000Y-81026000D02*
X47434000Y-81026000D01*
D44*
X56896000Y-65024000D02*
X56896000Y-62992000D01*
X56388000Y-65532000D02*
X56896000Y-65024000D01*
X46228000Y-65532000D02*
X56388000Y-65532000D01*
X44640000Y-67120000D02*
X46228000Y-65532000D01*
X44640000Y-68580000D02*
X44640000Y-67120000D01*
D43*
X44640000Y-83820000D02*
X44640000Y-91440000D01*
D44*
X61722000Y-97028000D02*
X62230000Y-97536000D01*
X49784000Y-97028000D02*
X61722000Y-97028000D01*
X46482000Y-93726000D02*
X49784000Y-97028000D01*
X46482000Y-92202000D02*
X46482000Y-93726000D01*
X45720000Y-91440000D02*
X46482000Y-92202000D01*
X44640000Y-91440000D02*
X45720000Y-91440000D01*
X62230000Y-97536000D02*
X62230000Y-99568000D01*
D42*
X59436000Y-99568000D02*
X58928000Y-99060000D01*
X62230000Y-99568000D02*
X59436000Y-99568000D01*
D44*
X76740000Y-135636000D02*
X74676000Y-135636000D01*
X70358000Y-131318000D02*
X67310000Y-131318000D01*
X74676000Y-135636000D02*
X70358000Y-131318000D01*
X60452000Y-131318000D02*
X58928000Y-129794000D01*
X67310000Y-131318000D02*
X60452000Y-131318000D01*
D43*
X58928000Y-120396000D02*
X58928000Y-129794000D01*
X54356000Y-119634000D02*
X58166000Y-119634000D01*
X58166000Y-119634000D02*
X58928000Y-120396000D01*
X53594000Y-118872000D02*
X54356000Y-119634000D01*
X53594000Y-108751998D02*
X53594000Y-118872000D01*
X52812001Y-107969999D02*
X53594000Y-108751998D01*
X45929999Y-107969999D02*
X52812001Y-107969999D01*
X44640000Y-106680000D02*
X45929999Y-107969999D01*
D44*
X81026000Y-87376000D02*
X82804000Y-87376000D01*
X85344000Y-89916000D02*
X82804000Y-87376000D01*
X85344000Y-91440000D02*
X85344000Y-89916000D01*
X60706000Y-135636000D02*
X58928000Y-137414000D01*
X69596000Y-135636000D02*
X60706000Y-135636000D01*
X72898000Y-138938000D02*
X69596000Y-135636000D01*
X78994000Y-138938000D02*
X72898000Y-138938000D01*
X79248000Y-138684000D02*
X78994000Y-138938000D01*
X79248000Y-137668000D02*
X79248000Y-138684000D01*
X84328000Y-91440000D02*
X84328000Y-90678000D01*
X83566000Y-89916000D02*
X81026000Y-89916000D01*
X84328000Y-90678000D02*
X83566000Y-89916000D01*
X77724000Y-138176000D02*
X78232000Y-137668000D01*
X73406000Y-138176000D02*
X77724000Y-138176000D01*
X69850000Y-134620000D02*
X73406000Y-138176000D01*
X51816000Y-134620000D02*
X69850000Y-134620000D01*
X51308000Y-135128000D02*
X51816000Y-134620000D01*
X51308000Y-137414000D02*
X51308000Y-135128000D01*
X78867000Y-97536000D02*
X81026000Y-97536000D01*
X78613000Y-97790000D02*
X78867000Y-97536000D01*
X76233000Y-97790000D02*
X78613000Y-97790000D01*
X76233000Y-97790000D02*
X75057000Y-97790000D01*
X75057000Y-97790000D02*
X73914000Y-96647000D01*
X73914000Y-90424000D02*
X75311000Y-89027000D01*
X73914000Y-96647000D02*
X73914000Y-90424000D01*
X73914000Y-73406000D02*
X69596000Y-69088000D01*
X73914000Y-87630000D02*
X73914000Y-73406000D01*
X75311000Y-89027000D02*
X73914000Y-87630000D01*
X76233000Y-99060000D02*
X78613000Y-99060000D01*
X78613000Y-99060000D02*
X79629000Y-100076000D01*
X79629000Y-100076000D02*
X81026000Y-100076000D01*
X75208000Y-99060000D02*
X73025000Y-96877000D01*
X76233000Y-99060000D02*
X75208000Y-99060000D01*
X73025000Y-90678000D02*
X71374000Y-89027000D01*
X73025000Y-96877000D02*
X73025000Y-90678000D01*
X72771000Y-74803000D02*
X69596000Y-71628000D01*
X71628000Y-89027000D02*
X72771000Y-87884000D01*
X72771000Y-87884000D02*
X72771000Y-74803000D01*
X71374000Y-89027000D02*
X71628000Y-89027000D01*
X92528000Y-106322000D02*
X92528000Y-99822000D01*
X82400000Y-106322000D02*
X81026000Y-107696000D01*
X92528000Y-106322000D02*
X82400000Y-106322000D01*
X92528000Y-118006000D02*
X92528000Y-111506000D01*
X82296000Y-111506000D02*
X81026000Y-110236000D01*
X92528000Y-111506000D02*
X82296000Y-111506000D01*
X79900999Y-104030999D02*
X81026000Y-105156000D01*
X79900999Y-102075999D02*
X79900999Y-104030999D01*
X81514591Y-101490999D02*
X80485999Y-101490999D01*
X88842010Y-94163580D02*
X81514591Y-101490999D01*
X88842010Y-88160988D02*
X88842010Y-94163580D01*
X90851999Y-86150999D02*
X88842010Y-88160988D01*
X80485999Y-101490999D02*
X79900999Y-102075999D01*
X95214999Y-86150999D02*
X90851999Y-86150999D01*
X96440000Y-87376000D02*
X95214999Y-86150999D01*
X91440000Y-92202000D02*
X81026000Y-102616000D01*
X91440000Y-87376000D02*
X91440000Y-92202000D01*
X59182000Y-108966000D02*
X58928000Y-109220000D01*
X66181002Y-108966000D02*
X59182000Y-108966000D01*
X67564000Y-110348998D02*
X66181002Y-108966000D01*
X67564000Y-110998000D02*
X67564000Y-110348998D01*
X65786000Y-112776000D02*
X67564000Y-110998000D01*
X59182000Y-106426000D02*
X58928000Y-106680000D01*
X67564000Y-106426000D02*
X59182000Y-106426000D01*
X68326000Y-107188000D02*
X67564000Y-106426000D01*
X75057000Y-110236000D02*
X72009000Y-107188000D01*
X78486000Y-110236000D02*
X75057000Y-110236000D01*
X72009000Y-107188000D02*
X68326000Y-107188000D01*
X81026000Y-112776000D02*
X78486000Y-110236000D01*
X87376000Y-124460000D02*
X92202000Y-124460000D01*
X87376000Y-133096000D02*
X92202000Y-133096000D01*
X87376000Y-141986000D02*
X92202000Y-141986000D01*
D45*
X57277000Y-121793000D02*
X52451000Y-121793000D01*
D44*
X31750000Y-68580000D02*
X36830000Y-68580000D01*
X36830000Y-68580000D02*
X40640000Y-68580000D01*
X40640000Y-68580000D02*
X40640000Y-72898000D01*
X40640000Y-72898000D02*
X42672000Y-74930000D01*
X42672000Y-74930000D02*
X42672000Y-86106000D01*
X42672000Y-86106000D02*
X42672000Y-87376000D01*
X42672000Y-87376000D02*
X43180000Y-87884000D01*
X43180000Y-94836990D02*
X43339010Y-94996000D01*
X43180000Y-87884000D02*
X43180000Y-94836990D01*
X46482000Y-94996000D02*
X46482000Y-97790000D01*
X47752000Y-99060000D02*
X51308000Y-99060000D01*
X46482000Y-97790000D02*
X47752000Y-99060000D01*
X40640000Y-76200000D02*
X36830000Y-76200000D01*
X31750000Y-76200000D02*
X36830000Y-76200000D01*
X45720000Y-101092000D02*
X46482000Y-101092000D01*
X46990000Y-101600000D02*
X51308000Y-101600000D01*
X46482000Y-101092000D02*
X46990000Y-101600000D01*
X43064019Y-100468019D02*
X43688000Y-101092000D01*
X43064019Y-96520000D02*
X43064019Y-100468019D01*
X42614010Y-96069991D02*
X43064019Y-96520000D01*
X42164000Y-87630000D02*
X42614010Y-88080010D01*
X42164000Y-81280000D02*
X42164000Y-87630000D01*
X40640000Y-79756000D02*
X42164000Y-81280000D01*
X42614010Y-88080010D02*
X42614010Y-96069991D01*
X40640000Y-76200000D02*
X40640000Y-79756000D01*
X40640000Y-83820000D02*
X36830000Y-83820000D01*
X31750000Y-83820000D02*
X36830000Y-83820000D01*
X42614010Y-97095600D02*
X42614010Y-100076000D01*
X42164000Y-96645590D02*
X42614010Y-97095600D01*
X42164000Y-88392000D02*
X42164000Y-96645590D01*
X40640000Y-86868000D02*
X42164000Y-88392000D01*
X40640000Y-83820000D02*
X40640000Y-86868000D01*
X42614010Y-101542010D02*
X43688000Y-102616000D01*
X42614010Y-100076000D02*
X42614010Y-101542010D01*
X45720000Y-102616000D02*
X46482000Y-102616000D01*
X48006000Y-104140000D02*
X51308000Y-104140000D01*
X46482000Y-102616000D02*
X48006000Y-104140000D01*
X42164000Y-97282000D02*
X42164000Y-100076000D01*
X40640000Y-95758000D02*
X42164000Y-97282000D01*
X40640000Y-91440000D02*
X40640000Y-95758000D01*
X42164000Y-100076000D02*
X42164000Y-102165002D01*
X42164000Y-102616000D02*
X43688000Y-104140000D01*
X42164000Y-102165002D02*
X42164000Y-102616000D01*
X45720000Y-104140000D02*
X48260000Y-106680000D01*
X48260000Y-106680000D02*
X51308000Y-106680000D01*
X40640000Y-91440000D02*
X36830000Y-91440000D01*
X31750000Y-91440000D02*
X36830000Y-91440000D01*
X40640000Y-99060000D02*
X36830000Y-99060000D01*
X31750000Y-99060000D02*
X36830000Y-99060000D01*
X40640000Y-99060000D02*
X40640000Y-101600000D01*
X41148000Y-111506000D02*
X41148000Y-109220000D01*
X42672000Y-116078000D02*
X42672000Y-113030000D01*
X43434000Y-124460000D02*
X43180000Y-124206000D01*
X45720000Y-124460000D02*
X43434000Y-124460000D01*
X42672000Y-113030000D02*
X41148000Y-111506000D01*
X43180000Y-116586000D02*
X42672000Y-116078000D01*
X46990000Y-123190000D02*
X45720000Y-124460000D01*
X46990000Y-109982000D02*
X46990000Y-123190000D01*
X47752000Y-109220000D02*
X46990000Y-109982000D01*
X43180000Y-124206000D02*
X43180000Y-116586000D01*
X51308000Y-109220000D02*
X47752000Y-109220000D01*
X41148000Y-109220000D02*
X42164000Y-108204000D01*
X42164000Y-108204000D02*
X42164000Y-105156000D01*
X42164000Y-105156000D02*
X40640000Y-103632000D01*
X40640000Y-103632000D02*
X40640000Y-101600000D01*
X40640000Y-106680000D02*
X36830000Y-106680000D01*
X31750000Y-106680000D02*
X36830000Y-106680000D01*
X40640000Y-106680000D02*
X40640000Y-108204000D01*
X48260000Y-111760000D02*
X51308000Y-111760000D01*
X47498000Y-112522000D02*
X48260000Y-111760000D01*
X47498000Y-123444000D02*
X47498000Y-112522000D01*
X45974000Y-124968000D02*
X47498000Y-123444000D01*
X43305590Y-124968000D02*
X45974000Y-124968000D01*
X42672000Y-124334410D02*
X43305590Y-124968000D01*
X42672000Y-117094000D02*
X42672000Y-124334410D01*
X42672000Y-117094000D02*
X42672000Y-116840000D01*
X42672000Y-116840000D02*
X42164000Y-116332000D01*
X42164000Y-113388998D02*
X40640000Y-111864998D01*
X42164000Y-116332000D02*
X42164000Y-113388998D01*
X40640000Y-111864998D02*
X40640000Y-108204000D01*
X40640000Y-114300000D02*
X36830000Y-114300000D01*
X31750000Y-114300000D02*
X36830000Y-114300000D01*
X48006000Y-115062000D02*
X48768000Y-114300000D01*
X46228000Y-125476000D02*
X48006000Y-123698000D01*
X43177180Y-125476000D02*
X46228000Y-125476000D01*
X42221991Y-124520811D02*
X43177180Y-125476000D01*
X42221990Y-124517990D02*
X42221991Y-124520811D01*
X48006000Y-123698000D02*
X48006000Y-115062000D01*
X42164000Y-124460000D02*
X42221990Y-124517990D01*
X42164000Y-117856000D02*
X42164000Y-124460000D01*
X48768000Y-114300000D02*
X51308000Y-114300000D01*
X40640000Y-116332000D02*
X42164000Y-117856000D01*
X40640000Y-114300000D02*
X40640000Y-116332000D01*
X40640000Y-121920000D02*
X36830000Y-121920000D01*
X36830000Y-121920000D02*
X31750000Y-121920000D01*
X49276000Y-116840000D02*
X51308000Y-116840000D01*
X48514000Y-117602000D02*
X49276000Y-116840000D01*
X48514000Y-123952000D02*
X48514000Y-117602000D01*
X46539990Y-125926010D02*
X48514000Y-123952000D01*
X42106010Y-125926010D02*
X46539990Y-125926010D01*
X40640000Y-124460000D02*
X42106010Y-125926010D01*
X40640000Y-121920000D02*
X40640000Y-124460000D01*
X52451000Y-128397000D02*
X53848000Y-129794000D01*
X52451000Y-124333000D02*
X52451000Y-128397000D01*
X57277000Y-128905000D02*
X56388000Y-129794000D01*
X57277000Y-125793000D02*
X57277000Y-128905000D01*
D42*
X43434000Y-52462000D02*
X42788000Y-52462000D01*
X39164000Y-56086000D02*
X38354000Y-56086000D01*
X42788000Y-52462000D02*
X39164000Y-56086000D01*
D44*
X67945000Y-118237000D02*
X67945000Y-119507000D01*
X68580000Y-120142000D02*
X70104000Y-120142000D01*
X67945000Y-119507000D02*
X68580000Y-120142000D01*
X67310000Y-123718000D02*
X69322000Y-123718000D01*
X70104000Y-122936000D02*
X70104000Y-120142000D01*
X69322000Y-123718000D02*
X70104000Y-122936000D01*
X70866000Y-109156000D02*
X69596000Y-110426000D01*
X65405000Y-118237000D02*
X65405000Y-116840000D01*
X65405000Y-116840000D02*
X66929000Y-115316000D01*
X68707000Y-115316000D02*
X69596000Y-114427000D01*
X66929000Y-115316000D02*
X68707000Y-115316000D01*
X69596000Y-110426000D02*
X69596000Y-114427000D01*
X76772000Y-126492000D02*
X76772000Y-130556000D01*
X80772000Y-122428000D02*
X80772000Y-126492000D01*
X80772000Y-135604000D02*
X80740000Y-135636000D01*
X80772000Y-130556000D02*
X80772000Y-135604000D01*
X74104000Y-120142000D02*
X74104000Y-121856000D01*
X74676000Y-122428000D02*
X76772000Y-122428000D01*
X74104000Y-121856000D02*
X74676000Y-122428000D01*
D42*
X33020000Y-57736000D02*
X32688000Y-57736000D01*
X49022000Y-146304000D02*
X49022000Y-143510000D01*
X50846000Y-148128000D02*
X49022000Y-146304000D01*
X53402000Y-148128000D02*
X50846000Y-148128000D01*
X31054000Y-139004000D02*
X41656000Y-139004000D01*
X28702000Y-136652000D02*
X31054000Y-139004000D01*
X28702000Y-62054000D02*
X28702000Y-136652000D01*
X33020000Y-57736000D02*
X28702000Y-62054000D01*
X44516000Y-139004000D02*
X49022000Y-143510000D01*
X41656000Y-139004000D02*
X44516000Y-139004000D01*
M02*
