G04 #@! TF.GenerationSoftware,KiCad,Pcbnew,(5.1.9)-1*
G04 #@! TF.CreationDate,2021-01-23T22:17:01+01:00*
G04 #@! TF.ProjectId,SNModule,534e4d6f-6475-46c6-952e-6b696361645f,rev?*
G04 #@! TF.SameCoordinates,Original*
G04 #@! TF.FileFunction,Soldermask,Top*
G04 #@! TF.FilePolarity,Negative*
%FSLAX46Y46*%
G04 Gerber Fmt 4.6, Leading zero omitted, Abs format (unit mm)*
G04 Created by KiCad (PCBNEW (5.1.9)-1) date 2021-01-23 22:17:01*
%MOMM*%
%LPD*%
G01*
G04 APERTURE LIST*
%ADD10C,1.600000*%
%ADD11C,1.700000*%
%ADD12C,1.000000*%
%ADD13C,4.900000*%
%ADD14C,1.500000*%
%ADD15C,5.052000*%
%ADD16C,1.900000*%
%ADD17O,1.800000X1.800000*%
%ADD18O,1.700000X1.700000*%
%ADD19O,2.600000X1.600000*%
%ADD20C,2.100000*%
%ADD21C,8.700000*%
%ADD22C,1.620000*%
G04 APERTURE END LIST*
G36*
G01*
X40856000Y-137204000D02*
X42456000Y-137204000D01*
G75*
G02*
X42506000Y-137254000I0J-50000D01*
G01*
X42506000Y-140754000D01*
G75*
G02*
X42456000Y-140804000I-50000J0D01*
G01*
X40856000Y-140804000D01*
G75*
G02*
X40806000Y-140754000I0J50000D01*
G01*
X40806000Y-137254000D01*
G75*
G02*
X40856000Y-137204000I50000J0D01*
G01*
G37*
G36*
G01*
X40856000Y-131804000D02*
X42456000Y-131804000D01*
G75*
G02*
X42506000Y-131854000I0J-50000D01*
G01*
X42506000Y-135354000D01*
G75*
G02*
X42456000Y-135404000I-50000J0D01*
G01*
X40856000Y-135404000D01*
G75*
G02*
X40806000Y-135354000I0J50000D01*
G01*
X40806000Y-131854000D01*
G75*
G02*
X40856000Y-131804000I50000J0D01*
G01*
G37*
D10*
X36830000Y-124714000D03*
X31750000Y-124714000D03*
X36830000Y-122174000D03*
X31750000Y-122174000D03*
X36830000Y-71120000D03*
X31750000Y-71120000D03*
X36830000Y-68580000D03*
X31750000Y-68580000D03*
X36830000Y-93980000D03*
X31750000Y-93980000D03*
X36830000Y-91440000D03*
X31750000Y-91440000D03*
X36830000Y-86360000D03*
X31750000Y-86360000D03*
X36830000Y-83820000D03*
X31750000Y-83820000D03*
D11*
X65786000Y-79756000D03*
X65786000Y-82296000D03*
X65786000Y-84836000D03*
X65786000Y-87376000D03*
X65786000Y-89916000D03*
X65786000Y-92456000D03*
X65786000Y-94996000D03*
X65786000Y-97536000D03*
X65786000Y-100076000D03*
X65786000Y-102616000D03*
X65786000Y-105156000D03*
X65786000Y-107696000D03*
X65786000Y-110236000D03*
X78486000Y-82296000D03*
X81026000Y-79756000D03*
X81026000Y-82296000D03*
X81026000Y-84836000D03*
X81026000Y-87376000D03*
X81026000Y-89916000D03*
X81026000Y-92456000D03*
X81026000Y-94996000D03*
X81026000Y-97536000D03*
X81026000Y-100076000D03*
X81026000Y-102616000D03*
X81026000Y-105156000D03*
X81026000Y-107696000D03*
X81026000Y-110236000D03*
X65786000Y-112776000D03*
X68326000Y-112776000D03*
X70866000Y-112776000D03*
X81026000Y-112776000D03*
X78486000Y-112776000D03*
X75946000Y-112776000D03*
X73406000Y-112776000D03*
G36*
G01*
X71716000Y-110206000D02*
X70016000Y-110206000D01*
G75*
G02*
X69966000Y-110156000I0J50000D01*
G01*
X69966000Y-108156000D01*
G75*
G02*
X70016000Y-108106000I50000J0D01*
G01*
X71716000Y-108106000D01*
G75*
G02*
X71766000Y-108156000I0J-50000D01*
G01*
X71766000Y-110156000D01*
G75*
G02*
X71716000Y-110206000I-50000J0D01*
G01*
G37*
G36*
G01*
X71716000Y-106206000D02*
X70016000Y-106206000D01*
G75*
G02*
X69966000Y-106156000I0J50000D01*
G01*
X69966000Y-104156000D01*
G75*
G02*
X70016000Y-104106000I50000J0D01*
G01*
X71716000Y-104106000D01*
G75*
G02*
X71766000Y-104156000I0J-50000D01*
G01*
X71766000Y-106156000D01*
G75*
G02*
X71716000Y-106206000I-50000J0D01*
G01*
G37*
D12*
X103000000Y-155000000D03*
X27940000Y-155000000D03*
X28000000Y-39000000D03*
D13*
X45017000Y-146708000D03*
X70007000Y-146708000D03*
D14*
X53402000Y-148128000D03*
X56142000Y-148128000D03*
X58882000Y-148128000D03*
X61622000Y-148128000D03*
X52032000Y-145288000D03*
X54772000Y-145288000D03*
X57512000Y-145288000D03*
X60252000Y-145288000D03*
X62992000Y-145288000D03*
D15*
X98540000Y-79876000D03*
X89340000Y-79876000D03*
D16*
X96440000Y-72876000D03*
X91440000Y-72876000D03*
X93940000Y-87376000D03*
X96440000Y-87376000D03*
X91440000Y-87376000D03*
G36*
G01*
X87492000Y-51650000D02*
X87492000Y-49950000D01*
G75*
G02*
X87542000Y-49900000I50000J0D01*
G01*
X89242000Y-49900000D01*
G75*
G02*
X89292000Y-49950000I0J-50000D01*
G01*
X89292000Y-51650000D01*
G75*
G02*
X89242000Y-51700000I-50000J0D01*
G01*
X87542000Y-51700000D01*
G75*
G02*
X87492000Y-51650000I0J50000D01*
G01*
G37*
D17*
X88392000Y-53340000D03*
X88392000Y-55880000D03*
X88392000Y-58420000D03*
D13*
X43493000Y-42776000D03*
X68483000Y-42776000D03*
D14*
X51878000Y-41356000D03*
X54618000Y-41356000D03*
X57358000Y-41356000D03*
X60098000Y-41356000D03*
X50508000Y-44196000D03*
X53248000Y-44196000D03*
X55988000Y-44196000D03*
X58728000Y-44196000D03*
X61468000Y-44196000D03*
G36*
G01*
X63345000Y-59188000D02*
X61195000Y-59188000D01*
G75*
G02*
X61145000Y-59138000I0J50000D01*
G01*
X61145000Y-53638000D01*
G75*
G02*
X61195000Y-53588000I50000J0D01*
G01*
X63345000Y-53588000D01*
G75*
G02*
X63395000Y-53638000I0J-50000D01*
G01*
X63395000Y-59138000D01*
G75*
G02*
X63345000Y-59188000I-50000J0D01*
G01*
G37*
G36*
G01*
X59495000Y-59188000D02*
X57345000Y-59188000D01*
G75*
G02*
X57295000Y-59138000I0J50000D01*
G01*
X57295000Y-53638000D01*
G75*
G02*
X57345000Y-53588000I50000J0D01*
G01*
X59495000Y-53588000D01*
G75*
G02*
X59545000Y-53638000I0J-50000D01*
G01*
X59545000Y-59138000D01*
G75*
G02*
X59495000Y-59188000I-50000J0D01*
G01*
G37*
G36*
G01*
X88426000Y-141136000D02*
X88426000Y-142836000D01*
G75*
G02*
X88376000Y-142886000I-50000J0D01*
G01*
X86376000Y-142886000D01*
G75*
G02*
X86326000Y-142836000I0J50000D01*
G01*
X86326000Y-141136000D01*
G75*
G02*
X86376000Y-141086000I50000J0D01*
G01*
X88376000Y-141086000D01*
G75*
G02*
X88426000Y-141136000I0J-50000D01*
G01*
G37*
G36*
G01*
X84426000Y-141136000D02*
X84426000Y-142836000D01*
G75*
G02*
X84376000Y-142886000I-50000J0D01*
G01*
X82376000Y-142886000D01*
G75*
G02*
X82326000Y-142836000I0J50000D01*
G01*
X82326000Y-141136000D01*
G75*
G02*
X82376000Y-141086000I50000J0D01*
G01*
X84376000Y-141086000D01*
G75*
G02*
X84426000Y-141136000I0J-50000D01*
G01*
G37*
G36*
G01*
X88426000Y-132246000D02*
X88426000Y-133946000D01*
G75*
G02*
X88376000Y-133996000I-50000J0D01*
G01*
X86376000Y-133996000D01*
G75*
G02*
X86326000Y-133946000I0J50000D01*
G01*
X86326000Y-132246000D01*
G75*
G02*
X86376000Y-132196000I50000J0D01*
G01*
X88376000Y-132196000D01*
G75*
G02*
X88426000Y-132246000I0J-50000D01*
G01*
G37*
G36*
G01*
X84426000Y-132246000D02*
X84426000Y-133946000D01*
G75*
G02*
X84376000Y-133996000I-50000J0D01*
G01*
X82376000Y-133996000D01*
G75*
G02*
X82326000Y-133946000I0J50000D01*
G01*
X82326000Y-132246000D01*
G75*
G02*
X82376000Y-132196000I50000J0D01*
G01*
X84376000Y-132196000D01*
G75*
G02*
X84426000Y-132246000I0J-50000D01*
G01*
G37*
G36*
G01*
X88426000Y-123610000D02*
X88426000Y-125310000D01*
G75*
G02*
X88376000Y-125360000I-50000J0D01*
G01*
X86376000Y-125360000D01*
G75*
G02*
X86326000Y-125310000I0J50000D01*
G01*
X86326000Y-123610000D01*
G75*
G02*
X86376000Y-123560000I50000J0D01*
G01*
X88376000Y-123560000D01*
G75*
G02*
X88426000Y-123610000I0J-50000D01*
G01*
G37*
G36*
G01*
X84426000Y-123610000D02*
X84426000Y-125310000D01*
G75*
G02*
X84376000Y-125360000I-50000J0D01*
G01*
X82376000Y-125360000D01*
G75*
G02*
X82326000Y-125310000I0J50000D01*
G01*
X82326000Y-123610000D01*
G75*
G02*
X82376000Y-123560000I50000J0D01*
G01*
X84376000Y-123560000D01*
G75*
G02*
X84426000Y-123610000I0J-50000D01*
G01*
G37*
G36*
G01*
X45690000Y-121070000D02*
X45690000Y-122770000D01*
G75*
G02*
X45640000Y-122820000I-50000J0D01*
G01*
X43640000Y-122820000D01*
G75*
G02*
X43590000Y-122770000I0J50000D01*
G01*
X43590000Y-121070000D01*
G75*
G02*
X43640000Y-121020000I50000J0D01*
G01*
X45640000Y-121020000D01*
G75*
G02*
X45690000Y-121070000I0J-50000D01*
G01*
G37*
G36*
G01*
X41690000Y-121070000D02*
X41690000Y-122770000D01*
G75*
G02*
X41640000Y-122820000I-50000J0D01*
G01*
X39640000Y-122820000D01*
G75*
G02*
X39590000Y-122770000I0J50000D01*
G01*
X39590000Y-121070000D01*
G75*
G02*
X39640000Y-121020000I50000J0D01*
G01*
X41640000Y-121020000D01*
G75*
G02*
X41690000Y-121070000I0J-50000D01*
G01*
G37*
G36*
G01*
X45690000Y-113450000D02*
X45690000Y-115150000D01*
G75*
G02*
X45640000Y-115200000I-50000J0D01*
G01*
X43640000Y-115200000D01*
G75*
G02*
X43590000Y-115150000I0J50000D01*
G01*
X43590000Y-113450000D01*
G75*
G02*
X43640000Y-113400000I50000J0D01*
G01*
X45640000Y-113400000D01*
G75*
G02*
X45690000Y-113450000I0J-50000D01*
G01*
G37*
G36*
G01*
X41690000Y-113450000D02*
X41690000Y-115150000D01*
G75*
G02*
X41640000Y-115200000I-50000J0D01*
G01*
X39640000Y-115200000D01*
G75*
G02*
X39590000Y-115150000I0J50000D01*
G01*
X39590000Y-113450000D01*
G75*
G02*
X39640000Y-113400000I50000J0D01*
G01*
X41640000Y-113400000D01*
G75*
G02*
X41690000Y-113450000I0J-50000D01*
G01*
G37*
G36*
G01*
X45690000Y-105830000D02*
X45690000Y-107530000D01*
G75*
G02*
X45640000Y-107580000I-50000J0D01*
G01*
X43640000Y-107580000D01*
G75*
G02*
X43590000Y-107530000I0J50000D01*
G01*
X43590000Y-105830000D01*
G75*
G02*
X43640000Y-105780000I50000J0D01*
G01*
X45640000Y-105780000D01*
G75*
G02*
X45690000Y-105830000I0J-50000D01*
G01*
G37*
G36*
G01*
X41690000Y-105830000D02*
X41690000Y-107530000D01*
G75*
G02*
X41640000Y-107580000I-50000J0D01*
G01*
X39640000Y-107580000D01*
G75*
G02*
X39590000Y-107530000I0J50000D01*
G01*
X39590000Y-105830000D01*
G75*
G02*
X39640000Y-105780000I50000J0D01*
G01*
X41640000Y-105780000D01*
G75*
G02*
X41690000Y-105830000I0J-50000D01*
G01*
G37*
G36*
G01*
X45690000Y-98210000D02*
X45690000Y-99910000D01*
G75*
G02*
X45640000Y-99960000I-50000J0D01*
G01*
X43640000Y-99960000D01*
G75*
G02*
X43590000Y-99910000I0J50000D01*
G01*
X43590000Y-98210000D01*
G75*
G02*
X43640000Y-98160000I50000J0D01*
G01*
X45640000Y-98160000D01*
G75*
G02*
X45690000Y-98210000I0J-50000D01*
G01*
G37*
G36*
G01*
X41690000Y-98210000D02*
X41690000Y-99910000D01*
G75*
G02*
X41640000Y-99960000I-50000J0D01*
G01*
X39640000Y-99960000D01*
G75*
G02*
X39590000Y-99910000I0J50000D01*
G01*
X39590000Y-98210000D01*
G75*
G02*
X39640000Y-98160000I50000J0D01*
G01*
X41640000Y-98160000D01*
G75*
G02*
X41690000Y-98210000I0J-50000D01*
G01*
G37*
G36*
G01*
X45690000Y-90590000D02*
X45690000Y-92290000D01*
G75*
G02*
X45640000Y-92340000I-50000J0D01*
G01*
X43640000Y-92340000D01*
G75*
G02*
X43590000Y-92290000I0J50000D01*
G01*
X43590000Y-90590000D01*
G75*
G02*
X43640000Y-90540000I50000J0D01*
G01*
X45640000Y-90540000D01*
G75*
G02*
X45690000Y-90590000I0J-50000D01*
G01*
G37*
G36*
G01*
X41690000Y-90590000D02*
X41690000Y-92290000D01*
G75*
G02*
X41640000Y-92340000I-50000J0D01*
G01*
X39640000Y-92340000D01*
G75*
G02*
X39590000Y-92290000I0J50000D01*
G01*
X39590000Y-90590000D01*
G75*
G02*
X39640000Y-90540000I50000J0D01*
G01*
X41640000Y-90540000D01*
G75*
G02*
X41690000Y-90590000I0J-50000D01*
G01*
G37*
G36*
G01*
X45690000Y-82970000D02*
X45690000Y-84670000D01*
G75*
G02*
X45640000Y-84720000I-50000J0D01*
G01*
X43640000Y-84720000D01*
G75*
G02*
X43590000Y-84670000I0J50000D01*
G01*
X43590000Y-82970000D01*
G75*
G02*
X43640000Y-82920000I50000J0D01*
G01*
X45640000Y-82920000D01*
G75*
G02*
X45690000Y-82970000I0J-50000D01*
G01*
G37*
G36*
G01*
X41690000Y-82970000D02*
X41690000Y-84670000D01*
G75*
G02*
X41640000Y-84720000I-50000J0D01*
G01*
X39640000Y-84720000D01*
G75*
G02*
X39590000Y-84670000I0J50000D01*
G01*
X39590000Y-82970000D01*
G75*
G02*
X39640000Y-82920000I50000J0D01*
G01*
X41640000Y-82920000D01*
G75*
G02*
X41690000Y-82970000I0J-50000D01*
G01*
G37*
G36*
G01*
X45690000Y-75350000D02*
X45690000Y-77050000D01*
G75*
G02*
X45640000Y-77100000I-50000J0D01*
G01*
X43640000Y-77100000D01*
G75*
G02*
X43590000Y-77050000I0J50000D01*
G01*
X43590000Y-75350000D01*
G75*
G02*
X43640000Y-75300000I50000J0D01*
G01*
X45640000Y-75300000D01*
G75*
G02*
X45690000Y-75350000I0J-50000D01*
G01*
G37*
G36*
G01*
X41690000Y-75350000D02*
X41690000Y-77050000D01*
G75*
G02*
X41640000Y-77100000I-50000J0D01*
G01*
X39640000Y-77100000D01*
G75*
G02*
X39590000Y-77050000I0J50000D01*
G01*
X39590000Y-75350000D01*
G75*
G02*
X39640000Y-75300000I50000J0D01*
G01*
X41640000Y-75300000D01*
G75*
G02*
X41690000Y-75350000I0J-50000D01*
G01*
G37*
G36*
G01*
X45690000Y-67730000D02*
X45690000Y-69430000D01*
G75*
G02*
X45640000Y-69480000I-50000J0D01*
G01*
X43640000Y-69480000D01*
G75*
G02*
X43590000Y-69430000I0J50000D01*
G01*
X43590000Y-67730000D01*
G75*
G02*
X43640000Y-67680000I50000J0D01*
G01*
X45640000Y-67680000D01*
G75*
G02*
X45690000Y-67730000I0J-50000D01*
G01*
G37*
G36*
G01*
X41690000Y-67730000D02*
X41690000Y-69430000D01*
G75*
G02*
X41640000Y-69480000I-50000J0D01*
G01*
X39640000Y-69480000D01*
G75*
G02*
X39590000Y-69430000I0J50000D01*
G01*
X39590000Y-67730000D01*
G75*
G02*
X39640000Y-67680000I50000J0D01*
G01*
X41640000Y-67680000D01*
G75*
G02*
X41690000Y-67730000I0J-50000D01*
G01*
G37*
G36*
G01*
X74461000Y-83977000D02*
X76161000Y-83977000D01*
G75*
G02*
X76211000Y-84027000I0J-50000D01*
G01*
X76211000Y-86027000D01*
G75*
G02*
X76161000Y-86077000I-50000J0D01*
G01*
X74461000Y-86077000D01*
G75*
G02*
X74411000Y-86027000I0J50000D01*
G01*
X74411000Y-84027000D01*
G75*
G02*
X74461000Y-83977000I50000J0D01*
G01*
G37*
G36*
G01*
X74461000Y-87977000D02*
X76161000Y-87977000D01*
G75*
G02*
X76211000Y-88027000I0J-50000D01*
G01*
X76211000Y-90027000D01*
G75*
G02*
X76161000Y-90077000I-50000J0D01*
G01*
X74461000Y-90077000D01*
G75*
G02*
X74411000Y-90027000I0J50000D01*
G01*
X74411000Y-88027000D01*
G75*
G02*
X74461000Y-87977000I50000J0D01*
G01*
G37*
G36*
G01*
X70524000Y-83977000D02*
X72224000Y-83977000D01*
G75*
G02*
X72274000Y-84027000I0J-50000D01*
G01*
X72274000Y-86027000D01*
G75*
G02*
X72224000Y-86077000I-50000J0D01*
G01*
X70524000Y-86077000D01*
G75*
G02*
X70474000Y-86027000I0J50000D01*
G01*
X70474000Y-84027000D01*
G75*
G02*
X70524000Y-83977000I50000J0D01*
G01*
G37*
G36*
G01*
X70524000Y-87977000D02*
X72224000Y-87977000D01*
G75*
G02*
X72274000Y-88027000I0J-50000D01*
G01*
X72274000Y-90027000D01*
G75*
G02*
X72224000Y-90077000I-50000J0D01*
G01*
X70524000Y-90077000D01*
G75*
G02*
X70474000Y-90027000I0J50000D01*
G01*
X70474000Y-88027000D01*
G75*
G02*
X70524000Y-87977000I50000J0D01*
G01*
G37*
D10*
X36830000Y-109220000D03*
X31750000Y-109220000D03*
X36830000Y-106680000D03*
X31750000Y-106680000D03*
X36830000Y-116840000D03*
X31750000Y-116840000D03*
X36830000Y-114300000D03*
X31750000Y-114300000D03*
X36830000Y-78740000D03*
X31750000Y-78740000D03*
X36830000Y-76200000D03*
X31750000Y-76200000D03*
X36830000Y-101600000D03*
X31750000Y-101600000D03*
X36830000Y-99060000D03*
X31750000Y-99060000D03*
G36*
G01*
X56427000Y-120743000D02*
X58127000Y-120743000D01*
G75*
G02*
X58177000Y-120793000I0J-50000D01*
G01*
X58177000Y-122793000D01*
G75*
G02*
X58127000Y-122843000I-50000J0D01*
G01*
X56427000Y-122843000D01*
G75*
G02*
X56377000Y-122793000I0J50000D01*
G01*
X56377000Y-120793000D01*
G75*
G02*
X56427000Y-120743000I50000J0D01*
G01*
G37*
G36*
G01*
X56427000Y-124743000D02*
X58127000Y-124743000D01*
G75*
G02*
X58177000Y-124793000I0J-50000D01*
G01*
X58177000Y-126793000D01*
G75*
G02*
X58127000Y-126843000I-50000J0D01*
G01*
X56427000Y-126843000D01*
G75*
G02*
X56377000Y-126793000I0J50000D01*
G01*
X56377000Y-124793000D01*
G75*
G02*
X56427000Y-124743000I50000J0D01*
G01*
G37*
G36*
G01*
X53351000Y-123483000D02*
X53351000Y-125183000D01*
G75*
G02*
X53301000Y-125233000I-50000J0D01*
G01*
X51601000Y-125233000D01*
G75*
G02*
X51551000Y-125183000I0J50000D01*
G01*
X51551000Y-123483000D01*
G75*
G02*
X51601000Y-123433000I50000J0D01*
G01*
X53301000Y-123433000D01*
G75*
G02*
X53351000Y-123483000I0J-50000D01*
G01*
G37*
D17*
X52451000Y-121793000D03*
G36*
G01*
X70008000Y-95550000D02*
X70008000Y-94950000D01*
G75*
G02*
X70058000Y-94900000I50000J0D01*
G01*
X71608000Y-94900000D01*
G75*
G02*
X71658000Y-94950000I0J-50000D01*
G01*
X71658000Y-95550000D01*
G75*
G02*
X71608000Y-95600000I-50000J0D01*
G01*
X70058000Y-95600000D01*
G75*
G02*
X70008000Y-95550000I0J50000D01*
G01*
G37*
G36*
G01*
X70008000Y-96820000D02*
X70008000Y-96220000D01*
G75*
G02*
X70058000Y-96170000I50000J0D01*
G01*
X71608000Y-96170000D01*
G75*
G02*
X71658000Y-96220000I0J-50000D01*
G01*
X71658000Y-96820000D01*
G75*
G02*
X71608000Y-96870000I-50000J0D01*
G01*
X70058000Y-96870000D01*
G75*
G02*
X70008000Y-96820000I0J50000D01*
G01*
G37*
G36*
G01*
X70008000Y-98090000D02*
X70008000Y-97490000D01*
G75*
G02*
X70058000Y-97440000I50000J0D01*
G01*
X71608000Y-97440000D01*
G75*
G02*
X71658000Y-97490000I0J-50000D01*
G01*
X71658000Y-98090000D01*
G75*
G02*
X71608000Y-98140000I-50000J0D01*
G01*
X70058000Y-98140000D01*
G75*
G02*
X70008000Y-98090000I0J50000D01*
G01*
G37*
G36*
G01*
X70008000Y-99360000D02*
X70008000Y-98760000D01*
G75*
G02*
X70058000Y-98710000I50000J0D01*
G01*
X71608000Y-98710000D01*
G75*
G02*
X71658000Y-98760000I0J-50000D01*
G01*
X71658000Y-99360000D01*
G75*
G02*
X71608000Y-99410000I-50000J0D01*
G01*
X70058000Y-99410000D01*
G75*
G02*
X70008000Y-99360000I0J50000D01*
G01*
G37*
G36*
G01*
X75408000Y-99360000D02*
X75408000Y-98760000D01*
G75*
G02*
X75458000Y-98710000I50000J0D01*
G01*
X77008000Y-98710000D01*
G75*
G02*
X77058000Y-98760000I0J-50000D01*
G01*
X77058000Y-99360000D01*
G75*
G02*
X77008000Y-99410000I-50000J0D01*
G01*
X75458000Y-99410000D01*
G75*
G02*
X75408000Y-99360000I0J50000D01*
G01*
G37*
G36*
G01*
X75408000Y-98090000D02*
X75408000Y-97490000D01*
G75*
G02*
X75458000Y-97440000I50000J0D01*
G01*
X77008000Y-97440000D01*
G75*
G02*
X77058000Y-97490000I0J-50000D01*
G01*
X77058000Y-98090000D01*
G75*
G02*
X77008000Y-98140000I-50000J0D01*
G01*
X75458000Y-98140000D01*
G75*
G02*
X75408000Y-98090000I0J50000D01*
G01*
G37*
G36*
G01*
X75408000Y-96820000D02*
X75408000Y-96220000D01*
G75*
G02*
X75458000Y-96170000I50000J0D01*
G01*
X77008000Y-96170000D01*
G75*
G02*
X77058000Y-96220000I0J-50000D01*
G01*
X77058000Y-96820000D01*
G75*
G02*
X77008000Y-96870000I-50000J0D01*
G01*
X75458000Y-96870000D01*
G75*
G02*
X75408000Y-96820000I0J50000D01*
G01*
G37*
G36*
G01*
X75408000Y-95550000D02*
X75408000Y-94950000D01*
G75*
G02*
X75458000Y-94900000I50000J0D01*
G01*
X77008000Y-94900000D01*
G75*
G02*
X77058000Y-94950000I0J-50000D01*
G01*
X77058000Y-95550000D01*
G75*
G02*
X77008000Y-95600000I-50000J0D01*
G01*
X75458000Y-95600000D01*
G75*
G02*
X75408000Y-95550000I0J50000D01*
G01*
G37*
G36*
G01*
X52108000Y-138264000D02*
X50508000Y-138264000D01*
G75*
G02*
X50458000Y-138214000I0J50000D01*
G01*
X50458000Y-136614000D01*
G75*
G02*
X50508000Y-136564000I50000J0D01*
G01*
X52108000Y-136564000D01*
G75*
G02*
X52158000Y-136614000I0J-50000D01*
G01*
X52158000Y-138214000D01*
G75*
G02*
X52108000Y-138264000I-50000J0D01*
G01*
G37*
D18*
X58928000Y-129794000D03*
X53848000Y-137414000D03*
X56388000Y-129794000D03*
X56388000Y-137414000D03*
X53848000Y-129794000D03*
X58928000Y-137414000D03*
X51308000Y-129794000D03*
G36*
G01*
X50076000Y-71462000D02*
X48476000Y-71462000D01*
G75*
G02*
X48426000Y-71412000I0J50000D01*
G01*
X48426000Y-69812000D01*
G75*
G02*
X48476000Y-69762000I50000J0D01*
G01*
X50076000Y-69762000D01*
G75*
G02*
X50126000Y-69812000I0J-50000D01*
G01*
X50126000Y-71412000D01*
G75*
G02*
X50076000Y-71462000I-50000J0D01*
G01*
G37*
X56896000Y-62992000D03*
X51816000Y-70612000D03*
X54356000Y-62992000D03*
X54356000Y-70612000D03*
X51816000Y-62992000D03*
X56896000Y-70612000D03*
X49276000Y-62992000D03*
G36*
G01*
X80498000Y-62395000D02*
X77998000Y-62395000D01*
G75*
G02*
X77948000Y-62345000I0J50000D01*
G01*
X77948000Y-60845000D01*
G75*
G02*
X77998000Y-60795000I50000J0D01*
G01*
X80498000Y-60795000D01*
G75*
G02*
X80548000Y-60845000I0J-50000D01*
G01*
X80548000Y-62345000D01*
G75*
G02*
X80498000Y-62395000I-50000J0D01*
G01*
G37*
D19*
X79248000Y-59055000D03*
X79248000Y-56515000D03*
G36*
G01*
X50458000Y-99860000D02*
X50458000Y-98260000D01*
G75*
G02*
X50508000Y-98210000I50000J0D01*
G01*
X52108000Y-98210000D01*
G75*
G02*
X52158000Y-98260000I0J-50000D01*
G01*
X52158000Y-99860000D01*
G75*
G02*
X52108000Y-99910000I-50000J0D01*
G01*
X50508000Y-99910000D01*
G75*
G02*
X50458000Y-99860000I0J50000D01*
G01*
G37*
D18*
X58928000Y-116840000D03*
X51308000Y-101600000D03*
X58928000Y-114300000D03*
X51308000Y-104140000D03*
X58928000Y-111760000D03*
X51308000Y-106680000D03*
X58928000Y-109220000D03*
X51308000Y-109220000D03*
X58928000Y-106680000D03*
X51308000Y-111760000D03*
X58928000Y-104140000D03*
X51308000Y-114300000D03*
X58928000Y-101600000D03*
X51308000Y-116840000D03*
X58928000Y-99060000D03*
D20*
X92528000Y-99822000D03*
X97028000Y-99822000D03*
X92528000Y-106322000D03*
X97028000Y-106322000D03*
X92528000Y-111506000D03*
X97028000Y-111506000D03*
X92528000Y-118006000D03*
X97028000Y-118006000D03*
G36*
G01*
X49414000Y-91606000D02*
X49414000Y-93306000D01*
G75*
G02*
X49364000Y-93356000I-50000J0D01*
G01*
X47664000Y-93356000D01*
G75*
G02*
X47614000Y-93306000I0J50000D01*
G01*
X47614000Y-91606000D01*
G75*
G02*
X47664000Y-91556000I50000J0D01*
G01*
X49364000Y-91556000D01*
G75*
G02*
X49414000Y-91606000I0J-50000D01*
G01*
G37*
D17*
X48514000Y-89916000D03*
G36*
G01*
X68696000Y-64858000D02*
X68696000Y-63158000D01*
G75*
G02*
X68746000Y-63108000I50000J0D01*
G01*
X70446000Y-63108000D01*
G75*
G02*
X70496000Y-63158000I0J-50000D01*
G01*
X70496000Y-64858000D01*
G75*
G02*
X70446000Y-64908000I-50000J0D01*
G01*
X68746000Y-64908000D01*
G75*
G02*
X68696000Y-64858000I0J50000D01*
G01*
G37*
X69596000Y-66548000D03*
X69596000Y-69088000D03*
X69596000Y-71628000D03*
G36*
G01*
X49392000Y-79336000D02*
X49392000Y-77636000D01*
G75*
G02*
X49442000Y-77586000I50000J0D01*
G01*
X51142000Y-77586000D01*
G75*
G02*
X51192000Y-77636000I0J-50000D01*
G01*
X51192000Y-79336000D01*
G75*
G02*
X51142000Y-79386000I-50000J0D01*
G01*
X49442000Y-79386000D01*
G75*
G02*
X49392000Y-79336000I0J50000D01*
G01*
G37*
X50292000Y-81026000D03*
X50292000Y-83566000D03*
X50292000Y-86106000D03*
G36*
G01*
X44499000Y-55317000D02*
X44499000Y-57967000D01*
G75*
G02*
X44449000Y-58017000I-50000J0D01*
G01*
X42419000Y-58017000D01*
G75*
G02*
X42369000Y-57967000I0J50000D01*
G01*
X42369000Y-55317000D01*
G75*
G02*
X42419000Y-55267000I50000J0D01*
G01*
X44449000Y-55267000D01*
G75*
G02*
X44499000Y-55317000I0J-50000D01*
G01*
G37*
G36*
G01*
X44499000Y-51137000D02*
X44499000Y-53787000D01*
G75*
G02*
X44449000Y-53837000I-50000J0D01*
G01*
X42419000Y-53837000D01*
G75*
G02*
X42369000Y-53787000I0J50000D01*
G01*
X42369000Y-51137000D01*
G75*
G02*
X42419000Y-51087000I50000J0D01*
G01*
X44449000Y-51087000D01*
G75*
G02*
X44499000Y-51137000I0J-50000D01*
G01*
G37*
G36*
G01*
X91252000Y-142886000D02*
X91252000Y-141086000D01*
G75*
G02*
X91302000Y-141036000I50000J0D01*
G01*
X93102000Y-141036000D01*
G75*
G02*
X93152000Y-141086000I0J-50000D01*
G01*
X93152000Y-142886000D01*
G75*
G02*
X93102000Y-142936000I-50000J0D01*
G01*
X91302000Y-142936000D01*
G75*
G02*
X91252000Y-142886000I0J50000D01*
G01*
G37*
D16*
X94742000Y-141986000D03*
G36*
G01*
X91252000Y-133996000D02*
X91252000Y-132196000D01*
G75*
G02*
X91302000Y-132146000I50000J0D01*
G01*
X93102000Y-132146000D01*
G75*
G02*
X93152000Y-132196000I0J-50000D01*
G01*
X93152000Y-133996000D01*
G75*
G02*
X93102000Y-134046000I-50000J0D01*
G01*
X91302000Y-134046000D01*
G75*
G02*
X91252000Y-133996000I0J50000D01*
G01*
G37*
X94742000Y-133096000D03*
G36*
G01*
X91252000Y-125360000D02*
X91252000Y-123560000D01*
G75*
G02*
X91302000Y-123510000I50000J0D01*
G01*
X93102000Y-123510000D01*
G75*
G02*
X93152000Y-123560000I0J-50000D01*
G01*
X93152000Y-125360000D01*
G75*
G02*
X93102000Y-125410000I-50000J0D01*
G01*
X91302000Y-125410000D01*
G75*
G02*
X91252000Y-125360000I0J50000D01*
G01*
G37*
X94742000Y-124460000D03*
G36*
G01*
X66840000Y-59470000D02*
X65240000Y-59470000D01*
G75*
G02*
X65190000Y-59420000I0J50000D01*
G01*
X65190000Y-57420000D01*
G75*
G02*
X65240000Y-57370000I50000J0D01*
G01*
X66840000Y-57370000D01*
G75*
G02*
X66890000Y-57420000I0J-50000D01*
G01*
X66890000Y-59420000D01*
G75*
G02*
X66840000Y-59470000I-50000J0D01*
G01*
G37*
G36*
G01*
X66840000Y-55470000D02*
X65240000Y-55470000D01*
G75*
G02*
X65190000Y-55420000I0J50000D01*
G01*
X65190000Y-53420000D01*
G75*
G02*
X65240000Y-53370000I50000J0D01*
G01*
X66840000Y-53370000D01*
G75*
G02*
X66890000Y-53420000I0J-50000D01*
G01*
X66890000Y-55420000D01*
G75*
G02*
X66840000Y-55470000I-50000J0D01*
G01*
G37*
G36*
G01*
X49822000Y-57692000D02*
X48222000Y-57692000D01*
G75*
G02*
X48172000Y-57642000I0J50000D01*
G01*
X48172000Y-55642000D01*
G75*
G02*
X48222000Y-55592000I50000J0D01*
G01*
X49822000Y-55592000D01*
G75*
G02*
X49872000Y-55642000I0J-50000D01*
G01*
X49872000Y-57642000D01*
G75*
G02*
X49822000Y-57692000I-50000J0D01*
G01*
G37*
G36*
G01*
X49822000Y-53692000D02*
X48222000Y-53692000D01*
G75*
G02*
X48172000Y-53642000I0J50000D01*
G01*
X48172000Y-51642000D01*
G75*
G02*
X48222000Y-51592000I50000J0D01*
G01*
X49822000Y-51592000D01*
G75*
G02*
X49872000Y-51642000I0J-50000D01*
G01*
X49872000Y-53642000D01*
G75*
G02*
X49822000Y-53692000I-50000J0D01*
G01*
G37*
G36*
G01*
X55156000Y-57628000D02*
X53556000Y-57628000D01*
G75*
G02*
X53506000Y-57578000I0J50000D01*
G01*
X53506000Y-55578000D01*
G75*
G02*
X53556000Y-55528000I50000J0D01*
G01*
X55156000Y-55528000D01*
G75*
G02*
X55206000Y-55578000I0J-50000D01*
G01*
X55206000Y-57578000D01*
G75*
G02*
X55156000Y-57628000I-50000J0D01*
G01*
G37*
G36*
G01*
X55156000Y-53628000D02*
X53556000Y-53628000D01*
G75*
G02*
X53506000Y-53578000I0J50000D01*
G01*
X53506000Y-51578000D01*
G75*
G02*
X53556000Y-51528000I50000J0D01*
G01*
X55156000Y-51528000D01*
G75*
G02*
X55206000Y-51578000I0J-50000D01*
G01*
X55206000Y-53578000D01*
G75*
G02*
X55156000Y-53628000I-50000J0D01*
G01*
G37*
D12*
X100070419Y-41153581D03*
X97790000Y-40209000D03*
X95509581Y-41153581D03*
X94565000Y-43434000D03*
X95509581Y-45714419D03*
X97790000Y-46659000D03*
X100070419Y-45714419D03*
X101015000Y-43434000D03*
D21*
X97790000Y-43434000D03*
X33274000Y-43434000D03*
D12*
X36499000Y-43434000D03*
X35554419Y-45714419D03*
X33274000Y-46659000D03*
X30993581Y-45714419D03*
X30049000Y-43434000D03*
X30993581Y-41153581D03*
X33274000Y-40209000D03*
X35554419Y-41153581D03*
X35554419Y-148341581D03*
X33274000Y-147397000D03*
X30993581Y-148341581D03*
X30049000Y-150622000D03*
X30993581Y-152902419D03*
X33274000Y-153847000D03*
X35554419Y-152902419D03*
X36499000Y-150622000D03*
D21*
X33274000Y-150622000D03*
X97790000Y-150622000D03*
D12*
X101015000Y-150622000D03*
X100070419Y-152902419D03*
X97790000Y-153847000D03*
X95509581Y-152902419D03*
X94565000Y-150622000D03*
X95509581Y-148341581D03*
X97790000Y-147397000D03*
X100070419Y-148341581D03*
G36*
G01*
X39154000Y-53636000D02*
X37554000Y-53636000D01*
G75*
G02*
X37504000Y-53586000I0J50000D01*
G01*
X37504000Y-52586000D01*
G75*
G02*
X37554000Y-52536000I50000J0D01*
G01*
X39154000Y-52536000D01*
G75*
G02*
X39204000Y-52586000I0J-50000D01*
G01*
X39204000Y-53586000D01*
G75*
G02*
X39154000Y-53636000I-50000J0D01*
G01*
G37*
G36*
G01*
X39154000Y-56636000D02*
X37554000Y-56636000D01*
G75*
G02*
X37504000Y-56586000I0J50000D01*
G01*
X37504000Y-55586000D01*
G75*
G02*
X37554000Y-55536000I50000J0D01*
G01*
X39154000Y-55536000D01*
G75*
G02*
X39204000Y-55586000I0J-50000D01*
G01*
X39204000Y-56586000D01*
G75*
G02*
X39154000Y-56636000I-50000J0D01*
G01*
G37*
G36*
G01*
X34520000Y-54136000D02*
X31520000Y-54136000D01*
G75*
G02*
X31470000Y-54086000I0J50000D01*
G01*
X31470000Y-52086000D01*
G75*
G02*
X31520000Y-52036000I50000J0D01*
G01*
X34520000Y-52036000D01*
G75*
G02*
X34570000Y-52086000I0J-50000D01*
G01*
X34570000Y-54086000D01*
G75*
G02*
X34520000Y-54136000I-50000J0D01*
G01*
G37*
G36*
G01*
X34520000Y-58786000D02*
X31520000Y-58786000D01*
G75*
G02*
X31470000Y-58736000I0J50000D01*
G01*
X31470000Y-56736000D01*
G75*
G02*
X31520000Y-56686000I50000J0D01*
G01*
X34520000Y-56686000D01*
G75*
G02*
X34570000Y-56736000I0J-50000D01*
G01*
X34570000Y-58736000D01*
G75*
G02*
X34520000Y-58786000I-50000J0D01*
G01*
G37*
D20*
X67310000Y-123718000D03*
G36*
G01*
X68310000Y-132368000D02*
X66310000Y-132368000D01*
G75*
G02*
X66260000Y-132318000I0J50000D01*
G01*
X66260000Y-130318000D01*
G75*
G02*
X66310000Y-130268000I50000J0D01*
G01*
X68310000Y-130268000D01*
G75*
G02*
X68360000Y-130318000I0J-50000D01*
G01*
X68360000Y-132318000D01*
G75*
G02*
X68310000Y-132368000I-50000J0D01*
G01*
G37*
G36*
G01*
X73510000Y-49568000D02*
X73510000Y-47968000D01*
G75*
G02*
X73560000Y-47918000I50000J0D01*
G01*
X77060000Y-47918000D01*
G75*
G02*
X77110000Y-47968000I0J-50000D01*
G01*
X77110000Y-49568000D01*
G75*
G02*
X77060000Y-49618000I-50000J0D01*
G01*
X73560000Y-49618000D01*
G75*
G02*
X73510000Y-49568000I0J50000D01*
G01*
G37*
G36*
G01*
X78910000Y-49568000D02*
X78910000Y-47968000D01*
G75*
G02*
X78960000Y-47918000I50000J0D01*
G01*
X82460000Y-47918000D01*
G75*
G02*
X82510000Y-47968000I0J-50000D01*
G01*
X82510000Y-49568000D01*
G75*
G02*
X82460000Y-49618000I-50000J0D01*
G01*
X78960000Y-49618000D01*
G75*
G02*
X78910000Y-49568000I0J50000D01*
G01*
G37*
G36*
G01*
X61430000Y-102518000D02*
X63030000Y-102518000D01*
G75*
G02*
X63080000Y-102568000I0J-50000D01*
G01*
X63080000Y-104568000D01*
G75*
G02*
X63030000Y-104618000I-50000J0D01*
G01*
X61430000Y-104618000D01*
G75*
G02*
X61380000Y-104568000I0J50000D01*
G01*
X61380000Y-102568000D01*
G75*
G02*
X61430000Y-102518000I50000J0D01*
G01*
G37*
G36*
G01*
X61430000Y-98518000D02*
X63030000Y-98518000D01*
G75*
G02*
X63080000Y-98568000I0J-50000D01*
G01*
X63080000Y-100568000D01*
G75*
G02*
X63030000Y-100618000I-50000J0D01*
G01*
X61430000Y-100618000D01*
G75*
G02*
X61380000Y-100568000I0J50000D01*
G01*
X61380000Y-98568000D01*
G75*
G02*
X61430000Y-98518000I50000J0D01*
G01*
G37*
G36*
G01*
X76488000Y-91529000D02*
X76488000Y-93129000D01*
G75*
G02*
X76438000Y-93179000I-50000J0D01*
G01*
X74438000Y-93179000D01*
G75*
G02*
X74388000Y-93129000I0J50000D01*
G01*
X74388000Y-91529000D01*
G75*
G02*
X74438000Y-91479000I50000J0D01*
G01*
X76438000Y-91479000D01*
G75*
G02*
X76488000Y-91529000I0J-50000D01*
G01*
G37*
G36*
G01*
X72488000Y-91529000D02*
X72488000Y-93129000D01*
G75*
G02*
X72438000Y-93179000I-50000J0D01*
G01*
X70438000Y-93179000D01*
G75*
G02*
X70388000Y-93129000I0J50000D01*
G01*
X70388000Y-91529000D01*
G75*
G02*
X70438000Y-91479000I50000J0D01*
G01*
X72438000Y-91479000D01*
G75*
G02*
X72488000Y-91529000I0J-50000D01*
G01*
G37*
G36*
G01*
X54200000Y-139408000D02*
X54200000Y-141008000D01*
G75*
G02*
X54150000Y-141058000I-50000J0D01*
G01*
X52150000Y-141058000D01*
G75*
G02*
X52100000Y-141008000I0J50000D01*
G01*
X52100000Y-139408000D01*
G75*
G02*
X52150000Y-139358000I50000J0D01*
G01*
X54150000Y-139358000D01*
G75*
G02*
X54200000Y-139408000I0J-50000D01*
G01*
G37*
G36*
G01*
X58200000Y-139408000D02*
X58200000Y-141008000D01*
G75*
G02*
X58150000Y-141058000I-50000J0D01*
G01*
X56150000Y-141058000D01*
G75*
G02*
X56100000Y-141008000I0J50000D01*
G01*
X56100000Y-139408000D01*
G75*
G02*
X56150000Y-139358000I50000J0D01*
G01*
X58150000Y-139358000D01*
G75*
G02*
X58200000Y-139408000I0J-50000D01*
G01*
G37*
G36*
G01*
X56358000Y-72860000D02*
X56358000Y-74460000D01*
G75*
G02*
X56308000Y-74510000I-50000J0D01*
G01*
X54308000Y-74510000D01*
G75*
G02*
X54258000Y-74460000I0J50000D01*
G01*
X54258000Y-72860000D01*
G75*
G02*
X54308000Y-72810000I50000J0D01*
G01*
X56308000Y-72810000D01*
G75*
G02*
X56358000Y-72860000I0J-50000D01*
G01*
G37*
G36*
G01*
X52358000Y-72860000D02*
X52358000Y-74460000D01*
G75*
G02*
X52308000Y-74510000I-50000J0D01*
G01*
X50308000Y-74510000D01*
G75*
G02*
X50258000Y-74460000I0J50000D01*
G01*
X50258000Y-72860000D01*
G75*
G02*
X50308000Y-72810000I50000J0D01*
G01*
X52308000Y-72810000D01*
G75*
G02*
X52358000Y-72860000I0J-50000D01*
G01*
G37*
G36*
G01*
X63625000Y-119047000D02*
X62105000Y-119047000D01*
G75*
G02*
X62055000Y-118997000I0J50000D01*
G01*
X62055000Y-117477000D01*
G75*
G02*
X62105000Y-117427000I50000J0D01*
G01*
X63625000Y-117427000D01*
G75*
G02*
X63675000Y-117477000I0J-50000D01*
G01*
X63675000Y-118997000D01*
G75*
G02*
X63625000Y-119047000I-50000J0D01*
G01*
G37*
D22*
X67945000Y-118237000D03*
X65405000Y-118237000D03*
G36*
G01*
X77822000Y-125642000D02*
X77822000Y-127342000D01*
G75*
G02*
X77772000Y-127392000I-50000J0D01*
G01*
X75772000Y-127392000D01*
G75*
G02*
X75722000Y-127342000I0J50000D01*
G01*
X75722000Y-125642000D01*
G75*
G02*
X75772000Y-125592000I50000J0D01*
G01*
X77772000Y-125592000D01*
G75*
G02*
X77822000Y-125642000I0J-50000D01*
G01*
G37*
G36*
G01*
X81822000Y-125642000D02*
X81822000Y-127342000D01*
G75*
G02*
X81772000Y-127392000I-50000J0D01*
G01*
X79772000Y-127392000D01*
G75*
G02*
X79722000Y-127342000I0J50000D01*
G01*
X79722000Y-125642000D01*
G75*
G02*
X79772000Y-125592000I50000J0D01*
G01*
X81772000Y-125592000D01*
G75*
G02*
X81822000Y-125642000I0J-50000D01*
G01*
G37*
G36*
G01*
X75722000Y-131406000D02*
X75722000Y-129706000D01*
G75*
G02*
X75772000Y-129656000I50000J0D01*
G01*
X77772000Y-129656000D01*
G75*
G02*
X77822000Y-129706000I0J-50000D01*
G01*
X77822000Y-131406000D01*
G75*
G02*
X77772000Y-131456000I-50000J0D01*
G01*
X75772000Y-131456000D01*
G75*
G02*
X75722000Y-131406000I0J50000D01*
G01*
G37*
G36*
G01*
X79722000Y-131406000D02*
X79722000Y-129706000D01*
G75*
G02*
X79772000Y-129656000I50000J0D01*
G01*
X81772000Y-129656000D01*
G75*
G02*
X81822000Y-129706000I0J-50000D01*
G01*
X81822000Y-131406000D01*
G75*
G02*
X81772000Y-131456000I-50000J0D01*
G01*
X79772000Y-131456000D01*
G75*
G02*
X79722000Y-131406000I0J50000D01*
G01*
G37*
G36*
G01*
X75722000Y-123278000D02*
X75722000Y-121578000D01*
G75*
G02*
X75772000Y-121528000I50000J0D01*
G01*
X77772000Y-121528000D01*
G75*
G02*
X77822000Y-121578000I0J-50000D01*
G01*
X77822000Y-123278000D01*
G75*
G02*
X77772000Y-123328000I-50000J0D01*
G01*
X75772000Y-123328000D01*
G75*
G02*
X75722000Y-123278000I0J50000D01*
G01*
G37*
G36*
G01*
X79722000Y-123278000D02*
X79722000Y-121578000D01*
G75*
G02*
X79772000Y-121528000I50000J0D01*
G01*
X81772000Y-121528000D01*
G75*
G02*
X81822000Y-121578000I0J-50000D01*
G01*
X81822000Y-123278000D01*
G75*
G02*
X81772000Y-123328000I-50000J0D01*
G01*
X79772000Y-123328000D01*
G75*
G02*
X79722000Y-123278000I0J50000D01*
G01*
G37*
G36*
G01*
X79690000Y-136486000D02*
X79690000Y-134786000D01*
G75*
G02*
X79740000Y-134736000I50000J0D01*
G01*
X81740000Y-134736000D01*
G75*
G02*
X81790000Y-134786000I0J-50000D01*
G01*
X81790000Y-136486000D01*
G75*
G02*
X81740000Y-136536000I-50000J0D01*
G01*
X79740000Y-136536000D01*
G75*
G02*
X79690000Y-136486000I0J50000D01*
G01*
G37*
G36*
G01*
X75690000Y-136486000D02*
X75690000Y-134786000D01*
G75*
G02*
X75740000Y-134736000I50000J0D01*
G01*
X77740000Y-134736000D01*
G75*
G02*
X77790000Y-134786000I0J-50000D01*
G01*
X77790000Y-136486000D01*
G75*
G02*
X77740000Y-136536000I-50000J0D01*
G01*
X75740000Y-136536000D01*
G75*
G02*
X75690000Y-136486000I0J50000D01*
G01*
G37*
G36*
G01*
X73054000Y-120992000D02*
X73054000Y-119292000D01*
G75*
G02*
X73104000Y-119242000I50000J0D01*
G01*
X75104000Y-119242000D01*
G75*
G02*
X75154000Y-119292000I0J-50000D01*
G01*
X75154000Y-120992000D01*
G75*
G02*
X75104000Y-121042000I-50000J0D01*
G01*
X73104000Y-121042000D01*
G75*
G02*
X73054000Y-120992000I0J50000D01*
G01*
G37*
G36*
G01*
X69054000Y-120992000D02*
X69054000Y-119292000D01*
G75*
G02*
X69104000Y-119242000I50000J0D01*
G01*
X71104000Y-119242000D01*
G75*
G02*
X71154000Y-119292000I0J-50000D01*
G01*
X71154000Y-120992000D01*
G75*
G02*
X71104000Y-121042000I-50000J0D01*
G01*
X69104000Y-121042000D01*
G75*
G02*
X69054000Y-120992000I0J50000D01*
G01*
G37*
M02*
