M48
; DRILL file {KiCad (5.1.9)-1} date 01/23/21 22:18:04
; FORMAT={-:-/ absolute / inch / decimal}
; #@! TF.CreationDate,2021-01-23T22:18:04+01:00
; #@! TF.GenerationSoftware,Kicad,Pcbnew,(5.1.9)-1
FMAT,2
INCH
T1C0.0157
T2C0.0236
T3C0.0315
T4C0.0354
T5C0.0394
T6C0.0433
T7C0.0472
T8C0.1260
T9C0.1300
T10C0.1693
%
G90
G05
T1
X1.58Y-5.19
X1.6Y-5.16
X1.64Y-5.14
X1.68Y-5.16
X1.7Y-5.19
X1.7063Y-3.74
X1.72Y-3.98
X1.72Y-4.04
X1.72Y-4.1
X1.8Y-3.98
X1.8Y-4.04
X1.8Y-4.1
X1.83Y-3.74
X1.9Y-1.99
X1.96Y-1.99
X2.2Y-2.04
X2.2Y-2.1
X2.57Y-2.05
X2.63Y-2.05
X2.81Y-3.27
X2.815Y-3.58
X2.815Y-3.695
X2.84Y-4.52
X2.87Y-1.87
X2.87Y-1.92
X2.87Y-1.97
X2.91Y-1.85
X2.91Y-1.99
X2.94Y-4.52
X2.95Y-4.275
X2.965Y-3.27
X2.995Y-4.275
X3.04Y-4.275
X3.04Y-4.52
X3.08Y-5.42
X3.12Y-5.42
X3.29Y-5.0
X3.29Y-5.17
X3.29Y-5.52
X3.32Y-3.6
X3.34Y-3.005
X3.34Y-3.185
X3.36Y-3.6
T2
X1.183Y-1.71
X1.183Y-5.93
X1.2202Y-1.6202
X1.2202Y-1.7998
X1.2202Y-5.8402
X1.2202Y-6.0198
X1.31Y-1.583
X1.31Y-1.837
X1.31Y-5.803
X1.31Y-6.057
X1.3998Y-1.6202
X1.3998Y-1.7998
X1.3998Y-5.8402
X1.3998Y-6.0198
X1.437Y-1.71
X1.437Y-5.93
X3.723Y-1.71
X3.723Y-5.93
X3.7602Y-1.6202
X3.7602Y-1.7998
X3.7602Y-5.8402
X3.7602Y-6.0198
X3.85Y-1.583
X3.85Y-1.837
X3.85Y-5.803
X3.85Y-6.057
X3.9398Y-1.6202
X3.9398Y-1.7998
X3.9398Y-5.8402
X3.9398Y-6.0198
X3.977Y-1.71
X3.977Y-5.93
T3
X1.94Y-2.48
X1.94Y-2.78
X2.02Y-3.9
X2.02Y-4.0
X2.02Y-4.1
X2.02Y-4.2
X2.02Y-4.3
X2.02Y-4.4
X2.02Y-4.5
X2.02Y-4.6
X2.02Y-5.11
X2.02Y-5.41
X2.04Y-2.48
X2.04Y-2.78
X2.12Y-5.11
X2.12Y-5.41
X2.14Y-2.48
X2.14Y-2.78
X2.22Y-5.11
X2.22Y-5.41
X2.24Y-2.48
X2.24Y-2.78
X2.32Y-3.9
X2.32Y-4.0
X2.32Y-4.1
X2.32Y-4.2
X2.32Y-4.3
X2.32Y-4.4
X2.32Y-4.5
X2.32Y-4.6
X2.32Y-5.11
X2.32Y-5.41
X2.475Y-4.655
X2.575Y-4.655
X2.675Y-4.655
T4
X1.9885Y-1.74
X2.0424Y-1.6282
X2.0485Y-5.72
X2.0964Y-1.74
X2.1024Y-5.8318
X2.1503Y-1.6282
X2.1564Y-5.72
X2.2043Y-1.74
X2.2103Y-5.8318
X2.2582Y-1.6282
X2.2643Y-5.72
X2.3121Y-1.74
X2.3182Y-5.8318
X2.3661Y-1.6282
X2.3721Y-5.72
X2.42Y-1.74
X2.4261Y-5.8318
X2.48Y-5.72
X3.63Y-4.9
X3.63Y-5.24
X3.63Y-5.59
X3.73Y-4.9
X3.73Y-5.24
X3.73Y-5.59
T5
X1.25Y-2.7
X1.25Y-2.8
X1.25Y-3.0
X1.25Y-3.1
X1.25Y-3.3
X1.25Y-3.4
X1.25Y-3.6
X1.25Y-3.7
X1.25Y-3.9
X1.25Y-4.0
X1.25Y-4.2
X1.25Y-4.3
X1.25Y-4.5
X1.25Y-4.6
X1.25Y-4.81
X1.25Y-4.91
X1.45Y-2.7
X1.45Y-2.8
X1.45Y-3.0
X1.45Y-3.1
X1.45Y-3.3
X1.45Y-3.4
X1.45Y-3.6
X1.45Y-3.7
X1.45Y-3.9
X1.45Y-4.0
X1.45Y-4.2
X1.45Y-4.3
X1.45Y-4.5
X1.45Y-4.6
X1.45Y-4.81
X1.45Y-4.91
X1.91Y-3.54
X1.91Y-3.64
X1.98Y-3.09
X1.98Y-3.19
X1.98Y-3.29
X1.98Y-3.39
X2.065Y-4.795
X2.065Y-4.895
X2.65Y-4.8708
X2.65Y-5.17
X2.74Y-2.52
X2.74Y-2.62
X2.74Y-2.72
X2.74Y-2.82
X3.12Y-2.225
X3.12Y-2.325
X3.12Y-2.425
X3.48Y-2.0
X3.48Y-2.1
X3.48Y-2.2
X3.48Y-2.3
T6
X2.59Y-3.14
X2.59Y-3.24
X2.59Y-3.34
X2.59Y-3.44
X2.59Y-3.54
X2.59Y-3.64
X2.59Y-3.74
X2.59Y-3.84
X2.59Y-3.94
X2.59Y-4.04
X2.59Y-4.14
X2.59Y-4.24
X2.59Y-4.34
X2.59Y-4.44
X2.69Y-4.44
X2.79Y-4.44
X2.89Y-4.44
X2.99Y-4.44
X3.09Y-3.24
X3.09Y-4.44
X3.19Y-3.14
X3.19Y-3.24
X3.19Y-3.34
X3.19Y-3.44
X3.19Y-3.54
X3.19Y-3.64
X3.19Y-3.74
X3.19Y-3.84
X3.19Y-3.94
X3.19Y-4.04
X3.19Y-4.14
X3.19Y-4.24
X3.19Y-4.34
X3.19Y-4.44
X3.6428Y-3.93
X3.6428Y-4.1859
X3.6428Y-4.39
X3.6428Y-4.6459
X3.82Y-3.93
X3.82Y-4.1859
X3.82Y-4.39
X3.82Y-4.6459
T7
X3.6Y-2.8691
X3.6Y-3.44
X3.6984Y-3.44
X3.7969Y-2.8691
X3.7969Y-3.44
T8
X1.7123Y-1.6841
X1.7723Y-5.7759
X2.6962Y-1.6841
X2.7562Y-5.7759
T9
X3.5173Y-3.1447
X3.8795Y-3.1447
T10
X1.31Y-1.71
X1.31Y-5.93
X3.85Y-1.71
X3.85Y-5.93
T0
M30
