G04 #@! TF.GenerationSoftware,KiCad,Pcbnew,(5.1.9)-1*
G04 #@! TF.CreationDate,2021-01-23T22:17:01+01:00*
G04 #@! TF.ProjectId,SNModule,534e4d6f-6475-46c6-952e-6b696361645f,rev?*
G04 #@! TF.SameCoordinates,Original*
G04 #@! TF.FileFunction,Legend,Top*
G04 #@! TF.FilePolarity,Positive*
%FSLAX46Y46*%
G04 Gerber Fmt 4.6, Leading zero omitted, Abs format (unit mm)*
G04 Created by KiCad (PCBNEW (5.1.9)-1) date 2021-01-23 22:17:01*
%MOMM*%
%LPD*%
G01*
G04 APERTURE LIST*
%ADD10C,0.300000*%
%ADD11C,0.250000*%
%ADD12C,0.120000*%
%ADD13C,0.100000*%
%ADD14C,0.150000*%
%ADD15C,0.200000*%
%ADD16C,0.254000*%
G04 APERTURE END LIST*
D10*
X75073619Y-40973285D02*
X74978380Y-41068523D01*
X74692666Y-41163761D01*
X74502190Y-41163761D01*
X74216476Y-41068523D01*
X74026000Y-40878047D01*
X73930761Y-40687571D01*
X73835523Y-40306619D01*
X73835523Y-40020904D01*
X73930761Y-39639952D01*
X74026000Y-39449476D01*
X74216476Y-39259000D01*
X74502190Y-39163761D01*
X74692666Y-39163761D01*
X74978380Y-39259000D01*
X75073619Y-39354238D01*
X75835523Y-40592333D02*
X76787904Y-40592333D01*
X75645047Y-41163761D02*
X76311714Y-39163761D01*
X76978380Y-41163761D01*
X77645047Y-41163761D02*
X77645047Y-39163761D01*
X78787904Y-41163761D01*
X78787904Y-39163761D01*
X80121238Y-39163761D02*
X80311714Y-39163761D01*
X80502190Y-39259000D01*
X80597428Y-39354238D01*
X80692666Y-39544714D01*
X80787904Y-39925666D01*
X80787904Y-40401857D01*
X80692666Y-40782809D01*
X80597428Y-40973285D01*
X80502190Y-41068523D01*
X80311714Y-41163761D01*
X80121238Y-41163761D01*
X79930761Y-41068523D01*
X79835523Y-40973285D01*
X79740285Y-40782809D01*
X79645047Y-40401857D01*
X79645047Y-39925666D01*
X79740285Y-39544714D01*
X79835523Y-39354238D01*
X79930761Y-39259000D01*
X80121238Y-39163761D01*
X81168857Y-41354238D02*
X82692666Y-41354238D01*
X83073619Y-41068523D02*
X83359333Y-41163761D01*
X83835523Y-41163761D01*
X84026000Y-41068523D01*
X84121238Y-40973285D01*
X84216476Y-40782809D01*
X84216476Y-40592333D01*
X84121238Y-40401857D01*
X84026000Y-40306619D01*
X83835523Y-40211380D01*
X83454571Y-40116142D01*
X83264095Y-40020904D01*
X83168857Y-39925666D01*
X83073619Y-39735190D01*
X83073619Y-39544714D01*
X83168857Y-39354238D01*
X83264095Y-39259000D01*
X83454571Y-39163761D01*
X83930761Y-39163761D01*
X84216476Y-39259000D01*
X85073619Y-41163761D02*
X85073619Y-39163761D01*
X86216476Y-41163761D01*
X86216476Y-39163761D01*
X87073619Y-39354238D02*
X87168857Y-39259000D01*
X87359333Y-39163761D01*
X87835523Y-39163761D01*
X88026000Y-39259000D01*
X88121238Y-39354238D01*
X88216476Y-39544714D01*
X88216476Y-39735190D01*
X88121238Y-40020904D01*
X86978380Y-41163761D01*
X88216476Y-41163761D01*
X75740285Y-154638285D02*
X75645047Y-154733523D01*
X75359333Y-154828761D01*
X75168857Y-154828761D01*
X74883142Y-154733523D01*
X74692666Y-154543047D01*
X74597428Y-154352571D01*
X74502190Y-153971619D01*
X74502190Y-153685904D01*
X74597428Y-153304952D01*
X74692666Y-153114476D01*
X74883142Y-152924000D01*
X75168857Y-152828761D01*
X75359333Y-152828761D01*
X75645047Y-152924000D01*
X75740285Y-153019238D01*
X76502190Y-154257333D02*
X77454571Y-154257333D01*
X76311714Y-154828761D02*
X76978380Y-152828761D01*
X77645047Y-154828761D01*
X78311714Y-154828761D02*
X78311714Y-152828761D01*
X79454571Y-154828761D01*
X79454571Y-152828761D01*
X81454571Y-154828761D02*
X80311714Y-154828761D01*
X80883142Y-154828761D02*
X80883142Y-152828761D01*
X80692666Y-153114476D01*
X80502190Y-153304952D01*
X80311714Y-153400190D01*
X81835523Y-155019238D02*
X83359333Y-155019238D01*
X83835523Y-153781142D02*
X84502190Y-153781142D01*
X84787904Y-154828761D02*
X83835523Y-154828761D01*
X83835523Y-152828761D01*
X84787904Y-152828761D01*
X85454571Y-154828761D02*
X86502190Y-153495428D01*
X85454571Y-153495428D02*
X86502190Y-154828761D01*
X86978380Y-153495428D02*
X87740285Y-153495428D01*
X87264095Y-152828761D02*
X87264095Y-154543047D01*
X87359333Y-154733523D01*
X87549809Y-154828761D01*
X87740285Y-154828761D01*
D11*
X50864238Y-93265523D02*
X51149952Y-93360761D01*
X51626142Y-93360761D01*
X51816619Y-93265523D01*
X51911857Y-93170285D01*
X52007095Y-92979809D01*
X52007095Y-92789333D01*
X51911857Y-92598857D01*
X51816619Y-92503619D01*
X51626142Y-92408380D01*
X51245190Y-92313142D01*
X51054714Y-92217904D01*
X50959476Y-92122666D01*
X50864238Y-91932190D01*
X50864238Y-91741714D01*
X50959476Y-91551238D01*
X51054714Y-91456000D01*
X51245190Y-91360761D01*
X51721380Y-91360761D01*
X52007095Y-91456000D01*
X52864238Y-92313142D02*
X53530904Y-92313142D01*
X53816619Y-93360761D02*
X52864238Y-93360761D01*
X52864238Y-91360761D01*
X53816619Y-91360761D01*
X55816619Y-93360761D02*
X55149952Y-92408380D01*
X54673761Y-93360761D02*
X54673761Y-91360761D01*
X55435666Y-91360761D01*
X55626142Y-91456000D01*
X55721380Y-91551238D01*
X55816619Y-91741714D01*
X55816619Y-92027428D01*
X55721380Y-92217904D01*
X55626142Y-92313142D01*
X55435666Y-92408380D01*
X54673761Y-92408380D01*
X56578523Y-91551238D02*
X56673761Y-91456000D01*
X56864238Y-91360761D01*
X57340428Y-91360761D01*
X57530904Y-91456000D01*
X57626142Y-91551238D01*
X57721380Y-91741714D01*
X57721380Y-91932190D01*
X57626142Y-92217904D01*
X56483285Y-93360761D01*
X57721380Y-93360761D01*
X58102333Y-93551238D02*
X59626142Y-93551238D01*
X59816619Y-91360761D02*
X60959476Y-91360761D01*
X60388047Y-93360761D02*
X60388047Y-91360761D01*
X61435666Y-91360761D02*
X62769000Y-93360761D01*
X62769000Y-91360761D02*
X61435666Y-93360761D01*
X50626142Y-90598523D02*
X50911857Y-90693761D01*
X51388047Y-90693761D01*
X51578523Y-90598523D01*
X51673761Y-90503285D01*
X51769000Y-90312809D01*
X51769000Y-90122333D01*
X51673761Y-89931857D01*
X51578523Y-89836619D01*
X51388047Y-89741380D01*
X51007095Y-89646142D01*
X50816619Y-89550904D01*
X50721380Y-89455666D01*
X50626142Y-89265190D01*
X50626142Y-89074714D01*
X50721380Y-88884238D01*
X50816619Y-88789000D01*
X51007095Y-88693761D01*
X51483285Y-88693761D01*
X51769000Y-88789000D01*
X52626142Y-89646142D02*
X53292809Y-89646142D01*
X53578523Y-90693761D02*
X52626142Y-90693761D01*
X52626142Y-88693761D01*
X53578523Y-88693761D01*
X55578523Y-90693761D02*
X54911857Y-89741380D01*
X54435666Y-90693761D02*
X54435666Y-88693761D01*
X55197571Y-88693761D01*
X55388047Y-88789000D01*
X55483285Y-88884238D01*
X55578523Y-89074714D01*
X55578523Y-89360428D01*
X55483285Y-89550904D01*
X55388047Y-89646142D01*
X55197571Y-89741380D01*
X54435666Y-89741380D01*
X56340428Y-88884238D02*
X56435666Y-88789000D01*
X56626142Y-88693761D01*
X57102333Y-88693761D01*
X57292809Y-88789000D01*
X57388047Y-88884238D01*
X57483285Y-89074714D01*
X57483285Y-89265190D01*
X57388047Y-89550904D01*
X56245190Y-90693761D01*
X57483285Y-90693761D01*
X57864238Y-90884238D02*
X59388047Y-90884238D01*
X61007095Y-90693761D02*
X60340428Y-89741380D01*
X59864238Y-90693761D02*
X59864238Y-88693761D01*
X60626142Y-88693761D01*
X60816619Y-88789000D01*
X60911857Y-88884238D01*
X61007095Y-89074714D01*
X61007095Y-89360428D01*
X60911857Y-89550904D01*
X60816619Y-89646142D01*
X60626142Y-89741380D01*
X59864238Y-89741380D01*
X61673761Y-88693761D02*
X63007095Y-90693761D01*
X63007095Y-88693761D02*
X61673761Y-90693761D01*
D10*
X53721190Y-85233000D02*
X53530714Y-85137761D01*
X53245000Y-85137761D01*
X52959285Y-85233000D01*
X52768809Y-85423476D01*
X52673571Y-85613952D01*
X52578333Y-85994904D01*
X52578333Y-86280619D01*
X52673571Y-86661571D01*
X52768809Y-86852047D01*
X52959285Y-87042523D01*
X53245000Y-87137761D01*
X53435476Y-87137761D01*
X53721190Y-87042523D01*
X53816428Y-86947285D01*
X53816428Y-86280619D01*
X53435476Y-86280619D01*
X54673571Y-87137761D02*
X54673571Y-85137761D01*
X55816428Y-87137761D01*
X55816428Y-85137761D01*
X56768809Y-87137761D02*
X56768809Y-85137761D01*
X57245000Y-85137761D01*
X57530714Y-85233000D01*
X57721190Y-85423476D01*
X57816428Y-85613952D01*
X57911666Y-85994904D01*
X57911666Y-86280619D01*
X57816428Y-86661571D01*
X57721190Y-86852047D01*
X57530714Y-87042523D01*
X57245000Y-87137761D01*
X56768809Y-87137761D01*
X52340238Y-84597761D02*
X52340238Y-82597761D01*
X52816428Y-82597761D01*
X53102142Y-82693000D01*
X53292619Y-82883476D01*
X53387857Y-83073952D01*
X53483095Y-83454904D01*
X53483095Y-83740619D01*
X53387857Y-84121571D01*
X53292619Y-84312047D01*
X53102142Y-84502523D01*
X52816428Y-84597761D01*
X52340238Y-84597761D01*
X54625952Y-84597761D02*
X54435476Y-84502523D01*
X54340238Y-84407285D01*
X54245000Y-84216809D01*
X54245000Y-83645380D01*
X54340238Y-83454904D01*
X54435476Y-83359666D01*
X54625952Y-83264428D01*
X54911666Y-83264428D01*
X55102142Y-83359666D01*
X55197380Y-83454904D01*
X55292619Y-83645380D01*
X55292619Y-84216809D01*
X55197380Y-84407285D01*
X55102142Y-84502523D01*
X54911666Y-84597761D01*
X54625952Y-84597761D01*
X57006904Y-83264428D02*
X57006904Y-84597761D01*
X56149761Y-83264428D02*
X56149761Y-84312047D01*
X56245000Y-84502523D01*
X56435476Y-84597761D01*
X56721190Y-84597761D01*
X56911666Y-84502523D01*
X57006904Y-84407285D01*
X57673571Y-83264428D02*
X58435476Y-83264428D01*
X57959285Y-82597761D02*
X57959285Y-84312047D01*
X58054523Y-84502523D01*
X58245000Y-84597761D01*
X58435476Y-84597761D01*
X52768809Y-80057761D02*
X54006904Y-80057761D01*
X53340238Y-80819666D01*
X53625952Y-80819666D01*
X53816428Y-80914904D01*
X53911666Y-81010142D01*
X54006904Y-81200619D01*
X54006904Y-81676809D01*
X53911666Y-81867285D01*
X53816428Y-81962523D01*
X53625952Y-82057761D01*
X53054523Y-82057761D01*
X52864047Y-81962523D01*
X52768809Y-81867285D01*
X54578333Y-80057761D02*
X55245000Y-82057761D01*
X55911666Y-80057761D01*
X56387857Y-80057761D02*
X57625952Y-80057761D01*
X56959285Y-80819666D01*
X57245000Y-80819666D01*
X57435476Y-80914904D01*
X57530714Y-81010142D01*
X57625952Y-81200619D01*
X57625952Y-81676809D01*
X57530714Y-81867285D01*
X57435476Y-81962523D01*
X57245000Y-82057761D01*
X56673571Y-82057761D01*
X56483095Y-81962523D01*
X56387857Y-81867285D01*
X53721190Y-77486000D02*
X53530714Y-77390761D01*
X53245000Y-77390761D01*
X52959285Y-77486000D01*
X52768809Y-77676476D01*
X52673571Y-77866952D01*
X52578333Y-78247904D01*
X52578333Y-78533619D01*
X52673571Y-78914571D01*
X52768809Y-79105047D01*
X52959285Y-79295523D01*
X53245000Y-79390761D01*
X53435476Y-79390761D01*
X53721190Y-79295523D01*
X53816428Y-79200285D01*
X53816428Y-78533619D01*
X53435476Y-78533619D01*
X54673571Y-79390761D02*
X54673571Y-77390761D01*
X55816428Y-79390761D01*
X55816428Y-77390761D01*
X56768809Y-79390761D02*
X56768809Y-77390761D01*
X57245000Y-77390761D01*
X57530714Y-77486000D01*
X57721190Y-77676476D01*
X57816428Y-77866952D01*
X57911666Y-78247904D01*
X57911666Y-78533619D01*
X57816428Y-78914571D01*
X57721190Y-79105047D01*
X57530714Y-79295523D01*
X57245000Y-79390761D01*
X56768809Y-79390761D01*
X63246190Y-63135000D02*
X63055714Y-63039761D01*
X62770000Y-63039761D01*
X62484285Y-63135000D01*
X62293809Y-63325476D01*
X62198571Y-63515952D01*
X62103333Y-63896904D01*
X62103333Y-64182619D01*
X62198571Y-64563571D01*
X62293809Y-64754047D01*
X62484285Y-64944523D01*
X62770000Y-65039761D01*
X62960476Y-65039761D01*
X63246190Y-64944523D01*
X63341428Y-64849285D01*
X63341428Y-64182619D01*
X62960476Y-64182619D01*
X64198571Y-65039761D02*
X64198571Y-63039761D01*
X65341428Y-65039761D01*
X65341428Y-63039761D01*
X66293809Y-65039761D02*
X66293809Y-63039761D01*
X66770000Y-63039761D01*
X67055714Y-63135000D01*
X67246190Y-63325476D01*
X67341428Y-63515952D01*
X67436666Y-63896904D01*
X67436666Y-64182619D01*
X67341428Y-64563571D01*
X67246190Y-64754047D01*
X67055714Y-64944523D01*
X66770000Y-65039761D01*
X66293809Y-65039761D01*
X62341428Y-72564523D02*
X62627142Y-72659761D01*
X63103333Y-72659761D01*
X63293809Y-72564523D01*
X63389047Y-72469285D01*
X63484285Y-72278809D01*
X63484285Y-72088333D01*
X63389047Y-71897857D01*
X63293809Y-71802619D01*
X63103333Y-71707380D01*
X62722380Y-71612142D01*
X62531904Y-71516904D01*
X62436666Y-71421666D01*
X62341428Y-71231190D01*
X62341428Y-71040714D01*
X62436666Y-70850238D01*
X62531904Y-70755000D01*
X62722380Y-70659761D01*
X63198571Y-70659761D01*
X63484285Y-70755000D01*
X64341428Y-72659761D02*
X64341428Y-70659761D01*
X64817619Y-70659761D01*
X65103333Y-70755000D01*
X65293809Y-70945476D01*
X65389047Y-71135952D01*
X65484285Y-71516904D01*
X65484285Y-71802619D01*
X65389047Y-72183571D01*
X65293809Y-72374047D01*
X65103333Y-72564523D01*
X64817619Y-72659761D01*
X64341428Y-72659761D01*
X66246190Y-72088333D02*
X67198571Y-72088333D01*
X66055714Y-72659761D02*
X66722380Y-70659761D01*
X67389047Y-72659761D01*
X62389047Y-69897523D02*
X62674761Y-69992761D01*
X63150952Y-69992761D01*
X63341428Y-69897523D01*
X63436666Y-69802285D01*
X63531904Y-69611809D01*
X63531904Y-69421333D01*
X63436666Y-69230857D01*
X63341428Y-69135619D01*
X63150952Y-69040380D01*
X62770000Y-68945142D01*
X62579523Y-68849904D01*
X62484285Y-68754666D01*
X62389047Y-68564190D01*
X62389047Y-68373714D01*
X62484285Y-68183238D01*
X62579523Y-68088000D01*
X62770000Y-67992761D01*
X63246190Y-67992761D01*
X63531904Y-68088000D01*
X65531904Y-69802285D02*
X65436666Y-69897523D01*
X65150952Y-69992761D01*
X64960476Y-69992761D01*
X64674761Y-69897523D01*
X64484285Y-69707047D01*
X64389047Y-69516571D01*
X64293809Y-69135619D01*
X64293809Y-68849904D01*
X64389047Y-68468952D01*
X64484285Y-68278476D01*
X64674761Y-68088000D01*
X64960476Y-67992761D01*
X65150952Y-67992761D01*
X65436666Y-68088000D01*
X65531904Y-68183238D01*
X67341428Y-69992761D02*
X66389047Y-69992761D01*
X66389047Y-67992761D01*
X64389047Y-65452761D02*
X63436666Y-65452761D01*
X63341428Y-66405142D01*
X63436666Y-66309904D01*
X63627142Y-66214666D01*
X64103333Y-66214666D01*
X64293809Y-66309904D01*
X64389047Y-66405142D01*
X64484285Y-66595619D01*
X64484285Y-67071809D01*
X64389047Y-67262285D01*
X64293809Y-67357523D01*
X64103333Y-67452761D01*
X63627142Y-67452761D01*
X63436666Y-67357523D01*
X63341428Y-67262285D01*
X65055714Y-65452761D02*
X65722380Y-67452761D01*
X66389047Y-65452761D01*
X91821190Y-57547000D02*
X91630714Y-57451761D01*
X91345000Y-57451761D01*
X91059285Y-57547000D01*
X90868809Y-57737476D01*
X90773571Y-57927952D01*
X90678333Y-58308904D01*
X90678333Y-58594619D01*
X90773571Y-58975571D01*
X90868809Y-59166047D01*
X91059285Y-59356523D01*
X91345000Y-59451761D01*
X91535476Y-59451761D01*
X91821190Y-59356523D01*
X91916428Y-59261285D01*
X91916428Y-58594619D01*
X91535476Y-58594619D01*
X92773571Y-59451761D02*
X92773571Y-57451761D01*
X93916428Y-59451761D01*
X93916428Y-57451761D01*
X94868809Y-59451761D02*
X94868809Y-57451761D01*
X95345000Y-57451761D01*
X95630714Y-57547000D01*
X95821190Y-57737476D01*
X95916428Y-57927952D01*
X96011666Y-58308904D01*
X96011666Y-58594619D01*
X95916428Y-58975571D01*
X95821190Y-59166047D01*
X95630714Y-59356523D01*
X95345000Y-59451761D01*
X94868809Y-59451761D01*
X90868809Y-54784761D02*
X92106904Y-54784761D01*
X91440238Y-55546666D01*
X91725952Y-55546666D01*
X91916428Y-55641904D01*
X92011666Y-55737142D01*
X92106904Y-55927619D01*
X92106904Y-56403809D01*
X92011666Y-56594285D01*
X91916428Y-56689523D01*
X91725952Y-56784761D01*
X91154523Y-56784761D01*
X90964047Y-56689523D01*
X90868809Y-56594285D01*
X92678333Y-54784761D02*
X93345000Y-56784761D01*
X94011666Y-54784761D01*
X94487857Y-54784761D02*
X95725952Y-54784761D01*
X95059285Y-55546666D01*
X95345000Y-55546666D01*
X95535476Y-55641904D01*
X95630714Y-55737142D01*
X95725952Y-55927619D01*
X95725952Y-56403809D01*
X95630714Y-56594285D01*
X95535476Y-56689523D01*
X95345000Y-56784761D01*
X94773571Y-56784761D01*
X94583095Y-56689523D01*
X94487857Y-56594285D01*
X92964047Y-52244761D02*
X92011666Y-52244761D01*
X91916428Y-53197142D01*
X92011666Y-53101904D01*
X92202142Y-53006666D01*
X92678333Y-53006666D01*
X92868809Y-53101904D01*
X92964047Y-53197142D01*
X93059285Y-53387619D01*
X93059285Y-53863809D01*
X92964047Y-54054285D01*
X92868809Y-54149523D01*
X92678333Y-54244761D01*
X92202142Y-54244761D01*
X92011666Y-54149523D01*
X91916428Y-54054285D01*
X93630714Y-52244761D02*
X94297380Y-54244761D01*
X94964047Y-52244761D01*
X90964047Y-49895238D02*
X91059285Y-49800000D01*
X91249761Y-49704761D01*
X91725952Y-49704761D01*
X91916428Y-49800000D01*
X92011666Y-49895238D01*
X92106904Y-50085714D01*
X92106904Y-50276190D01*
X92011666Y-50561904D01*
X90868809Y-51704761D01*
X92106904Y-51704761D01*
X93821190Y-50371428D02*
X93821190Y-51704761D01*
X93345000Y-49609523D02*
X92868809Y-51038095D01*
X94106904Y-51038095D01*
X94583095Y-49704761D02*
X95249761Y-51704761D01*
X95916428Y-49704761D01*
D12*
X38356000Y-138844000D02*
X38356000Y-133004000D01*
X39116000Y-139604000D02*
X38356000Y-138844000D01*
X44956000Y-138844000D02*
X44196000Y-139604000D01*
X44956000Y-133004000D02*
X44956000Y-138844000D01*
X39116000Y-139604000D02*
X40536000Y-139604000D01*
X38356000Y-133004000D02*
X40536000Y-133004000D01*
X44956000Y-133004000D02*
X42776000Y-133004000D01*
X44196000Y-139604000D02*
X42776000Y-139604000D01*
D13*
X30830000Y-125554000D02*
X22480000Y-125554000D01*
X22480000Y-125554000D02*
X22480000Y-118974000D01*
X22480000Y-118974000D02*
X38280000Y-118974000D01*
X38280000Y-118974000D02*
X38280000Y-125554000D01*
X38280000Y-125554000D02*
X37330000Y-125554000D01*
X36330000Y-125554000D02*
X32330000Y-125554000D01*
X30830000Y-71960000D02*
X22480000Y-71960000D01*
X22480000Y-71960000D02*
X22480000Y-65380000D01*
X22480000Y-65380000D02*
X38280000Y-65380000D01*
X38280000Y-65380000D02*
X38280000Y-71960000D01*
X38280000Y-71960000D02*
X37330000Y-71960000D01*
X36330000Y-71960000D02*
X32330000Y-71960000D01*
X30830000Y-94820000D02*
X22480000Y-94820000D01*
X22480000Y-94820000D02*
X22480000Y-88240000D01*
X22480000Y-88240000D02*
X38280000Y-88240000D01*
X38280000Y-88240000D02*
X38280000Y-94820000D01*
X38280000Y-94820000D02*
X37330000Y-94820000D01*
X36330000Y-94820000D02*
X32330000Y-94820000D01*
X30830000Y-87200000D02*
X22480000Y-87200000D01*
X22480000Y-87200000D02*
X22480000Y-80620000D01*
X22480000Y-80620000D02*
X38280000Y-80620000D01*
X38280000Y-80620000D02*
X38280000Y-87200000D01*
X38280000Y-87200000D02*
X37330000Y-87200000D01*
X36330000Y-87200000D02*
X32330000Y-87200000D01*
D14*
X69596000Y-78486000D02*
X69596000Y-77216000D01*
X69596000Y-77216000D02*
X77216000Y-77216000D01*
X77216000Y-77216000D02*
X77216000Y-78486000D01*
X69596000Y-83566000D02*
X77216000Y-83566000D01*
X77216000Y-83566000D02*
X77216000Y-78486000D01*
X69596000Y-83566000D02*
X69596000Y-78486000D01*
X74676000Y-110998000D02*
X72136000Y-110998000D01*
X72136000Y-110998000D02*
X72136000Y-106426000D01*
X72136000Y-106426000D02*
X74676000Y-106426000D01*
X74676000Y-106426000D02*
X74676000Y-110998000D01*
X68326000Y-100711000D02*
X78486000Y-100711000D01*
X78486000Y-90551000D02*
X68326000Y-90551000D01*
X78486000Y-100711000D02*
X78486000Y-90551000D01*
X68326000Y-100711000D02*
X68326000Y-90551000D01*
X82296000Y-78486000D02*
X82296000Y-114046000D01*
X82296000Y-114046000D02*
X64516000Y-114046000D01*
X64516000Y-114046000D02*
X64516000Y-78486000D01*
X64516000Y-78486000D02*
X82296000Y-78486000D01*
X78486000Y-101346000D02*
X78486000Y-103886000D01*
X78486000Y-103886000D02*
X75311000Y-103886000D01*
X75311000Y-103886000D02*
X75311000Y-101346000D01*
X75311000Y-101346000D02*
X78486000Y-101346000D01*
D13*
G36*
X74041000Y-93091000D02*
G01*
X74295000Y-93345000D01*
X73914000Y-93599000D01*
X73660000Y-93345000D01*
X74041000Y-93091000D01*
G37*
X74041000Y-93091000D02*
X74295000Y-93345000D01*
X73914000Y-93599000D01*
X73660000Y-93345000D01*
X74041000Y-93091000D01*
G36*
X73533000Y-93472000D02*
G01*
X73787000Y-93726000D01*
X73406000Y-93980000D01*
X73152000Y-93726000D01*
X73533000Y-93472000D01*
G37*
X73533000Y-93472000D02*
X73787000Y-93726000D01*
X73406000Y-93980000D01*
X73152000Y-93726000D01*
X73533000Y-93472000D01*
G36*
X73025000Y-93853000D02*
G01*
X73279000Y-94107000D01*
X72898000Y-94361000D01*
X72644000Y-94107000D01*
X73025000Y-93853000D01*
G37*
X73025000Y-93853000D02*
X73279000Y-94107000D01*
X72898000Y-94361000D01*
X72644000Y-94107000D01*
X73025000Y-93853000D01*
G36*
X73914000Y-93853000D02*
G01*
X74168000Y-94107000D01*
X73787000Y-94361000D01*
X73533000Y-94107000D01*
X73914000Y-93853000D01*
G37*
X73914000Y-93853000D02*
X74168000Y-94107000D01*
X73787000Y-94361000D01*
X73533000Y-94107000D01*
X73914000Y-93853000D01*
G36*
X73406000Y-94234000D02*
G01*
X73660000Y-94488000D01*
X73279000Y-94742000D01*
X73025000Y-94488000D01*
X73406000Y-94234000D01*
G37*
X73406000Y-94234000D02*
X73660000Y-94488000D01*
X73279000Y-94742000D01*
X73025000Y-94488000D01*
X73406000Y-94234000D01*
G36*
X72898000Y-94615000D02*
G01*
X73152000Y-94869000D01*
X72771000Y-95123000D01*
X72517000Y-94869000D01*
X72898000Y-94615000D01*
G37*
X72898000Y-94615000D02*
X73152000Y-94869000D01*
X72771000Y-95123000D01*
X72517000Y-94869000D01*
X72898000Y-94615000D01*
G36*
X73660000Y-92710000D02*
G01*
X73914000Y-92964000D01*
X73533000Y-93218000D01*
X73279000Y-92964000D01*
X73660000Y-92710000D01*
G37*
X73660000Y-92710000D02*
X73914000Y-92964000D01*
X73533000Y-93218000D01*
X73279000Y-92964000D01*
X73660000Y-92710000D01*
G36*
X73279000Y-92329000D02*
G01*
X73533000Y-92583000D01*
X73152000Y-92837000D01*
X72898000Y-92583000D01*
X73279000Y-92329000D01*
G37*
X73279000Y-92329000D02*
X73533000Y-92583000D01*
X73152000Y-92837000D01*
X72898000Y-92583000D01*
X73279000Y-92329000D01*
D12*
X71936000Y-106156000D02*
X71936000Y-108156000D01*
X69796000Y-108156000D02*
X69796000Y-106156000D01*
D13*
X72917000Y-143878000D02*
X42107000Y-143878000D01*
X42107000Y-143878000D02*
X42107000Y-158528000D01*
X42107000Y-158528000D02*
X72917000Y-158528000D01*
X72917000Y-158528000D02*
X72917000Y-143878000D01*
D15*
X91540000Y-88776000D02*
X91540000Y-88776000D01*
X91340000Y-88776000D02*
X91340000Y-88776000D01*
D13*
X99790000Y-72626000D02*
X97940000Y-72626000D01*
X99790000Y-76876000D02*
X99790000Y-72626000D01*
X99790000Y-86376000D02*
X99790000Y-82876000D01*
X96940000Y-86376000D02*
X99790000Y-86376000D01*
X88090000Y-86376000D02*
X90940000Y-86376000D01*
X88090000Y-82876000D02*
X88090000Y-86376000D01*
X88090000Y-72626000D02*
X88090000Y-76876000D01*
X89940000Y-72626000D02*
X88090000Y-72626000D01*
D15*
X91340000Y-88776000D02*
G75*
G02*
X91540000Y-88776000I100000J0D01*
G01*
X91540000Y-88776000D02*
G75*
G02*
X91340000Y-88776000I-100000J0D01*
G01*
D12*
X87062000Y-52070000D02*
X87062000Y-59750000D01*
X87062000Y-59750000D02*
X89722000Y-59750000D01*
X89722000Y-59750000D02*
X89722000Y-52070000D01*
X89722000Y-52070000D02*
X87062000Y-52070000D01*
X87062000Y-50800000D02*
X87062000Y-49470000D01*
X87062000Y-49470000D02*
X88392000Y-49470000D01*
D13*
X71393000Y-30956000D02*
X40583000Y-30956000D01*
X40583000Y-30956000D02*
X40583000Y-45606000D01*
X40583000Y-45606000D02*
X71393000Y-45606000D01*
X71393000Y-45606000D02*
X71393000Y-30956000D01*
X64383000Y-25056000D02*
X47593000Y-25056000D01*
X47593000Y-25056000D02*
X47593000Y-30956000D01*
X47593000Y-30956000D02*
X64383000Y-30956000D01*
X64383000Y-30956000D02*
X64383000Y-25056000D01*
D10*
X61768000Y-48456000D02*
X61768000Y-48456000D01*
X61668000Y-48456000D02*
X61668000Y-48456000D01*
X61768000Y-48456000D02*
X61768000Y-48456000D01*
X61668000Y-48456000D02*
G75*
G02*
X61768000Y-48456000I50000J0D01*
G01*
X61768000Y-48456000D02*
G75*
G02*
X61668000Y-48456000I-50000J0D01*
G01*
X61668000Y-48456000D02*
G75*
G02*
X61768000Y-48456000I50000J0D01*
G01*
D12*
X59745000Y-59188000D02*
X60945000Y-59188000D01*
X60945000Y-53588000D02*
X59745000Y-53588000D01*
X86376000Y-143056000D02*
X84376000Y-143056000D01*
X84376000Y-140916000D02*
X86376000Y-140916000D01*
X86376000Y-134166000D02*
X84376000Y-134166000D01*
X84376000Y-132026000D02*
X86376000Y-132026000D01*
X86376000Y-125530000D02*
X84376000Y-125530000D01*
X84376000Y-123390000D02*
X86376000Y-123390000D01*
X43640000Y-122990000D02*
X41640000Y-122990000D01*
X41640000Y-120850000D02*
X43640000Y-120850000D01*
X43640000Y-115370000D02*
X41640000Y-115370000D01*
X41640000Y-113230000D02*
X43640000Y-113230000D01*
X43640000Y-107750000D02*
X41640000Y-107750000D01*
X41640000Y-105610000D02*
X43640000Y-105610000D01*
X43640000Y-100130000D02*
X41640000Y-100130000D01*
X41640000Y-97990000D02*
X43640000Y-97990000D01*
X43640000Y-92510000D02*
X41640000Y-92510000D01*
X41640000Y-90370000D02*
X43640000Y-90370000D01*
X43640000Y-84890000D02*
X41640000Y-84890000D01*
X41640000Y-82750000D02*
X43640000Y-82750000D01*
X43640000Y-77270000D02*
X41640000Y-77270000D01*
X41640000Y-75130000D02*
X43640000Y-75130000D01*
X43640000Y-69650000D02*
X41640000Y-69650000D01*
X41640000Y-67510000D02*
X43640000Y-67510000D01*
X76381000Y-86027000D02*
X76381000Y-88027000D01*
X74241000Y-88027000D02*
X74241000Y-86027000D01*
X72444000Y-86027000D02*
X72444000Y-88027000D01*
X70304000Y-88027000D02*
X70304000Y-86027000D01*
D13*
X30830000Y-110060000D02*
X22480000Y-110060000D01*
X22480000Y-110060000D02*
X22480000Y-103480000D01*
X22480000Y-103480000D02*
X38280000Y-103480000D01*
X38280000Y-103480000D02*
X38280000Y-110060000D01*
X38280000Y-110060000D02*
X37330000Y-110060000D01*
X36330000Y-110060000D02*
X32330000Y-110060000D01*
X30830000Y-117680000D02*
X22480000Y-117680000D01*
X22480000Y-117680000D02*
X22480000Y-111100000D01*
X22480000Y-111100000D02*
X38280000Y-111100000D01*
X38280000Y-111100000D02*
X38280000Y-117680000D01*
X38280000Y-117680000D02*
X37330000Y-117680000D01*
X36330000Y-117680000D02*
X32330000Y-117680000D01*
X30830000Y-79580000D02*
X22480000Y-79580000D01*
X22480000Y-79580000D02*
X22480000Y-73000000D01*
X22480000Y-73000000D02*
X38280000Y-73000000D01*
X38280000Y-73000000D02*
X38280000Y-79580000D01*
X38280000Y-79580000D02*
X37330000Y-79580000D01*
X36330000Y-79580000D02*
X32330000Y-79580000D01*
X30830000Y-102440000D02*
X22480000Y-102440000D01*
X22480000Y-102440000D02*
X22480000Y-95860000D01*
X22480000Y-95860000D02*
X38280000Y-95860000D01*
X38280000Y-95860000D02*
X38280000Y-102440000D01*
X38280000Y-102440000D02*
X37330000Y-102440000D01*
X36330000Y-102440000D02*
X32330000Y-102440000D01*
D12*
X58347000Y-122793000D02*
X58347000Y-124793000D01*
X56207000Y-124793000D02*
X56207000Y-122793000D01*
X53781000Y-125663000D02*
X52451000Y-125663000D01*
X53781000Y-124333000D02*
X53781000Y-125663000D01*
X53781000Y-123063000D02*
X51121000Y-123063000D01*
X51121000Y-123063000D02*
X51121000Y-120463000D01*
X53781000Y-123063000D02*
X53781000Y-120463000D01*
X53781000Y-120463000D02*
X51121000Y-120463000D01*
D14*
X71458000Y-94580000D02*
X71458000Y-94630000D01*
X75608000Y-94580000D02*
X75608000Y-94725000D01*
X75608000Y-99730000D02*
X75608000Y-99585000D01*
X71458000Y-99730000D02*
X71458000Y-99585000D01*
X71458000Y-94580000D02*
X75608000Y-94580000D01*
X71458000Y-99730000D02*
X75608000Y-99730000D01*
X71458000Y-94630000D02*
X70058000Y-94630000D01*
D12*
X49978000Y-134604000D02*
X49978000Y-136254000D01*
X49978000Y-136254000D02*
X60258000Y-136254000D01*
X60258000Y-136254000D02*
X60258000Y-130954000D01*
X60258000Y-130954000D02*
X49978000Y-130954000D01*
X49978000Y-130954000D02*
X49978000Y-132604000D01*
X49918000Y-138744000D02*
X60318000Y-138744000D01*
X60318000Y-138744000D02*
X60318000Y-128464000D01*
X60318000Y-128464000D02*
X49918000Y-128464000D01*
X49918000Y-128464000D02*
X49918000Y-138744000D01*
X49978000Y-132604000D02*
G75*
G02*
X49978000Y-134604000I0J-1000000D01*
G01*
X47946000Y-67802000D02*
X47946000Y-69452000D01*
X47946000Y-69452000D02*
X58226000Y-69452000D01*
X58226000Y-69452000D02*
X58226000Y-64152000D01*
X58226000Y-64152000D02*
X47946000Y-64152000D01*
X47946000Y-64152000D02*
X47946000Y-65802000D01*
X47886000Y-71942000D02*
X58286000Y-71942000D01*
X58286000Y-71942000D02*
X58286000Y-61662000D01*
X58286000Y-61662000D02*
X47886000Y-61662000D01*
X47886000Y-61662000D02*
X47886000Y-71942000D01*
X47946000Y-65802000D02*
G75*
G02*
X47946000Y-67802000I0J-1000000D01*
G01*
X81698000Y-65345000D02*
X81698000Y-63015000D01*
X79248000Y-65345000D02*
X81698000Y-65345000D01*
X81368000Y-53075000D02*
X81368000Y-65015000D01*
X73518000Y-53075000D02*
X81368000Y-53075000D01*
X73518000Y-65015000D02*
X73518000Y-53075000D01*
X81368000Y-65015000D02*
X73518000Y-65015000D01*
X54118000Y-97730000D02*
X52468000Y-97730000D01*
X52468000Y-97730000D02*
X52468000Y-118170000D01*
X52468000Y-118170000D02*
X57768000Y-118170000D01*
X57768000Y-118170000D02*
X57768000Y-97730000D01*
X57768000Y-97730000D02*
X56118000Y-97730000D01*
X49978000Y-97670000D02*
X49978000Y-118230000D01*
X49978000Y-118230000D02*
X60258000Y-118230000D01*
X60258000Y-118230000D02*
X60258000Y-97670000D01*
X60258000Y-97670000D02*
X49978000Y-97670000D01*
X56118000Y-97730000D02*
G75*
G02*
X54118000Y-97730000I-1000000J0D01*
G01*
X91528000Y-100822000D02*
X91528000Y-105322000D01*
X95528000Y-99572000D02*
X94028000Y-99572000D01*
X98028000Y-105322000D02*
X98028000Y-100822000D01*
X94028000Y-106572000D02*
X95528000Y-106572000D01*
X91528000Y-112506000D02*
X91528000Y-117006000D01*
X95528000Y-111256000D02*
X94028000Y-111256000D01*
X98028000Y-117006000D02*
X98028000Y-112506000D01*
X94028000Y-118256000D02*
X95528000Y-118256000D01*
X49844000Y-88586000D02*
X47184000Y-88586000D01*
X49844000Y-91186000D02*
X49844000Y-88586000D01*
X47184000Y-91186000D02*
X47184000Y-88586000D01*
X49844000Y-91186000D02*
X47184000Y-91186000D01*
X49844000Y-92456000D02*
X49844000Y-93786000D01*
X49844000Y-93786000D02*
X48514000Y-93786000D01*
X68266000Y-65278000D02*
X68266000Y-72958000D01*
X68266000Y-72958000D02*
X70926000Y-72958000D01*
X70926000Y-72958000D02*
X70926000Y-65278000D01*
X70926000Y-65278000D02*
X68266000Y-65278000D01*
X68266000Y-64008000D02*
X68266000Y-62678000D01*
X68266000Y-62678000D02*
X69596000Y-62678000D01*
X48962000Y-79756000D02*
X48962000Y-87436000D01*
X48962000Y-87436000D02*
X51622000Y-87436000D01*
X51622000Y-87436000D02*
X51622000Y-79756000D01*
X51622000Y-79756000D02*
X48962000Y-79756000D01*
X48962000Y-78486000D02*
X48962000Y-77156000D01*
X48962000Y-77156000D02*
X50292000Y-77156000D01*
X44504000Y-53552000D02*
X44504000Y-55552000D01*
X42364000Y-55552000D02*
X42364000Y-53552000D01*
X95972000Y-141986000D02*
G75*
G03*
X95972000Y-141986000I-2500000J0D01*
G01*
X90912000Y-140346000D02*
X90912000Y-143626000D01*
X96511999Y-141987958D02*
G75*
G03*
X90912000Y-140346488I-3039999J1958D01*
G01*
X96511999Y-141984042D02*
G75*
G02*
X90912000Y-143625512I-3039999J-1958D01*
G01*
X95972000Y-133096000D02*
G75*
G03*
X95972000Y-133096000I-2500000J0D01*
G01*
X90912000Y-131456000D02*
X90912000Y-134736000D01*
X96511999Y-133097958D02*
G75*
G03*
X90912000Y-131456488I-3039999J1958D01*
G01*
X96511999Y-133094042D02*
G75*
G02*
X90912000Y-134735512I-3039999J-1958D01*
G01*
X95972000Y-124460000D02*
G75*
G03*
X95972000Y-124460000I-2500000J0D01*
G01*
X90912000Y-122820000D02*
X90912000Y-126100000D01*
X96511999Y-124461958D02*
G75*
G03*
X90912000Y-122820488I-3039999J1958D01*
G01*
X96511999Y-124458042D02*
G75*
G02*
X90912000Y-126099512I-3039999J-1958D01*
G01*
X65020000Y-55420000D02*
X65020000Y-57420000D01*
X67060000Y-57420000D02*
X67060000Y-55420000D01*
X48002000Y-53642000D02*
X48002000Y-55642000D01*
X50042000Y-55642000D02*
X50042000Y-53642000D01*
X53336000Y-53578000D02*
X53336000Y-55578000D01*
X55376000Y-55578000D02*
X55376000Y-53578000D01*
X39414000Y-56786000D02*
X39414000Y-53586000D01*
X37294000Y-53586000D02*
X37294000Y-56786000D01*
X37294000Y-56786000D02*
X39414000Y-56786000D01*
X31070000Y-58871000D02*
X31070000Y-53261000D01*
X34970000Y-58871000D02*
X34970000Y-53261000D01*
X31070000Y-58871000D02*
X34970000Y-58871000D01*
X73410000Y-127518000D02*
G75*
G03*
X73410000Y-127518000I-6100000J0D01*
G01*
X80550000Y-52068000D02*
X74710000Y-52068000D01*
X81310000Y-51308000D02*
X80550000Y-52068000D01*
X80550000Y-45468000D02*
X81310000Y-46228000D01*
X74710000Y-45468000D02*
X80550000Y-45468000D01*
X81310000Y-51308000D02*
X81310000Y-49888000D01*
X74710000Y-52068000D02*
X74710000Y-49888000D01*
X74710000Y-45468000D02*
X74710000Y-47648000D01*
X81310000Y-46228000D02*
X81310000Y-47648000D01*
X61210000Y-100568000D02*
X61210000Y-102568000D01*
X63250000Y-102568000D02*
X63250000Y-100568000D01*
X72438000Y-93349000D02*
X74438000Y-93349000D01*
X74438000Y-91309000D02*
X72438000Y-91309000D01*
X56150000Y-139188000D02*
X54150000Y-139188000D01*
X54150000Y-141228000D02*
X56150000Y-141228000D01*
X52308000Y-74680000D02*
X54308000Y-74680000D01*
X54308000Y-72640000D02*
X52308000Y-72640000D01*
X63605000Y-120087000D02*
X67205000Y-120087000D01*
X67729184Y-119359795D02*
G75*
G02*
X67205000Y-120087000I-2324184J1122795D01*
G01*
X67761400Y-117138193D02*
G75*
G03*
X65405000Y-115637000I-2356400J-1098807D01*
G01*
X63048600Y-117138193D02*
G75*
G02*
X65405000Y-115637000I2356400J-1098807D01*
G01*
X63080816Y-119359795D02*
G75*
G03*
X63605000Y-120087000I2324184J1122795D01*
G01*
X79772000Y-127562000D02*
X77772000Y-127562000D01*
X77772000Y-125422000D02*
X79772000Y-125422000D01*
X79772000Y-131626000D02*
X77772000Y-131626000D01*
X77772000Y-129486000D02*
X79772000Y-129486000D01*
X79772000Y-123498000D02*
X77772000Y-123498000D01*
X77772000Y-121358000D02*
X79772000Y-121358000D01*
X77740000Y-134566000D02*
X79740000Y-134566000D01*
X79740000Y-136706000D02*
X77740000Y-136706000D01*
X71104000Y-119072000D02*
X73104000Y-119072000D01*
X73104000Y-121212000D02*
X71104000Y-121212000D01*
D14*
X46443142Y-136470666D02*
X46490761Y-136518285D01*
X46538380Y-136661142D01*
X46538380Y-136756380D01*
X46490761Y-136899238D01*
X46395523Y-136994476D01*
X46300285Y-137042095D01*
X46109809Y-137089714D01*
X45966952Y-137089714D01*
X45776476Y-137042095D01*
X45681238Y-136994476D01*
X45586000Y-136899238D01*
X45538380Y-136756380D01*
X45538380Y-136661142D01*
X45586000Y-136518285D01*
X45633619Y-136470666D01*
X45538380Y-135565904D02*
X45538380Y-136042095D01*
X46014571Y-136089714D01*
X45966952Y-136042095D01*
X45919333Y-135946857D01*
X45919333Y-135708761D01*
X45966952Y-135613523D01*
X46014571Y-135565904D01*
X46109809Y-135518285D01*
X46347904Y-135518285D01*
X46443142Y-135565904D01*
X46490761Y-135613523D01*
X46538380Y-135708761D01*
X46538380Y-135946857D01*
X46490761Y-136042095D01*
X46443142Y-136089714D01*
X44637428Y-140964952D02*
X44637428Y-140203047D01*
X45018380Y-140584000D02*
X44256476Y-140584000D01*
D16*
X38595904Y-124780523D02*
X38595904Y-125687666D01*
X38535428Y-125869095D01*
X38414476Y-125990047D01*
X38233047Y-126050523D01*
X38112095Y-126050523D01*
X39865904Y-126050523D02*
X39140190Y-126050523D01*
X39503047Y-126050523D02*
X39503047Y-124780523D01*
X39382095Y-124961952D01*
X39261142Y-125082904D01*
X39140190Y-125143380D01*
X40652095Y-124780523D02*
X40773047Y-124780523D01*
X40894000Y-124841000D01*
X40954476Y-124901476D01*
X41014952Y-125022428D01*
X41075428Y-125264333D01*
X41075428Y-125566714D01*
X41014952Y-125808619D01*
X40954476Y-125929571D01*
X40894000Y-125990047D01*
X40773047Y-126050523D01*
X40652095Y-126050523D01*
X40531142Y-125990047D01*
X40470666Y-125929571D01*
X40410190Y-125808619D01*
X40349714Y-125566714D01*
X40349714Y-125264333D01*
X40410190Y-125022428D01*
X40470666Y-124901476D01*
X40531142Y-124841000D01*
X40652095Y-124780523D01*
X38692666Y-71186523D02*
X38692666Y-72093666D01*
X38632190Y-72275095D01*
X38511238Y-72396047D01*
X38329809Y-72456523D01*
X38208857Y-72456523D01*
X39176476Y-71186523D02*
X39962666Y-71186523D01*
X39539333Y-71670333D01*
X39720761Y-71670333D01*
X39841714Y-71730809D01*
X39902190Y-71791285D01*
X39962666Y-71912238D01*
X39962666Y-72214619D01*
X39902190Y-72335571D01*
X39841714Y-72396047D01*
X39720761Y-72456523D01*
X39357904Y-72456523D01*
X39236952Y-72396047D01*
X39176476Y-72335571D01*
X38692666Y-94046523D02*
X38692666Y-94953666D01*
X38632190Y-95135095D01*
X38511238Y-95256047D01*
X38329809Y-95316523D01*
X38208857Y-95316523D01*
X39841714Y-94046523D02*
X39599809Y-94046523D01*
X39478857Y-94107000D01*
X39418380Y-94167476D01*
X39297428Y-94348904D01*
X39236952Y-94590809D01*
X39236952Y-95074619D01*
X39297428Y-95195571D01*
X39357904Y-95256047D01*
X39478857Y-95316523D01*
X39720761Y-95316523D01*
X39841714Y-95256047D01*
X39902190Y-95195571D01*
X39962666Y-95074619D01*
X39962666Y-94772238D01*
X39902190Y-94651285D01*
X39841714Y-94590809D01*
X39720761Y-94530333D01*
X39478857Y-94530333D01*
X39357904Y-94590809D01*
X39297428Y-94651285D01*
X39236952Y-94772238D01*
X38946666Y-86426523D02*
X38946666Y-87333666D01*
X38886190Y-87515095D01*
X38765238Y-87636047D01*
X38583809Y-87696523D01*
X38462857Y-87696523D01*
X40156190Y-86426523D02*
X39551428Y-86426523D01*
X39490952Y-87031285D01*
X39551428Y-86970809D01*
X39672380Y-86910333D01*
X39974761Y-86910333D01*
X40095714Y-86970809D01*
X40156190Y-87031285D01*
X40216666Y-87152238D01*
X40216666Y-87454619D01*
X40156190Y-87575571D01*
X40095714Y-87636047D01*
X39974761Y-87696523D01*
X39672380Y-87696523D01*
X39551428Y-87636047D01*
X39490952Y-87575571D01*
D14*
X78232095Y-76922380D02*
X78232095Y-77731904D01*
X78279714Y-77827142D01*
X78327333Y-77874761D01*
X78422571Y-77922380D01*
X78613047Y-77922380D01*
X78708285Y-77874761D01*
X78755904Y-77827142D01*
X78803523Y-77731904D01*
X78803523Y-76922380D01*
X79803523Y-77922380D02*
X79232095Y-77922380D01*
X79517809Y-77922380D02*
X79517809Y-76922380D01*
X79422571Y-77065238D01*
X79327333Y-77160476D01*
X79232095Y-77208095D01*
X72006000Y-98360666D02*
X72006000Y-97660666D01*
X72172666Y-97660666D01*
X72272666Y-97694000D01*
X72339333Y-97760666D01*
X72372666Y-97827333D01*
X72406000Y-97960666D01*
X72406000Y-98060666D01*
X72372666Y-98194000D01*
X72339333Y-98260666D01*
X72272666Y-98327333D01*
X72172666Y-98360666D01*
X72006000Y-98360666D01*
X72606000Y-97660666D02*
X72839333Y-98360666D01*
X73072666Y-97660666D01*
X73639333Y-98360666D02*
X73306000Y-98360666D01*
X73306000Y-97660666D01*
X74172666Y-97660666D02*
X74039333Y-97660666D01*
X73972666Y-97694000D01*
X73939333Y-97727333D01*
X73872666Y-97827333D01*
X73839333Y-97960666D01*
X73839333Y-98227333D01*
X73872666Y-98294000D01*
X73906000Y-98327333D01*
X73972666Y-98360666D01*
X74106000Y-98360666D01*
X74172666Y-98327333D01*
X74206000Y-98294000D01*
X74239333Y-98227333D01*
X74239333Y-98060666D01*
X74206000Y-97994000D01*
X74172666Y-97960666D01*
X74106000Y-97927333D01*
X73972666Y-97927333D01*
X73906000Y-97960666D01*
X73872666Y-97994000D01*
X73839333Y-98060666D01*
X74506000Y-98160666D02*
X74839333Y-98160666D01*
X74439333Y-98360666D02*
X74672666Y-97660666D01*
X74906000Y-98360666D01*
X70322666Y-96836666D02*
X70322666Y-96136666D01*
X70556000Y-96636666D01*
X70789333Y-96136666D01*
X70789333Y-96836666D01*
X71122666Y-96836666D02*
X71122666Y-96136666D01*
X71456000Y-96836666D02*
X71456000Y-96136666D01*
X71689333Y-96636666D01*
X71922666Y-96136666D01*
X71922666Y-96836666D01*
X72189333Y-96136666D02*
X72656000Y-96836666D01*
X72656000Y-96136666D02*
X72189333Y-96836666D01*
X73322666Y-96836666D02*
X73089333Y-96503333D01*
X72922666Y-96836666D02*
X72922666Y-96136666D01*
X73189333Y-96136666D01*
X73256000Y-96170000D01*
X73289333Y-96203333D01*
X73322666Y-96270000D01*
X73322666Y-96370000D01*
X73289333Y-96436666D01*
X73256000Y-96470000D01*
X73189333Y-96503333D01*
X72922666Y-96503333D01*
X73522666Y-96136666D02*
X73922666Y-96136666D01*
X73722666Y-96836666D02*
X73722666Y-96136666D01*
X74522666Y-96836666D02*
X74122666Y-96836666D01*
X74322666Y-96836666D02*
X74322666Y-96136666D01*
X74256000Y-96236666D01*
X74189333Y-96303333D01*
X74122666Y-96336666D01*
X74956000Y-96136666D02*
X75022666Y-96136666D01*
X75089333Y-96170000D01*
X75122666Y-96203333D01*
X75156000Y-96270000D01*
X75189333Y-96403333D01*
X75189333Y-96570000D01*
X75156000Y-96703333D01*
X75122666Y-96770000D01*
X75089333Y-96803333D01*
X75022666Y-96836666D01*
X74956000Y-96836666D01*
X74889333Y-96803333D01*
X74856000Y-96770000D01*
X74822666Y-96703333D01*
X74789333Y-96570000D01*
X74789333Y-96403333D01*
X74822666Y-96270000D01*
X74856000Y-96203333D01*
X74889333Y-96170000D01*
X74956000Y-96136666D01*
X75789333Y-96136666D02*
X75656000Y-96136666D01*
X75589333Y-96170000D01*
X75556000Y-96203333D01*
X75489333Y-96303333D01*
X75456000Y-96436666D01*
X75456000Y-96703333D01*
X75489333Y-96770000D01*
X75522666Y-96803333D01*
X75589333Y-96836666D01*
X75722666Y-96836666D01*
X75789333Y-96803333D01*
X75822666Y-96770000D01*
X75856000Y-96703333D01*
X75856000Y-96536666D01*
X75822666Y-96470000D01*
X75789333Y-96436666D01*
X75722666Y-96403333D01*
X75589333Y-96403333D01*
X75522666Y-96436666D01*
X75489333Y-96470000D01*
X75456000Y-96536666D01*
X76122666Y-96203333D02*
X76156000Y-96170000D01*
X76222666Y-96136666D01*
X76389333Y-96136666D01*
X76456000Y-96170000D01*
X76489333Y-96203333D01*
X76522666Y-96270000D01*
X76522666Y-96336666D01*
X76489333Y-96436666D01*
X76089333Y-96836666D01*
X76522666Y-96836666D01*
X69468380Y-107798857D02*
X68992190Y-108132190D01*
X69468380Y-108370285D02*
X68468380Y-108370285D01*
X68468380Y-107989333D01*
X68516000Y-107894095D01*
X68563619Y-107846476D01*
X68658857Y-107798857D01*
X68801714Y-107798857D01*
X68896952Y-107846476D01*
X68944571Y-107894095D01*
X68992190Y-107989333D01*
X68992190Y-108370285D01*
X68563619Y-107417904D02*
X68516000Y-107370285D01*
X68468380Y-107275047D01*
X68468380Y-107036952D01*
X68516000Y-106941714D01*
X68563619Y-106894095D01*
X68658857Y-106846476D01*
X68754095Y-106846476D01*
X68896952Y-106894095D01*
X69468380Y-107465523D01*
X69468380Y-106846476D01*
X68468380Y-106227428D02*
X68468380Y-106132190D01*
X68516000Y-106036952D01*
X68563619Y-105989333D01*
X68658857Y-105941714D01*
X68849333Y-105894095D01*
X69087428Y-105894095D01*
X69277904Y-105941714D01*
X69373142Y-105989333D01*
X69420761Y-106036952D01*
X69468380Y-106132190D01*
X69468380Y-106227428D01*
X69420761Y-106322666D01*
X69373142Y-106370285D01*
X69277904Y-106417904D01*
X69087428Y-106465523D01*
X68849333Y-106465523D01*
X68658857Y-106417904D01*
X68563619Y-106370285D01*
X68516000Y-106322666D01*
X68468380Y-106227428D01*
D16*
X71966666Y-141544523D02*
X71966666Y-142451666D01*
X71906190Y-142633095D01*
X71785238Y-142754047D01*
X71603809Y-142814523D01*
X71482857Y-142814523D01*
X72510952Y-141665476D02*
X72571428Y-141605000D01*
X72692380Y-141544523D01*
X72994761Y-141544523D01*
X73115714Y-141605000D01*
X73176190Y-141665476D01*
X73236666Y-141786428D01*
X73236666Y-141907380D01*
X73176190Y-142088809D01*
X72450476Y-142814523D01*
X73236666Y-142814523D01*
X92972380Y-90236523D02*
X92972380Y-91264619D01*
X93032857Y-91385571D01*
X93093333Y-91446047D01*
X93214285Y-91506523D01*
X93456190Y-91506523D01*
X93577142Y-91446047D01*
X93637619Y-91385571D01*
X93698095Y-91264619D01*
X93698095Y-90236523D01*
X94181904Y-90236523D02*
X95028571Y-90236523D01*
X94484285Y-91506523D01*
D14*
X89487476Y-47712380D02*
X89487476Y-48426666D01*
X89439857Y-48569523D01*
X89344619Y-48664761D01*
X89201761Y-48712380D01*
X89106523Y-48712380D01*
X90487476Y-48712380D02*
X89916047Y-48712380D01*
X90201761Y-48712380D02*
X90201761Y-47712380D01*
X90106523Y-47855238D01*
X90011285Y-47950476D01*
X89916047Y-47998095D01*
X91439857Y-48712380D02*
X90868428Y-48712380D01*
X91154142Y-48712380D02*
X91154142Y-47712380D01*
X91058904Y-47855238D01*
X90963666Y-47950476D01*
X90868428Y-47998095D01*
D16*
X70696666Y-47564523D02*
X70696666Y-48471666D01*
X70636190Y-48653095D01*
X70515238Y-48774047D01*
X70333809Y-48834523D01*
X70212857Y-48834523D01*
X71966666Y-48834523D02*
X71240952Y-48834523D01*
X71603809Y-48834523D02*
X71603809Y-47564523D01*
X71482857Y-47745952D01*
X71361904Y-47866904D01*
X71240952Y-47927380D01*
D14*
X60178333Y-52840380D02*
X59702142Y-52840380D01*
X59702142Y-51840380D01*
X61035476Y-52840380D02*
X60464047Y-52840380D01*
X60749761Y-52840380D02*
X60749761Y-51840380D01*
X60654523Y-51983238D01*
X60559285Y-52078476D01*
X60464047Y-52126095D01*
X84733142Y-144288380D02*
X84399809Y-143812190D01*
X84161714Y-144288380D02*
X84161714Y-143288380D01*
X84542666Y-143288380D01*
X84637904Y-143336000D01*
X84685523Y-143383619D01*
X84733142Y-143478857D01*
X84733142Y-143621714D01*
X84685523Y-143716952D01*
X84637904Y-143764571D01*
X84542666Y-143812190D01*
X84161714Y-143812190D01*
X85685523Y-144288380D02*
X85114095Y-144288380D01*
X85399809Y-144288380D02*
X85399809Y-143288380D01*
X85304571Y-143431238D01*
X85209333Y-143526476D01*
X85114095Y-143574095D01*
X86018857Y-143288380D02*
X86637904Y-143288380D01*
X86304571Y-143669333D01*
X86447428Y-143669333D01*
X86542666Y-143716952D01*
X86590285Y-143764571D01*
X86637904Y-143859809D01*
X86637904Y-144097904D01*
X86590285Y-144193142D01*
X86542666Y-144240761D01*
X86447428Y-144288380D01*
X86161714Y-144288380D01*
X86066476Y-144240761D01*
X86018857Y-144193142D01*
X84733142Y-135398380D02*
X84399809Y-134922190D01*
X84161714Y-135398380D02*
X84161714Y-134398380D01*
X84542666Y-134398380D01*
X84637904Y-134446000D01*
X84685523Y-134493619D01*
X84733142Y-134588857D01*
X84733142Y-134731714D01*
X84685523Y-134826952D01*
X84637904Y-134874571D01*
X84542666Y-134922190D01*
X84161714Y-134922190D01*
X85685523Y-135398380D02*
X85114095Y-135398380D01*
X85399809Y-135398380D02*
X85399809Y-134398380D01*
X85304571Y-134541238D01*
X85209333Y-134636476D01*
X85114095Y-134684095D01*
X86066476Y-134493619D02*
X86114095Y-134446000D01*
X86209333Y-134398380D01*
X86447428Y-134398380D01*
X86542666Y-134446000D01*
X86590285Y-134493619D01*
X86637904Y-134588857D01*
X86637904Y-134684095D01*
X86590285Y-134826952D01*
X86018857Y-135398380D01*
X86637904Y-135398380D01*
X84733142Y-126762380D02*
X84399809Y-126286190D01*
X84161714Y-126762380D02*
X84161714Y-125762380D01*
X84542666Y-125762380D01*
X84637904Y-125810000D01*
X84685523Y-125857619D01*
X84733142Y-125952857D01*
X84733142Y-126095714D01*
X84685523Y-126190952D01*
X84637904Y-126238571D01*
X84542666Y-126286190D01*
X84161714Y-126286190D01*
X85685523Y-126762380D02*
X85114095Y-126762380D01*
X85399809Y-126762380D02*
X85399809Y-125762380D01*
X85304571Y-125905238D01*
X85209333Y-126000476D01*
X85114095Y-126048095D01*
X86637904Y-126762380D02*
X86066476Y-126762380D01*
X86352190Y-126762380D02*
X86352190Y-125762380D01*
X86256952Y-125905238D01*
X86161714Y-126000476D01*
X86066476Y-126048095D01*
X41997142Y-124222380D02*
X41663809Y-123746190D01*
X41425714Y-124222380D02*
X41425714Y-123222380D01*
X41806666Y-123222380D01*
X41901904Y-123270000D01*
X41949523Y-123317619D01*
X41997142Y-123412857D01*
X41997142Y-123555714D01*
X41949523Y-123650952D01*
X41901904Y-123698571D01*
X41806666Y-123746190D01*
X41425714Y-123746190D01*
X42949523Y-124222380D02*
X42378095Y-124222380D01*
X42663809Y-124222380D02*
X42663809Y-123222380D01*
X42568571Y-123365238D01*
X42473333Y-123460476D01*
X42378095Y-123508095D01*
X43568571Y-123222380D02*
X43663809Y-123222380D01*
X43759047Y-123270000D01*
X43806666Y-123317619D01*
X43854285Y-123412857D01*
X43901904Y-123603333D01*
X43901904Y-123841428D01*
X43854285Y-124031904D01*
X43806666Y-124127142D01*
X43759047Y-124174761D01*
X43663809Y-124222380D01*
X43568571Y-124222380D01*
X43473333Y-124174761D01*
X43425714Y-124127142D01*
X43378095Y-124031904D01*
X43330476Y-123841428D01*
X43330476Y-123603333D01*
X43378095Y-123412857D01*
X43425714Y-123317619D01*
X43473333Y-123270000D01*
X43568571Y-123222380D01*
X42473333Y-116602380D02*
X42140000Y-116126190D01*
X41901904Y-116602380D02*
X41901904Y-115602380D01*
X42282857Y-115602380D01*
X42378095Y-115650000D01*
X42425714Y-115697619D01*
X42473333Y-115792857D01*
X42473333Y-115935714D01*
X42425714Y-116030952D01*
X42378095Y-116078571D01*
X42282857Y-116126190D01*
X41901904Y-116126190D01*
X42949523Y-116602380D02*
X43140000Y-116602380D01*
X43235238Y-116554761D01*
X43282857Y-116507142D01*
X43378095Y-116364285D01*
X43425714Y-116173809D01*
X43425714Y-115792857D01*
X43378095Y-115697619D01*
X43330476Y-115650000D01*
X43235238Y-115602380D01*
X43044761Y-115602380D01*
X42949523Y-115650000D01*
X42901904Y-115697619D01*
X42854285Y-115792857D01*
X42854285Y-116030952D01*
X42901904Y-116126190D01*
X42949523Y-116173809D01*
X43044761Y-116221428D01*
X43235238Y-116221428D01*
X43330476Y-116173809D01*
X43378095Y-116126190D01*
X43425714Y-116030952D01*
X42473333Y-108982380D02*
X42140000Y-108506190D01*
X41901904Y-108982380D02*
X41901904Y-107982380D01*
X42282857Y-107982380D01*
X42378095Y-108030000D01*
X42425714Y-108077619D01*
X42473333Y-108172857D01*
X42473333Y-108315714D01*
X42425714Y-108410952D01*
X42378095Y-108458571D01*
X42282857Y-108506190D01*
X41901904Y-108506190D01*
X43044761Y-108410952D02*
X42949523Y-108363333D01*
X42901904Y-108315714D01*
X42854285Y-108220476D01*
X42854285Y-108172857D01*
X42901904Y-108077619D01*
X42949523Y-108030000D01*
X43044761Y-107982380D01*
X43235238Y-107982380D01*
X43330476Y-108030000D01*
X43378095Y-108077619D01*
X43425714Y-108172857D01*
X43425714Y-108220476D01*
X43378095Y-108315714D01*
X43330476Y-108363333D01*
X43235238Y-108410952D01*
X43044761Y-108410952D01*
X42949523Y-108458571D01*
X42901904Y-108506190D01*
X42854285Y-108601428D01*
X42854285Y-108791904D01*
X42901904Y-108887142D01*
X42949523Y-108934761D01*
X43044761Y-108982380D01*
X43235238Y-108982380D01*
X43330476Y-108934761D01*
X43378095Y-108887142D01*
X43425714Y-108791904D01*
X43425714Y-108601428D01*
X43378095Y-108506190D01*
X43330476Y-108458571D01*
X43235238Y-108410952D01*
X42473333Y-101362380D02*
X42140000Y-100886190D01*
X41901904Y-101362380D02*
X41901904Y-100362380D01*
X42282857Y-100362380D01*
X42378095Y-100410000D01*
X42425714Y-100457619D01*
X42473333Y-100552857D01*
X42473333Y-100695714D01*
X42425714Y-100790952D01*
X42378095Y-100838571D01*
X42282857Y-100886190D01*
X41901904Y-100886190D01*
X42806666Y-100362380D02*
X43473333Y-100362380D01*
X43044761Y-101362380D01*
X42473333Y-93742380D02*
X42140000Y-93266190D01*
X41901904Y-93742380D02*
X41901904Y-92742380D01*
X42282857Y-92742380D01*
X42378095Y-92790000D01*
X42425714Y-92837619D01*
X42473333Y-92932857D01*
X42473333Y-93075714D01*
X42425714Y-93170952D01*
X42378095Y-93218571D01*
X42282857Y-93266190D01*
X41901904Y-93266190D01*
X43330476Y-92742380D02*
X43140000Y-92742380D01*
X43044761Y-92790000D01*
X42997142Y-92837619D01*
X42901904Y-92980476D01*
X42854285Y-93170952D01*
X42854285Y-93551904D01*
X42901904Y-93647142D01*
X42949523Y-93694761D01*
X43044761Y-93742380D01*
X43235238Y-93742380D01*
X43330476Y-93694761D01*
X43378095Y-93647142D01*
X43425714Y-93551904D01*
X43425714Y-93313809D01*
X43378095Y-93218571D01*
X43330476Y-93170952D01*
X43235238Y-93123333D01*
X43044761Y-93123333D01*
X42949523Y-93170952D01*
X42901904Y-93218571D01*
X42854285Y-93313809D01*
X42473333Y-86122380D02*
X42140000Y-85646190D01*
X41901904Y-86122380D02*
X41901904Y-85122380D01*
X42282857Y-85122380D01*
X42378095Y-85170000D01*
X42425714Y-85217619D01*
X42473333Y-85312857D01*
X42473333Y-85455714D01*
X42425714Y-85550952D01*
X42378095Y-85598571D01*
X42282857Y-85646190D01*
X41901904Y-85646190D01*
X43378095Y-85122380D02*
X42901904Y-85122380D01*
X42854285Y-85598571D01*
X42901904Y-85550952D01*
X42997142Y-85503333D01*
X43235238Y-85503333D01*
X43330476Y-85550952D01*
X43378095Y-85598571D01*
X43425714Y-85693809D01*
X43425714Y-85931904D01*
X43378095Y-86027142D01*
X43330476Y-86074761D01*
X43235238Y-86122380D01*
X42997142Y-86122380D01*
X42901904Y-86074761D01*
X42854285Y-86027142D01*
X42473333Y-78502380D02*
X42140000Y-78026190D01*
X41901904Y-78502380D02*
X41901904Y-77502380D01*
X42282857Y-77502380D01*
X42378095Y-77550000D01*
X42425714Y-77597619D01*
X42473333Y-77692857D01*
X42473333Y-77835714D01*
X42425714Y-77930952D01*
X42378095Y-77978571D01*
X42282857Y-78026190D01*
X41901904Y-78026190D01*
X43330476Y-77835714D02*
X43330476Y-78502380D01*
X43092380Y-77454761D02*
X42854285Y-78169047D01*
X43473333Y-78169047D01*
X42473333Y-70882380D02*
X42140000Y-70406190D01*
X41901904Y-70882380D02*
X41901904Y-69882380D01*
X42282857Y-69882380D01*
X42378095Y-69930000D01*
X42425714Y-69977619D01*
X42473333Y-70072857D01*
X42473333Y-70215714D01*
X42425714Y-70310952D01*
X42378095Y-70358571D01*
X42282857Y-70406190D01*
X41901904Y-70406190D01*
X42806666Y-69882380D02*
X43425714Y-69882380D01*
X43092380Y-70263333D01*
X43235238Y-70263333D01*
X43330476Y-70310952D01*
X43378095Y-70358571D01*
X43425714Y-70453809D01*
X43425714Y-70691904D01*
X43378095Y-70787142D01*
X43330476Y-70834761D01*
X43235238Y-70882380D01*
X42949523Y-70882380D01*
X42854285Y-70834761D01*
X42806666Y-70787142D01*
X77613380Y-87193666D02*
X77137190Y-87527000D01*
X77613380Y-87765095D02*
X76613380Y-87765095D01*
X76613380Y-87384142D01*
X76661000Y-87288904D01*
X76708619Y-87241285D01*
X76803857Y-87193666D01*
X76946714Y-87193666D01*
X77041952Y-87241285D01*
X77089571Y-87288904D01*
X77137190Y-87384142D01*
X77137190Y-87765095D01*
X76708619Y-86812714D02*
X76661000Y-86765095D01*
X76613380Y-86669857D01*
X76613380Y-86431761D01*
X76661000Y-86336523D01*
X76708619Y-86288904D01*
X76803857Y-86241285D01*
X76899095Y-86241285D01*
X77041952Y-86288904D01*
X77613380Y-86860333D01*
X77613380Y-86241285D01*
X73676380Y-87193666D02*
X73200190Y-87527000D01*
X73676380Y-87765095D02*
X72676380Y-87765095D01*
X72676380Y-87384142D01*
X72724000Y-87288904D01*
X72771619Y-87241285D01*
X72866857Y-87193666D01*
X73009714Y-87193666D01*
X73104952Y-87241285D01*
X73152571Y-87288904D01*
X73200190Y-87384142D01*
X73200190Y-87765095D01*
X73676380Y-86241285D02*
X73676380Y-86812714D01*
X73676380Y-86527000D02*
X72676380Y-86527000D01*
X72819238Y-86622238D01*
X72914476Y-86717476D01*
X72962095Y-86812714D01*
D16*
X38692666Y-109286523D02*
X38692666Y-110193666D01*
X38632190Y-110375095D01*
X38511238Y-110496047D01*
X38329809Y-110556523D01*
X38208857Y-110556523D01*
X39478857Y-109830809D02*
X39357904Y-109770333D01*
X39297428Y-109709857D01*
X39236952Y-109588904D01*
X39236952Y-109528428D01*
X39297428Y-109407476D01*
X39357904Y-109347000D01*
X39478857Y-109286523D01*
X39720761Y-109286523D01*
X39841714Y-109347000D01*
X39902190Y-109407476D01*
X39962666Y-109528428D01*
X39962666Y-109588904D01*
X39902190Y-109709857D01*
X39841714Y-109770333D01*
X39720761Y-109830809D01*
X39478857Y-109830809D01*
X39357904Y-109891285D01*
X39297428Y-109951761D01*
X39236952Y-110072714D01*
X39236952Y-110314619D01*
X39297428Y-110435571D01*
X39357904Y-110496047D01*
X39478857Y-110556523D01*
X39720761Y-110556523D01*
X39841714Y-110496047D01*
X39902190Y-110435571D01*
X39962666Y-110314619D01*
X39962666Y-110072714D01*
X39902190Y-109951761D01*
X39841714Y-109891285D01*
X39720761Y-109830809D01*
X39454666Y-116906523D02*
X39454666Y-117813666D01*
X39394190Y-117995095D01*
X39273238Y-118116047D01*
X39091809Y-118176523D01*
X38970857Y-118176523D01*
X40119904Y-118176523D02*
X40361809Y-118176523D01*
X40482761Y-118116047D01*
X40543238Y-118055571D01*
X40664190Y-117874142D01*
X40724666Y-117632238D01*
X40724666Y-117148428D01*
X40664190Y-117027476D01*
X40603714Y-116967000D01*
X40482761Y-116906523D01*
X40240857Y-116906523D01*
X40119904Y-116967000D01*
X40059428Y-117027476D01*
X39998952Y-117148428D01*
X39998952Y-117450809D01*
X40059428Y-117571761D01*
X40119904Y-117632238D01*
X40240857Y-117692714D01*
X40482761Y-117692714D01*
X40603714Y-117632238D01*
X40664190Y-117571761D01*
X40724666Y-117450809D01*
X38692666Y-78806523D02*
X38692666Y-79713666D01*
X38632190Y-79895095D01*
X38511238Y-80016047D01*
X38329809Y-80076523D01*
X38208857Y-80076523D01*
X39841714Y-79229857D02*
X39841714Y-80076523D01*
X39539333Y-78746047D02*
X39236952Y-79653190D01*
X40023142Y-79653190D01*
X38692666Y-101666523D02*
X38692666Y-102573666D01*
X38632190Y-102755095D01*
X38511238Y-102876047D01*
X38329809Y-102936523D01*
X38208857Y-102936523D01*
X39176476Y-101666523D02*
X40023142Y-101666523D01*
X39478857Y-102936523D01*
D14*
X59579380Y-124435857D02*
X59103190Y-124769190D01*
X59579380Y-125007285D02*
X58579380Y-125007285D01*
X58579380Y-124626333D01*
X58627000Y-124531095D01*
X58674619Y-124483476D01*
X58769857Y-124435857D01*
X58912714Y-124435857D01*
X59007952Y-124483476D01*
X59055571Y-124531095D01*
X59103190Y-124626333D01*
X59103190Y-125007285D01*
X59579380Y-123483476D02*
X59579380Y-124054904D01*
X59579380Y-123769190D02*
X58579380Y-123769190D01*
X58722238Y-123864428D01*
X58817476Y-123959666D01*
X58865095Y-124054904D01*
X58912714Y-122626333D02*
X59579380Y-122626333D01*
X58531761Y-122864428D02*
X59246047Y-123102523D01*
X59246047Y-122483476D01*
X51617666Y-126579380D02*
X51617666Y-127293666D01*
X51570047Y-127436523D01*
X51474809Y-127531761D01*
X51331952Y-127579380D01*
X51236714Y-127579380D01*
X52093857Y-127579380D02*
X52093857Y-126579380D01*
X52474809Y-126579380D01*
X52570047Y-126627000D01*
X52617666Y-126674619D01*
X52665285Y-126769857D01*
X52665285Y-126912714D01*
X52617666Y-127007952D01*
X52570047Y-127055571D01*
X52474809Y-127103190D01*
X52093857Y-127103190D01*
X53617666Y-127579380D02*
X53046238Y-127579380D01*
X53331952Y-127579380D02*
X53331952Y-126579380D01*
X53236714Y-126722238D01*
X53141476Y-126817476D01*
X53046238Y-126865095D01*
X77724095Y-96099380D02*
X77724095Y-96908904D01*
X77771714Y-97004142D01*
X77819333Y-97051761D01*
X77914571Y-97099380D01*
X78105047Y-97099380D01*
X78200285Y-97051761D01*
X78247904Y-97004142D01*
X78295523Y-96908904D01*
X78295523Y-96099380D01*
X79200285Y-96432714D02*
X79200285Y-97099380D01*
X78962190Y-96051761D02*
X78724095Y-96766047D01*
X79343142Y-96766047D01*
X48430380Y-134365904D02*
X49239904Y-134365904D01*
X49335142Y-134318285D01*
X49382761Y-134270666D01*
X49430380Y-134175428D01*
X49430380Y-133984952D01*
X49382761Y-133889714D01*
X49335142Y-133842095D01*
X49239904Y-133794476D01*
X48430380Y-133794476D01*
X48430380Y-133413523D02*
X48430380Y-132794476D01*
X48811333Y-133127809D01*
X48811333Y-132984952D01*
X48858952Y-132889714D01*
X48906571Y-132842095D01*
X49001809Y-132794476D01*
X49239904Y-132794476D01*
X49335142Y-132842095D01*
X49382761Y-132889714D01*
X49430380Y-132984952D01*
X49430380Y-133270666D01*
X49382761Y-133365904D01*
X49335142Y-133413523D01*
X44958095Y-70572380D02*
X44958095Y-71381904D01*
X45005714Y-71477142D01*
X45053333Y-71524761D01*
X45148571Y-71572380D01*
X45339047Y-71572380D01*
X45434285Y-71524761D01*
X45481904Y-71477142D01*
X45529523Y-71381904D01*
X45529523Y-70572380D01*
X45958095Y-70667619D02*
X46005714Y-70620000D01*
X46100952Y-70572380D01*
X46339047Y-70572380D01*
X46434285Y-70620000D01*
X46481904Y-70667619D01*
X46529523Y-70762857D01*
X46529523Y-70858095D01*
X46481904Y-71000952D01*
X45910476Y-71572380D01*
X46529523Y-71572380D01*
X71990380Y-63856904D02*
X72799904Y-63856904D01*
X72895142Y-63809285D01*
X72942761Y-63761666D01*
X72990380Y-63666428D01*
X72990380Y-63475952D01*
X72942761Y-63380714D01*
X72895142Y-63333095D01*
X72799904Y-63285476D01*
X71990380Y-63285476D01*
X71990380Y-62380714D02*
X71990380Y-62571190D01*
X72038000Y-62666428D01*
X72085619Y-62714047D01*
X72228476Y-62809285D01*
X72418952Y-62856904D01*
X72799904Y-62856904D01*
X72895142Y-62809285D01*
X72942761Y-62761666D01*
X72990380Y-62666428D01*
X72990380Y-62475952D01*
X72942761Y-62380714D01*
X72895142Y-62333095D01*
X72799904Y-62285476D01*
X72561809Y-62285476D01*
X72466571Y-62333095D01*
X72418952Y-62380714D01*
X72371333Y-62475952D01*
X72371333Y-62666428D01*
X72418952Y-62761666D01*
X72466571Y-62809285D01*
X72561809Y-62856904D01*
X54356095Y-96182380D02*
X54356095Y-96991904D01*
X54403714Y-97087142D01*
X54451333Y-97134761D01*
X54546571Y-97182380D01*
X54737047Y-97182380D01*
X54832285Y-97134761D01*
X54879904Y-97087142D01*
X54927523Y-96991904D01*
X54927523Y-96182380D01*
X55879904Y-96182380D02*
X55403714Y-96182380D01*
X55356095Y-96658571D01*
X55403714Y-96610952D01*
X55498952Y-96563333D01*
X55737047Y-96563333D01*
X55832285Y-96610952D01*
X55879904Y-96658571D01*
X55927523Y-96753809D01*
X55927523Y-96991904D01*
X55879904Y-97087142D01*
X55832285Y-97134761D01*
X55737047Y-97182380D01*
X55498952Y-97182380D01*
X55403714Y-97134761D01*
X55356095Y-97087142D01*
X99432761Y-104405333D02*
X99480380Y-104262476D01*
X99480380Y-104024380D01*
X99432761Y-103929142D01*
X99385142Y-103881523D01*
X99289904Y-103833904D01*
X99194666Y-103833904D01*
X99099428Y-103881523D01*
X99051809Y-103929142D01*
X99004190Y-104024380D01*
X98956571Y-104214857D01*
X98908952Y-104310095D01*
X98861333Y-104357714D01*
X98766095Y-104405333D01*
X98670857Y-104405333D01*
X98575619Y-104357714D01*
X98528000Y-104310095D01*
X98480380Y-104214857D01*
X98480380Y-103976761D01*
X98528000Y-103833904D01*
X98480380Y-103500571D02*
X99480380Y-103262476D01*
X98766095Y-103072000D01*
X99480380Y-102881523D01*
X98480380Y-102643428D01*
X98480380Y-102357714D02*
X98480380Y-101738666D01*
X98861333Y-102072000D01*
X98861333Y-101929142D01*
X98908952Y-101833904D01*
X98956571Y-101786285D01*
X99051809Y-101738666D01*
X99289904Y-101738666D01*
X99385142Y-101786285D01*
X99432761Y-101833904D01*
X99480380Y-101929142D01*
X99480380Y-102214857D01*
X99432761Y-102310095D01*
X99385142Y-102357714D01*
X99432761Y-116089333D02*
X99480380Y-115946476D01*
X99480380Y-115708380D01*
X99432761Y-115613142D01*
X99385142Y-115565523D01*
X99289904Y-115517904D01*
X99194666Y-115517904D01*
X99099428Y-115565523D01*
X99051809Y-115613142D01*
X99004190Y-115708380D01*
X98956571Y-115898857D01*
X98908952Y-115994095D01*
X98861333Y-116041714D01*
X98766095Y-116089333D01*
X98670857Y-116089333D01*
X98575619Y-116041714D01*
X98528000Y-115994095D01*
X98480380Y-115898857D01*
X98480380Y-115660761D01*
X98528000Y-115517904D01*
X98480380Y-115184571D02*
X99480380Y-114946476D01*
X98766095Y-114756000D01*
X99480380Y-114565523D01*
X98480380Y-114327428D01*
X98575619Y-113994095D02*
X98528000Y-113946476D01*
X98480380Y-113851238D01*
X98480380Y-113613142D01*
X98528000Y-113517904D01*
X98575619Y-113470285D01*
X98670857Y-113422666D01*
X98766095Y-113422666D01*
X98908952Y-113470285D01*
X99480380Y-114041714D01*
X99480380Y-113422666D01*
X47704476Y-94238380D02*
X47704476Y-94952666D01*
X47656857Y-95095523D01*
X47561619Y-95190761D01*
X47418761Y-95238380D01*
X47323523Y-95238380D01*
X48704476Y-95238380D02*
X48133047Y-95238380D01*
X48418761Y-95238380D02*
X48418761Y-94238380D01*
X48323523Y-94381238D01*
X48228285Y-94476476D01*
X48133047Y-94524095D01*
X49561619Y-94571714D02*
X49561619Y-95238380D01*
X49323523Y-94190761D02*
X49085428Y-94905047D01*
X49704476Y-94905047D01*
X68786476Y-61130380D02*
X68786476Y-61844666D01*
X68738857Y-61987523D01*
X68643619Y-62082761D01*
X68500761Y-62130380D01*
X68405523Y-62130380D01*
X69786476Y-62130380D02*
X69215047Y-62130380D01*
X69500761Y-62130380D02*
X69500761Y-61130380D01*
X69405523Y-61273238D01*
X69310285Y-61368476D01*
X69215047Y-61416095D01*
X70119809Y-61130380D02*
X70738857Y-61130380D01*
X70405523Y-61511333D01*
X70548380Y-61511333D01*
X70643619Y-61558952D01*
X70691238Y-61606571D01*
X70738857Y-61701809D01*
X70738857Y-61939904D01*
X70691238Y-62035142D01*
X70643619Y-62082761D01*
X70548380Y-62130380D01*
X70262666Y-62130380D01*
X70167428Y-62082761D01*
X70119809Y-62035142D01*
X49482476Y-75608380D02*
X49482476Y-76322666D01*
X49434857Y-76465523D01*
X49339619Y-76560761D01*
X49196761Y-76608380D01*
X49101523Y-76608380D01*
X50482476Y-76608380D02*
X49911047Y-76608380D01*
X50196761Y-76608380D02*
X50196761Y-75608380D01*
X50101523Y-75751238D01*
X50006285Y-75846476D01*
X49911047Y-75894095D01*
X50863428Y-75703619D02*
X50911047Y-75656000D01*
X51006285Y-75608380D01*
X51244380Y-75608380D01*
X51339619Y-75656000D01*
X51387238Y-75703619D01*
X51434857Y-75798857D01*
X51434857Y-75894095D01*
X51387238Y-76036952D01*
X50815809Y-76608380D01*
X51434857Y-76608380D01*
X41162571Y-54935333D02*
X41162571Y-55268666D01*
X41686380Y-55268666D02*
X40686380Y-55268666D01*
X40686380Y-54792476D01*
X41686380Y-53887714D02*
X41686380Y-54459142D01*
X41686380Y-54173428D02*
X40686380Y-54173428D01*
X40829238Y-54268666D01*
X40924476Y-54363904D01*
X40972095Y-54459142D01*
X92733904Y-138428380D02*
X92733904Y-137428380D01*
X92972000Y-137428380D01*
X93114857Y-137476000D01*
X93210095Y-137571238D01*
X93257714Y-137666476D01*
X93305333Y-137856952D01*
X93305333Y-137999809D01*
X93257714Y-138190285D01*
X93210095Y-138285523D01*
X93114857Y-138380761D01*
X92972000Y-138428380D01*
X92733904Y-138428380D01*
X94162476Y-137761714D02*
X94162476Y-138428380D01*
X93924380Y-137380761D02*
X93686285Y-138095047D01*
X94305333Y-138095047D01*
X92733904Y-129538380D02*
X92733904Y-128538380D01*
X92972000Y-128538380D01*
X93114857Y-128586000D01*
X93210095Y-128681238D01*
X93257714Y-128776476D01*
X93305333Y-128966952D01*
X93305333Y-129109809D01*
X93257714Y-129300285D01*
X93210095Y-129395523D01*
X93114857Y-129490761D01*
X92972000Y-129538380D01*
X92733904Y-129538380D01*
X93638666Y-128538380D02*
X94257714Y-128538380D01*
X93924380Y-128919333D01*
X94067238Y-128919333D01*
X94162476Y-128966952D01*
X94210095Y-129014571D01*
X94257714Y-129109809D01*
X94257714Y-129347904D01*
X94210095Y-129443142D01*
X94162476Y-129490761D01*
X94067238Y-129538380D01*
X93781523Y-129538380D01*
X93686285Y-129490761D01*
X93638666Y-129443142D01*
X92733904Y-120902380D02*
X92733904Y-119902380D01*
X92972000Y-119902380D01*
X93114857Y-119950000D01*
X93210095Y-120045238D01*
X93257714Y-120140476D01*
X93305333Y-120330952D01*
X93305333Y-120473809D01*
X93257714Y-120664285D01*
X93210095Y-120759523D01*
X93114857Y-120854761D01*
X92972000Y-120902380D01*
X92733904Y-120902380D01*
X93686285Y-119997619D02*
X93733904Y-119950000D01*
X93829142Y-119902380D01*
X94067238Y-119902380D01*
X94162476Y-119950000D01*
X94210095Y-119997619D01*
X94257714Y-120092857D01*
X94257714Y-120188095D01*
X94210095Y-120330952D01*
X93638666Y-120902380D01*
X94257714Y-120902380D01*
X64647142Y-56586666D02*
X64694761Y-56634285D01*
X64742380Y-56777142D01*
X64742380Y-56872380D01*
X64694761Y-57015238D01*
X64599523Y-57110476D01*
X64504285Y-57158095D01*
X64313809Y-57205714D01*
X64170952Y-57205714D01*
X63980476Y-57158095D01*
X63885238Y-57110476D01*
X63790000Y-57015238D01*
X63742380Y-56872380D01*
X63742380Y-56777142D01*
X63790000Y-56634285D01*
X63837619Y-56586666D01*
X63742380Y-56253333D02*
X63742380Y-55634285D01*
X64123333Y-55967619D01*
X64123333Y-55824761D01*
X64170952Y-55729523D01*
X64218571Y-55681904D01*
X64313809Y-55634285D01*
X64551904Y-55634285D01*
X64647142Y-55681904D01*
X64694761Y-55729523D01*
X64742380Y-55824761D01*
X64742380Y-56110476D01*
X64694761Y-56205714D01*
X64647142Y-56253333D01*
X47629142Y-54808666D02*
X47676761Y-54856285D01*
X47724380Y-54999142D01*
X47724380Y-55094380D01*
X47676761Y-55237238D01*
X47581523Y-55332476D01*
X47486285Y-55380095D01*
X47295809Y-55427714D01*
X47152952Y-55427714D01*
X46962476Y-55380095D01*
X46867238Y-55332476D01*
X46772000Y-55237238D01*
X46724380Y-55094380D01*
X46724380Y-54999142D01*
X46772000Y-54856285D01*
X46819619Y-54808666D01*
X46819619Y-54427714D02*
X46772000Y-54380095D01*
X46724380Y-54284857D01*
X46724380Y-54046761D01*
X46772000Y-53951523D01*
X46819619Y-53903904D01*
X46914857Y-53856285D01*
X47010095Y-53856285D01*
X47152952Y-53903904D01*
X47724380Y-54475333D01*
X47724380Y-53856285D01*
X52963142Y-54744666D02*
X53010761Y-54792285D01*
X53058380Y-54935142D01*
X53058380Y-55030380D01*
X53010761Y-55173238D01*
X52915523Y-55268476D01*
X52820285Y-55316095D01*
X52629809Y-55363714D01*
X52486952Y-55363714D01*
X52296476Y-55316095D01*
X52201238Y-55268476D01*
X52106000Y-55173238D01*
X52058380Y-55030380D01*
X52058380Y-54935142D01*
X52106000Y-54792285D01*
X52153619Y-54744666D01*
X53058380Y-53792285D02*
X53058380Y-54363714D01*
X53058380Y-54078000D02*
X52058380Y-54078000D01*
X52201238Y-54173238D01*
X52296476Y-54268476D01*
X52344095Y-54363714D01*
X37006380Y-55324095D02*
X36006380Y-55324095D01*
X36006380Y-55086000D01*
X36054000Y-54943142D01*
X36149238Y-54847904D01*
X36244476Y-54800285D01*
X36434952Y-54752666D01*
X36577809Y-54752666D01*
X36768285Y-54800285D01*
X36863523Y-54847904D01*
X36958761Y-54943142D01*
X37006380Y-55086000D01*
X37006380Y-55324095D01*
X37006380Y-53800285D02*
X37006380Y-54371714D01*
X37006380Y-54086000D02*
X36006380Y-54086000D01*
X36149238Y-54181238D01*
X36244476Y-54276476D01*
X36292095Y-54371714D01*
X30772380Y-56149095D02*
X29772380Y-56149095D01*
X29772380Y-55911000D01*
X29820000Y-55768142D01*
X29915238Y-55672904D01*
X30010476Y-55625285D01*
X30200952Y-55577666D01*
X30343809Y-55577666D01*
X30534285Y-55625285D01*
X30629523Y-55672904D01*
X30724761Y-55768142D01*
X30772380Y-55911000D01*
X30772380Y-56149095D01*
X29772380Y-54672904D02*
X29772380Y-55149095D01*
X30248571Y-55196714D01*
X30200952Y-55149095D01*
X30153333Y-55053857D01*
X30153333Y-54815761D01*
X30200952Y-54720523D01*
X30248571Y-54672904D01*
X30343809Y-54625285D01*
X30581904Y-54625285D01*
X30677142Y-54672904D01*
X30724761Y-54720523D01*
X30772380Y-54815761D01*
X30772380Y-55053857D01*
X30724761Y-55149095D01*
X30677142Y-55196714D01*
X66429047Y-134802571D02*
X66571904Y-134850190D01*
X66619523Y-134897809D01*
X66667142Y-134993047D01*
X66667142Y-135135904D01*
X66619523Y-135231142D01*
X66571904Y-135278761D01*
X66476666Y-135326380D01*
X66095714Y-135326380D01*
X66095714Y-134326380D01*
X66429047Y-134326380D01*
X66524285Y-134374000D01*
X66571904Y-134421619D01*
X66619523Y-134516857D01*
X66619523Y-134612095D01*
X66571904Y-134707333D01*
X66524285Y-134754952D01*
X66429047Y-134802571D01*
X66095714Y-134802571D01*
X67000476Y-134326380D02*
X67667142Y-134326380D01*
X67000476Y-135326380D01*
X67667142Y-135326380D01*
X68571904Y-135326380D02*
X68000476Y-135326380D01*
X68286190Y-135326380D02*
X68286190Y-134326380D01*
X68190952Y-134469238D01*
X68095714Y-134564476D01*
X68000476Y-134612095D01*
X64841428Y-131708952D02*
X64841428Y-130947047D01*
X65222380Y-131328000D02*
X64460476Y-131328000D01*
X77843333Y-44695142D02*
X77795714Y-44742761D01*
X77652857Y-44790380D01*
X77557619Y-44790380D01*
X77414761Y-44742761D01*
X77319523Y-44647523D01*
X77271904Y-44552285D01*
X77224285Y-44361809D01*
X77224285Y-44218952D01*
X77271904Y-44028476D01*
X77319523Y-43933238D01*
X77414761Y-43838000D01*
X77557619Y-43790380D01*
X77652857Y-43790380D01*
X77795714Y-43838000D01*
X77843333Y-43885619D01*
X78700476Y-44123714D02*
X78700476Y-44790380D01*
X78462380Y-43742761D02*
X78224285Y-44457047D01*
X78843333Y-44457047D01*
X81909047Y-45929428D02*
X82670952Y-45929428D01*
X82290000Y-46310380D02*
X82290000Y-45548476D01*
X62063333Y-98020142D02*
X62015714Y-98067761D01*
X61872857Y-98115380D01*
X61777619Y-98115380D01*
X61634761Y-98067761D01*
X61539523Y-97972523D01*
X61491904Y-97877285D01*
X61444285Y-97686809D01*
X61444285Y-97543952D01*
X61491904Y-97353476D01*
X61539523Y-97258238D01*
X61634761Y-97163000D01*
X61777619Y-97115380D01*
X61872857Y-97115380D01*
X62015714Y-97163000D01*
X62063333Y-97210619D01*
X62920476Y-97115380D02*
X62730000Y-97115380D01*
X62634761Y-97163000D01*
X62587142Y-97210619D01*
X62491904Y-97353476D01*
X62444285Y-97543952D01*
X62444285Y-97924904D01*
X62491904Y-98020142D01*
X62539523Y-98067761D01*
X62634761Y-98115380D01*
X62825238Y-98115380D01*
X62920476Y-98067761D01*
X62968095Y-98020142D01*
X63015714Y-97924904D01*
X63015714Y-97686809D01*
X62968095Y-97591571D01*
X62920476Y-97543952D01*
X62825238Y-97496333D01*
X62634761Y-97496333D01*
X62539523Y-97543952D01*
X62491904Y-97591571D01*
X62444285Y-97686809D01*
X77557333Y-92686142D02*
X77509714Y-92733761D01*
X77366857Y-92781380D01*
X77271619Y-92781380D01*
X77128761Y-92733761D01*
X77033523Y-92638523D01*
X76985904Y-92543285D01*
X76938285Y-92352809D01*
X76938285Y-92209952D01*
X76985904Y-92019476D01*
X77033523Y-91924238D01*
X77128761Y-91829000D01*
X77271619Y-91781380D01*
X77366857Y-91781380D01*
X77509714Y-91829000D01*
X77557333Y-91876619D01*
X77890666Y-91781380D02*
X78557333Y-91781380D01*
X78128761Y-92781380D01*
X54983333Y-142315142D02*
X54935714Y-142362761D01*
X54792857Y-142410380D01*
X54697619Y-142410380D01*
X54554761Y-142362761D01*
X54459523Y-142267523D01*
X54411904Y-142172285D01*
X54364285Y-141981809D01*
X54364285Y-141838952D01*
X54411904Y-141648476D01*
X54459523Y-141553238D01*
X54554761Y-141458000D01*
X54697619Y-141410380D01*
X54792857Y-141410380D01*
X54935714Y-141458000D01*
X54983333Y-141505619D01*
X55554761Y-141838952D02*
X55459523Y-141791333D01*
X55411904Y-141743714D01*
X55364285Y-141648476D01*
X55364285Y-141600857D01*
X55411904Y-141505619D01*
X55459523Y-141458000D01*
X55554761Y-141410380D01*
X55745238Y-141410380D01*
X55840476Y-141458000D01*
X55888095Y-141505619D01*
X55935714Y-141600857D01*
X55935714Y-141648476D01*
X55888095Y-141743714D01*
X55840476Y-141791333D01*
X55745238Y-141838952D01*
X55554761Y-141838952D01*
X55459523Y-141886571D01*
X55411904Y-141934190D01*
X55364285Y-142029428D01*
X55364285Y-142219904D01*
X55411904Y-142315142D01*
X55459523Y-142362761D01*
X55554761Y-142410380D01*
X55745238Y-142410380D01*
X55840476Y-142362761D01*
X55888095Y-142315142D01*
X55935714Y-142219904D01*
X55935714Y-142029428D01*
X55888095Y-141934190D01*
X55840476Y-141886571D01*
X55745238Y-141838952D01*
X53141333Y-75767142D02*
X53093714Y-75814761D01*
X52950857Y-75862380D01*
X52855619Y-75862380D01*
X52712761Y-75814761D01*
X52617523Y-75719523D01*
X52569904Y-75624285D01*
X52522285Y-75433809D01*
X52522285Y-75290952D01*
X52569904Y-75100476D01*
X52617523Y-75005238D01*
X52712761Y-74910000D01*
X52855619Y-74862380D01*
X52950857Y-74862380D01*
X53093714Y-74910000D01*
X53141333Y-74957619D01*
X53617523Y-75862380D02*
X53808000Y-75862380D01*
X53903238Y-75814761D01*
X53950857Y-75767142D01*
X54046095Y-75624285D01*
X54093714Y-75433809D01*
X54093714Y-75052857D01*
X54046095Y-74957619D01*
X53998476Y-74910000D01*
X53903238Y-74862380D01*
X53712761Y-74862380D01*
X53617523Y-74910000D01*
X53569904Y-74957619D01*
X53522285Y-75052857D01*
X53522285Y-75290952D01*
X53569904Y-75386190D01*
X53617523Y-75433809D01*
X53712761Y-75481428D01*
X53903238Y-75481428D01*
X53998476Y-75433809D01*
X54046095Y-75386190D01*
X54093714Y-75290952D01*
X65309761Y-115224619D02*
X65214523Y-115177000D01*
X65119285Y-115081761D01*
X64976428Y-114938904D01*
X64881190Y-114891285D01*
X64785952Y-114891285D01*
X64833571Y-115129380D02*
X64738333Y-115081761D01*
X64643095Y-114986523D01*
X64595476Y-114796047D01*
X64595476Y-114462714D01*
X64643095Y-114272238D01*
X64738333Y-114177000D01*
X64833571Y-114129380D01*
X65024047Y-114129380D01*
X65119285Y-114177000D01*
X65214523Y-114272238D01*
X65262142Y-114462714D01*
X65262142Y-114796047D01*
X65214523Y-114986523D01*
X65119285Y-115081761D01*
X65024047Y-115129380D01*
X64833571Y-115129380D01*
X66214523Y-115129380D02*
X65643095Y-115129380D01*
X65928809Y-115129380D02*
X65928809Y-114129380D01*
X65833571Y-114272238D01*
X65738333Y-114367476D01*
X65643095Y-114415095D01*
X78129142Y-128794380D02*
X77795809Y-128318190D01*
X77557714Y-128794380D02*
X77557714Y-127794380D01*
X77938666Y-127794380D01*
X78033904Y-127842000D01*
X78081523Y-127889619D01*
X78129142Y-127984857D01*
X78129142Y-128127714D01*
X78081523Y-128222952D01*
X78033904Y-128270571D01*
X77938666Y-128318190D01*
X77557714Y-128318190D01*
X79081523Y-128794380D02*
X78510095Y-128794380D01*
X78795809Y-128794380D02*
X78795809Y-127794380D01*
X78700571Y-127937238D01*
X78605333Y-128032476D01*
X78510095Y-128080095D01*
X79986285Y-127794380D02*
X79510095Y-127794380D01*
X79462476Y-128270571D01*
X79510095Y-128222952D01*
X79605333Y-128175333D01*
X79843428Y-128175333D01*
X79938666Y-128222952D01*
X79986285Y-128270571D01*
X80033904Y-128365809D01*
X80033904Y-128603904D01*
X79986285Y-128699142D01*
X79938666Y-128746761D01*
X79843428Y-128794380D01*
X79605333Y-128794380D01*
X79510095Y-128746761D01*
X79462476Y-128699142D01*
X78129142Y-133040380D02*
X77795809Y-132564190D01*
X77557714Y-133040380D02*
X77557714Y-132040380D01*
X77938666Y-132040380D01*
X78033904Y-132088000D01*
X78081523Y-132135619D01*
X78129142Y-132230857D01*
X78129142Y-132373714D01*
X78081523Y-132468952D01*
X78033904Y-132516571D01*
X77938666Y-132564190D01*
X77557714Y-132564190D01*
X79081523Y-133040380D02*
X78510095Y-133040380D01*
X78795809Y-133040380D02*
X78795809Y-132040380D01*
X78700571Y-132183238D01*
X78605333Y-132278476D01*
X78510095Y-132326095D01*
X79938666Y-132040380D02*
X79748190Y-132040380D01*
X79652952Y-132088000D01*
X79605333Y-132135619D01*
X79510095Y-132278476D01*
X79462476Y-132468952D01*
X79462476Y-132849904D01*
X79510095Y-132945142D01*
X79557714Y-132992761D01*
X79652952Y-133040380D01*
X79843428Y-133040380D01*
X79938666Y-132992761D01*
X79986285Y-132945142D01*
X80033904Y-132849904D01*
X80033904Y-132611809D01*
X79986285Y-132516571D01*
X79938666Y-132468952D01*
X79843428Y-132421333D01*
X79652952Y-132421333D01*
X79557714Y-132468952D01*
X79510095Y-132516571D01*
X79462476Y-132611809D01*
X78129142Y-121030380D02*
X77795809Y-120554190D01*
X77557714Y-121030380D02*
X77557714Y-120030380D01*
X77938666Y-120030380D01*
X78033904Y-120078000D01*
X78081523Y-120125619D01*
X78129142Y-120220857D01*
X78129142Y-120363714D01*
X78081523Y-120458952D01*
X78033904Y-120506571D01*
X77938666Y-120554190D01*
X77557714Y-120554190D01*
X79081523Y-121030380D02*
X78510095Y-121030380D01*
X78795809Y-121030380D02*
X78795809Y-120030380D01*
X78700571Y-120173238D01*
X78605333Y-120268476D01*
X78510095Y-120316095D01*
X79414857Y-120030380D02*
X80081523Y-120030380D01*
X79652952Y-121030380D01*
X78097142Y-138120380D02*
X77763809Y-137644190D01*
X77525714Y-138120380D02*
X77525714Y-137120380D01*
X77906666Y-137120380D01*
X78001904Y-137168000D01*
X78049523Y-137215619D01*
X78097142Y-137310857D01*
X78097142Y-137453714D01*
X78049523Y-137548952D01*
X78001904Y-137596571D01*
X77906666Y-137644190D01*
X77525714Y-137644190D01*
X79049523Y-138120380D02*
X78478095Y-138120380D01*
X78763809Y-138120380D02*
X78763809Y-137120380D01*
X78668571Y-137263238D01*
X78573333Y-137358476D01*
X78478095Y-137406095D01*
X79620952Y-137548952D02*
X79525714Y-137501333D01*
X79478095Y-137453714D01*
X79430476Y-137358476D01*
X79430476Y-137310857D01*
X79478095Y-137215619D01*
X79525714Y-137168000D01*
X79620952Y-137120380D01*
X79811428Y-137120380D01*
X79906666Y-137168000D01*
X79954285Y-137215619D01*
X80001904Y-137310857D01*
X80001904Y-137358476D01*
X79954285Y-137453714D01*
X79906666Y-137501333D01*
X79811428Y-137548952D01*
X79620952Y-137548952D01*
X79525714Y-137596571D01*
X79478095Y-137644190D01*
X79430476Y-137739428D01*
X79430476Y-137929904D01*
X79478095Y-138025142D01*
X79525714Y-138072761D01*
X79620952Y-138120380D01*
X79811428Y-138120380D01*
X79906666Y-138072761D01*
X79954285Y-138025142D01*
X80001904Y-137929904D01*
X80001904Y-137739428D01*
X79954285Y-137644190D01*
X79906666Y-137596571D01*
X79811428Y-137548952D01*
X71461142Y-118744380D02*
X71127809Y-118268190D01*
X70889714Y-118744380D02*
X70889714Y-117744380D01*
X71270666Y-117744380D01*
X71365904Y-117792000D01*
X71413523Y-117839619D01*
X71461142Y-117934857D01*
X71461142Y-118077714D01*
X71413523Y-118172952D01*
X71365904Y-118220571D01*
X71270666Y-118268190D01*
X70889714Y-118268190D01*
X72413523Y-118744380D02*
X71842095Y-118744380D01*
X72127809Y-118744380D02*
X72127809Y-117744380D01*
X72032571Y-117887238D01*
X71937333Y-117982476D01*
X71842095Y-118030095D01*
X72889714Y-118744380D02*
X73080190Y-118744380D01*
X73175428Y-118696761D01*
X73223047Y-118649142D01*
X73318285Y-118506285D01*
X73365904Y-118315809D01*
X73365904Y-117934857D01*
X73318285Y-117839619D01*
X73270666Y-117792000D01*
X73175428Y-117744380D01*
X72984952Y-117744380D01*
X72889714Y-117792000D01*
X72842095Y-117839619D01*
X72794476Y-117934857D01*
X72794476Y-118172952D01*
X72842095Y-118268190D01*
X72889714Y-118315809D01*
X72984952Y-118363428D01*
X73175428Y-118363428D01*
X73270666Y-118315809D01*
X73318285Y-118268190D01*
X73365904Y-118172952D01*
M02*
